<svg width="12" height="11" viewBox="0 0 12 11" fill="none" xmlns="http://www.w3.org/2000/svg">
<g id="Group 3048">
<path id="Vector 10297" d="M2.16992 2.31323C3.54703 2.45268 4.58407 4.20972 5.68042 4.93991C6.1863 5.27683 6.66452 5.60328 7.14313 5.96139C8.04865 6.63893 9.16669 7.16803 9.97103 7.94182" stroke="#707070" stroke-linecap="round"/>
<path id="Vector 10298" d="M10.7514 2.68848C9.35609 3.3243 7.7899 3.90787 6.65581 4.93991C6.07392 5.46944 5.2991 6.0294 4.55384 6.29494C3.39184 6.70896 2.29637 7.75421 1 7.75421" stroke="#707070" stroke-linecap="round"/>
<path id="Vector 10299" d="M6.46106 1C6.46106 2.21605 6.46106 3.43211 6.46106 4.64816C6.46106 5.18726 6.071 5.57805 6.071 6.06573C6.071 6.8594 5.87598 7.66967 5.87598 8.49436C5.87598 9.07786 6.26603 9.61115 6.26603 10.1934" stroke="#707070" stroke-linecap="round"/>
</g>
</svg>
