<svg width="16" height="16" viewBox="0 0 16 16" fill="none" xmlns="http://www.w3.org/2000/svg">
<g id="Group 3048">
<path id="Vector 10297" d="M2.61548 2.88456C4.51669 3.08469 5.94841 5.60621 7.46202 6.65409C8.16043 7.13761 8.82065 7.6061 9.48141 8.12002C10.7316 9.09236 12.2751 9.85167 13.3856 10.9621" stroke="#1A1A1A" stroke-width="2" stroke-linecap="round"/>
<path id="Vector 10298" d="M14.4626 3.42314C12.5363 4.33561 10.374 5.17309 8.80831 6.65417C8.00497 7.41409 6.93527 8.21769 5.90637 8.59877C4.30214 9.19293 2.78975 10.693 1 10.693" stroke="#1A1A1A" stroke-width="2" stroke-linecap="round"/>
<path id="Vector 10299" d="M8.53908 1C8.53908 2.74515 8.53908 4.49031 8.53908 6.23546C8.53908 7.00913 8.00058 7.56994 8.00058 8.26981C8.00058 9.4088 7.73132 10.5716 7.73132 11.7551C7.73132 12.5925 8.26983 13.3578 8.26983 14.1934" stroke="#1A1A1A" stroke-width="2" stroke-linecap="round"/>
</g>
</svg>
