<svg width="143" height="96" viewBox="0 0 143 96" fill="none" xmlns="http://www.w3.org/2000/svg">
<path opacity="0.999" d="M35.8436 78.2127C34.6651 78.2171 33.3576 78.4244 32.6628 78.7738C31.7636 79.2261 31.1058 80.1671 30.9868 81.1718L30.9181 81.7522H32.0373C33.1564 81.7522 33.1564 81.7522 33.2234 81.3391C33.3832 80.3547 34.2748 79.7478 35.5487 79.7565C36.7481 79.7647 37.4719 80.1068 37.854 80.8458C37.9479 81.0273 38.0557 81.6153 38.0936 82.1524L38.1625 83.1289L36.4693 83.1298C33.1483 83.1311 31.4925 83.8601 30.5745 85.725C30.2392 86.406 30.1898 86.623 30.1954 87.3961C30.2026 88.383 30.3858 88.9239 30.956 89.6439C31.8783 90.8083 34.2219 91.3073 36.0586 90.73C36.4806 90.5974 36.8321 90.3514 37.3711 89.8124L38.1074 89.0764L38.1844 89.6218C38.3254 90.6223 38.2733 90.5793 39.3445 90.5792H40.3074L40.298 85.6656C40.2878 80.3195 40.2921 80.3563 39.6038 79.54C39.2297 79.0964 38.3424 78.6119 37.4828 78.3819C37.1629 78.2963 36.7679 78.2447 36.3388 78.2238V78.2235C36.1778 78.2157 36.012 78.2121 35.8436 78.2127ZM36.5413 84.7533H38.0713L38.0349 85.6948C37.9687 87.411 37.4591 88.3534 36.3068 88.89C35.5578 89.2387 34.407 89.2628 33.7167 88.9442C32.2304 88.2582 32.027 86.466 33.3241 85.4836C34.0456 84.9371 34.8555 84.7533 36.5413 84.7533Z" fill="white"/>
<path opacity="0.999" d="M68.8998 78.2291C68.6967 78.2276 68.4909 78.2314 68.2868 78.2401C67.4704 78.2749 66.6822 78.3893 66.2116 78.5711C64.9752 79.0486 64.1963 79.9883 64.0561 81.1718L63.9874 81.7522H65.1117C66.2358 81.7522 66.2358 81.7521 66.3166 81.2736C66.4205 80.6589 67.0218 80.0436 67.6972 79.8609C68.4941 79.6453 69.7 79.7801 70.2544 80.1471C70.8895 80.5673 71.0815 80.9968 71.1654 82.1855L71.2367 83.1953L70.1294 83.1146C68.2547 82.9781 66.1879 83.3623 65.0744 84.0543C63.4755 85.0481 62.7866 87.3218 63.5881 88.9594C64.4299 90.6793 66.7205 91.4155 69.081 90.7245C69.5982 90.5731 69.8737 90.3879 70.4521 89.803L71.176 89.0709L71.2532 89.6191C71.3947 90.6225 71.3423 90.579 72.4138 90.579H73.3767L73.3698 85.6654C73.3636 81.26 73.3417 80.7031 73.1576 80.2811C72.7481 79.3419 71.8539 78.697 70.5319 78.3872C70.0939 78.2845 69.5092 78.2335 68.8998 78.2291ZM70.0889 84.6952C70.6662 84.6977 71.1078 84.7432 71.1459 84.8423C71.2728 85.1731 70.9858 87.1328 70.7397 87.6151C70.4378 88.2069 69.6874 88.8534 69.0975 89.0302C68.6151 89.1747 67.4368 89.1951 66.9911 89.0667C66.5584 88.9421 65.8912 88.3426 65.7146 87.9199C65.2042 86.6983 65.8139 85.5833 67.3156 84.9921C67.6937 84.8433 68.626 84.7399 69.4764 84.7066C69.6889 84.6983 69.8965 84.6943 70.0889 84.6952Z" fill="white"/>
<path opacity="0.999" d="M5.34046 78.2338C5.16007 78.2325 4.98857 78.2352 4.82487 78.2418C3.84266 78.2816 3.13686 78.4669 2.42186 78.8463C1.4271 79.3742 1.03006 79.9748 0.74983 81.376C0.674613 81.7521 0.674668 81.7521 1.86628 81.7521C3.0579 81.7521 3.0579 81.7521 3.0579 81.4165C3.0579 80.9254 3.5141 80.3197 4.11804 80.009C4.56249 79.7804 4.78733 79.7435 5.52941 79.7778C6.55425 79.8251 7.17962 80.0829 7.5575 80.6135C7.76659 80.9072 7.82452 81.1821 7.86299 82.0617L7.91058 83.1476L6.33738 83.1375C3.75379 83.121 2.4259 83.4875 1.30357 84.5265C-0.628428 86.3152 -0.373215 89.3139 1.80583 90.426C2.63001 90.8466 2.92968 90.906 4.30422 90.92C5.41154 90.9312 5.54162 90.9071 6.22934 90.5635C6.76319 90.2967 7.10158 90.0202 7.45452 89.5626C7.7227 89.215 7.95193 88.997 7.96413 89.0781C7.97633 89.1592 8.0199 89.53 8.0609 89.9022L8.13561 90.5789H9.1569L10.1782 90.5791L10.1428 85.783C10.1233 83.1452 10.0572 80.7964 9.9959 80.5634C9.61849 79.1288 8.24227 78.3492 5.90984 78.2487C5.71012 78.2401 5.52084 78.235 5.34046 78.2338ZM6.65736 84.6943H7.9154L7.85817 85.7846C7.76873 87.4944 7.30159 88.3563 6.17671 88.8868C5.5186 89.1972 4.3337 89.2564 3.7052 89.0105C2.76919 88.6442 2.35176 88.0551 2.35176 87.1001C2.35176 85.4986 3.79114 84.6943 6.65736 84.6943Z" fill="white"/>
<path opacity="0.999" d="M137.412 78.2216C134.543 78.2216 133.036 79.19 132.696 81.2521L132.614 81.7523H133.738C134.862 81.7523 134.862 81.7523 134.996 81.2521C135.188 80.5399 135.88 79.9087 136.586 79.8028C137.31 79.6943 138.286 79.8037 138.808 80.0511C139.535 80.3962 139.739 80.8175 139.795 82.0879L139.843 83.1993L138.857 83.1193C136.824 82.9543 134.601 83.4175 133.549 84.2256C131.047 86.1466 131.493 89.7488 134.35 90.6998C135.407 91.0515 136.913 91.0497 137.853 90.6954C138.525 90.4425 139.301 89.8082 139.725 89.1668C139.919 88.8726 139.919 88.8726 139.927 89.2845C139.931 89.511 139.967 89.895 140.007 90.1377C140.08 90.5791 140.08 90.5791 141.124 90.5791H142.168C142.168 90.5791 142.113 90.1686 142.1 89.9621C141.998 88.3765 142.023 87.7803 142.012 85.1963C141.991 80.4982 141.991 80.4981 141.634 79.9189C140.957 78.8214 139.465 78.2216 137.412 78.2216ZM139.848 84.6633L139.789 85.7779C139.697 87.5471 139.159 88.4602 137.899 88.9866C137.225 89.2681 135.957 89.2239 135.34 88.8974C135.06 88.7492 134.728 88.4901 134.602 88.3216C134.021 87.5438 134.187 86.1354 134.926 85.5717C135.713 84.9714 136.44 84.7834 138.212 84.721L139.848 84.6633Z" fill="white"/>
<path opacity="0.999" d="M82.5008 73.2785V81.9288V90.579H83.6189H84.7369V89.7497V88.9203L85.2959 89.4741C86.4478 90.6146 88.2018 91.0603 89.8611 90.6342C91.6019 90.1872 92.9184 89.058 93.4872 87.5235C94.0614 85.9742 94.1722 83.6193 93.7467 82.0106C93.0718 79.4593 91.0138 78.0445 88.2893 78.259C86.9536 78.3641 86.3322 78.6204 85.5366 79.3941L84.8546 80.0572V76.6679V73.2785H83.6777L82.5008 73.2785ZM88.2235 79.7749C88.3027 79.7742 88.382 79.7763 88.461 79.7814C89.2193 79.83 89.9586 80.149 90.5024 80.7684C91.3068 81.6846 91.6277 82.9704 91.5359 84.909C91.4412 86.9066 90.8048 88.1833 89.6211 88.7502C89.0291 89.0337 88.1076 89.1856 87.5615 89.0897C86.7054 88.9395 85.9366 88.443 85.5074 87.7632C84.5945 86.317 84.5139 83.5471 85.3295 81.6511C85.8461 80.4502 87.0354 79.7864 88.2235 79.7749Z" fill="white"/>
<path opacity="0.999" d="M122.804 78.5745L122.412 79.5455C122.033 80.4838 121.534 81.7268 119.86 85.9008C119.425 86.985 119.036 87.8719 118.997 87.8716C118.957 87.8714 118.104 85.7808 117.101 83.2261L115.277 78.581L114.011 78.5778C113.316 78.5761 112.746 78.622 112.746 78.6799C112.746 78.7379 112.912 79.1748 113.115 79.6509C113.318 80.1269 113.681 80.9932 113.921 81.5757C114.162 82.1583 115.104 84.4145 116.014 86.5896L117.669 90.5441L116.77 92.8566L115.872 95.169L118.256 95.169C118.256 95.169 120.052 90.3988 120.633 89.108C121.439 87.3166 123.087 83.6054 123.638 82.3407C123.849 81.8553 124.27 80.902 124.573 80.2223C125.388 78.3937 125.448 78.5746 124.027 78.5746L122.804 78.5745Z" fill="white"/>
<path opacity="0.999" d="M56.2548 78.4248L55.1662 78.4837C53.5574 78.5706 52.5791 79.0844 52.0485 80.121L51.7858 80.6343L51.7842 80.1504C51.7832 79.8843 51.7488 79.4209 51.7076 79.1206L51.6329 78.5747H49.3943L49.4704 79.475C49.5122 79.9703 49.5465 82.6733 49.5465 85.4816V90.5876L50.6608 90.5541L51.7752 90.5203L51.8125 86.6953C51.8547 82.3517 51.8812 82.206 52.7889 81.328C53.387 80.7496 53.9695 80.5754 55.3066 80.5754H56.2548V79.5001L56.2548 78.4248Z" fill="white"/>
<path opacity="0.999" d="M102.506 78.5744V90.5789H104.86V78.5745H103.683L102.506 78.5744Z" fill="white"/>
<path opacity="0.999" d="M102.273 73.2785V75.75H103.607C104.34 75.75 104.963 75.7282 104.99 75.7015C105.017 75.6748 105.022 75.1187 105.001 74.4658L104.964 73.2785H103.618H102.273Z" fill="white"/>
<path opacity="0.999" d="M19.2987 73.2785V90.5875H21.5937L21.6238 81.8993L21.6541 73.2785H19.2987Z" fill="white"/>
<path opacity="0.999" d="M42.6601 51.2114C39.949 51.2114 39.8155 51.2221 39.3356 51.4785C39.0605 51.6254 38.6898 51.9656 38.5117 52.2345C38.188 52.7234 38.1879 52.7235 38.1527 55.5797C38.1196 58.2612 38.1321 58.4647 38.3575 58.9066C38.6348 59.4501 39.1863 59.9065 39.7767 60.0812C40.0189 60.1528 41.2793 60.1934 42.8366 60.1793C45.0517 60.1594 45.5424 60.1236 45.8378 59.9603C46.3564 59.6735 46.8268 59.1346 46.9581 58.6767C47.0216 58.4555 47.0735 57.0775 47.0735 55.6147C47.0735 53.0587 47.0628 52.9348 46.8 52.4363C46.6412 52.1353 46.3079 51.7694 46.0056 51.5645C45.4846 51.2114 45.4847 51.2114 42.6601 51.2114Z" fill="white"/>
<path opacity="0.999" d="M28.0503 51.2114C25.2065 51.2114 25.2064 51.2115 24.6961 51.5698C24.4154 51.7668 24.0534 52.164 23.8916 52.4524C23.608 52.958 23.5959 53.066 23.5581 55.4579C23.5143 58.2253 23.5862 58.6981 24.1481 59.338C24.8647 60.1542 25.1091 60.2036 28.305 60.1773C30.6784 60.1577 30.9334 60.1353 31.365 59.9099C31.6239 59.7747 31.9946 59.4393 32.1888 59.1645C32.5419 58.6649 32.5419 58.665 32.5819 56.1845C32.6038 54.8203 32.5884 53.4814 32.5476 53.2094C32.4472 52.5401 31.9576 51.8209 31.3751 51.487C30.9072 51.2188 30.8173 51.2114 28.0503 51.2114Z" fill="white"/>
<path opacity="0.999" d="M57.3477 51.1721C55.1209 51.139 54.6135 51.1631 54.1958 51.3226C53.5599 51.5655 52.8759 52.2483 52.7253 52.7903C52.6609 53.0223 52.6089 54.3773 52.6099 55.8013C52.6121 58.7128 52.6946 59.0928 53.4471 59.6543C54.1401 60.1714 54.3987 60.2071 57.2555 60.1807C59.5253 60.1597 60.0194 60.1243 60.3155 59.9605C60.782 59.7023 61.2707 59.1762 61.4259 58.7654C61.5013 58.566 61.5512 57.3458 61.5512 55.7009C61.5512 53.1001 61.5384 52.9423 61.2864 52.4441C61.1317 52.1383 60.8095 51.7732 60.5115 51.566C60.0015 51.2114 60.0016 51.2115 57.3477 51.1721Z" fill="white"/>
<path opacity="0.999" fill-rule="evenodd" clip-rule="evenodd" d="M115.101 0.780762V18.7286V36.6764H109.978C104.858 36.6764 104.854 36.6761 104.983 36.4364C105.053 36.3045 105.531 35.5682 106.044 34.8003C108.414 31.255 109.452 28.1544 109.452 24.6226C109.452 21.203 108.163 18.7307 105.52 17.0835C104.4 16.3855 103.029 15.9035 101.433 15.6466C100.427 15.4845 99.2558 15.4487 94.7409 15.4418C89.7768 15.4341 89.0597 15.4311 88.7222 15.7876C88.6634 15.8496 88.6162 15.9225 88.5601 16.0081C88.3983 16.255 87.3755 19.1058 85.5902 24.2849C85.1673 25.5119 84.9579 26.0978 85.069 26.6149C85.1752 27.1095 85.5746 27.5411 86.3607 28.4105C86.989 29.1053 87.6754 29.8936 87.8861 30.1623C88.6499 31.1364 89.56 32.716 89.9662 33.7725C90.341 34.7474 90.7331 36.1488 90.7376 36.5293C90.7389 36.645 89.5438 36.6764 85.1491 36.6764H79.5588V26.0673V15.4581L78.7872 15.53C76.979 15.6989 75.2347 16.3916 73.8566 17.4883C72.0998 18.8862 70.9008 21.0293 70.6191 23.2758C70.5419 23.8922 70.4966 28.369 70.4966 35.3835C70.4966 45.8443 70.5075 47.0025 70.083 47.9694C70.0184 48.1164 69.9438 48.259 69.8576 48.4292C69.2178 49.6918 67.8832 50.627 66.2444 50.9612L65.4948 51.1143L65.464 55.6219L65.4332 60.1296L66.4643 60.047C72.8355 59.538 77.575 55.5976 79.0738 49.5636C79.3147 48.5939 79.5378 47.1405 79.5887 46.2094L79.6177 45.6798L85.973 45.6594C89.4684 45.6482 92.7298 45.6109 93.2206 45.5764C94.7867 45.4663 96.5307 44.6397 97.2862 43.6492C97.6602 43.1589 98.1472 42.0328 98.1512 41.6489C98.1561 41.1836 98.3598 41.3652 98.4411 41.9075C98.5526 42.6509 99.1424 43.7643 99.684 44.2535C99.9382 44.4832 100.412 44.8058 100.737 44.9705C100.917 45.0615 101.066 45.1399 101.221 45.2072C102.195 45.6319 103.359 45.621 113.42 45.621H124.164V29.0854V12.5499H124.511C124.986 12.5499 126.256 13.0245 127.069 13.5059C127.938 14.0208 129.489 15.5683 130.181 16.6125C131.424 18.4876 132.249 20.6005 132.685 23.0244C133.052 25.0642 133.107 26.7969 133.108 36.1763V45.621H137.58H142.052V37.059C142.052 24.0166 141.866 21.774 140.451 17.7078C138.267 11.4344 133.896 6.36597 128.342 3.66861C125.078 2.08336 122.106 1.36292 116.749 0.857364C116.523 0.835987 116.054 0.810254 115.101 0.780762ZM96.0419 23.2812L93.3996 23.2304L94.1625 24.0982C96.8006 27.0987 97.7996 29.148 98.1617 32.3036L98.3015 33.5217L98.6164 32.9509C98.7897 32.6371 99.0763 32.1534 99.2533 31.8759C99.7496 31.0977 100.477 29.3643 100.741 28.3309C101.334 26.0091 100.784 24.2974 99.2136 23.5755C98.7411 23.3582 98.3992 23.3265 96.0419 23.2812Z" fill="white"/>
<path opacity="0.999" d="M32.5986 15.245L31.9219 15.3066C31.5497 15.3405 30.6096 15.3999 29.8329 15.4383C24.1743 15.7183 18.9432 17.3488 14.6409 20.1738C12.2777 21.7255 9.1769 24.507 7.46107 26.6139C4.27682 30.524 1.85661 35.4821 0.889002 40.0777C0.585123 41.521 0.115967 44.6703 0.115967 45.2669C0.115967 45.6209 0.115987 45.6209 4.86727 45.6209H9.61858L9.70179 44.5323C9.98032 40.8848 11.2745 36.9297 13.0086 34.427C14.4529 32.3424 15.0303 31.6308 16.3486 30.3101C18.5092 28.1455 20.4989 26.9289 22.9767 26.2573L23.535 26.1059L23.5652 35.834L23.5953 45.5621L42.5729 45.592L61.5505 45.6216V15.4921L61.168 15.4962C60.9577 15.4985 60.3872 15.5714 59.9003 15.6583C56.9495 16.1848 54.4357 18.2121 53.2563 21.0162C52.6297 22.5061 52.6103 22.7736 52.6081 29.9975L52.606 36.6764H47.0746V15.4921H46.673C46.0159 15.4921 44.5454 15.8116 43.7806 16.1205C41.2717 17.1339 39.5196 19.0136 38.4999 21.7862C38.1961 22.6123 38.1962 22.6124 38.1572 29.6444L38.1181 36.6764H32.5986V25.9608L32.5986 15.245Z" fill="white"/>
<path opacity="0.999" d="M28.1254 0.898804C25.1688 0.898804 24.8965 0.94608 24.3057 1.56242C23.6913 2.20338 23.6531 2.4296 23.6531 5.43197C23.6531 8.43701 23.6742 8.5547 24.3193 9.15256C25.0346 9.81545 25.1357 9.83363 28.1254 9.83663C30.7745 9.83931 30.9104 9.82844 31.3506 9.57666C31.6034 9.43208 31.9741 9.11037 32.1744 8.86178C32.5387 8.4098 32.5388 8.40976 32.5763 5.63379C32.6172 2.59768 32.5604 2.23642 31.9349 1.56242C31.3644 0.947557 31.0841 0.898804 28.1254 0.898804Z" fill="white"/>
<path opacity="0.999" d="M13.5747 0.898804C10.8047 0.898804 10.7829 0.900897 10.2789 1.19625C9.98147 1.37057 9.64849 1.70355 9.47417 2.001C9.17808 2.50624 9.17681 2.52055 9.17741 5.3814C9.178 8.15153 9.18749 8.26994 9.44222 8.68685C9.74776 9.18691 10.2223 9.58676 10.6805 9.73021C10.8568 9.7854 12.2805 9.82015 13.8444 9.80744C16.6877 9.78434 16.6877 9.78452 17.1397 9.41897C18.0271 8.70127 18.0575 8.57977 18.1008 5.60644C18.1434 2.67558 18.0888 2.31497 17.4999 1.64426C16.878 0.935958 16.682 0.898804 13.5747 0.898804Z" fill="white"/>
</svg>
