<svg width="31" height="31" viewBox="0 0 31 31" fill="none" xmlns="http://www.w3.org/2000/svg">
<path d="M9.52915 17.0222C9.28344 17.0222 7.75275 16.9524 7.74611 16.6104C7.74279 16.4975 8.1877 16.0825 8.26739 15.963C8.41681 15.7339 8.53968 15.4882 8.69573 15.2591C8.98129 14.834 9.30005 14.4389 9.65533 14.0704C9.90767 13.8081 10.2065 13.6155 10.4423 13.3365C11.0134 12.6559 11.6974 12.0616 12.3083 11.4141C13.1318 10.5375 13.839 9.56794 14.6359 8.66812C14.9181 8.34937 15.2169 8.05054 15.4859 7.7185C15.6453 7.5226 15.8345 7.30344 15.9574 7.07765C16.0039 6.99464 16.0404 6.76223 16.1699 6.75559C16.2894 6.74894 16.389 6.89837 16.4687 6.96809C17.2224 7.35658 17.9861 7.73511 18.7531 8.09703C19.5434 8.47887 20.2938 8.92377 21.0077 9.43178C22.5782 10.4777 24.1819 11.6133 25.5433 12.9348C26.0447 13.4196 26.5593 13.8579 27.084 14.3061C27.748 14.8739 26.4697 15.3255 26.0414 15.5048C24.9622 15.953 23.7835 16.1755 22.6512 16.461C22.1432 16.5872 21.6552 16.7632 21.1305 16.803C21.1737 17.5767 21.3231 18.337 21.3796 19.114C21.4891 20.6314 21.436 22.1488 21.4858 23.6695C21.5124 24.5727 21.5721 25.4725 21.5854 26.3757C21.5887 26.6048 21.6983 27.1759 21.4294 27.2954C21.2169 27.3917 20.8051 27.3651 20.5727 27.4016C19.1616 27.6307 17.7537 27.903 16.3525 28.1786C15.0576 28.4343 13.7128 28.753 12.461 29.1946C12.3946 28.5007 12.4909 27.7204 12.4776 27.0431C12.4478 25.2799 12.3116 23.5234 12.2585 21.7603C12.2087 20.1333 12.0925 18.4665 12.6237 16.9059C12.1954 16.8595 11.7671 16.8827 11.3421 16.9757C10.7344 17.0089 10.1301 17.0222 9.52915 17.0222Z" stroke="#FF6B00" stroke-width="2" stroke-miterlimit="10" stroke-linecap="round" stroke-linejoin="round"/>
<path d="M27.9747 7.67513C27.8551 5.74931 27.5895 3.86001 27.4135 1.94084C26.6199 3.05648 26.2647 3.81682 25.916 5.15493C26.0688 4.04925 26.3311 2.85059 26.7826 1.83124C26.9154 1.5324 27.025 1.06424 27.377 1.00447C27.9282 0.904858 28.725 2.50199 28.818 2.65472C29.1965 3.29556 29.585 3.91315 30.0001 4.52742" stroke="#FF6B00" stroke-width="2" stroke-miterlimit="10" stroke-linecap="round" stroke-linejoin="round"/>
<path d="M3.54186 23.9351C3.48541 25.3595 3.51861 26.8105 3.5983 28.2283C3.6149 28.5271 3.68464 28.8857 3.65476 29.1945C3.65476 29.0883 3.65476 28.9853 3.65476 28.8791" stroke="#FF6B00" stroke-width="2" stroke-miterlimit="10" stroke-linecap="round" stroke-linejoin="round"/>
<path d="M3.99496 21.0129C3.31761 22.1053 2.67015 23.2143 2.03595 24.3333C1.72052 24.8911 1.43497 25.5253 1 26.0001C1.35528 25.2165 1.79024 24.4794 2.23185 23.739C2.45431 23.3372 2.6967 22.9487 2.96233 22.5735C3.14495 22.2515 3.37075 21.9626 3.6397 21.7069C3.99498 21.5343 4.28053 21.8264 4.52956 22.0589C4.85827 22.547 5.11061 23.0716 5.28659 23.6294C5.42273 24.0444 5.59206 24.4462 5.80125 24.8347" stroke="#FF6B00" stroke-width="2" stroke-miterlimit="10" stroke-linecap="round" stroke-linejoin="round"/>
</svg>
