<svg width="14" height="12" viewBox="0 0 14 12" fill="none" xmlns="http://www.w3.org/2000/svg">
<g id="Group 2577">
<g id="Group 2573">
<path id="Vector 8712" d="M2.09534 1.08333C3.63644 1.08333 5.17754 1.08333 6.71865 1.08333C7.50948 1.08333 8.30031 1.08333 9.09114 1.08333C9.30135 1.08333 9.63863 0.860205 9.63863 1.14417C9.63863 1.51899 9.41665 1.81543 9.3953 2.17833C9.33897 3.136 9.23605 4.09401 9.27364 5.07128C9.29654 5.66679 9.62249 6.39441 9.75354 6.98414C9.84621 7.40113 9.86529 8.20728 10.0645 8.5658C10.2853 8.96339 10.7116 9.41225 10.8553 9.84329" stroke="white" stroke-linecap="round"/>
<path id="Vector 8713" d="M1.24321 1.20508C1.24321 3.11495 0.999878 4.95487 0.999878 6.86255C0.999878 7.71352 1.44826 8.60421 1.8245 9.35671C2.1464 10.0005 2.82766 10.3586 3.18987 10.9924C3.33474 11.246 5.26593 11.06 5.44745 11.06C6.61827 11.06 7.76351 11.1817 8.93521 11.1817C9.41448 11.1817 10.3655 11.3589 10.794 11.1209C10.9649 11.0259 11.3247 11.1023 11.3415 10.8167C11.3547 10.5923 11.5352 10.3052 11.3415 10.2084" stroke="white" stroke-linecap="round"/>
<path id="Vector 8714" d="M9.49829 7.26929C10.3907 7.26929 11.2704 7.36656 12.1678 7.36656C12.6667 7.36656 13 7.38965 13 7.95017C13 8.4594 12.749 8.69665 12.4596 9.06876C12.2767 9.30394 11.8844 9.99281 11.6382 9.99281" stroke="white" stroke-linecap="round"/>
<path id="Vector 8715" d="M2.68951 3.37844C3.19173 3.37844 3.41456 3.78743 3.93239 3.76751C4.3539 3.7513 4.61148 2.69983 5.02396 3.42167C5.22977 3.78184 5.69666 3.67025 6.05068 3.67025C6.2929 3.67025 6.50351 3.57298 6.72616 3.57298C6.94093 3.57298 7.06846 3.67025 7.26114 3.67025" stroke="white" stroke-linecap="round"/>
<path id="Vector 8716" d="M2.98138 5.90733C3.67719 5.90733 4.41333 5.81006 5.07806 5.81006C5.39869 5.81006 5.71931 5.81006 6.03994 5.81006C6.43234 5.81006 6.70463 6.19913 7.06666 6.19913" stroke="white" stroke-linecap="round"/>
<path id="Vector 8717" d="M7.45567 8.72808C6.85945 8.72808 6.26323 8.72808 5.66701 8.72808C5.3489 8.72808 5.34449 8.43628 5.07259 8.43628C4.64697 8.43628 4.22275 8.53355 3.75946 8.53355" stroke="white" stroke-linecap="round"/>
</g>
</g>
</svg>
