<svg width="1440" height="707" viewBox="0 0 1440 707" fill="none" xmlns="http://www.w3.org/2000/svg">
<path d="M772.158 -404V1110.66" stroke="#3F3F3F" stroke-width="2"/>
<path d="M350.896 -404V1110.66" stroke="#3F3F3F" stroke-width="2"/>
<path d="M1193.42 -404V1110.66" stroke="#3F3F3F" stroke-width="2"/>
<path d="M140.267 -404V1110.66" stroke="#3F3F3F" stroke-width="2"/>
<path d="M982.789 -404V1110.66" stroke="#3F3F3F" stroke-width="2"/>
<path d="M561.528 -404V1110.66" stroke="#3F3F3F" stroke-width="2"/>
<path d="M1404.05 -404V1110.66" stroke="#3F3F3F" stroke-width="2"/>
<path d="M34.9517 -404V1110.66" stroke="#3F3F3F" stroke-width="2"/>
<path d="M877.472 -404V1110.66" stroke="#3F3F3F" stroke-width="2"/>
<path d="M456.211 -404V1110.66" stroke="#3F3F3F" stroke-width="2"/>
<path d="M1298.73 -404V1110.66" stroke="#3F3F3F" stroke-width="2"/>
<path d="M245.581 -404V1110.66" stroke="#3F3F3F" stroke-width="2"/>
<path d="M1088.1 -404V1110.66" stroke="#3F3F3F" stroke-width="2"/>
<path d="M666.842 -404V1110.66" stroke="#3F3F3F" stroke-width="2"/>
<path d="M1448 408.07L-8.99998 408.07" stroke="#3F3F3F" stroke-width="2"/>
<path d="M1448 627.039L-8.99998 627.039" stroke="#3F3F3F" stroke-width="2"/>
<path d="M1448 189.105L-8.99998 189.105" stroke="#3F3F3F" stroke-width="2"/>
<path d="M1448 517.554L-8.99998 517.553" stroke="#3F3F3F" stroke-width="2"/>
<path d="M1448 79.6196L-8.99998 79.6196" stroke="#3F3F3F" stroke-width="2"/>
<path d="M1448 298.588L-8.99998 298.588" stroke="#3F3F3F" stroke-width="2"/>
</svg>
