<svg width="597" height="423" viewBox="0 0 597 423" fill="none" xmlns="http://www.w3.org/2000/svg">
<path fill-rule="evenodd" clip-rule="evenodd" d="M170.988 129.741C171.009 129.754 171.284 129.663 171.749 129.429C171.2 129.611 170.967 129.728 170.988 129.741ZM519.007 104.194C514.947 82.4887 499.037 63.4146 475.568 55.5183C425.189 38.5684 346.806 16.5585 274.945 6.11398C239.432 0.952355 201.525 -2.00261 167.96 1.56958C138.223 4.73448 90.231 15.359 65.0508 57.2304C55.5292 73.0635 49.0199 95.9026 57.8545 120.762C65.8132 143.157 82.54 156.344 93.6481 163.219C87.0258 164.834 80.3753 166.959 73.9575 169.765C47.8501 181.182 14.5317 204.977 3.52936 244.092C-9.98969 292.154 17.1314 332.642 54.1958 357.214C88.8292 380.175 139.753 396.127 206.545 406.728C274.819 417.564 366.005 423.737 486.3 422.93C523.171 422.682 552.85 394.132 552.589 359.16C552.328 324.188 522.227 296.038 485.356 296.285C485.136 296.287 484.916 296.288 484.697 296.29C520.945 289.013 564.066 272.322 586.551 230.969C594.881 215.648 600.291 195.368 594.736 173.03C589.349 151.365 575.773 136.388 563.865 127.025C550.411 116.448 534.306 109.274 519.007 104.194ZM126.984 286.428C127.02 286.449 127.325 286.266 127.791 285.819C127.181 286.183 126.948 286.407 126.984 286.428Z" fill="#E8E8E8"/>
</svg>
