<svg width="1266" height="198" viewBox="0 0 1266 198" fill="none" xmlns="http://www.w3.org/2000/svg">
<mask id="mask0_2920_6056" style="mask-type:alpha" maskUnits="userSpaceOnUse" x="4" y="0" width="1258" height="190">
<rect x="4.5" y="0.5" width="1257" height="189" rx="29.5" fill="white" stroke="#E8E8E8"/>
</mask>
<g mask="url(#mask0_2920_6056)">
<path d="M391.281 -398.744V371.579" stroke="#E8E8E8"/>
<path d="M177.037 -398.744V371.579" stroke="#E8E8E8"/>
<path d="M605.527 -398.744V371.579" stroke="#E8E8E8"/>
<path d="M69.9141 -398.744V371.579" stroke="#E8E8E8"/>
<path d="M498.404 -398.744V371.579" stroke="#E8E8E8"/>
<path d="M284.158 -398.744V371.579" stroke="#E8E8E8"/>
<path d="M712.648 -398.744V371.579" stroke="#E8E8E8"/>
<path d="M16.3535 -398.744V371.579" stroke="#E8E8E8"/>
<path d="M444.844 -398.744V371.579" stroke="#E8E8E8"/>
<path d="M230.596 -398.744V371.579" stroke="#E8E8E8"/>
<path d="M659.088 -398.744V371.579" stroke="#E8E8E8"/>
<path d="M123.475 -398.744V371.579" stroke="#E8E8E8"/>
<path d="M551.965 -398.744V371.579" stroke="#E8E8E8"/>
<path d="M337.721 -398.744V371.579" stroke="#E8E8E8"/>
<path d="M735 14.2577L-5.99999 14.2577" stroke="#E8E8E8"/>
<path d="M735 125.62L-5.99999 125.62" stroke="#E8E8E8"/>
<path d="M735 69.9388L-5.99999 69.9387" stroke="#E8E8E8"/>
<path d="M735 181.297L-5.99999 181.297" stroke="#E8E8E8"/>
<path d="M1087.28 -398.744V371.579" stroke="#E8E8E8"/>
<path d="M873.037 -398.744V371.579" stroke="#E8E8E8"/>
<path d="M765.914 -398.744V371.579" stroke="#E8E8E8"/>
<path d="M1194.4 -398.744V371.579" stroke="#E8E8E8"/>
<path d="M980.158 -398.744V371.579" stroke="#E8E8E8"/>
<path d="M712.354 -398.744V371.579" stroke="#E8E8E8"/>
<path d="M1140.84 -398.744V371.579" stroke="#E8E8E8"/>
<path d="M926.596 -398.744V371.579" stroke="#E8E8E8"/>
<path d="M819.475 -398.744V371.579" stroke="#E8E8E8"/>
<path d="M1247.96 -398.744V371.579" stroke="#E8E8E8"/>
<path d="M1033.72 -398.744V371.579" stroke="#E8E8E8"/>
<path d="M1431 14.2577L690 14.2577" stroke="#E8E8E8"/>
<path d="M1431 125.62L690 125.62" stroke="#E8E8E8"/>
<path d="M1431 69.9388L690 69.9387" stroke="#E8E8E8"/>
<path d="M1431 181.297L690 181.297" stroke="#E8E8E8"/>
</g>
</svg>
