<svg width="739" height="218" viewBox="0 0 739 218" fill="none" xmlns="http://www.w3.org/2000/svg">
<path d="M397.281 -398.744V371.579" stroke="#E8E8E8"/>
<path d="M183.037 -398.744V371.579" stroke="#E8E8E8"/>
<path d="M611.527 -398.744V371.579" stroke="#E8E8E8"/>
<path d="M75.9141 -398.744V371.579" stroke="#E8E8E8"/>
<path d="M504.404 -398.744V371.579" stroke="#E8E8E8"/>
<path d="M290.158 -398.744V371.579" stroke="#E8E8E8"/>
<path d="M718.648 -398.744V371.579" stroke="#E8E8E8"/>
<path d="M22.3535 -398.744V371.579" stroke="#E8E8E8"/>
<path d="M450.844 -398.744V371.579" stroke="#E8E8E8"/>
<path d="M236.596 -398.744V371.579" stroke="#E8E8E8"/>
<path d="M665.088 -398.744V371.579" stroke="#E8E8E8"/>
<path d="M129.475 -398.744V371.579" stroke="#E8E8E8"/>
<path d="M557.965 -398.744V371.579" stroke="#E8E8E8"/>
<path d="M343.721 -398.744V371.579" stroke="#E8E8E8"/>
<path d="M741 14.2577L1.23179e-05 14.2577" stroke="#E8E8E8"/>
<path d="M741 125.62L1.23179e-05 125.62" stroke="#E8E8E8"/>
<path d="M741 69.9388L1.23179e-05 69.9387" stroke="#E8E8E8"/>
<path d="M741 181.297L1.23179e-05 181.297" stroke="#E8E8E8"/>
</svg>
