<svg width="22" height="21" viewBox="0 0 22 21" fill="none" xmlns="http://www.w3.org/2000/svg">
<path d="M12.654 1.00646C12.9571 1.00646 11.4707 0.968826 11.1751 1.07525C10.6844 1.25188 10.3387 2.40409 10.1088 2.86379C9.52941 4.02259 8.99874 5.30293 8.69862 6.57844C8.53993 7.25289 8.26341 10.004 8.93939 10.3619C10.1607 11.0084 11.8963 11.5313 13.2732 11.5313C14.2455 11.5313 15.2026 11.5337 16.0591 11.153C16.3276 11.0336 16.9546 10.3472 16.9878 10.9122C17.036 11.7317 16.9878 12.568 16.9878 13.3886C16.9878 14.8383 17.0983 16.2361 15.9904 17.3441C15.7359 17.5985 13.6992 19.6266 15.1305 19.1154C17.3546 18.3211 20.7025 15.8092 20.7025 13.2167C20.7025 11.6751 21.4763 7.33018 20.5305 6.11411C19.506 4.79692 18.1683 2.73675 16.5063 2.26187C14.7387 1.75685 12.6881 1.62557 10.7967 1.62557" stroke="#FF6B00" stroke-width="2" stroke-linecap="round"/>
<path d="M3.6692 1.07525C3.96482 0.968826 5.45122 1.00646 5.14818 1.00646C7.03958 1.00646 7.23285 1.75685 9.00042 2.26187C10.6625 2.73675 12.0002 4.79692 13.0246 6.11411C13.9705 7.33018 13.1966 11.6751 13.1966 13.2167C13.1966 15.8092 9.8487 18.3211 7.62462 19.1154C6.20581 19.6221 8.19491 17.6336 8.47746 17.3511L8.4845 17.3441C9.59247 16.2361 9.48195 14.8383 9.48195 13.3886C9.48195 12.568 9.53016 11.7317 9.48195 10.9122C9.44872 10.3472 8.82179 11.0336 8.55329 11.153C7.70195 11.5313 6.7512 11.5313 5.78497 11.5313H5.76729C4.39044 11.5313 2.65479 11.0084 1.43353 10.3619C0.75755 10.004 1.03407 7.25289 1.19276 6.57844C1.49288 5.30293 2.02355 4.02259 2.60296 2.86379C2.8328 2.40409 3.17857 1.25188 3.6692 1.07525Z" fill="white" stroke="#FF6B00" stroke-width="2" stroke-linecap="round"/>
</svg>
