<svg width="32" height="24" viewBox="0 0 32 24" fill="none" xmlns="http://www.w3.org/2000/svg">
<g id="Group 2224">
<path id="Vector 6960" d="M8.34344 3.63201C5.4134 6.05247 3.07203 7.82968 1.64585 11.3951C0.889601 13.2858 0.685837 15.6324 1.64585 17.4838C4.5157 23.0186 11.8987 24.1973 17.2905 21.4415C21.0059 19.5425 26.0279 14.1173 22.9564 9.72073C21.0314 6.96536 19.2785 4.17261 15.9543 3.02313C13.3221 2.11293 10.6838 1.8371 8.03901 2.7187" stroke="#FF6B00" stroke-width="2" stroke-linecap="round"/>
<path id="Vector 6961" d="M10.2973 9.21907C9.16922 9.65295 8.25828 10.0806 7.10074 10.4368C6.83404 10.5189 5.52686 11.2266 5.44325 11.5193C5.05023 12.8948 7.59697 14.5412 8.4707 15.2401C9.32423 15.923 11.3024 20.3914 12.5806 19.1132C13.5988 18.095 14.1427 16.6299 14.9992 15.4769C18.7619 10.4117 23.5941 6.41547 28.259 2.21704" stroke="#FF6B00" stroke-width="2" stroke-linecap="round"/>
<path id="Vector 6962" d="M10.2988 10.1331C10.2988 10.781 11.2249 14.0367 11.9563 13.9554C12.4497 13.9006 12.7346 13.1932 13.0388 12.873C14.0555 11.8027 15.1376 10.775 16.2692 9.82865C20.7385 6.09065 25.7826 3.50459 31.0005 1" stroke="#FF6B00" stroke-width="2" stroke-linecap="round"/>
<path id="Vector 6963" d="M9.07907 10.4391C9.01041 10.9884 3.66371 14.5559 7.48924 12.0966C9.94955 10.515 7.03037 13.4265 7.15098 13.6526C7.21653 13.7755 8.92033 12.604 9.29894 12.604C9.44081 12.604 8.5378 13.5104 8.30107 13.6357C6.30091 14.6946 8.7052 14.1995 9.5019 13.957C11.2814 13.4155 8.09778 15.2763 8.67316 15.2763C9.07104 15.2763 10.8196 14.0131 10.5843 14.8365C10.5289 15.0306 9.79633 15.2502 10.06 15.5469C10.339 15.8607 11.1803 15.3101 11.5146 15.3101C12.3747 15.3101 10.1091 17.1362 10.7366 16.1558C11.1576 15.4979 11.8779 15.2174 12.411 14.6843C13.7606 13.3346 14.5892 12.148 16.3179 11.0818C17.3739 10.4305 21.222 8.99601 21.544 7.54698C21.6779 6.94453 21.4356 7.52007 21.2565 7.69919C20.126 8.82967 18.7247 9.72341 17.6033 10.8958C15.6819 12.9045 13.5927 14.6194 11.8359 16.8154C10.4377 18.5631 13.8717 15.0935 14.3729 14.7012C14.9595 14.2421 17.2637 11.692 15.2862 13.6695C14.7143 14.2414 12.0582 18.2893 11.819 18.05" stroke="#FF6B00" stroke-width="2" stroke-linecap="round"/>
</g>
</svg>
