<svg width="31" height="31" viewBox="0 0 31 31" fill="none" xmlns="http://www.w3.org/2000/svg">
<path d="M14.2027 13.5927C14.2027 9.39501 13.4785 5.47174 13.4946 1.27401C12.8488 1.34551 12.1869 1.70531 11.5434 1.68455C11.2873 1.67533 11.0406 1.58999 10.7845 1.5577C10.0349 1.46083 9.30841 1.18866 8.56113 1.08257C7.33179 0.909583 6.05632 1.05489 4.82237 1.10102C3.74526 1.14254 2.90572 1.40086 1.8286 1.40778C1.8286 1.36857 1.8286 1.33166 1.8286 1.29245C1.8286 3.33597 1.91625 5.39563 1.80323 7.43453C1.72251 8.89912 1.44112 10.3314 1.28428 11.7868C1.23354 12.2458 0.901412 13.2168 1.24046 13.5927C4.37723 13.5927 7.88072 13.6758 10.9921 14.1947C11.9654 14.3585 13.2109 13.7703 14.2027 13.5927Z" stroke="#FF6B00" stroke-width="2" stroke-miterlimit="10"/>
<path d="M25.8698 14.1303C25.7799 14.504 25.0026 14.4002 24.7304 14.4071C23.7871 14.4325 22.8414 14.384 21.8958 14.4025C20.6941 14.4255 19.5063 14.5755 18.3093 14.6493C17.3752 14.7046 16.5495 13.9089 15.6153 13.8628C15.6153 14.0404 15.6153 14.218 15.6153 14.3979C15.6153 13.3115 15.613 12.2252 15.6223 11.1389C15.6407 8.76321 15.4608 6.42217 15.2832 4.05806C15.214 3.13548 15.0872 2.18061 15.1425 1.25342C15.1425 1.30647 15.1448 1.35952 15.1448 1.41256C15.8298 1.9984 17.0845 1.62245 17.9564 1.67088C18.7636 1.71471 19.6332 1.45177 20.4381 1.40564C21.1208 1.36643 21.8197 1.27879 22.5047 1.27187C23.4296 1.26264 24.2368 1.24189 25.111 1.61322C25.5308 1.79082 26.1074 2.15754 26.5756 2.08143C26.5548 4.51473 26.9538 7.21097 26.94 9.64428C26.9331 10.9197 26.9354 12.209 26.8431 13.4799C26.8131 13.9204 25.9528 13.7843 25.8698 14.1303Z" stroke="#FF6B00" stroke-width="2" stroke-miterlimit="10"/>
<path d="M13.4946 28.9927C13.4946 29.1887 13.4946 29.3871 13.4946 29.5831C13.4554 29.085 13.4923 28.5453 13.5038 28.0517C13.5338 26.7162 13.5845 25.3808 13.6007 24.0454C13.6306 21.8127 13.3746 19.5778 13.3746 17.3451C13.2155 17.1652 13.0079 17.2044 12.8049 17.2114C11.97 17.239 11.1351 17.1422 10.3001 17.1076C7.94525 17.0084 5.58806 17.1191 3.23318 17.0868C3.09941 17.0845 1.01207 17.2367 1.00054 16.6763C0.977475 19.3287 1.7017 22.1149 1.71323 24.7673C1.71323 25.8974 1.71093 27.0276 1.70401 28.1578C1.67172 28.4368 1.67864 28.7113 1.72707 28.9835C1.75936 28.9881 1.79165 28.9927 1.82394 28.995C2.28754 29.0527 2.44668 29.7677 2.89183 29.7907C3.94587 29.8461 4.97916 29.7907 6.02629 29.6523C7.25332 29.4909 8.48496 29.3248 9.72352 29.3871C10.2632 29.4148 10.7983 29.5232 11.338 29.537C11.744 29.5462 12.2491 29.6108 12.6412 29.5001C13.144 29.3594 13.0171 28.6583 13.4946 28.9927Z" stroke="#FF6B00" stroke-width="2" stroke-miterlimit="10"/>
<path d="M27.873 29.3944C27.5617 28.947 27.7669 27.9344 27.76 27.4132C27.7439 26.2807 27.5893 25.1713 27.4648 24.0504C27.2918 22.5005 27.0289 20.9782 27.0427 19.4098C27.0473 18.9439 26.9228 18.1989 27.0681 17.7584C27.1004 17.7538 26.4269 17.2141 26.4592 17.2072C25.8849 17.0273 25.4167 17.3686 24.8585 17.5416C23.7122 17.8968 22.612 17.6777 21.4634 17.4724C20.0726 17.2233 18.7234 17.2764 17.3256 17.334C16.8067 17.3548 16.5737 17.3617 16.0894 17.6062C16.0894 19.1953 16.0894 20.7845 16.0917 22.3736C16.094 24.0758 16.2785 26.0962 15.9648 27.803C15.9672 27.7522 15.9695 27.6992 15.9718 27.6485C16.0133 27.9921 16.0848 29.5397 16.2947 29.5467C16.8574 29.5674 17.4156 29.6481 17.9784 29.6643C19.6782 29.7081 21.3827 29.5882 23.0825 29.6481C24.0905 29.6827 25.1145 29.8304 26.1132 29.9941C26.5514 30.0702 27.4256 29.4083 27.873 29.3944Z" stroke="#FF6B00" stroke-width="2" stroke-miterlimit="10"/>
<path d="M21.0246 9.57264C20.5887 9.03293 20.305 8.65928 20.0375 8.01578C19.9314 7.76207 19.7123 7.44609 19.7169 7.1647C19.9798 7.08398 20.3627 7.19699 20.591 7.31231C20.8286 7.43455 21.0292 7.78283 21.2668 7.84049C21.4675 7.55449 21.4744 7.33999 21.8134 7.14395C22.1548 6.94559 22.7498 6.71956 23.0958 6.95943C24.3367 7.81281 21.5436 8.97757 21.1423 9.17131" stroke="#FF6B00" stroke-width="2" stroke-miterlimit="10"/>
<path d="M6.90314 24.3017C6.51797 23.8796 6.16508 23.0631 6.19737 22.4473C6.50182 22.3112 6.76014 22.7979 6.9954 22.9201C7.40134 23.1323 7.63429 22.4865 7.97795 22.2974C8.22012 22.1636 9.1773 21.9237 9.26725 22.4427C9.15885 22.8625 8.95127 23.2154 8.64682 23.5014C8.31238 23.8958 7.9272 24.2048 7.49129 24.4332" stroke="#FF6B00" stroke-width="2" stroke-miterlimit="10"/>
</svg>
