<svg width="33" height="32" viewBox="0 0 33 32" fill="none" xmlns="http://www.w3.org/2000/svg">
<path d="M24.8814 1.17554C24.8773 1.46876 24.8448 1.72408 24.8124 2.0193C24.7291 2.73939 24.7393 3.46348 24.6763 4.18357C24.524 5.91499 24.6032 7.67233 24.6032 9.40973C24.6032 10.2136 24.6012 11.0175 24.6053 11.8213C24.6093 12.6831 24.5037 13.5548 24.4388 14.4145C24.3474 15.6253 24.3474 16.8321 24.0063 18.0109C23.854 18.5395 23.586 19.0003 23.3444 19.493C23.1881 19.8102 23.0378 20.1313 22.8531 20.4345C22.5079 20.997 22.0491 21.5117 21.5719 21.9665C21.1334 22.3854 20.6339 22.7424 20.0715 22.9858C19.7893 23.1075 19.6025 23.0855 19.3406 23.275C19.0421 23.4904 18.7396 23.5862 18.3721 23.6141C17.9092 23.65 17.5904 23.9712 17.1539 24.0609C17.0179 24.0889 16.8899 24.0649 16.7539 24.0689C16.6219 24.0729 16.5265 24.1188 16.3986 24.1427C16.1083 24.1966 15.8078 24.1487 15.5134 24.1607C15.2251 24.1726 14.9489 24.2464 14.6586 24.2584C14.22 24.2744 13.9236 24.1228 13.5277 23.9772C13.1663 23.8435 12.7968 23.8395 12.4638 23.6241C11.9664 23.2989 11.3979 23.0656 10.937 22.6886C10.602 22.4133 10.2507 22.1101 10.003 21.753C9.79186 21.4459 9.60913 21.1028 9.41219 20.7856C9.199 20.4445 9.09748 20.0735 8.931 19.7105C8.78481 19.3913 8.62644 19.118 8.51478 18.7849C8.37468 18.368 8.19398 18.0229 8.12292 17.5881C8.08028 17.3347 8.03561 17.0555 7.94628 16.8141C7.89349 16.6745 7.87319 16.5967 7.8671 16.4451C7.85897 16.2736 7.78182 16.1459 7.76964 15.9724C7.73309 15.3939 7.77167 14.7995 7.77167 14.221C7.77167 13.1179 7.77573 12.0168 7.76964 10.9138C7.76558 10.0839 7.82243 9.23818 7.91176 8.41436C8.00719 7.54267 7.95643 6.65303 7.95643 5.77735C7.95643 4.18557 7.95643 2.59178 7.95643 1C10.001 1 12.076 1.38299 14.1145 1.2274C16.1854 1.06982 18.2462 1.17952 20.3192 1.18151C21.3161 1.18151 22.2968 1.27328 23.2957 1.27328C23.5921 1.27328 23.9413 1.22141 24.2276 1.28125C24.5261 1.33511 24.5606 1.17554 24.8814 1.17554Z" stroke="#FF6B00" stroke-width="2" stroke-miterlimit="10" stroke-linecap="round" stroke-linejoin="round"/>
<path d="M14.6172 9.07878C14.9319 8.36667 15.2324 7.67649 15.5999 6.98632C15.8334 6.54748 16.0039 6.06077 16.2882 5.65186C16.4546 5.69574 16.4932 5.90917 16.544 6.04681C16.6963 6.45572 16.8912 6.83472 17.1145 7.20973C17.3744 7.64857 17.6586 8.07344 17.9246 8.50829C18.016 8.6579 18.0525 8.75364 18.1987 8.83144C18.5398 9.01296 19.0961 8.87731 19.4981 8.91122C19.8859 8.94313 20.2697 9.05085 20.6554 9.10271C20.8991 9.13463 21.1752 9.12864 21.4026 9.22439C21.7376 9.36601 21.6381 9.43782 21.4209 9.7091C20.8706 10.3913 20.2615 10.9399 19.555 11.4645C19.2301 11.7058 19.2342 11.7657 19.2362 12.1526C19.2443 13.4612 19.5651 14.7478 19.622 16.0503C19.4819 16.1321 19.3479 15.9805 19.2342 15.9067C18.7936 15.6195 18.3713 15.3123 17.9835 14.9592C17.6302 14.6381 17.3033 14.295 16.9541 13.9698C16.7998 13.8262 16.613 13.6826 16.4831 13.513C16.2942 13.537 16.1399 13.6287 16.0181 13.7923C15.5654 14.1813 15.1045 14.5603 14.6334 14.9293C14.2395 15.2325 13.8274 15.5137 13.403 15.7731C13.2934 15.8189 13.2 15.8828 13.1229 15.9665C13.1127 15.8808 13.0822 15.801 13.066 15.7152C12.9706 15.2305 13.0782 14.7258 13.1472 14.2451C13.2305 13.6666 13.3969 13.0323 13.3279 12.4439C12.5625 12.4638 11.8397 11.8734 11.328 11.3787C11.1128 11.1712 10.928 10.9339 10.7128 10.7304C10.6438 10.6646 10.4367 10.5429 10.4062 10.4412C10.8651 10.3634 11.3666 10.2038 11.8072 10.0841C12.1016 10.0023 12.394 9.92055 12.6884 9.83677C13.2792 9.6353 13.8944 9.53158 14.6172 9.07878Z" stroke="#FF6B00" stroke-width="2" stroke-miterlimit="10" stroke-linecap="round" stroke-linejoin="round"/>
<path d="M14.712 24.3424C14.7059 25.1762 14.6693 25.988 14.3993 26.7899C14.0257 27.899 13.1405 28.3318 12.1375 28.7966C11.8106 28.9482 11.5507 29.1437 11.1893 29.1597C11.0695 29.1656 10.9477 29.1557 10.8279 29.1557C10.5112 29.1557 10.2777 29.0539 10.1985 29.419C10.1295 29.7401 10.1802 30.1111 10.1782 30.4363C10.166 30.6118 10.1701 30.7873 10.1904 30.9609C10.2452 31.0147 10.3102 31.0127 10.3853 30.9569C11.2056 30.925 12.038 30.8173 12.8603 30.7674C13.8145 30.7095 14.7688 30.6736 15.719 30.5639C17.4712 30.3605 19.2356 30.4263 20.9979 30.4263C21.7146 30.4263 22.5004 30.5181 23.209 30.4183C23.3023 30.1929 23.2272 29.768 23.2008 29.5406C23.1683 29.2594 23.1947 28.8804 23.1156 28.6131C22.476 28.5373 21.7999 28.661 21.1644 28.7248C20.6507 28.7767 20.1837 28.8445 19.6802 28.7069C19.3208 28.6071 18.9371 28.4795 18.6163 28.286C18.1493 28.0027 18.0519 27.5858 18.0377 27.0812C18.0214 26.4448 17.8631 25.8305 17.8488 25.1961C17.8529 24.9089 17.8549 24.6197 17.857 24.3324C17.859 24.2088 17.857 24.0851 17.8549 23.9614C17.8996 23.7959 17.8834 23.8218 18.0417 23.7041" stroke="#FF6B00" stroke-width="2" stroke-miterlimit="10" stroke-linecap="round" stroke-linejoin="round"/>
<path d="M24.4192 4.62875C25.0547 4.8003 25.6374 4.84019 26.2973 4.7983C27.5256 4.7225 28.7296 4.62277 29.9621 4.62476C30.3316 4.61479 30.7011 4.62277 31.0706 4.6487C31.2351 4.66864 31.3995 4.69258 31.562 4.72649C31.7142 4.71054 31.8422 4.62676 32.0005 4.62875C31.7183 5.28103 32.0432 6.22652 31.9152 6.91869C31.7589 7.76644 31.4767 8.5404 31.1742 9.34427C30.8757 10.1342 30.6158 10.9081 30.228 11.6601C29.9296 12.2386 29.6839 12.847 29.2393 13.3357C28.7601 13.8623 28.2241 14.3749 27.6515 14.8018C27.0729 15.2347 26.4333 15.476 25.7998 15.8071C25.2923 16.0724 24.805 16.3378 24.2324 16.3497" stroke="#FF6B00" stroke-width="2" stroke-miterlimit="10" stroke-linecap="round" stroke-linejoin="round"/>
<path d="M7.95918 3.90039C7.3582 4.17766 6.71661 4.17566 6.06081 4.17766C5.67098 4.17766 5.28318 4.18364 4.89336 4.16369C4.43247 4.13976 3.92285 4.02406 3.464 4.11183C2.81835 4.2355 2.22549 4.427 1.55953 4.45093C1.42959 4.45492 1.38086 4.41902 1.29559 4.5028C1.21031 4.58458 1.2225 4.72022 1.11489 4.80998C1.1088 5.39244 0.95449 5.86519 1.01337 6.44765C1.13925 7.65844 1.19407 8.89716 1.63669 10.0481C1.94733 10.856 2.35137 11.6459 2.70465 12.4378C3.02138 13.1479 3.49648 13.6087 4.04467 14.1453C4.55632 14.644 5.14512 15.1047 5.82529 15.3581C6.10344 15.4618 6.46078 15.4777 6.75518 15.5097C7.00086 15.5376 7.25059 15.5475 7.49829 15.5436C7.49626 15.3541 7.46378 15.1666 7.40083 14.985" stroke="#FF6B00" stroke-width="2" stroke-miterlimit="10" stroke-linecap="round" stroke-linejoin="round"/>
</svg>
