<svg width="107" height="98" viewBox="0 0 107 98" fill="none" xmlns="http://www.w3.org/2000/svg">
<path d="M1.81092 23.3748C1.88547 23.9712 2.56263 23.7415 2.86655 24.2625C3.31277 25.0275 3.10647 26.1575 3.10647 26.9976C3.10647 28.4659 1.63861 28.5928 1.16314 27.2615C0.0693267 24.1988 4.83387 22.7698 4.83387 24.8863C4.83387 29.404 1.9488 25.828 3.10647 24.6704C5.6522 22.1246 7.69403 27.6933 4.83387 27.6933" stroke="#1A1A1A" stroke-width="2" stroke-linecap="round"/>
<path d="M17.1136 68.5197C19.606 68.5197 22.1223 68.4085 24.6105 68.5395C28.871 68.7637 33.0475 71.4158 36.4196 73.7814C39.2641 75.7767 42.8769 78.2456 44.3517 81.5354C45.9943 85.1997 46.666 88.7052 46.666 92.7115C46.666 95.0033 45.9655 96.3977 43.6593 96.9248C41.3216 97.4592 41.6813 95.025 41.6813 93.4434C41.6813 88.9762 41.467 84.5893 43.1055 80.3486C45.2756 74.7317 49.6259 71.1017 55.1322 68.8757C59.916 66.9419 66.8593 65.9694 71.4315 68.8955C77.18 72.5746 83.5474 78.5701 84.5856 85.63C84.9515 88.1181 85.3686 91.7485 82.5482 92.9291C79.8667 94.0516 77.6365 91.8726 75.9415 89.8829C73.9679 87.566 73.6065 84.7982 73.3898 81.8717C73.2069 79.4033 72.3411 76.9659 72.3018 74.4935C72.2245 69.6226 71.1742 62.1073 74.6359 58.0161C79.737 51.9876 87.2556 50.0049 95.0496 50.0049C98.7862 50.0049 105.771 51.9324 105.771 56.7699C105.771 60.9442 99.371 60.1767 96.9486 59.3414C94.2263 58.4027 91.2353 58.5579 88.4824 57.6403C84.7747 56.4044 81.0776 54.6084 78.0184 52.161C74.4394 49.2978 71.0142 44.22 70.3435 39.6596C69.0513 30.8724 74.2267 21.4335 83.0625 18.6723C85.2137 18.0001 90.4605 16.8092 90.4605 20.3734C90.4605 25.3909 85.1417 27.3079 81.2031 28.8396C78.7979 29.775 76.7195 31.1035 74.1612 31.8462C71.1253 32.7276 68.1461 32.5584 65.0027 32.5584C58.5534 32.5584 52.2455 25.7571 49.9496 20.0174C48.3635 16.0521 49.8979 10.7384 50.7408 6.7643C51.0716 5.20518 51.0551 2.42694 52.7189 1.50263C56.7181 -0.719157 56.9915 4.99974 56.9915 7.45662C56.9915 11.901 56.0814 16.7978 53.253 20.2547C50.6682 23.4139 46.4471 26.6333 42.3934 27.2967C37.7658 28.0539 32.552 27.8324 28.4282 25.3582C24.152 22.7924 21.2281 16.9482 20.4961 12.2633C20.0848 9.63071 20.0247 6.37057 23.0083 5.51811C24.6206 5.05743 25.0964 6.86567 25.6589 7.9907C26.1826 9.03817 26.5497 10.1564 27.0831 11.1952C27.6094 12.22 28.5199 12.9596 28.7842 14.1227C29.6467 17.9175 30.9363 23.4536 27.1622 26.1494C24.4848 28.0618 21.9094 28.811 18.8939 29.888C16.7428 30.6562 14.1079 31.7984 11.9509 30.6001C11.2319 30.2006 10.4921 29.805 9.63651 29.7099C8.46288 29.5795 7.71039 28.1885 6.78809 27.5736" stroke="#1A1A1A" stroke-width="2" stroke-linecap="round"/>
<path d="M29.7722 80.6687C28.3583 80.5116 25.7548 74.941 24.5563 74.2956C22.8717 73.3885 21.2232 71.9311 19.3935 71.3681C17.7757 70.8703 15.4501 69.6929 13.8747 69.5878C13.7255 69.5779 14.0903 68.8733 14.3099 68.5988C14.5499 68.2988 14.5758 67.135 15.1407 67.135C15.9323 67.135 15.6275 68.7643 15.655 69.2318C15.7042 70.0692 16.0913 68.4356 15.9912 67.9856C15.8394 67.3021 14.768 67.0955 16.1891 67.0955C16.8556 67.0955 17.8884 67.2897 18.5034 67.0163C19.8994 66.3959 21.0171 65.7536 22.242 64.8009C24.5433 63.011 26.4207 60.5117 28.8289 58.9062" stroke="#1A1A1A" stroke-width="2" stroke-linecap="round"/>
</svg>
