<svg width="136" height="126" viewBox="0 0 136 126" fill="none" xmlns="http://www.w3.org/2000/svg">
<g id="Group 4734">
<path id="Vector 11524" d="M2.71756 30.7061C2.81162 31.4586 3.66607 31.1687 4.04956 31.8262C4.61261 32.7914 4.35229 34.2173 4.35229 35.2773C4.35229 37.13 2.50014 37.2901 1.90019 35.6103C0.520006 31.7457 6.53194 29.9427 6.53194 32.6132C6.53194 38.3137 2.89154 33.8015 4.35229 32.3408C7.56452 29.1286 10.1409 36.1552 6.53194 36.1552" stroke="#1A1A1A" stroke-width="3" stroke-linecap="round"/>
<path id="Vector 11525" d="M22.0269 87.6702C25.1718 87.6702 28.3469 87.5299 31.4865 87.6951C36.8624 87.9781 42.1323 91.3246 46.3873 94.3094C49.9764 96.8272 54.5352 99.9424 56.396 104.093C58.4687 108.717 59.3163 113.14 59.3163 118.196C59.3163 121.087 58.4324 122.847 55.5224 123.512C52.5726 124.186 53.0265 121.115 53.0265 119.119C53.0265 113.482 52.7561 107.947 54.8236 102.596C57.5619 95.5085 63.0511 90.9281 69.9989 88.1194C76.0352 85.6793 84.7964 84.4522 90.5655 88.1444C97.819 92.7867 105.853 100.352 107.164 109.26C107.625 112.4 108.151 116.98 104.593 118.47C101.209 119.886 98.395 117.137 96.2562 114.626C93.7659 111.703 93.31 108.211 93.0365 104.518C92.8058 101.403 91.7132 98.3276 91.6637 95.2079C91.5661 89.0619 90.2408 79.579 94.6089 74.4167C101.046 66.8098 110.532 64.3081 120.367 64.3081C125.082 64.3081 133.895 66.7402 133.895 72.8443C133.895 78.1113 125.82 77.143 122.763 76.089C119.328 74.9045 115.554 75.1003 112.081 73.9425C107.402 72.383 102.737 70.1168 98.877 67.0287C94.361 63.4159 90.0389 57.0086 89.1927 51.2544C87.5622 40.1666 94.0925 28.2565 105.242 24.7724C107.956 23.9242 114.576 22.4215 114.576 26.9189C114.576 33.25 107.865 35.6689 102.895 37.6015C99.8605 38.7818 97.2379 40.4582 94.0099 41.3954C90.1791 42.5075 86.42 42.2939 82.4537 42.2939C74.3159 42.2939 66.3565 33.712 63.4595 26.4696C61.4582 21.4662 63.3942 14.7613 64.4579 9.74682C64.8752 7.77951 64.8545 4.27391 66.9539 3.10761C72.0001 0.304145 72.3451 7.52028 72.3451 10.6204C72.3451 16.2283 71.1967 22.4071 67.6278 26.7692C64.3663 30.7554 59.04 34.8177 53.925 35.6547C48.0859 36.6102 41.5071 36.3307 36.3037 33.2087C30.9079 29.9712 27.2186 22.597 26.2949 16.6855C25.7759 13.3637 25.7 9.25001 29.4648 8.17437C31.4993 7.59308 32.0996 9.87472 32.8093 11.2943C33.4702 12.616 33.9334 14.027 34.6064 15.3377C35.2705 16.6309 36.4194 17.5641 36.7529 19.0317C37.8412 23.82 39.4685 30.8055 34.7063 34.2071C31.3279 36.6202 28.0782 37.5655 24.2732 38.9244C21.559 39.8938 18.2342 41.335 15.5125 39.8229C14.6053 39.3189 13.6717 38.8197 12.5922 38.6998C11.1113 38.5352 10.1618 36.78 8.99805 36.0041" stroke="#1A1A1A" stroke-width="3" stroke-linecap="round"/>
<path id="Vector 11526" d="M38 103C36.2159 102.802 32.9309 95.7728 31.4186 94.9585C29.2929 93.8139 27.2128 91.9748 24.9042 91.2645C22.8628 90.6364 19.9284 89.1507 17.9405 89.0181C17.7521 89.0056 18.2125 88.1165 18.4896 87.7702C18.7924 87.3917 18.8251 85.9232 19.5379 85.9232C20.5368 85.9232 20.1521 87.979 20.1868 88.5689C20.249 89.6255 20.7373 87.5643 20.6111 86.9964C20.4195 86.134 19.0677 85.8732 20.8607 85.8732C21.7018 85.8732 23.005 86.1183 23.781 85.7734C25.5425 84.9905 26.9528 84.18 28.4983 82.978C31.4022 80.7194 33.7711 77.5659 36.8098 75.54" stroke="#1A1A1A" stroke-width="3" stroke-linecap="round"/>
</g>
</svg>
