<svg width="24" height="26" viewBox="0 0 24 26" fill="none" xmlns="http://www.w3.org/2000/svg">
<path d="M12.6394 1.88892C12.6394 6.07822 12.6394 10.2675 12.6394 14.4568C12.6394 16.9969 13.0818 19.527 13.0818 22.1111C13.0818 23.1139 12.8699 24.0311 11.5335 23.3951C10.6453 22.9724 10.5313 21.3264 9.87457 20.6667C8.0223 18.8057 5.29827 17.8191 3.23898 16.2099C2.86283 15.916 2.50482 15.6115 2.13305 15.321C1.39682 14.7457 1.5336 14.4934 2.13305 15.2346C3.9676 17.5031 6.4753 19.113 8.83008 20.7778C9.83019 21.4849 10.6384 22.3899 11.7547 22.9506C12.3196 23.2345 13.2557 24.1111 13.8559 24.1111C14.477 24.1111 16.4159 22.2088 16.9402 21.7778C17.7505 21.1117 18.3751 20.2116 19.0538 19.4445C19.6082 18.8178 20.2054 18.2268 20.725 17.5556C21.144 17.0144 21.7942 15.9568 22.3716 15.6667" stroke="#1A1A1A" stroke-width="3" stroke-linecap="round"/>
</svg>
