<svg width="23" height="29" viewBox="0 0 23 29" fill="none" xmlns="http://www.w3.org/2000/svg">
<g id="Black">
<path id="Vector" d="M10.4262 0.0332632C10.272 0.0507908 9.8373 0.0963631 9.46221 0.13843C7.08545 0.394335 5.01717 1.18659 3.23284 2.5222C2.38801 3.15671 1.65184 3.88236 1.45553 4.27849C1.33985 4.51336 1.32933 4.81133 1.438 5.02867C1.61328 5.39676 2.11808 5.551 2.50018 5.35118C2.53875 5.33015 2.8262 5.06723 3.13469 4.76225C3.7727 4.13476 4.12676 3.84029 4.67713 3.47922C5.69374 2.81317 6.8015 2.32589 7.98988 2.02792C9.12918 1.74397 10.7417 1.58973 11.7408 1.67386C13.3043 1.80357 14.1877 1.96833 15.2639 2.32589C16.4663 2.72553 17.4794 3.26188 18.6958 4.14177C19.418 4.6641 19.6844 4.7272 20.0595 4.4783C20.4311 4.23291 20.5047 3.73863 20.2278 3.35653C19.9578 2.98143 18.6958 2.11907 17.6091 1.56869C16.0562 0.783451 14.4681 0.320718 12.6698 0.13843C12.2842 0.0963631 11.8144 0.0507908 11.6251 0.0297575C11.2325 -0.0123091 10.8294 -0.00880337 10.4262 0.0332632Z" fill="#FEFEFE"/>
<path id="Vector_2" d="M10.2152 2.76809C9.32131 2.82417 8.0523 3.07657 7.22499 3.36753C4.74656 4.23341 2.9377 5.77585 0.95005 8.71701C0.466284 9.43564 0.329568 9.7231 0.333073 10.007C0.336579 10.4487 0.655584 10.7607 1.10429 10.7607C1.47588 10.7607 1.64415 10.61 2.19803 9.76867C3.11648 8.38748 4.16114 7.14652 5.00948 6.4384C5.50376 6.02474 6.11373 5.63212 6.74473 5.32363C7.65617 4.87843 8.39935 4.65407 9.60175 4.46127C10.1661 4.37012 10.2923 4.36311 11.2143 4.36311C12.1853 4.35961 12.2309 4.36311 12.8269 4.47178C13.8855 4.66459 14.6147 4.90297 15.5787 5.37622C17.0335 6.08784 18.4568 7.22014 19.519 8.51368C19.9221 9.00446 20.15 9.24634 20.2621 9.30594C20.6723 9.51627 21.1455 9.35852 21.3348 8.94136C21.5382 8.50317 21.3769 8.16663 20.4795 7.14652C18.7302 5.16238 16.4481 3.71108 14.1064 3.09761C12.8829 2.7751 11.6876 2.67344 10.2152 2.76809Z" fill="#FEFEFE"/>
<path id="Vector_3" d="M10.1445 5.49845C9.99021 5.51597 9.62563 5.57557 9.33117 5.63516C7.08411 6.08738 5.20864 7.38794 3.69074 9.55788C3.53299 9.78223 3.21749 10.266 2.98963 10.6306C2.75826 10.9987 2.45678 11.4544 2.31305 11.6507C1.9625 12.1204 1.19128 12.8846 0.749579 13.1931C0.171163 13.5998 0.0624906 13.726 0.00990737 14.0485C-0.0391703 14.357 0.167657 14.7216 0.455112 14.8372C0.837217 14.9915 1.19829 14.8793 1.81877 14.4166C2.7863 13.6979 3.47339 12.9232 4.26214 11.6507C5.00532 10.4588 5.42598 9.8874 6.02193 9.27042C7.14721 8.10307 8.34961 7.45104 9.86401 7.17761C10.2566 7.10749 10.4319 7.09698 11.1435 7.09698C11.8902 7.09698 12.0164 7.10399 12.4897 7.19163C14.1583 7.49661 15.3642 8.12761 16.472 9.27042C17.3203 10.1433 18.0144 11.3177 18.2878 12.3343C18.4912 13.0985 18.4176 14.2693 18.0144 16.6636C17.8216 17.8345 17.7866 18.157 17.7901 18.8721C17.7901 19.5417 17.7971 19.5908 17.8987 19.9764C18.088 20.688 18.3755 21.2524 18.8978 21.9605C19.2484 22.4338 19.988 23.1945 20.2194 23.3172C20.563 23.5065 20.889 23.4749 21.1519 23.233C21.3482 23.0542 21.4323 22.8404 21.4043 22.609C21.3727 22.3426 21.2781 22.1954 20.8399 21.7327C20.1177 20.972 19.7532 20.4181 19.5323 19.7485C19.4131 19.3839 19.4061 19.3384 19.4026 18.8897C19.4026 18.6162 19.4272 18.2481 19.4622 18.0133C19.4938 17.7924 19.5428 17.4524 19.5709 17.2596C19.6024 17.0668 19.6655 16.6496 19.7146 16.3306C19.8022 15.7627 19.8373 15.5138 19.967 14.5252C20.0617 13.7891 20.0546 12.79 19.946 12.2852C19.8268 11.7103 19.6235 11.1564 19.2939 10.4939C18.2703 8.42558 16.6578 6.9217 14.5685 6.09089C14.0496 5.88406 13.4502 5.7193 12.7736 5.60011C12.2408 5.50546 12.0865 5.49144 11.3013 5.48092C10.821 5.47391 10.2987 5.48092 10.1445 5.49845Z" fill="#FEFEFE"/>
<path id="Vector_4" d="M10.5028 8.20181C9.09001 8.31048 7.53355 9.10625 6.41177 10.2911C5.74221 10.9992 5.2304 11.767 4.69405 12.8712C4.51878 13.2288 4.28741 13.66 4.17523 13.8282C3.5863 14.7256 2.39792 15.8614 1.09035 16.7799C0.0947701 17.474 0.0246591 17.5511 0.00362582 17.9402C-0.00689083 18.1295 0.00362582 18.2067 0.0597146 18.3153C0.206948 18.5993 0.455842 18.75 0.781858 18.75C1.04127 18.75 1.36729 18.5817 2.06489 18.0769C3.31637 17.1795 4.39258 16.2085 5.08317 15.3496C5.43022 14.9184 5.75624 14.3821 6.13133 13.6319C6.52045 12.8467 6.67469 12.5802 7.01122 12.107C8.53263 9.97562 10.9515 9.22543 13.0618 10.2315C14.0749 10.7118 15.0144 11.6443 15.3825 12.5206C15.6314 13.1201 15.6734 13.3655 15.691 14.2103C15.7085 14.9465 15.7015 15.0131 15.5998 15.6301C15.5402 15.9876 15.4386 16.5555 15.372 16.8956C15.0565 18.4801 14.9793 19.2303 15.0354 20.1242C15.109 21.2705 15.5648 22.6692 16.1467 23.5456C16.3921 23.9172 16.8969 24.45 17.2615 24.72C17.591 24.9654 18.4288 25.386 18.7513 25.4666C19.3788 25.6244 19.8766 25.2984 19.8731 24.7305C19.8696 24.415 19.6032 24.089 19.214 23.9347C18.4323 23.6262 17.9976 23.3107 17.5875 22.7674C17.2019 22.2486 16.946 21.6 16.7496 20.6325C16.648 20.1277 16.641 20.0681 16.6585 19.4687C16.6725 18.8061 16.6971 18.6343 16.967 17.2251C17.2054 15.9911 17.279 15.4969 17.321 14.8869C17.4227 13.3164 17.1423 12.1315 16.4061 11.0273C15.3369 9.43226 13.507 8.33853 11.6596 8.19831C11.1478 8.15975 11.0531 8.15975 10.5028 8.20181Z" fill="#FEFEFE"/>
<path id="Vector_5" d="M20.6867 10.4519C20.5114 10.5185 20.3431 10.6692 20.2625 10.8375C20.1503 11.0689 20.1643 11.2897 20.3256 11.7665C20.6832 12.8252 20.8199 13.684 20.8444 15.0161C20.8725 16.3798 20.7813 17.3473 20.4868 18.8722C20.3641 19.5102 20.3501 19.6224 20.3957 19.7872C20.5605 20.3936 21.2651 20.5935 21.6998 20.1553C21.8365 20.0186 21.8785 19.9484 21.9522 19.696C22.0363 19.4226 22.2291 18.4516 22.2747 18.0835C22.2852 17.9958 22.3273 17.6803 22.3693 17.3824C22.4394 16.8916 22.4464 16.6953 22.45 15.3667C22.45 13.9189 22.45 13.8838 22.3518 13.2634C22.173 12.1486 21.8856 11.153 21.6332 10.7849C21.4123 10.4659 21.0267 10.3292 20.6867 10.4519Z" fill="#FEFEFE"/>
<path id="Vector_6" d="M10.811 10.9679C9.9066 11.0625 8.99516 11.5253 8.33612 12.2194C7.96804 12.605 7.77523 12.9065 7.36508 13.7267C6.5553 15.3428 5.98389 16.1912 5.08297 17.1166C4.2802 17.9369 3.55805 18.5153 1.53885 19.9561C0.949922 20.3768 0.385529 20.801 0.287373 20.8991C0.0560067 21.1235 -0.0176098 21.3022 0.00342347 21.5897C0.0419845 22.1366 0.613389 22.4275 1.15324 22.1786C1.35306 22.0875 3.06728 20.8746 4.03831 20.1419C6.47467 18.3015 7.51932 17.0605 8.79885 14.4875C9.17394 13.7303 9.39129 13.4183 9.73483 13.1308C10.9197 12.1387 12.4341 12.5489 12.9985 14.0142C13.1457 14.3998 13.1878 14.6943 13.1703 15.1886C13.1527 15.5531 13.1317 15.6688 13.023 16.0089C12.7075 16.9729 11.9188 18.2033 10.762 19.5354C10.3308 20.0367 9.0828 21.3022 8.44129 21.8912C7.33704 22.9078 5.91028 24.0927 4.60621 25.0777C3.91211 25.6036 3.76488 25.7333 3.67374 25.9085C3.30565 26.6202 4.04182 27.2897 4.785 26.9181C5.18112 26.7218 6.9374 25.3547 8.30457 24.1803C11.7716 21.2041 13.9099 18.5749 14.59 16.4541C14.7618 15.9177 14.8039 15.6233 14.8074 15.0168C14.8074 14.4419 14.7688 14.1825 14.6075 13.6847C14.1098 12.1422 12.9424 11.1397 11.442 10.9679C11.2703 10.9504 11.1125 10.9363 11.0915 10.9363C11.074 10.9398 10.9478 10.9539 10.811 10.9679Z" fill="#FEFEFE"/>
<path id="Vector_7" d="M10.9511 14.1257C10.7688 14.1713 10.576 14.3045 10.4673 14.4658C10.4217 14.5359 10.2745 14.7988 10.1448 15.0512C9.41213 16.4604 8.22725 17.9888 6.60418 19.6084C5.39827 20.8143 4.29402 21.7573 2.56228 23.0614C1.67538 23.7274 1.54918 23.8361 1.45803 24.0009C1.19512 24.4706 1.44051 25.028 1.95933 25.1367C2.33092 25.2138 2.55177 25.1016 3.66653 24.2673C7.36839 21.4979 10.299 18.3569 11.5856 15.7874C11.8765 15.2054 11.9361 14.9881 11.8765 14.7217C11.7854 14.294 11.3717 14.0276 10.9511 14.1257Z" fill="#FEFEFE"/>
<path id="Vector_8" d="M13.2761 20.2364C12.8905 20.3731 12.6171 20.8463 12.4138 21.7122C12.2946 22.231 12.2876 22.9111 12.3998 23.4229C12.568 24.1836 12.8625 24.8462 13.3077 25.4737C13.7424 26.0801 14.6994 27.0056 15.1411 27.2475C15.2568 27.3106 15.397 27.3526 15.5267 27.3632C16.1717 27.4228 16.5889 26.7181 16.2278 26.1783C16.1717 26.0941 15.9263 25.8523 15.6845 25.6419C14.5697 24.6849 14.0193 23.7524 13.9597 22.7253C13.9352 22.3467 13.9983 21.9962 14.1771 21.5019C14.3418 21.0497 14.3453 20.8358 14.1876 20.5729C13.9913 20.2504 13.6232 20.1137 13.2761 20.2364Z" fill="#FEFEFE"/>
<path id="Vector_9" d="M9.73534 24.4288C9.10785 24.534 8.3156 25.0107 7.53035 25.7539C6.9274 26.3253 6.65747 26.7214 6.65747 27.0334C6.65747 27.6084 7.27094 27.9905 7.77925 27.7275C7.86689 27.682 8.17187 27.412 8.46283 27.1281C9.46892 26.143 9.9597 25.8941 10.4575 26.122C10.8361 26.2938 11.1165 26.6829 11.4075 27.4261C11.6424 28.029 11.7826 28.1973 12.1331 28.313C12.3049 28.3691 12.333 28.3691 12.4907 28.32C13.02 28.1482 13.2023 27.6644 12.9815 27.0019C12.8588 26.6268 12.5503 25.9888 12.3505 25.6908C11.723 24.7548 10.7064 24.2676 9.73534 24.4288Z" fill="#FEFEFE"/>
</g>
</svg>
