<svg width="27" height="32" viewBox="0 0 27 32" fill="none" xmlns="http://www.w3.org/2000/svg">
<path d="M6.57968 27.3426C5.84942 27.1333 5.08799 26.9329 4.36664 26.6925C3.76996 26.4921 3.46719 26.1849 2.93285 25.891C1.58812 25.1519 1.12503 24.2568 1.01371 22.6672C0.857862 20.4497 2.06455 18.1298 2.91948 16.1394C3.36476 15.1064 3.94808 14.0243 4.20188 12.929C4.29094 12.5327 4.13509 12.1007 4.53139 11.8291C4.53139 13.0002 4.72285 15.3958 5.52435 16.3487C6.71324 17.7691 9.39828 16.4377 10.2176 15.2088C11.2284 13.6815 10.3378 12.3902 10.1063 10.8273C9.5942 7.33628 10.9924 3.76963 13.0228 1C13.0228 1.99297 16.4916 4.29949 17.0882 4.82046C18.9762 6.46799 21.4653 8.56523 22.1599 11.0944C22.4182 12.2032 22.4048 13.3075 22.1288 14.4162C21.8482 15.4181 21.6701 16.4333 21.5944 17.4708C22.151 19.1094 24.5288 18.0452 25.6108 17.689C25.6153 19.9644 26.6528 22.4178 25.3214 24.4216C24.2038 26.1047 21.8126 27.9616 20.1651 29.0614C18.7847 29.9831 17.4533 30.6021 15.7791 30.6199C14.0158 30.6377 11.7048 30.602 10.0974 29.7382C9.35374 29.3374 8.78379 28.6784 8.20493 28.0818C7.4346 27.2847 7.61718 27.6409 6.57968 27.3426Z" stroke="#F16602" stroke-width="2" stroke-miterlimit="10" stroke-linecap="round" stroke-linejoin="round"/>
<path d="M12.7233 24.417C11.6502 24.6085 11.196 24.7243 10.3544 23.9584C9.59298 23.2682 8.96514 21.9457 9.21004 20.9038C10.3455 21.6073 12.3448 21.5227 13.5159 20.4496C14.3797 19.657 15.1768 18.3212 15.7245 17.2792C16.0718 16.6202 16.517 14.6343 17.412 14.4651C17.4477 16.0636 17.038 18.7487 17.0959 20.3205C17.136 21.4025 18.1913 21.5895 19.1709 21.4916C19.1219 22.3153 18.8637 23.3617 18.267 23.8382C17.697 24.2923 16.6017 24.7376 15.9471 24.9024C14.3886 25.2853 12.8613 26.0378 12.7233 24.417Z" stroke="#F16602" stroke-width="2" stroke-miterlimit="10" stroke-linecap="round" stroke-linejoin="round"/>
</svg>
