<svg width="49" height="56" viewBox="0 0 49 56" fill="none" xmlns="http://www.w3.org/2000/svg">
<path id="Vector 10316" d="M4.8125 2C4.8125 14.1957 4.8125 26.3913 4.8125 38.587C4.8125 41.1081 6.84231 55.0769 10.6458 48.3127C12.3345 45.3096 19.1197 28.0762 24.0313 34.0072C25.5044 35.7861 40.0176 49.8696 43.0417 47.1806C46.372 44.2193 45.125 35.9422 45.125 32.0518C45.125 22.7487 47 13.4938 47 4.31563C47 2.00542 31.9914 5.66431 29.3958 5.70502C24.0169 5.78937 18.6302 5.70502 13.25 5.70502C10.5938 5.70502 7.9375 5.70502 5.28125 5.70502C0.357021 5.70502 2.9375 7.4024 2.9375 10.7994C2.9375 14.448 4.8125 17.4152 4.8125 20.9882C4.8125 26.7001 4.8125 32.412 4.8125 38.1239C4.8125 42.0691 4.8125 46.0142 4.8125 49.9594C4.8125 56.0915 5.99152 54.5472 9.5 49.9594C11.5705 47.2519 13.9085 43.2363 14.9167 39.9764C15.302 38.7305 15.6355 35.8699 16.5833 34.9335C19.9618 31.5956 21.1645 39.1136 22.2083 40.4395C26.2218 45.5378 31.2308 49.0015 35.9583 52.7381C38.6659 54.8782 45.138 40.2529 44.1354 36.786C42.7926 32.1423 43.25 26.5894 43.25 21.4513C43.25 18.3915 44.1875 15.7406 44.1875 12.6519C44.1875 8.50714 42.2183 9.41003 38.5104 9.41003C32.0512 9.41003 25.537 9.64619 19.0833 9.41003C13.0279 9.18844 8.25193 3.85251 2 3.85251" stroke="#6736D0" stroke-width="3" stroke-linecap="round"/>
</svg>
