<svg width="48" height="51" viewBox="0 0 48 51" fill="none" xmlns="http://www.w3.org/2000/svg">
<g id="Group 4851">
<path id="Vector 11564" d="M5.43547 26.4955C4.3165 23.232 4.54806 20.4159 5.78736 17.205C6.71289 14.8071 8.05529 12.0244 9.87842 10.1698C10.8388 9.19288 12.4748 8.34367 13.6829 7.69536C15.2515 6.85363 17.0595 6.23953 18.7782 5.77147C21.9013 4.92097 24.9106 5.42722 27.7929 6.70772C32.3232 8.72037 36.1351 11.4938 39.1126 15.4384C41.8953 19.1249 43.2035 24.3823 43.1921 28.9236C43.1839 32.192 41.3817 36.0235 39.2527 38.4645C36.2097 41.9536 32.2796 43.8679 27.8357 45.0049C26.3408 45.3873 23.0522 45.2741 21.73 44.4181C20.7739 43.7992 19.7008 43.797 18.8924 42.8877C18.0035 41.888 17.3747 40.6792 16.6499 39.5615C15.4266 37.675 14.7265 35.7375 13.9983 33.6137C13.6252 32.5254 12.3551 32.4417 11.3625 32.3542C10.0928 32.2423 9.67268 32.4403 8.67727 31.5062C7.32164 30.2342 6.31881 28.3576 5.72973 26.6395" stroke="#FF6B00" stroke-width="2" stroke-linecap="round"/>
<path id="Vector 11565" d="M10.6521 19.5644C9.56691 19.9365 9.90201 23.6698 10.1659 24.5745C10.4393 25.5117 10.5734 26.4772 10.9026 27.4374C11.2349 28.4064 13.5437 28.9455 14.4265 28.787C15.9816 28.5077 16.1373 27.9785 16.4832 26.5716C17.1277 23.9494 16.4493 22.1874 15.5982 19.7052C15.0372 18.069 12.3513 18.492 11.1592 18.9007" stroke="#FF6B00" stroke-width="2" stroke-linecap="round"/>
<path id="Vector 11566" d="M26.8046 32.3926C25.7963 32.6177 25.0093 30.0135 24.7635 29.2966C24.5919 28.7961 25.0064 28.0789 25.6129 28.2027C26.2675 28.3363 26.5404 30.1937 26.7545 30.818C27.3901 32.6719 27.7541 31.6047 28.2021 30.1992C28.3961 29.5907 28.3194 28.4424 29.2164 28.3957C29.8292 28.3638 30.1547 29.3071 30.2981 29.7254C30.6367 30.7129 31.201 32.3545 29.7754 32.8433C28.5481 33.2641 27.5019 33.3215 27.3744 34.7686C27.2974 35.6421 26.9081 37.4593 26.1403 37.9944C25.0245 38.7719 23.8989 35.6736 24.1156 34.9064C24.333 34.1364 24.166 34.032 24.9483 33.7637C25.3607 33.6223 25.8007 32.5309 25.1955 32.6994C24.2551 32.9613 22.7748 33.7015 21.8759 32.858C20.7831 31.8327 21.904 30.454 23.0933 31.9645C23.6707 32.6978 23.9061 33.2436 24.7316 33.6476C25.1714 33.8628 25.5398 34.4178 25.6902 34.8563C25.8475 35.3151 25.6794 35.8349 25.2572 36.0931C24.483 36.5667 23.8079 34.301 23.6095 33.7874C23.3862 33.2097 23.5806 34.6952 23.7949 35.0027C24.3168 35.7518 23.7658 33.1769 23.7674 32.2639C23.7692 31.2217 24.1983 30.3763 24.5166 29.4493C24.5829 29.2561 23.449 29.4463 23.4651 29.7554C23.493 30.2914 24.3845 29.7939 24.6571 29.7004" stroke="#FF6B00" stroke-width="2" stroke-linecap="round"/>
<path id="Vector 11567" d="M28.0871 19.7079C26.6678 19.8293 27.6335 15.5281 28.2499 17.3257C28.3536 17.6282 28.9264 18.4229 28.6631 18.5309C28.2806 18.6877 27.6262 19.078 27.4506 18.5657C27.1182 17.5962 27.0298 17.0142 27.8662 16.2464C28.3477 15.8043 29.0822 15.5371 29.5695 16.0161C30.3094 16.7435 31.1339 18.1194 30.6381 19.1326C30.0771 20.2789 26.7889 22.9846 25.9619 20.5726C25.806 20.1179 27.405 19.0769 27.6725 18.8161C28.2153 18.2869 28.3049 18.5177 28.8934 18.8057C29.834 19.266 30.1293 19.9502 30.4788 20.9695C30.5721 21.2416 31.0303 22.0991 30.9017 22.3618C30.605 22.9681 29.0223 22.7494 28.5282 22.7403C27.8723 22.7282 27.7328 22.5575 28.4906 22.6307C29.4194 22.7204 30.2249 22.8084 31.1438 23.0679C32.1327 23.3471 33.8202 24.69 34.3251 22.9023C34.5442 22.1265 34.5576 19.4296 33.5668 18.9447C33.38 18.8534 29.498 19.4487 31.1935 18.4115C32.4348 17.6522 33.6077 20.0525 34.2743 20.7701C35.6972 22.3021 33.4179 23.3195 32.1992 23.6856C30.2246 24.2789 30.8317 19.8008 31.6489 20.2554C31.6634 20.2634 33.3899 23.0318 33.0144 21.9367" stroke="#FF6B00" stroke-width="2" stroke-linecap="round"/>
<path id="Vector 11568" d="M36.3724 30.0083C36.4847 30.3357 36.1969 29.7271 36.5586 29.6278C36.9944 29.5082 37.1312 30.3744 37.2305 30.6639C37.5108 31.4815 37.6612 32.2595 36.5303 31.8539C35.4172 31.4545 36.6506 27.1258 37.7971 30.4696C38.2262 31.7211 37.4873 31.9196 36.6585 32.6894C35.7197 33.5614 34.6219 30.1148 34.7787 29.4641C34.8811 29.0388 36.4662 27.9653 36.7803 28.4788C37.3812 29.4611 37.6255 30.8925 37.9995 31.9834" stroke="#FF6B00" stroke-width="2" stroke-linecap="round"/>
</g>
</svg>
