<svg width="44" height="44" viewBox="0 0 44 44" fill="none" xmlns="http://www.w3.org/2000/svg">
<g id="Group 4922">
<g id="Group">
<path id="Vector" d="M21.7227 8.24244C22.6567 8.22476 23.5702 8.5312 24.516 8.54004C25.9215 8.55183 27.1561 9.32383 28.2905 10.0575C29.092 10.5761 29.8434 10.9886 30.5505 11.6457C31.0485 12.1054 31.5141 12.6004 31.9944 13.0777C32.5218 13.5993 33.0168 14.1857 33.4558 14.7809C34.0039 15.5234 34.3045 16.3749 34.6963 17.2029C35.4566 18.8147 35.7689 20.5767 35.7659 22.3447C35.7659 24.2776 35.4065 26.3284 34.107 27.8606C33.8684 28.1406 33.5708 28.3615 33.3291 28.6356C33.0846 28.9126 32.9726 29.2485 32.7192 29.5107C32.4629 29.7759 32.1063 29.8879 31.8294 30.1324C31.6143 30.321 31.4404 30.5567 31.2341 30.7541C30.9925 30.981 30.7156 31.1578 30.4651 31.3759C30.1528 31.6469 29.8994 31.9828 29.5841 32.248C29.422 32.3865 29.201 32.6193 28.9682 32.5574" stroke="#FF6B00" stroke-width="2" stroke-miterlimit="10" stroke-linecap="round" stroke-linejoin="round"/>
<path id="Vector_2" d="M16.2871 32.2539C17.0738 32.7813 17.8341 33.3117 18.662 33.7773C19.6403 34.3253 20.7099 34.2399 21.7913 34.4079C22.8019 34.564 23.7213 34.6701 24.7437 34.6701" stroke="#FF6B00" stroke-width="2" stroke-miterlimit="10" stroke-linecap="round" stroke-linejoin="round"/>
<path id="Vector_3" d="M9.94336 24.248C10.3294 25.7655 11.1691 27.1563 12.2063 28.329C12.6748 28.8594 13.3731 29.6314 14.1717 29.5342" stroke="#FF6B00" stroke-width="2" stroke-miterlimit="10" stroke-linecap="round" stroke-linejoin="round"/>
<path id="Vector_4" d="M9.79289 20.4735C9.60725 19.5512 9.63672 18.8175 9.77226 17.8687C9.86655 17.2087 9.87539 16.1126 10.3969 15.6411" stroke="#FF6B00" stroke-width="2" stroke-miterlimit="10" stroke-linecap="round" stroke-linejoin="round"/>
<path id="Vector_5" d="M12.9629 11.8665C13.4432 11.6485 13.782 11.0091 14.3212 10.9619" stroke="#FF6B00" stroke-width="2" stroke-miterlimit="10" stroke-linecap="round" stroke-linejoin="round"/>
<path id="Vector_6" d="M22.1781 15.7916C22.1781 15.5293 22.1781 15.2701 22.1781 15.0078C22.1811 15.6148 22.1634 16.2188 22.1663 16.8258C22.1781 18.5996 22.4021 20.3617 22.4551 22.1355C22.4669 22.934 22.4787 23.7296 22.4905 24.5281C22.4875 25.3502 22.4846 26.1723 22.4875 26.9944C22.4463 27.1653 22.4875 27.2714 22.3225 27.3568C22.3284 27.127 22.3314 26.8972 22.3314 26.6644" stroke="#FF6B00" stroke-width="2" stroke-miterlimit="10" stroke-linecap="round" stroke-linejoin="round"/>
<path id="Vector_7" d="M16.8906 21.5312C19.2773 21.5312 21.5845 21.4929 23.9624 21.1953C25.4533 21.0096 26.8706 20.7945 28.3675 20.7769" stroke="#FF6B00" stroke-width="2" stroke-miterlimit="10" stroke-linecap="round" stroke-linejoin="round"/>
</g>
<path id="Vector 11604" d="M15.1677 1C13.9502 1 12.9027 1.28897 11.9426 2.08856C11.0371 2.84276 9.3938 3.67975 8.81942 4.73219C8.16352 5.93401 6.85242 6.6235 6.18846 7.82507C5.44047 9.1787 4.83262 10.4938 4.16856 11.8855C2.38845 15.6163 2.02984 18.5651 2.02984 22.702C2.02984 24.3473 1.85889 26.0155 2.33537 27.5918C2.84634 29.2823 3.80849 30.9509 4.40619 32.6545C5.3122 35.2368 8.29587 37.0265 10.5847 38.2528C11.5946 38.7938 13.1032 39.0938 14.2341 39.2377C15.1915 39.3595 16.7364 39.2389 17.6119 39.6351C19.0302 40.2767 21.2474 39.877 22.806 39.877C24.5461 39.877 26.3507 39.5659 28 39.5659" stroke="#FF6B00" stroke-width="2" stroke-linecap="round"/>
<path id="Vector 11605" d="M28 39.6402C30.0299 39.6402 31.3344 41.1226 33.08 41.7588C33.6768 41.9763 35.2315 43.6518 36.0494 42.7203C37.495 41.074 37.029 38.7977 36.3713 37" stroke="#FF6B00" stroke-width="2" stroke-linecap="round"/>
<path id="Vector 11606" d="M36.4375 37C36.4375 35.7342 38.0329 35.1075 38.625 34.0835C39.0442 33.3586 39.89 32.3532 40.5 31.7504C41.8809 30.3858 43 26.8174 43 24.9568C43 22.5092 43 20.0617 43 17.6142C43 15.222 41.564 13.2453 40.3437 11.3695C39.3182 9.79314 38.1646 6.32946 36.2812 5.50233C35.3034 5.07289 34.6247 4.21207 33.625 3.71815C32.5258 3.17503 31.5112 2.7693 30.3437 2.41432C28.3309 1.8023 26.4677 1.17912 24.4062 1.17912C23.0946 1.17912 18.6579 0.4964 18 1.79672" stroke="#FF6B00" stroke-width="2" stroke-linecap="round"/>
</g>
</svg>
