<svg width="41" height="40" viewBox="0 0 41 40" fill="none" xmlns="http://www.w3.org/2000/svg">
<g id="Group">
<path id="Vector" d="M1.14844 29.1913C1.28635 28.7519 1.40304 28.2833 1.63289 27.8941C1.92639 27.4045 2.28354 26.9609 2.6124 26.509C3.92785 24.6971 5.44486 23.0902 6.69665 21.2155C7.56301 19.9183 8.34803 18.5374 9.3134 17.3406C9.64934 16.9221 9.99234 16.5288 10.3389 16.1229C10.4202 16.0266 10.498 15.8844 10.5793 15.8007C10.7597 15.6124 11.1133 15.6291 11.3538 15.6667C11.9938 15.7672 12.8743 17.0183 13.2102 17.3824C14.1579 18.4118 15.1304 19.3534 16.1947 20.2154C17.1919 21.023 18.1962 21.8264 19.1616 22.6843C19.5152 22.9981 19.8511 23.3622 20.233 23.6258C20.424 23.3413 20.5654 23.0274 20.7634 22.7471C21.2408 22.065 21.8243 21.4833 22.3795 20.8933C24.731 18.3909 26.8315 15.5872 29.1547 13.0472C31.2941 10.7122 33.3698 8.30606 35.4774 5.9334C36.128 5.2011 36.768 4.46045 37.4046 3.70723C37.737 3.31388 38.3204 2.44347 38.8438 2.28027C38.8614 2.36397 38.8827 2.44764 38.9003 2.52715" stroke="#FF6B00" stroke-width="2" stroke-miterlimit="10" stroke-linecap="round" stroke-linejoin="round"/>
<path id="Vector_2" d="M31.2873 4.19286C31.2554 4.19286 31.2236 4.19286 31.1953 4.19286C31.5171 4.25982 32.1147 4.13427 32.3587 4.08406C33.5928 3.82461 34.9578 3.22619 36.107 2.69056C36.595 2.44786 37.083 2.20934 37.5745 1.96664C38.1509 1.6235 38.745 1.34315 39.3603 1.11718C39.5654 1.07952 39.82 1.14646 40.0003 1C39.8801 3.29315 39.3744 5.56118 39.3956 7.86688C39.3992 8.26023 39.3992 8.65361 39.3992 9.04696" stroke="#FF6B00" stroke-width="2" stroke-miterlimit="10" stroke-linecap="round" stroke-linejoin="round"/>
<path id="Vector_3" d="M11.1587 23.9775C11.187 23.9775 11.2153 23.9817 11.2401 23.9817C11.3178 24.3165 11.2754 24.7768 11.2436 25.1116C11.1729 25.5677 11.1092 26.028 11.0526 26.4883C10.9678 27.4382 10.9324 28.3923 10.9466 29.3464C10.943 31.5475 11.0314 33.736 11.2401 35.9203C11.3002 36.5564 11.5194 37.6486 11.3426 38.3181C11.0809 38.3014 10.8405 38.3976 10.5859 38.4646C10.1651 38.5775 9.73719 38.5817 9.31285 38.6989C8.71878 38.8579 8.20604 38.9416 7.60489 38.8454C7.00021 38.7491 6.40614 38.7156 5.79792 38.7366C5.0235 38.7617 4.143 38.6613 3.38273 38.8161C3.23775 38.8454 3.05033 38.8747 2.93718 39.0002C2.9195 38.4771 2.969 37.975 3.0468 37.4561C3.37212 35.2927 2.98315 33.033 3.04326 30.8528C3.05741 30.4218 3.9273 30.4678 4.21726 30.2502C5.34529 29.4259 6.44857 28.5555 7.49881 27.5972C8.31212 26.8524 9.09361 26.0824 9.85388 25.2622C10.3772 24.7057 10.4338 24.2161 11.1587 23.9775Z" stroke="#FF6B00" stroke-width="2" stroke-miterlimit="10" stroke-linecap="round" stroke-linejoin="round"/>
<path id="Vector_4" d="M14.0665 23.1489C13.9074 24.6637 13.964 26.1911 13.9675 27.7143C13.971 30.1163 13.9993 32.5015 13.8261 34.8951C13.7589 35.824 13.7836 36.7447 13.7659 37.6736C13.7589 38.0586 13.7483 38.0544 14.0771 38.1925C14.4979 38.3725 14.9046 38.4729 15.3537 38.5314C16.167 38.6319 16.9697 38.3976 17.7795 38.339C18.7484 38.2678 19.7385 38.1883 20.7074 38.1925C21.0398 38.1967 21.4358 38.2678 21.7682 38.2008C21.8213 37.8703 21.7824 37.5146 21.7647 37.1798C21.6834 35.7529 21.5101 34.3385 21.4358 32.9116C21.3757 31.719 21.3156 30.5264 21.2873 29.3337C21.2732 28.7521 21.3757 28.0826 21.259 27.5177C21.1423 27.685 21.1282 27.6306 20.9761 27.5469C20.5907 27.3419 20.2159 27.1243 19.8446 26.89C19.5192 26.6724 19.1762 26.4924 18.8156 26.3543C18.0199 25.9903 17.2526 25.5635 16.51 25.0697C15.6401 24.5508 14.749 24.0068 13.8437 23.5841C13.7553 23.6511 13.6988 23.7431 14.0665 23.1489Z" stroke="#FF6B00" stroke-width="2" stroke-miterlimit="10" stroke-linecap="round" stroke-linejoin="round"/>
<path id="Vector_5" d="M23.1758 25.7564C23.5648 25.271 23.9113 24.7354 24.2755 24.2207C24.9262 23.2917 25.6157 22.4129 26.33 21.5509C27.1539 20.5592 28.0026 19.5883 28.8407 18.6259C29.014 18.4292 29.2014 18.1781 29.357 17.948C29.5939 17.5881 29.8626 16.8181 30.2764 16.7261C30.5345 18.7263 30.3435 20.7893 30.2375 22.7895C30.0536 26.2627 29.9793 29.7401 29.8662 33.2175C29.8414 34.0042 29.7742 34.77 29.707 35.5483C29.6858 35.7868 29.7106 36.0463 29.6646 36.2806C29.6434 36.3852 29.601 36.5568 29.5621 36.6572C29.4701 36.9041 29.4737 36.8162 29.2862 36.9083C28.7311 37.1803 28.084 37.31 27.4934 37.423C26.818 37.5527 26.1179 37.6866 25.4318 37.5778C25.149 37.5318 24.8625 37.5192 24.5832 37.4816C24.4276 37.4607 24.4665 37.5318 24.3604 37.3812C24.3038 37.1301 24.2614 36.8707 24.2296 36.6154C24.1341 35.9877 24.0492 35.36 23.982 34.7281C23.7628 32.8911 23.6319 31.0541 23.6143 29.2003C23.6037 27.9282 23.6638 26.6519 23.7628 25.384C23.7911 25.0241 23.6991 24.9864 23.1758 25.7564Z" stroke="#FF6B00" stroke-width="2" stroke-miterlimit="10" stroke-linecap="round" stroke-linejoin="round"/>
<path id="Vector_6" d="M33.0907 14.6164C33.0907 14.562 33.0907 14.5035 33.0907 14.4491C33.073 17.6042 32.875 20.7468 32.7477 23.8978C32.6204 27.1032 32.5885 30.3002 32.5885 33.5098C32.5885 34.0663 32.6593 34.694 32.5673 35.2422C32.5284 35.4765 32.486 35.6314 32.4895 35.8741C32.4931 36.1963 32.4931 36.5185 32.4895 36.8407C32.486 37.1085 32.4259 37.2173 32.6699 37.2592C32.8679 37.2926 33.1296 37.2132 33.3276 37.188C33.7449 37.1336 34.1621 37.1127 34.5829 37.1295C35.0426 37.1504 35.4917 37.2425 35.9479 37.3094C36.5455 37.3973 37.1396 37.3722 37.7301 37.2341C38.0943 37.1504 38.4126 37.0332 38.7591 36.8951C38.8122 36.8742 38.996 36.8324 39.0385 36.7822C39.1163 36.6817 39.0844 36.6734 39.0915 36.5227C39.1092 36.0917 39.1622 35.6648 39.1976 35.238C39.4451 32.2586 39.2966 29.2206 39.2966 26.2328C39.2966 23.2157 39.286 20.207 39.2188 17.1899C39.187 15.7546 39.2188 14.3235 39.2011 12.8882C39.1941 12.499 39.1905 12.0178 39.0385 11.6621C38.5894 12.4237 37.8998 12.951 37.2421 13.4322C35.8842 14.4281 34.4273 15.2273 33.0907 14.6164Z" stroke="#FF6B00" stroke-width="2" stroke-miterlimit="10" stroke-linecap="round" stroke-linejoin="round"/>
</g>
</svg>
