<svg width="46" height="33" viewBox="0 0 46 33" fill="none" xmlns="http://www.w3.org/2000/svg">
<g id="Group 4923">
<path id="Vector 11607" d="M12 2.42513C12.4512 2.48026 12.4004 6.61353 12.552 7.28001C12.8709 8.68251 12.9559 10.1786 13.7033 11.4567C14.3336 12.5347 14.9144 13.522 16.2583 13.522C18.3444 13.522 20.3884 14.0026 22.4407 14.0768C25.808 14.1987 29.1616 14.3543 32.5818 14.3543C33.1732 14.3543 33.9852 14.2111 34.5532 14.3697C34.7591 14.4272 34.8095 15.0054 34.9948 15.1865C35.3598 15.5432 35.9541 15.6358 36.3985 15.8801C37.3697 16.4139 39.0395 19.0416 40.2309 17.5446C40.844 16.7744 40.7378 14.3543 41.5242 14.3543C42.7992 14.3543 44.647 14.8669 44.647 13.2446C44.647 11.4465 44.647 9.64837 44.647 7.85026C44.647 6.55977 45.2086 5.24183 44.9151 3.95095C44.6077 2.59907 43.6864 1.31545 42.1551 1.31545C38.2431 1.31545 34.34 1.10838 30.4526 1.03803C25.7246 0.952465 20.9871 1.03803 16.2583 1.03803C14.6289 1.03803 13.3608 0.927956 12 1.59287" stroke="#FF6B00" stroke-width="2" stroke-linecap="round"/>
<path id="Vector 11608" d="M2.11833 18.1342C8.91635 18.1342 15.7144 18.1342 22.5124 18.1342C23.9155 18.1342 25.3186 18.1342 26.7217 18.1342C27.6949 18.1342 29.4296 17.7954 30.3562 18.1944C31.9475 18.8795 31.7542 19.765 31.7542 21.3844C31.7542 22.8544 32.5258 27.6495 31.3348 28.547C30.5411 29.145 28.0778 28.6974 27.0634 28.6974C24.3866 28.6974 21.7099 28.6974 19.0331 28.6974C17.3556 28.6974 15.6781 28.6974 14.0006 28.6974C13.5707 28.6974 12.666 28.5307 12.3387 28.8479C11.842 29.329 11.9841 29.7803 11.2203 30.1721C10.4215 30.5818 7.98958 33.0066 7.98958 31.5263C7.98958 29.4106 7.65673 29.2391 5.75292 29.2391C4.81716 29.2391 3.25995 29.528 2.53771 28.9683C1.74321 28.3525 2.02127 26.0482 1.6213 25.1764C1.21033 24.2806 1.27958 22.7834 1.27958 21.7907C1.27958 20.6936 1 19.5664 1 18.4051" stroke="#FF6B00" stroke-width="2" stroke-linecap="round"/>
<path id="Vector 11609" d="M21 8.68318C21.0184 8.51978 21.9847 7.8077 21.9976 8.04967C22.016 8.3973 21.9265 8.60305 21.863 8.92075C21.8121 9.17514 21.7779 8.75578 21.57 8.52481" stroke="#FF6B00" stroke-width="2" stroke-linecap="round"/>
<path id="Vector 11610" d="M28 8.2161C29.0449 8.2161 28.3333 9.91672 28.3333 8.30827C28.3333 7.91598 29 7.91252 29 8.2161C29 8.65027 28.2464 8.58478 28 8.58478" stroke="#FF6B00" stroke-width="2" stroke-linecap="round"/>
<path id="Vector 11611" d="M35 8.72299C35.187 8.39432 36.0396 7.40935 35.9986 8.5001C35.9776 9.05772 35 9.26735 35 8.5001" stroke="#FF6B00" stroke-width="2" stroke-linecap="round"/>
<path id="Vector 11612" d="M13 21.6617C13 22.5451 11.0246 21.4731 12.6266 21" stroke="#FF6B00" stroke-width="2" stroke-linecap="round"/>
<path id="Vector 11613" d="M16 21H17" stroke="#FF6B00" stroke-width="2" stroke-linecap="round"/>
<path id="Vector 11614" d="M9 24.25C11.0441 24.25 12.7847 25 14.8333 25C16.3346 25 17.6088 24.2782 19 24" stroke="#FF6B00" stroke-width="2" stroke-linecap="round"/>
</g>
</svg>
