<svg width="36" height="31" viewBox="0 0 36 31" fill="none" xmlns="http://www.w3.org/2000/svg">
<g id="Group 4996">
<g id="Group 1201">
<path id="Vector" d="M32.4747 7.76692C32.3551 5.84111 32.0895 3.95181 31.9135 2.03263C31.1199 3.14828 30.7647 3.90862 30.416 5.24673C30.5688 4.14105 30.8311 2.94239 31.2826 1.92304C31.4154 1.6242 31.525 1.15603 31.877 1.09627C32.4282 0.996655 33.225 2.59378 33.318 2.74652C33.6965 3.38735 34.085 4.00495 34.5001 4.61922" stroke="#FF6B00" stroke-width="2" stroke-miterlimit="10" stroke-linecap="round" stroke-linejoin="round"/>
<path id="Vector_2" d="M4.04186 24.0269C3.98541 25.4513 4.01861 26.9023 4.0983 28.3201C4.1149 28.6189 4.18464 28.9775 4.15476 29.2863C4.15476 29.1801 4.15476 29.0771 4.15476 28.9709" stroke="#FF6B00" stroke-width="2" stroke-miterlimit="10" stroke-linecap="round" stroke-linejoin="round"/>
<path id="Vector_3" d="M4.49496 21.105C3.81761 22.1974 3.17015 23.3064 2.53595 24.4254C2.22052 24.9832 1.93497 25.6174 1.5 26.0922C1.85528 25.3086 2.29024 24.5715 2.73185 23.831C2.95431 23.4293 3.1967 23.0408 3.46233 22.6656C3.64495 22.3435 3.87075 22.0546 4.1397 21.799C4.49498 21.6263 4.78053 21.9185 5.02956 22.1509C5.35827 22.639 5.61061 23.1636 5.78659 23.7214C5.92273 24.1365 6.09206 24.5382 6.30125 24.9267" stroke="#FF6B00" stroke-width="2" stroke-miterlimit="10" stroke-linecap="round" stroke-linejoin="round"/>
</g>
<g id="Group 4995">
<path id="Vector 11690" d="M17.5808 4.09198C15.7736 4.09198 14.275 4.05683 12.6425 4.96102C11.0941 5.81859 9.20753 6.70767 8.14553 8.18887C7.61868 8.9237 7.13995 9.60002 6.80749 10.4511C6.3799 11.5458 6.51881 12.9959 6.53161 14.148C6.55332 16.1023 7.20533 18.1892 8.39383 19.7622C9.49711 21.2225 11.1944 21.517 12.8632 22.0935C14.0444 22.5015 14.9483 22.7142 16.1876 22.7142C17.1223 22.7142 17.8662 22.2282 18.7257 21.9417C19.0873 21.8212 19.365 21.6635 19.6913 21.5003C19.7962 21.4479 20.312 21.3486 20.1879 21.3486" stroke="#FF6B00" stroke-width="2" stroke-linecap="round"/>
<path id="Vector 11691" d="M20.3105 20.9761C21.0619 22.3286 22.3414 23.4263 23.2901 24.6385C24.0385 25.5948 24.91 26.8674 25.9248 27.556C27.3871 28.5483 29.0212 28.5841 30.27 27.3353C31.4455 26.1597 29.1657 23.3614 28.5043 22.3693C27.9258 21.5015 27.3214 20.4139 26.58 19.6726C26.2788 19.3713 25.7793 18.8843 25.6489 18.4932" stroke="#FF6B00" stroke-width="2" stroke-linecap="round"/>
<path id="Vector 11692" d="M25.401 18.4934C25.401 17.6552 26.5625 16.9971 26.8908 16.2311C27.1883 15.537 27.618 14.7581 27.6357 13.9964C27.6551 13.1597 28.0032 12.2782 27.5115 11.5135C27.0133 10.7384 26.6173 9.85685 26.1735 9.05809C24.7695 6.53098 21.8548 4.21631 18.9453 4.21631" stroke="#FF6B00" stroke-width="2" stroke-linecap="round"/>
<path id="Vector 11693" d="M12.8622 9.67898C12.2002 9.67898 11.8475 9.64052 11.5932 10.3273C11.3604 10.9558 11 11.5328 11 12.224C11 13.1965 11 14.169 11 15.1415C11 16.0834 11.8883 16.3637 12.6208 16.6934C14.255 17.4287 15.7891 17.9969 17.5799 17.9969C17.9523 17.9969 18.3247 17.9969 18.6972 17.9969C19.1592 17.9969 19.4858 17.535 19.8766 17.3141C20.5612 16.9271 21.4 16.3424 21.9526 15.7898C22.2976 15.4449 22.5011 15.3598 22.6975 14.8932C22.9985 14.1784 22.88 12.8469 22.732 12.1068C22.4555 10.7243 21.3322 9.65314 20.1249 9.00306C19.5508 8.69394 18.8166 8.79484 18.2006 8.62372C17.6221 8.46303 17.0617 8.4375 16.4625 8.4375C15.9641 8.4375 15.416 8.50464 15.0417 8.87892C14.7634 9.15726 14.5927 9.68152 14.2279 9.80313" stroke="#FF6B00" stroke-width="2" stroke-linecap="round"/>
</g>
</g>
</svg>
