<svg width="31" height="33" viewBox="0 0 31 33" fill="none" xmlns="http://www.w3.org/2000/svg">
<path d="M10.977 11.9483C10.8345 11.5422 10.8833 11.1947 10.9496 10.7768C11.0102 10.3805 11.0512 9.91776 11.1859 9.53899C11.262 9.32813 11.4475 9.15631 11.551 8.95717C11.7013 8.6643 11.8751 8.32653 12.127 8.10395C12.3944 7.86771 12.6912 7.65489 13.0173 7.5065C13.0954 7.47136 13.1754 7.45184 13.2477 7.40107C13.4859 7.23902 13.6518 6.99106 13.9017 6.83487C14.0501 6.77239 14.1907 6.69429 14.3196 6.60057C14.1926 6.43071 14.1634 6.20423 14.0501 6.02265C13.9408 5.84693 13.8412 5.71612 13.7631 5.51697C13.437 4.68328 13.2984 3.9355 13.273 3.04519C13.2633 2.65665 13.2984 2.4126 13.5464 2.10997C13.8881 1.6941 14.4094 1.46957 14.876 1.24309C15.1337 1.11813 15.3251 0.987319 15.6199 1.00099C16.0377 1.02051 16.3559 1.08494 16.6781 1.35438C17.3673 1.93035 17.8086 2.80699 17.9901 3.67192C18.1541 4.44508 17.9784 5.18115 17.5215 5.8196C17.3556 6.05194 17.1955 6.2218 17.092 6.47757C17.012 6.67477 17.0198 6.8583 16.93 7.03402C17.133 7.06916 17.1818 7.08478 17.3165 7.24293C17.4454 7.39326 17.5411 7.47331 17.7324 7.52212C18.0116 7.59241 18.199 7.75251 18.4392 7.92433C18.7613 8.15667 19.1069 8.348 19.4252 8.59011C20.499 9.41208 20.8954 10.6655 21.1453 11.9463C20.829 11.9444 20.6337 12.495 20.3194 12.5457C19.7864 12.6336 19.2573 12.6043 18.7282 12.7137C17.4337 12.9811 16.1685 12.5262 14.8643 12.6258C14.0579 12.6863 13.109 12.8601 12.3085 12.6687C12.1504 12.6317 11.9942 12.5692 11.8341 12.5399C11.7209 12.5204 11.5608 12.5516 11.4514 12.5262C11.3655 12.5047 11.3577 12.4403 11.2718 12.4208C11.1839 12.4032 11.0648 11.9503 10.977 11.9483Z" stroke="#FF6B00" stroke-width="2" stroke-miterlimit="10" stroke-linecap="round"/>
<path d="M1.00274 30.2679C0.991027 29.8189 1.01446 29.3386 1.11989 28.9012C1.15308 28.7606 1.25851 28.6298 1.28389 28.4932C1.30927 28.3604 1.28389 28.214 1.30342 28.0773C1.39713 27.4623 1.71148 27.0445 2.03753 26.5446C2.20739 26.285 2.30502 26.0468 2.55688 25.8457C2.69355 25.7363 2.86927 25.668 2.99813 25.5469C3.24414 25.3146 3.38471 25.0393 3.69125 24.8929C3.84158 24.8206 4.01145 24.807 3.96263 24.6117C3.95483 24.5766 3.78301 24.3403 3.76153 24.3013C3.70687 24.2056 3.6561 24.1295 3.59362 24.0397C3.38862 23.7468 3.18166 23.3778 3.07037 23.0341C2.92784 22.5929 2.91808 22.138 2.91808 21.6792C2.91613 21.236 2.91222 20.9353 3.20899 20.5799C3.5331 20.1934 3.94116 19.961 4.40584 19.7736C4.91152 19.5686 5.39377 19.3714 5.94436 19.4788C6.55352 19.5979 6.98501 19.7775 7.4243 20.2383C7.89094 20.7283 8.08813 21.1774 8.25019 21.8275C8.37905 22.3469 8.53134 23.0166 8.27557 23.5144C8.08423 23.8854 7.68398 24.065 7.45164 24.3969C7.63712 24.5434 7.95342 24.5141 8.17014 24.5961C8.5001 24.7211 8.78711 24.9885 9.0624 25.2033C9.86485 25.83 10.0152 26.8394 10.2143 27.7747C10.3198 28.2745 10.3705 28.7899 10.4974 29.2839C10.5873 29.6334 10.6868 29.936 10.6946 30.2972C10.6966 30.3987 10.7552 30.7619 10.6771 30.8341C10.5658 30.9376 10.3002 30.6955 10.2241 30.6506C9.87266 30.4456 9.5427 30.4534 9.14635 30.4573C8.59577 30.4632 8.04127 30.4729 7.49069 30.4651C6.26065 30.4495 5.03257 30.0707 3.81815 29.8989C3.27928 29.8228 2.78727 29.9809 2.25816 29.977C2.07658 29.977 1.87548 29.9497 1.70171 29.9965C1.67633 30.0493 1.63338 30.0824 1.57481 30.1C1.4479 30.1469 1.32294 30.1703 1.00274 30.2679Z" stroke="#FF6B00" stroke-width="2" stroke-miterlimit="10" stroke-linecap="round"/>
<path d="M21.1445 30.3655C21.0312 29.315 21.0449 28.2705 21.328 27.2377C21.5135 26.5621 22.0328 26.0955 22.4917 25.6015C22.849 25.2169 23.0579 24.9299 23.5948 24.8459C23.7783 24.8166 24.1922 24.8576 24.1102 24.5667C24.0809 24.4632 23.9033 24.3246 23.833 24.227C23.7315 24.0845 23.6143 23.9712 23.5069 23.8346C23.2316 23.487 23.0266 23.0321 22.8646 22.624C22.6752 22.1516 22.7552 21.5307 22.7689 21.025C22.7884 20.2811 23.4269 19.6661 24.0985 19.3986C24.4304 19.2659 24.7702 19.258 25.1177 19.2151C25.7425 19.137 26.2716 19.1253 26.8866 19.3264C27.3357 19.4728 27.9917 19.8067 28.2357 20.2323C28.552 20.7829 28.6106 21.6869 28.6282 22.3038C28.6536 23.1512 27.9936 23.7818 27.6754 24.4925C27.8218 24.5902 27.9936 24.6175 28.1401 24.7151C28.39 24.8791 28.5774 25.1544 28.7297 25.4024C29.0948 25.9979 29.3193 26.6441 29.4951 27.3197C29.5751 27.6301 29.5985 27.9483 29.6825 28.2588C29.7743 28.6005 29.8816 28.9597 29.9539 29.3053C29.9793 29.4244 30.0378 29.8363 29.9656 29.9301C29.8953 30.0218 29.7645 29.9828 29.6473 29.9789C29.3974 29.973 29.1885 30.0082 28.9445 30.0492C28.1967 30.1761 27.4138 30.2932 26.6543 30.2815C26.09 30.2737 25.5355 30.1858 24.9732 30.1683C24.571 30.1565 24.1669 30.1995 23.7647 30.178C23.4542 30.1605 23.1692 30.0706 22.8568 30.0745C22.4702 30.0785 21.9255 30.178 21.5643 30.0609C21.5838 30.0335 21.6033 30.0082 21.1445 30.3655Z" stroke="#FF6B00" stroke-width="2" stroke-miterlimit="10" stroke-linecap="round"/>
<path d="M4.26367 15.0173C4.29686 14.0235 4.60144 13.1235 4.94117 12.1883C5.41366 10.8938 6.29421 9.59151 7.42857 8.7832" stroke="#FF6B00" stroke-width="2" stroke-miterlimit="10" stroke-linecap="round"/>
<path d="M23.8301 8.59229C23.8652 8.82072 24.406 9.14092 24.5466 9.31273C24.9781 9.83989 25.3198 10.494 25.6556 11.0836C26.0773 11.8275 26.4483 12.6904 26.7041 13.5066C26.8895 14.0962 26.9345 14.7132 27.0906 15.3087" stroke="#FF6B00" stroke-width="2" stroke-miterlimit="10" stroke-linecap="round"/>
<path d="M11.7441 25.2812C12.7946 25.7303 13.763 25.9919 14.9208 26.0407C16.3031 26.0993 17.6561 25.9236 19.0326 25.8572" stroke="#FF6B00" stroke-width="2" stroke-miterlimit="10" stroke-linecap="round"/>
</svg>
