<svg width="32" height="33" viewBox="0 0 32 33" fill="none" xmlns="http://www.w3.org/2000/svg">
<path d="M17.2671 27.5049C13.7947 28.2135 10.0459 27.7461 7.01119 25.9166C4.6905 24.5194 2.19128 21.8707 1.7018 19.403C0.26793 12.0902 6.68294 4.63665 14.3475 2.13372C16.0809 1.56578 18.7125 0.741539 20.584 1.07828C22.2022 1.36978 23.9355 2.68161 25.1218 3.57623C28.2256 5.92336 30.0453 9.25053 30.362 12.7989C30.5924 15.3521 30.7363 18.5837 29.0663 20.8153C28.1738 22.0064 27.0106 22.5241 25.6919 23.2378C24.5517 23.851 23.636 24.6601 22.2943 24.8963C22.5131 26.3237 23.9873 27.8215 24.8741 28.9975C25.45 29.7615 26.8838 30.8622 26.3541 31.8774C24.9144 32.1689 23.5324 31.9076 22.1907 31.4402C20.7568 30.9476 17.152 30.1636 17.0137 28.5402C17.4284 28.4849 17.8545 28.4347 17.2671 27.5049Z" stroke="#FF6B00" stroke-width="2" stroke-miterlimit="10" stroke-linecap="round" stroke-linejoin="round"/>
<path d="M15.6504 18.873C13.8814 17.104 11.4648 15.6119 11.4648 12.8936C11.4648 12.0766 11.7341 9.9261 12.9708 9.9261C13.7528 9.9261 14.6945 13.0229 15.4068 13.7352C15.9773 14.3057 16.0621 12.9156 16.1598 12.5947C16.509 11.4473 16.7671 11.1394 17.8429 10.6015C19.4014 9.8223 21.5565 8.47348 21.8181 11.0888C22.023 13.1381 21.6855 14.1102 20.2346 15.4847C19.5456 16.1375 18.2927 17.0007 17.8429 17.7879C17.589 18.2322 16.5611 19.2717 16.049 19.2717" stroke="#FF6B00" stroke-width="2" stroke-linecap="round"/>
</svg>
