<svg width="15" height="14" viewBox="0 0 15 14" fill="none" xmlns="http://www.w3.org/2000/svg">
<path d="M5.41435 1.10039C4.25832 1.10039 3.37822 1.26842 2.70385 2.31063C1.88461 3.57672 1.5034 4.98362 1.39321 6.4712C1.30623 7.64545 1.21553 8.27174 2.00112 9.2319C2.60532 9.97037 2.96668 10.7701 3.80813 11.2843C5.64442 12.4065 7.84708 12.344 9.93186 12.344C11.1318 12.344 11.6641 11.5628 12.542 10.8604C12.8768 10.5926 13.4682 10.1123 13.6686 9.73385C13.9463 9.20924 14.0478 8.42 14.0478 7.83761C14.0478 7.11864 14.2509 6.49744 13.9865 5.7629C13.5153 4.45406 12.9702 3.44484 11.8839 2.55603C11.4808 2.22624 11.0015 1.95028 10.5119 1.7808C10.1125 1.64255 9.61605 1.21652 9.20683 1.20078C8.4151 1.17033 7.28385 1.25507 6.51863 1" stroke="#1A1A1A" stroke-width="1.5" stroke-linecap="round"/>
<path d="M6.92004 4.31284C6.90152 4.16472 6.54667 4.11206 6.97023 4.11206C7.28165 4.11206 7.02676 4.31284 6.81965 4.31284" stroke="#1A1A1A" stroke-width="1.5" stroke-linecap="round"/>
<path d="M6.81972 6.52136C6.81972 7.14043 6.81972 7.75949 6.81972 8.37856C6.81972 8.52466 6.74514 8.93127 6.86991 9.03109C6.99411 9.13045 7.12089 9.38148 7.12089 9.53303" stroke="#1A1A1A" stroke-width="1.5" stroke-linecap="round"/>
</svg>
