<svg width="34" height="34" viewBox="0 0 34 34" fill="none" xmlns="http://www.w3.org/2000/svg">
<path d="M16.6629 3.00062C21.115 3.00062 21.6422 3.02014 23.3931 3.09825C25.0203 3.16985 25.899 3.44322 26.4848 3.67104C27.2594 3.97045 27.8192 4.33495 28.3985 4.91424C28.9843 5.50004 29.3423 6.0533 29.6417 6.82787C29.8695 7.41367 30.1429 8.29888 30.2145 9.91961C30.2926 11.677 30.3121 12.2042 30.3121 16.6498C30.3121 21.1019 30.2926 21.6292 30.2145 23.3801C30.1429 25.0073 29.8695 25.886 29.6417 26.4718C29.3423 27.2464 28.9778 27.8061 28.3985 28.3854C27.8127 28.9712 27.2594 29.3292 26.4848 29.6286C25.899 29.8565 25.0138 30.1298 23.3931 30.2014C21.6357 30.2795 21.1085 30.2991 16.6629 30.2991C12.2108 30.2991 11.6835 30.2795 9.93263 30.2014C8.30539 30.1298 7.42669 29.8565 6.84088 29.6286C6.06632 29.3292 5.50655 28.9647 4.92726 28.3854C4.34146 27.7996 3.98346 27.2464 3.68405 26.4718C3.45624 25.886 3.18287 25.0008 3.11127 23.3801C3.03316 21.6227 3.01363 21.0954 3.01363 16.6498C3.01363 12.1977 3.03316 11.6705 3.11127 9.91961C3.18287 8.29237 3.45624 7.41367 3.68405 6.82787C3.98346 6.0533 4.34796 5.49354 4.92726 4.91424C5.51306 4.32844 6.06632 3.97045 6.84088 3.67104C7.42669 3.44322 8.3119 3.16985 9.93263 3.09825C11.6835 3.02014 12.2108 3.00062 16.6629 3.00062ZM16.6629 0C12.1392 0 11.5729 0.0195268 9.79594 0.0976339C8.02551 0.175741 6.80834 0.462134 5.75389 0.872196C4.65388 1.30179 3.72311 1.86806 2.79884 2.79884C1.86806 3.72311 1.30179 4.65388 0.872196 5.74738C0.462134 6.80834 0.175741 8.019 0.0976339 9.78943C0.0195268 11.5729 0 12.1392 0 16.6629C0 21.1866 0.0195268 21.7528 0.0976339 23.5298C0.175741 25.3002 0.462134 26.5174 0.872196 27.5718C1.30179 28.6718 1.86806 29.6026 2.79884 30.5269C3.72311 31.4511 4.65388 32.0239 5.74738 32.447C6.80834 32.8571 8.019 33.1435 9.78943 33.2216C11.5664 33.2997 12.1326 33.3192 16.6563 33.3192C21.1801 33.3192 21.7463 33.2997 23.5233 33.2216C25.2937 33.1435 26.5109 32.8571 27.5653 32.447C28.6588 32.0239 29.5896 31.4511 30.5139 30.5269C31.4381 29.6026 32.0109 28.6718 32.434 27.5783C32.8441 26.5174 33.1305 25.3067 33.2086 23.5363C33.2867 21.7593 33.3062 21.1931 33.3062 16.6694C33.3062 12.1457 33.2867 11.5794 33.2086 9.80245C33.1305 8.03202 32.8441 6.81485 32.434 5.7604C32.0239 4.65388 31.4577 3.72311 30.5269 2.79884C29.6026 1.87457 28.6718 1.30179 27.5783 0.878705C26.5174 0.468643 25.3067 0.18225 23.5363 0.104143C21.7528 0.0195268 21.1866 0 16.6629 0Z" fill="#1A1A1A"/>
<path d="M16.6628 8.10352C11.9374 8.10352 8.10361 11.9373 8.10361 16.6628C8.10361 21.3882 11.9374 25.222 16.6628 25.222C21.3883 25.222 25.2221 21.3882 25.2221 16.6628C25.2221 11.9373 21.3883 8.10352 16.6628 8.10352ZM16.6628 22.2149C13.5971 22.2149 11.1107 19.7285 11.1107 16.6628C11.1107 13.5971 13.5971 11.1106 16.6628 11.1106C19.7286 11.1106 22.215 13.5971 22.215 16.6628C22.215 19.7285 19.7286 22.2149 16.6628 22.2149Z" fill="#1A1A1A"/>
<path d="M27.5588 7.76509C27.5588 8.87161 26.6606 9.76333 25.5606 9.76333C24.454 9.76333 23.5623 8.8651 23.5623 7.76509C23.5623 6.65857 24.4605 5.76685 25.5606 5.76685C26.6606 5.76685 27.5588 6.66508 27.5588 7.76509Z" fill="#1A1A1A"/>
</svg>
