<svg width="22" height="22" viewBox="0 0 22 22" fill="none" xmlns="http://www.w3.org/2000/svg">
<g clip-path="url(#clip0_2400_25154)">
<path d="M10.7102 2.15434C13.4982 2.15434 13.8284 2.16657 14.9248 2.21549C15.9439 2.26032 16.4941 2.43152 16.861 2.57418C17.346 2.76168 17.6966 2.98994 18.0594 3.35271C18.4262 3.71956 18.6504 4.06603 18.8379 4.55108C18.9806 4.91793 19.1518 5.47228 19.1966 6.48723C19.2455 7.58777 19.2577 7.91793 19.2577 10.7019C19.2577 13.4899 19.2455 13.8201 19.1966 14.9166C19.1518 15.9356 18.9806 16.4859 18.8379 16.8527C18.6504 17.3378 18.4221 17.6883 18.0594 18.0511C17.6925 18.4179 17.346 18.6421 16.861 18.8296C16.4941 18.9723 15.9398 19.1435 14.9248 19.1883C13.8243 19.2372 13.4941 19.2495 10.7102 19.2495C7.92213 19.2495 7.59197 19.2372 6.4955 19.1883C5.47648 19.1435 4.92621 18.9723 4.55936 18.8296C4.0743 18.6421 3.72376 18.4139 3.36099 18.0511C2.99414 17.6842 2.76996 17.3378 2.58246 16.8527C2.43979 16.4859 2.2686 15.9315 2.22376 14.9166C2.17485 13.816 2.16262 13.4859 2.16262 10.7019C2.16262 7.91386 2.17485 7.58369 2.22376 6.48723C2.2686 5.4682 2.43979 4.91793 2.58246 4.55108C2.76996 4.06603 2.99822 3.71549 3.36099 3.35271C3.72784 2.98587 4.0743 2.76168 4.55936 2.57418C4.92621 2.43152 5.48055 2.26032 6.4955 2.21549C7.59197 2.16657 7.92213 2.15434 10.7102 2.15434ZM10.7102 0.275269C7.87729 0.275269 7.52267 0.287497 6.4099 0.33641C5.30121 0.385323 4.53898 0.564671 3.87865 0.821464C3.18979 1.09049 2.60691 1.44511 2.02811 2.02799C1.44523 2.60679 1.09061 3.18967 0.821586 3.87445C0.564793 4.53886 0.385445 5.29701 0.336532 6.4057C0.287619 7.52255 0.275391 7.87717 0.275391 10.7101C0.275391 13.5429 0.287619 13.8976 0.336532 15.0103C0.385445 16.119 0.564793 16.8812 0.821586 17.5416C1.09061 18.2304 1.44523 18.8133 2.02811 19.3921C2.60691 19.9709 3.18979 20.3296 3.87458 20.5946C4.53898 20.8514 5.29713 21.0307 6.40583 21.0796C7.5186 21.1285 7.87322 21.1408 10.7061 21.1408C13.539 21.1408 13.8936 21.1285 15.0064 21.0796C16.1151 21.0307 16.8773 20.8514 17.5376 20.5946C18.2224 20.3296 18.8053 19.9709 19.3841 19.3921C19.9629 18.8133 20.3216 18.2304 20.5865 17.5457C20.8433 16.8813 21.0227 16.1231 21.0716 15.0144C21.1205 13.9016 21.1327 13.547 21.1327 10.7141C21.1327 7.88125 21.1205 7.52663 21.0716 6.41386C21.0227 5.30516 20.8433 4.54293 20.5865 3.88261C20.3297 3.18967 19.9751 2.60679 19.3922 2.02799C18.8134 1.44918 18.2306 1.09049 17.5458 0.82554C16.8814 0.568747 16.1232 0.389399 15.0145 0.340486C13.8977 0.287497 13.5431 0.275269 10.7102 0.275269Z" fill="#FEFEFE"/>
<path d="M10.7102 5.34998C7.75091 5.34998 5.3501 7.75079 5.3501 10.71C5.3501 13.6693 7.75091 16.0701 10.7102 16.0701C13.6694 16.0701 16.0702 13.6693 16.0702 10.71C16.0702 7.75079 13.6694 5.34998 10.7102 5.34998ZM10.7102 14.1869C8.79032 14.1869 7.23325 12.6299 7.23325 10.71C7.23325 8.79019 8.79032 7.23313 10.7102 7.23313C12.63 7.23313 14.1871 8.79019 14.1871 10.71C14.1871 12.6299 12.63 14.1869 10.7102 14.1869Z" fill="#FEFEFE"/>
<path d="M17.5335 5.13796C17.5335 5.83089 16.971 6.38932 16.2821 6.38932C15.5892 6.38932 15.0308 5.82682 15.0308 5.13796C15.0308 4.44502 15.5933 3.8866 16.2821 3.8866C16.971 3.8866 17.5335 4.4491 17.5335 5.13796Z" fill="#FEFEFE"/>
</g>
<defs>
<clipPath id="clip0_2400_25154">
<rect width="20.8696" height="20.8696" fill="white" transform="translate(0.275391 0.275269)"/>
</clipPath>
</defs>
</svg>
