<svg width="27" height="27" viewBox="0 0 27 27" fill="none" xmlns="http://www.w3.org/2000/svg">
<g clip-path="url(#clip0_2920_5998)">
<path d="M13.6372 2.94308C17.1223 2.94308 17.535 2.95837 18.9056 3.01951C20.1793 3.07556 20.8672 3.28955 21.3257 3.46788C21.9321 3.70225 22.3702 3.98758 22.8237 4.44105C23.2823 4.89961 23.5625 5.33269 23.7969 5.93901C23.9752 6.39757 24.1892 7.0905 24.2452 8.35918C24.3064 9.73486 24.3217 10.1476 24.3217 13.6275C24.3217 17.1126 24.3064 17.5253 24.2452 18.8959C24.1892 20.1696 23.9752 20.8575 23.7969 21.316C23.5625 21.9224 23.2772 22.3605 22.8237 22.814C22.3651 23.2726 21.9321 23.5528 21.3257 23.7872C20.8672 23.9655 20.1743 24.1795 18.9056 24.2355C17.5299 24.2967 17.1172 24.312 13.6372 24.312C10.1522 24.312 9.73947 24.2967 8.36889 24.2355C7.09511 24.1795 6.40727 23.9655 5.94871 23.7872C5.34239 23.5528 4.90421 23.2675 4.45075 22.814C3.99219 22.3554 3.71196 21.9224 3.47758 21.316C3.29925 20.8575 3.08526 20.1646 3.02921 18.8959C2.96807 17.5202 2.95279 17.1075 2.95279 13.6275C2.95279 10.1425 2.96807 9.72977 3.02921 8.35918C3.08526 7.08541 3.29925 6.39757 3.47758 5.93901C3.71196 5.33269 3.99728 4.89451 4.45075 4.44105C4.90931 3.98249 5.34239 3.70225 5.94871 3.46788C6.40727 3.28955 7.1002 3.07556 8.36889 3.01951C9.73947 2.95837 10.1522 2.94308 13.6372 2.94308ZM13.6372 0.594238C10.0961 0.594238 9.65285 0.609524 8.26189 0.670665C6.87602 0.731806 5.92323 0.955991 5.09783 1.27698C4.23675 1.61326 3.50815 2.05653 2.78465 2.78514C2.05605 3.50864 1.61277 4.23724 1.27649 5.09322C0.955503 5.92372 0.731318 6.87141 0.670177 8.25728C0.609035 9.65334 0.59375 10.0966 0.59375 13.6377C0.59375 17.1788 0.609035 17.6221 0.670177 19.0131C0.731318 20.3989 0.955503 21.3517 1.27649 22.1771C1.61277 23.0382 2.05605 23.7668 2.78465 24.4903C3.50815 25.2138 4.23675 25.6622 5.09273 25.9934C5.92323 26.3143 6.87092 26.5385 8.25679 26.5997C9.64776 26.6608 10.091 26.6761 13.6321 26.6761C17.1732 26.6761 17.6165 26.6608 19.0075 26.5997C20.3933 26.5385 21.3461 26.3143 22.1715 25.9934C23.0275 25.6622 23.7561 25.2138 24.4796 24.4903C25.2031 23.7668 25.6515 23.0382 25.9827 22.1822C26.3037 21.3517 26.5279 20.404 26.589 19.0182C26.6501 17.6272 26.6654 17.1839 26.6654 13.6428C26.6654 10.1017 26.6501 9.65844 26.589 8.26747C26.5279 6.8816 26.3037 5.92882 25.9827 5.10341C25.6617 4.23724 25.2184 3.50864 24.4898 2.78514C23.7663 2.06163 23.0377 1.61326 22.1817 1.28208C21.3512 0.961086 20.4035 0.736901 19.0177 0.67576C17.6216 0.609524 17.1783 0.594238 13.6372 0.594238Z" fill="#6736D0"/>
<path d="M13.6376 6.93762C9.93852 6.93762 6.9375 9.93864 6.9375 13.6377C6.9375 17.3367 9.93852 20.3378 13.6376 20.3378C17.3366 20.3378 20.3376 17.3367 20.3376 13.6377C20.3376 9.93864 17.3366 6.93762 13.6376 6.93762ZM13.6376 17.9838C11.2378 17.9838 9.29144 16.0375 9.29144 13.6377C9.29144 11.2379 11.2378 9.29156 13.6376 9.29156C16.0374 9.29156 17.9837 11.2379 17.9837 13.6377C17.9837 16.0375 16.0374 17.9838 13.6376 17.9838Z" fill="#6736D0"/>
<path d="M22.1665 6.6726C22.1665 7.53877 21.4634 8.2368 20.6023 8.2368C19.7361 8.2368 19.0381 7.53367 19.0381 6.6726C19.0381 5.80643 19.7412 5.1084 20.6023 5.1084C21.4634 5.1084 22.1665 5.81152 22.1665 6.6726Z" fill="#6736D0"/>
</g>
<defs>
<clipPath id="clip0_2920_5998">
<rect width="26.087" height="26.087" fill="white" transform="translate(0.59375 0.594238)"/>
</clipPath>
</defs>
</svg>
