<svg width="241" height="283" viewBox="0 0 241 283" fill="none" xmlns="http://www.w3.org/2000/svg">
<path d="M222.843 277.265C221.928 277.265 221.132 276.595 221.006 275.665C220.686 273.404 220.403 271.105 220.128 268.88C219.666 265.123 219.19 261.232 218.528 257.482C217.858 253.696 216.973 249.886 216.11 246.211C214.786 240.549 213.424 234.694 212.792 228.675C211.43 215.76 211.423 201.885 212.77 186.269C212.896 184.84 213.09 183.419 213.283 182.05C213.528 180.324 213.759 178.687 213.848 177.036C213.908 175.912 213.774 174.796 213.633 173.613C213.543 172.855 213.447 172.073 213.402 171.262C213.372 170.786 213.387 170.347 213.402 169.923C213.417 169.507 213.424 169.112 213.402 168.763C213.223 166.813 212.785 164.767 212.353 162.781C212.227 162.208 212.107 161.635 211.988 161.07C211.058 156.546 210.091 152.834 208.938 149.397C208.789 148.95 208.648 148.452 208.514 147.931C208.283 147.09 208.053 146.22 207.74 145.617C207.353 144.858 206.743 144.1 206.096 143.289C205.553 142.612 204.995 141.912 204.519 141.153C201.788 136.816 199.036 132.62 195.353 129.019C188.531 122.338 179.328 119.444 172.074 117.666C171.077 117.42 170.467 116.416 170.712 115.419C170.958 114.422 171.962 113.812 172.959 114.058C180.674 115.947 190.495 119.05 197.957 126.363C201.922 130.254 204.816 134.644 207.666 139.182C208.03 139.762 208.499 140.35 208.998 140.975C209.734 141.897 210.493 142.842 211.051 143.943C211.527 144.888 211.832 145.989 212.093 146.964C212.212 147.41 212.331 147.842 212.457 148.229C213.655 151.807 214.659 155.654 215.619 160.326C215.731 160.884 215.857 161.442 215.976 162.007C216.43 164.098 216.891 166.263 217.092 168.435C217.144 169.016 217.129 169.566 217.114 170.05C217.1 170.407 217.092 170.749 217.114 171.062C217.152 171.761 217.234 172.445 217.323 173.182C217.479 174.469 217.643 175.801 217.561 177.251C217.457 179.067 217.211 180.852 216.966 182.578C216.78 183.903 216.586 185.272 216.475 186.603C215.15 201.981 215.15 215.619 216.49 228.296C217.1 234.084 218.439 239.82 219.733 245.378C220.604 249.105 221.504 252.967 222.188 256.85C222.865 260.696 223.349 264.632 223.818 268.441C224.086 270.651 224.368 272.935 224.681 275.167C224.822 276.186 224.115 277.124 223.096 277.272C223.007 277.287 222.918 277.287 222.836 277.287L222.843 277.265Z" fill="#1A1A1A"/>
<path d="M95.2499 257.876C94.4315 257.876 93.6801 257.333 93.4569 256.5C92.1773 251.753 92.5641 246.791 92.9436 241.985C93.07 240.363 93.1891 238.83 93.2486 237.32C93.2858 236.397 93.3156 235.475 93.3453 234.56C93.5611 228.377 93.7694 222.537 94.7887 216.384C95.4657 212.33 95.9418 208.156 96.4031 204.124C96.6486 201.959 96.9016 199.794 97.1768 197.629C97.4744 195.292 97.8911 192.956 98.3002 190.702C99.0294 186.61 99.7212 182.742 99.8031 178.746C99.8775 174.997 100.235 172.05 100.956 169.194C103.449 159.343 107.451 150.036 111.394 141.443C111.744 140.677 112.071 139.903 112.391 139.122C113.113 137.381 113.857 135.588 114.928 133.892C115.821 132.478 116.892 131.05 119.325 130.521L119.667 130.447C120.151 130.35 120.263 130.321 120.486 130.172C121.163 129.718 121.825 129.026 122.524 128.297C123.097 127.694 123.692 127.077 124.354 126.526C125.805 125.321 127.316 124.242 128.833 123.32C130.998 122.01 133.186 121.318 135.291 120.649C137.01 120.106 138.639 119.592 140.209 118.759C146.786 115.292 153.861 113.402 161.226 113.142C161.256 113.142 161.293 113.142 161.323 113.142C166.203 113.231 171.002 114.102 175.585 115.731C175.622 115.746 175.667 115.761 175.704 115.776C178.613 117.04 181.046 118.967 182.943 121.497C183.561 122.315 183.389 123.483 182.571 124.101C181.753 124.718 180.585 124.547 179.967 123.729C178.472 121.735 176.56 120.217 174.276 119.213C170.109 117.74 165.742 116.944 161.308 116.862C154.523 117.107 148.006 118.856 141.942 122.055C140.075 123.037 138.215 123.625 136.407 124.198C134.421 124.83 132.538 125.418 130.753 126.504C129.391 127.33 128.037 128.297 126.72 129.391C126.222 129.807 125.723 130.321 125.195 130.871C124.392 131.712 123.558 132.575 122.554 133.259C121.713 133.825 121.014 133.966 120.397 134.093L120.106 134.152C119.191 134.353 118.834 134.65 118.068 135.871C117.168 137.307 116.513 138.876 115.821 140.55C115.486 141.354 115.144 142.18 114.772 142.998C110.896 151.427 106.983 160.549 104.557 170.109C103.91 172.675 103.583 175.361 103.516 178.821C103.426 183.106 102.682 187.302 101.953 191.357C101.559 193.566 101.15 195.858 100.86 198.105C100.584 200.247 100.339 202.398 100.093 204.548C99.6245 208.632 99.1409 212.85 98.449 217.002C97.467 222.917 97.2661 228.638 97.0503 234.694C97.0206 235.609 96.9834 236.539 96.9536 237.461C96.8941 239.054 96.7676 240.69 96.6412 242.275C96.2915 246.761 95.9269 251.404 97.0429 255.533C97.3108 256.522 96.723 257.549 95.7335 257.817C95.5698 257.861 95.4062 257.884 95.2499 257.884V257.876Z" fill="#1A1A1A"/>
<path d="M175.585 163.919C173.033 163.919 170.518 163.629 168.048 163.346C167.304 163.264 166.56 163.175 165.816 163.101C164.797 162.996 164.053 162.081 164.157 161.062C164.261 160.043 165.176 159.299 166.196 159.403C166.954 159.485 167.706 159.567 168.465 159.656C172.571 160.125 176.448 160.571 180.272 159.745C181.276 159.529 182.266 160.169 182.481 161.174C182.697 162.178 182.057 163.167 181.053 163.383C179.215 163.778 177.385 163.926 175.577 163.926L175.585 163.919Z" fill="#1A1A1A"/>
<path d="M148.623 147.753C148.013 147.753 147.418 147.455 147.061 146.912C145.134 143.958 143.579 142.359 140.432 141.831C139.42 141.659 138.736 140.7 138.907 139.688C139.078 138.676 140.038 137.992 141.05 138.163C145.491 138.907 147.835 141.287 150.178 144.881C150.736 145.744 150.498 146.897 149.635 147.455C149.323 147.656 148.966 147.76 148.623 147.76V147.753Z" fill="#1A1A1A"/>
<path d="M154.545 197.495C151.629 197.495 149.077 196.431 147.425 194.489C146.756 193.708 146.853 192.533 147.634 191.871C148.415 191.208 149.59 191.298 150.252 192.079C151.294 193.306 153.176 193.931 155.289 193.745C157.157 193.582 158.302 192.808 159.523 190.896C160.073 190.033 161.226 189.773 162.089 190.323C162.952 190.874 163.213 192.027 162.662 192.89C161.42 194.832 159.5 197.108 155.617 197.45C155.259 197.48 154.902 197.495 154.553 197.495H154.545Z" fill="#1A1A1A"/>
<path d="M134.183 174.066C134.049 174.066 133.908 174.052 133.766 174.022C132.293 173.687 131.274 172.333 130.879 170.83C130.589 170.577 130.381 170.228 130.299 169.841C129.972 168.368 130.589 164.856 132.531 163.762C133.61 163.152 134.882 163.361 135.857 164.291C137.151 165.526 137.322 167.668 137.017 169.603C137.04 169.945 136.973 170.287 136.816 170.6C136.534 171.738 136.117 172.72 135.708 173.293C135.351 173.791 134.785 174.074 134.198 174.074L134.183 174.066Z" fill="#1A1A1A"/>
<path d="M170.742 179.446C170.02 179.446 169.328 179.022 169.03 178.307C168.934 178.084 168.889 177.846 168.882 177.616C168.755 177.549 168.636 177.459 168.525 177.355C167.453 176.373 166.925 175.071 167.044 173.68C167.215 171.634 168.74 169.789 170.184 168.866C170.623 168.584 171.158 168.502 171.664 168.636C172.17 168.77 172.594 169.104 172.832 169.566C173.97 171.716 174.075 175.272 173.598 177.534C173.472 178.129 173.063 178.627 172.505 178.865L171.478 179.297C171.24 179.394 170.995 179.446 170.756 179.446H170.742Z" fill="#1A1A1A"/>
<path d="M138.853 121.646C138.69 121.646 138.526 121.623 138.362 121.579C135.915 120.909 134.382 118.685 133.154 116.892C132.872 116.483 132.604 116.096 132.336 115.746C129.018 111.394 125.491 106.736 122.047 101.893C118.617 97.3325 115.5 92.4073 112.814 87.3036C112.792 87.259 112.769 87.2069 112.747 87.1622L109.057 78.3758C109.005 78.2493 108.968 78.1154 108.938 77.9815L107.591 70.4152C107.591 70.378 107.576 70.3334 107.576 70.2962C107.152 66.4795 108.395 63.392 111.17 61.3386C112.39 59.4861 114.213 58.6528 116.37 58.9728C118.431 58.4966 120.321 59.0992 121.772 60.6988C124.695 62.5215 127.173 64.932 129.137 67.8708L136.026 76.0248C138.459 79.0826 140.847 82.3412 143.258 85.8751C141.926 80.4813 141.442 74.9312 141.792 69.0611C141.792 69.0091 141.8 68.9644 141.807 68.9124L143.436 57.2914C144.121 52.3662 145.653 47.6865 147.989 43.3714C149.916 39.3763 154.031 32.487 160.035 30.8874C160.101 30.8725 160.161 30.8577 160.228 30.8502L164.223 30.2253C164.833 30.1286 165.443 30.3443 165.867 30.7907L168.836 33.9675C168.962 34.1014 169.066 34.2577 169.148 34.4288C171.075 38.3942 172.489 42.5977 173.344 46.9054C174.341 50.164 174.981 53.5417 175.242 56.9417C175.502 58.8909 175.74 60.8327 175.956 62.7819C176.357 61.0559 176.804 59.3075 177.295 57.5517C178.857 51.9347 181.052 44.6213 184.244 37.8139C185.672 34.1014 187.815 30.8651 190.627 28.1793C192.108 25.7093 194.436 24.5115 197.375 24.6975C198.885 24.7942 199.577 26.245 200.678 29.3027L200.745 29.4813C201.273 30.8949 201.653 32.3977 201.906 34.0568C202.025 34.8677 202.107 35.5448 202.144 36.192C202.189 36.9434 202.174 37.6577 202.151 38.357C202.151 38.5876 202.136 38.8183 202.136 39.0489C202.107 40.9535 202.233 42.9325 202.352 44.8445C202.427 46.087 202.508 47.3815 202.553 48.6537C202.836 55.8629 201.95 62.7894 201.021 69.262C200.835 70.5789 200.671 71.9255 200.507 73.2721C200.113 76.5233 199.711 79.8787 198.908 83.0852C198.007 86.6935 196.951 90.3539 195.924 93.8953L195.664 94.7881C195.463 95.4725 195.262 96.157 195.061 96.8489C194.622 98.3443 194.168 99.8918 193.759 101.417C193.722 101.558 193.707 101.781 193.685 102.02C193.655 102.377 193.625 102.823 193.491 103.292C193.335 103.865 193.097 104.237 192.948 104.49C192.874 104.609 192.852 104.638 192.844 104.676C192.829 104.75 192.822 105.07 192.822 105.278C192.822 105.568 192.814 105.859 192.785 106.104C192.673 107.123 191.758 107.867 190.739 107.756C189.719 107.644 188.983 106.729 189.087 105.71C189.102 105.568 189.102 105.405 189.102 105.241C189.102 104.72 189.117 104.08 189.333 103.463C189.481 103.031 189.675 102.726 189.801 102.525C189.898 102.369 189.898 102.362 189.913 102.325C189.95 102.198 189.965 101.975 189.98 101.752C190.01 101.395 190.039 100.941 190.166 100.465C190.582 98.9023 191.044 97.3325 191.49 95.8222C191.691 95.1452 191.892 94.4607 192.085 93.7837L192.346 92.8835C193.357 89.3793 194.407 85.7487 195.292 82.2073C196.036 79.2314 196.43 75.9876 196.81 72.8555C196.973 71.4791 197.144 70.1027 197.338 68.7561C198.245 62.4546 199.108 55.7215 198.833 48.81C198.796 47.5749 198.714 46.3176 198.64 45.0975C198.513 43.1185 198.387 41.0651 198.417 39.0192C198.417 38.7736 198.424 38.5281 198.431 38.2826C198.446 37.6353 198.461 37.0253 198.431 36.4375C198.402 35.9019 198.335 35.329 198.231 34.6371C198.015 33.231 197.702 31.9811 197.263 30.8056L197.189 30.5973C196.787 29.4962 196.512 28.834 196.333 28.4472C195.18 28.5662 194.354 29.1465 193.729 30.2774C193.633 30.4485 193.514 30.5973 193.372 30.7312C190.865 33.0822 188.953 35.9391 187.696 39.2349C187.681 39.2795 187.659 39.3167 187.644 39.3614C184.556 45.9382 182.406 53.0879 180.881 58.5784C178.924 65.6388 177.682 72.4314 177.243 78.4725C177.429 82.0511 177.548 85.6148 177.585 89.1412C177.593 90.1158 176.848 90.9342 175.874 91.0161C174.899 91.0979 174.029 90.406 173.887 89.4463C173.471 86.7382 173.307 84.4393 173.359 81.999C173.382 80.8458 173.434 79.6629 173.515 78.4428C173.143 71.4791 172.489 64.441 171.551 57.4178C171.551 57.3806 171.544 57.3509 171.544 57.3137C171.306 54.1369 170.703 50.9824 169.766 47.9469C169.743 47.8874 169.729 47.8205 169.721 47.7609C168.947 43.8178 167.668 39.9789 165.927 36.3483L163.821 34.1014L160.898 34.5553C156.188 35.8721 152.632 42.3373 151.315 45.0677C151.3 45.0975 151.285 45.1198 151.27 45.1496C149.135 49.0778 147.736 53.3482 147.112 57.8493L145.49 69.3959C145.058 76.873 146.055 83.7846 148.555 90.5176C149.083 91.9386 149.656 93.3745 150.214 94.7657C150.898 96.4843 151.613 98.2625 152.252 100.048C152.535 100.829 152.252 101.707 151.583 102.191C150.906 102.674 149.991 102.645 149.343 102.131C148.094 101.127 146.606 98.6196 144.761 95.1526C144.545 94.7509 144.396 94.4607 144.314 94.3342C140.52 88.308 136.859 83.1001 133.14 78.4204L126.213 70.2292C126.168 70.1771 126.124 70.1176 126.087 70.0581C124.361 67.4616 122.173 65.3412 119.577 63.764C119.398 63.6524 119.242 63.5185 119.108 63.3548C118.483 62.5959 117.888 62.41 116.98 62.6927C116.675 62.7894 116.348 62.8043 116.028 62.7299C115.12 62.529 114.629 62.7596 114.146 63.6003C114.004 63.8458 113.811 64.0542 113.58 64.2104C111.713 65.4752 110.976 67.2756 111.252 69.8647L112.554 77.1631L116.132 85.6892C118.714 90.5994 121.712 95.3237 125.038 99.743C128.482 104.579 131.986 109.214 135.282 113.544C135.58 113.938 135.885 114.377 136.205 114.838C137.135 116.192 138.199 117.732 139.33 118.045C140.319 118.313 140.907 119.339 140.631 120.329C140.408 121.155 139.657 121.698 138.838 121.698L138.853 121.646Z" fill="#1A1A1A"/>
<path d="M153.816 175.227C153.645 175.227 153.466 175.198 153.295 175.131C150.989 174.275 148.586 174.059 146.041 173.836L145.84 173.821C145.543 173.792 145.23 173.732 144.925 173.673C144.68 173.62 144.248 173.539 143.943 173.524C143.4 173.978 142.597 173.992 142.039 173.524L142.961 172.415L141.987 173.479L141.927 173.434C141.563 173.137 141.369 172.676 141.391 172.207C141.414 171.738 141.667 171.307 142.054 171.046C143.199 170.287 144.583 170.57 145.506 170.749C145.721 170.793 145.922 170.838 146.101 170.853L146.302 170.868C148.928 171.098 151.651 171.344 154.329 172.341C155.103 172.623 155.49 173.487 155.207 174.253C154.984 174.855 154.419 175.22 153.808 175.22L153.816 175.227Z" fill="#1A1A1A"/>
<path d="M196.513 169.015C196.014 169.015 195.523 168.762 195.248 168.309C194.831 167.632 195.017 166.739 195.679 166.292L196.044 166.047C196.178 165.958 196.319 165.891 196.468 165.846C199.682 164.061 202.978 162.424 205.812 161.047C208.9 159.545 212.084 158.31 214.792 157.305C215.395 157.082 216.005 156.844 216.623 156.598C218.996 155.668 221.458 154.709 223.995 154.359C225.03 154.218 228.177 153.779 230.014 156.048C230.736 156.941 231.458 157.952 231.807 159.254C232.142 160.497 231.971 161.672 231.822 162.706C231.8 162.885 231.77 163.056 231.748 163.235C231.644 164.053 230.9 164.626 230.081 164.522C229.263 164.418 228.69 163.674 228.794 162.855C228.816 162.662 228.846 162.476 228.876 162.282C229.002 161.419 229.107 160.675 228.928 160.021C228.72 159.254 228.214 158.562 227.7 157.923C227.172 157.275 226.093 157.075 224.405 157.305C222.217 157.61 219.926 158.503 217.709 159.366C217.076 159.612 216.444 159.857 215.826 160.088C213.185 161.062 210.09 162.26 207.114 163.711C204.116 165.169 200.605 166.917 197.242 168.815C197.011 168.941 196.758 169.008 196.513 169.008V169.015Z" fill="#1A1A1A"/>
<path d="M130.068 181.864C128.528 181.864 127.114 181.425 125.976 181.067C125.336 180.867 124.681 180.703 123.997 180.524C122.732 180.204 121.43 179.877 120.143 179.297C118.283 178.456 116.862 177.169 115.753 175.889C115.642 175.793 115.552 175.681 115.471 175.555C115.292 175.339 115.121 175.123 114.957 174.907C114.34 174.87 113.812 174.453 113.633 173.851C113.507 173.449 113.395 173.04 113.276 172.631C112.591 171.678 111.937 170.689 111.371 169.61C110.679 168.271 110.151 166.843 109.645 165.466C109.511 165.094 109.37 164.722 109.229 164.35C108.589 162.654 108.165 160.906 107.756 159.209C107.741 159.157 107.726 159.098 107.718 159.046C107.532 158.629 107.354 158.101 107.138 157.453C106.818 156.501 106.461 155.385 106.26 154.745C106.186 154.507 106.134 154.344 106.111 154.284L106.015 153.994C105.538 152.588 105.055 151.137 104.742 149.634L103.589 148.95C103.589 148.95 103.559 148.95 103.552 148.95C102.734 148.89 102.116 148.176 102.176 147.358L102.191 147.164C102.228 146.651 102.525 146.19 102.987 145.951C103.44 145.713 103.991 145.728 104.437 145.989L106.699 147.328C108.306 148.288 109.928 149.247 111.572 150.2C111.795 150.267 111.989 150.386 112.152 150.534C112.249 150.594 112.346 150.646 112.443 150.706C112.77 150.698 113.09 150.795 113.358 150.996C113.611 151.182 113.841 151.39 114.042 151.621C117.517 153.577 121.065 155.437 124.696 157C126.348 157.706 127.962 158.51 129.524 159.276C130.789 159.901 132.091 160.548 133.393 161.136C134.628 161.687 135.863 162.297 137.173 163.004C137.574 163.219 138.043 163.368 138.534 163.532C138.98 163.673 139.442 163.822 139.918 164.038C140.141 164.134 140.342 164.246 140.55 164.358C140.766 164.469 140.952 164.573 141.108 164.625C141.138 164.625 141.205 164.64 141.272 164.648C141.659 164.7 142.254 164.789 142.76 165.198C143.772 166.024 143.92 167.981 143.943 168.561C144.01 170.473 143.124 171.857 142.351 173.085C142.157 173.39 141.956 173.702 141.77 174.029C141.666 174.208 141.577 174.394 141.48 174.572C141.153 175.205 140.788 175.927 140.134 176.551C139.724 176.946 139.285 177.191 138.906 177.407C138.735 177.504 138.564 177.593 138.408 177.712C138.028 177.98 137.656 178.315 137.269 178.672C136.897 179.007 136.51 179.356 136.079 179.684C135.134 180.398 134.137 180.8 133.177 181.186L132.791 181.343C131.853 181.722 130.931 181.864 130.06 181.864H130.068ZM124.934 177.69C125.566 177.853 126.221 178.017 126.868 178.225C128.751 178.813 130.194 179.185 131.682 178.583L132.084 178.419C132.939 178.077 133.676 177.786 134.293 177.31C134.621 177.057 134.941 176.767 135.283 176.462C135.722 176.068 136.176 175.659 136.696 175.287C136.942 175.116 137.202 174.959 137.455 174.818C137.723 174.669 137.954 174.535 138.095 174.401C138.385 174.126 138.601 173.702 138.847 173.218C138.958 173.003 139.07 172.779 139.196 172.564C139.405 172.199 139.628 171.842 139.851 171.492C140.506 170.466 141.019 169.662 140.982 168.673C140.967 168.345 140.9 167.892 140.818 167.586C140.632 167.557 140.401 167.527 140.171 167.445C139.777 167.311 139.449 167.14 139.159 166.984C139.018 166.909 138.876 166.828 138.72 166.761C138.393 166.612 138.028 166.493 137.634 166.374C137.061 166.188 136.414 165.979 135.774 165.637C134.524 164.968 133.349 164.387 132.188 163.859C130.834 163.249 129.502 162.594 128.215 161.955C127.129 161.419 126.013 160.868 124.897 160.348C125.008 160.958 125.061 161.538 125.105 162.007C125.611 167.579 125.299 173.226 124.934 177.69Z" fill="#1A1A1A"/>
<path d="M129.987 175.949C129.168 175.949 128.499 175.279 128.499 174.461V172.668C128.499 171.849 129.168 171.18 129.987 171.18C130.805 171.18 131.475 171.849 131.475 172.668V174.461C131.475 175.279 130.805 175.949 129.987 175.949Z" fill="#1A1A1A"/>
<path d="M131.311 181.916C130.79 181.916 130.299 181.64 130.031 181.187C129.837 180.859 129.696 180.517 129.607 180.16C129.175 179.937 128.863 179.505 128.803 178.992C128.521 176.358 128.684 173.672 128.841 171.076C128.893 170.191 128.945 169.313 128.982 168.442C129.056 167.326 129.079 166.225 129.049 165.146C128.93 164.454 128.967 163.77 129.175 163.108C129.317 162.654 129.666 162.297 130.113 162.141C130.135 161.918 130.157 161.694 130.18 161.479C130.262 160.69 130.946 160.11 131.735 160.147C132.523 160.184 133.148 160.839 133.148 161.627C133.148 161.88 133.148 162.126 133.126 162.371C133.156 162.371 133.178 162.371 133.208 162.379C133.833 162.453 134.339 162.907 134.48 163.525C134.525 163.725 134.569 163.926 134.606 164.127C134.606 164.127 134.621 164.127 134.621 164.12C134.748 163.398 135.388 162.862 136.139 162.9C136.935 162.929 137.567 163.577 137.575 164.373C137.575 165.02 137.582 165.66 137.575 166.292C137.62 166.292 137.664 166.292 137.709 166.292C138.088 166.292 138.445 166.448 138.713 166.701C138.869 166.627 139.041 166.575 139.219 166.56C139.294 166.56 139.368 166.553 139.442 166.56C139.636 166.389 139.874 166.262 140.142 166.21C140.715 166.099 141.302 166.322 141.644 166.798C141.935 167.2 142.106 167.654 142.158 168.145C142.195 168.331 142.277 168.479 142.418 168.628C142.984 169.223 142.961 170.168 142.366 170.734C142.016 171.068 141.54 171.195 141.101 171.121C141.02 171.374 140.93 171.619 140.834 171.865C140.61 172.423 140.09 172.787 139.502 172.802C139.331 173.211 139.145 173.605 138.944 173.992C138.743 174.387 138.371 174.669 137.939 174.766C137.739 175.212 137.456 175.637 137.062 176.001C136.764 176.276 136.37 176.418 135.968 176.395C135.745 176.812 135.328 177.102 134.844 177.162C134.822 177.162 134.8 177.162 134.778 177.162C134.763 177.206 134.748 177.244 134.733 177.288C134.554 177.794 134.115 178.159 133.595 178.248C133.386 179.2 133.081 180.13 132.694 181.03C132.471 181.544 131.98 181.893 131.422 181.923C131.392 181.923 131.355 181.923 131.325 181.923L131.311 181.916Z" fill="#1A1A1A"/>
<path d="M172.542 190.345C172.073 190.345 171.597 190.301 171.113 190.159C170.674 190.025 170.272 189.862 169.886 189.698C169.551 189.557 169.238 189.423 168.941 189.341C166.553 188.642 164.484 187.927 162.617 187.161C162.312 187.035 162.014 186.901 161.717 186.759C161.426 186.625 161.144 186.484 160.839 186.372C160.683 186.313 160.526 186.261 160.37 186.209C159.827 186.03 159.157 185.807 158.547 185.331C157.327 184.371 156.717 183.315 156.077 182.191C155.17 180.599 154.597 179.193 154.195 177.601C153.89 176.373 153.912 175.175 153.942 174.022C153.949 173.658 153.957 173.293 153.957 172.929V172.832C153.957 172.564 153.949 172.2 153.994 171.813C154.15 170.593 154.768 170.012 155.259 169.737C156.33 169.142 157.558 169.551 157.967 169.692C158.116 169.744 158.198 169.767 158.242 169.774C158.302 169.752 158.421 169.707 158.659 169.603C160.467 168.814 162.356 168.591 164.291 168.413C165.853 168.271 167.423 167.87 169.082 167.438C170.049 167.193 171.054 166.932 172.051 166.731C174.483 166.248 176.991 166.225 179.416 166.203H179.877C181.841 166.181 183.768 165.623 185.807 165.035L186.618 164.804C188.262 164.336 189.646 164.313 191.104 164.284C191.468 164.284 191.84 164.269 192.22 164.254C193.232 164.217 194.281 164.098 195.092 163.934C195.203 163.912 195.315 163.882 195.426 163.86C195.992 163.726 196.699 163.554 197.569 163.763C198.261 163.926 198.737 164.551 198.715 165.258C198.693 165.935 198.477 166.553 198.283 167.103C198.224 167.267 198.172 167.423 198.127 167.579C197.956 168.152 197.852 168.74 197.733 169.365C197.562 170.28 197.383 171.218 197.011 172.192C196.223 174.26 195.345 176.239 194.333 178.248C194.147 178.62 193.968 179 193.782 179.386C193.165 180.703 192.532 182.065 191.491 183.233C190.464 184.386 189.184 185.13 187.949 185.859C187.555 186.09 187.168 186.313 186.796 186.551C185.673 187.273 184.542 187.689 183.448 188.091C183.047 188.24 182.645 188.389 182.228 188.552C180.971 189.066 179.937 189.341 178.657 189.505C178.181 189.564 177.682 189.683 177.154 189.81C176.314 190.003 175.443 190.211 174.506 190.234C174.268 190.234 174.007 190.263 173.747 190.286C173.367 190.316 172.966 190.353 172.549 190.353L172.542 190.345ZM156.94 172.49C156.94 172.594 156.94 172.698 156.94 172.795V172.899C156.94 173.293 156.94 173.695 156.925 174.089C156.903 175.086 156.881 176.031 157.089 176.872C157.416 178.189 157.9 179.364 158.644 180.666C159.224 181.678 159.626 182.385 160.385 182.98C160.586 183.136 160.913 183.248 161.3 183.374C161.501 183.441 161.702 183.508 161.903 183.582C162.275 183.724 162.632 183.895 162.989 184.066C163.234 184.185 163.48 184.304 163.733 184.401C165.504 185.123 167.483 185.807 169.774 186.477C170.235 186.61 170.637 186.782 171.031 186.945C171.359 187.079 171.664 187.213 171.946 187.295C172.311 187.399 172.899 187.347 173.472 187.295C173.799 187.265 174.119 187.243 174.416 187.235C175.049 187.221 175.733 187.064 176.455 186.893C177.035 186.759 177.63 186.618 178.263 186.536C179.297 186.402 180.071 186.201 181.097 185.785C181.544 185.606 181.975 185.442 182.407 185.286C183.396 184.922 184.326 184.579 185.174 184.036C185.576 183.776 186 183.53 186.424 183.277C187.511 182.645 188.537 182.042 189.251 181.239C190.003 180.398 190.524 179.29 191.067 178.114C191.26 177.705 191.454 177.288 191.654 176.894C192.622 174.982 193.455 173.092 194.214 171.121C194.489 170.399 194.638 169.625 194.787 168.807C194.898 168.204 195.017 167.579 195.196 166.94C194.318 167.088 193.314 167.193 192.309 167.23C191.907 167.245 191.513 167.252 191.134 167.26C189.817 167.282 188.686 167.304 187.414 167.661L186.618 167.892C184.475 168.509 182.265 169.157 179.885 169.179H179.416C177.132 169.201 174.766 169.224 172.616 169.655C171.693 169.841 170.778 170.072 169.804 170.325C168.107 170.764 166.344 171.21 164.551 171.381C162.803 171.545 161.233 171.723 159.834 172.333C158.741 172.81 158.175 172.899 157.007 172.512C156.977 172.505 156.948 172.49 156.925 172.482L156.94 172.49Z" fill="#1A1A1A"/>
<path d="M170.295 188.21C169.611 188.21 169.001 187.742 168.844 187.057C168.815 186.931 168.785 186.797 168.763 186.663C168.532 186.67 168.294 186.618 168.078 186.514C167.944 186.447 167.825 186.365 167.721 186.268C166.999 186.655 166.263 186.752 165.787 186.767C165.11 186.782 164.514 186.358 164.321 185.71C164.291 185.614 164.261 185.517 164.239 185.42C164.142 185.435 164.046 185.435 163.949 185.435C163.651 185.963 163.064 186.261 162.461 186.179C161.955 186.112 161.568 185.949 161.278 185.748C161.129 185.755 160.981 185.748 160.832 185.71C159.79 185.472 159.091 184.795 158.816 183.828C158.458 183.694 158.161 183.426 157.99 183.069C157.766 182.593 157.618 182.08 157.536 181.559C156.926 181.269 156.569 180.599 156.71 179.915C156.814 179.409 156.792 178.754 156.762 178.114C156.204 177.861 155.84 177.281 155.892 176.641C156.055 174.588 156.338 172.854 156.784 171.173C156.993 170.377 157.811 169.908 158.607 170.117C158.778 170.161 158.927 170.236 159.068 170.325C159.366 170.094 159.738 169.983 160.125 170.027C160.579 170.072 160.988 170.325 161.233 170.712C161.233 170.697 161.248 170.675 161.256 170.66C161.419 170.198 161.791 169.849 162.26 169.715C162.729 169.581 163.227 169.693 163.607 169.998C163.86 170.206 164.075 170.437 164.254 170.675C164.7 169.789 165.474 169.224 166.464 169.09C167.022 169.016 167.572 169.254 167.892 169.722C167.937 169.789 167.981 169.849 168.019 169.916C168.279 169.879 168.554 169.871 168.852 169.908C168.896 169.908 168.941 169.916 168.978 169.931C169.202 169.566 169.492 169.239 169.849 168.949C170.422 168.48 171.255 168.51 171.798 169.008C171.813 169.016 171.82 169.03 171.835 169.038C172.096 168.688 172.505 168.472 172.951 168.45C173.412 167.602 173.933 167.185 174.595 167.066C175.034 166.992 175.481 167.111 175.816 167.401C176.15 167.691 176.344 168.108 176.336 168.554C176.299 171.039 175.987 173.584 175.317 176.79C175.086 178.092 174.796 179.402 174.447 180.696C174.871 181.083 175.057 181.7 174.863 182.281C174.796 182.482 174.729 182.697 174.655 182.928C174.253 184.223 173.725 185.904 172.527 187.027C171.872 187.913 170.92 188.136 170.518 188.195C170.444 188.203 170.377 188.21 170.303 188.21H170.295ZM166.836 182.802C166.836 182.802 166.836 182.876 166.836 182.913C166.865 182.831 166.888 182.749 166.91 182.653C166.888 182.705 166.858 182.749 166.828 182.802H166.836Z" fill="#1A1A1A"/>
<path d="M178.367 187.563C178.293 187.563 178.226 187.563 178.152 187.548C177.363 187.429 176.805 186.715 176.887 185.926L177.095 183.873C177.281 182.027 177.467 180.115 177.69 178.233C177.973 175.771 178.278 173.278 178.598 170.816C178.613 170.726 178.628 170.63 178.657 170.548C178.732 170.317 178.791 170.094 178.829 169.871C178.747 169.737 178.68 169.581 178.643 169.417C178.419 168.472 178.784 167.602 179.587 167.14C180.019 166.895 180.54 166.88 180.986 167.096C180.994 167.096 181.008 167.103 181.016 167.111C181.291 166.716 181.626 166.382 182.028 166.106C182.474 165.801 183.054 165.757 183.545 166.002C184.029 166.248 184.341 166.739 184.364 167.282C184.654 166.94 184.996 166.642 185.383 166.382C185.71 166.166 186.105 166.091 186.477 166.158C186.745 165.489 187.05 164.834 187.399 164.209C187.712 163.644 188.359 163.346 188.991 163.48C189.624 163.606 190.107 164.135 190.174 164.775C190.197 164.998 190.212 165.221 190.219 165.444C190.286 165.444 190.36 165.444 190.435 165.444C190.97 165.459 191.461 165.757 191.714 166.233C191.729 166.262 191.744 166.285 191.759 166.315C191.952 166.24 192.161 166.203 192.377 166.218C192.481 166.218 192.577 166.24 192.674 166.262C193.039 165.794 193.664 165.571 194.259 165.742C195.032 165.965 195.486 166.754 195.293 167.535C195.07 168.427 194.817 169.305 194.549 170.176C194.489 170.429 194.43 170.682 194.37 170.927C194.475 170.942 194.586 170.964 194.69 171.002C195.464 171.277 195.873 172.125 195.598 172.899C194.973 174.669 194.162 176.373 193.187 177.973C192.868 178.494 192.272 178.769 191.685 178.672C191.112 180.19 190.457 181.693 189.594 183.114C189.267 183.649 188.642 183.917 188.032 183.798C187.645 183.724 187.31 183.493 187.094 183.188C186.931 183.441 186.759 183.694 186.588 183.94C186.276 184.386 185.748 184.624 185.212 184.564C184.959 184.535 184.728 184.445 184.527 184.311C184.059 184.706 183.56 184.966 183.092 185.137C182.913 185.472 182.734 185.799 182.548 186.134C182.355 186.491 182.013 186.752 181.619 186.856C181.224 186.96 180.8 186.893 180.458 186.677C180.279 186.566 180.064 186.41 179.848 186.209C179.84 186.261 179.826 186.32 179.818 186.372C179.684 187.079 179.059 187.578 178.36 187.578L178.367 187.563Z" fill="#1A1A1A"/>
<path d="M100.643 189.244C100.643 189.244 100.583 189.244 100.561 189.244C96.4911 189.013 93.7533 186.558 91.1047 184.177C90.8294 183.932 90.5616 183.686 90.2863 183.441C86.3209 179.929 82.1248 176.157 78.3007 171.998C71.6644 164.797 65.6828 157.223 61.2115 151.435C59.85 149.664 58.4736 147.908 57.0973 146.145C55.3415 143.891 53.5782 141.644 51.8447 139.375C51.5174 138.943 51.1528 138.482 50.7734 137.998C48.7275 135.38 46.183 132.128 44.829 129.093C44.6207 128.617 44.4793 128.133 44.3379 127.672C44.1966 127.188 44.0627 126.735 43.8916 126.429C43.3782 125.514 42.9244 124.644 42.4333 123.595C42.2771 123.268 42.1804 123.201 42.173 123.201C42.0465 123.141 41.4811 123.201 41.1165 123.238C40.9008 123.26 40.6776 123.282 40.4469 123.305C40.2907 123.32 40.1344 123.327 39.9708 123.342C40.0377 123.461 40.0972 123.595 40.1568 123.736C40.5883 124.793 40.2609 126.072 39.9633 127.032C39.8666 127.821 39.5244 128.639 39.0334 129.48C38.0959 131.422 36.7121 133.073 34.9563 134.36C32.7393 136.377 28.4688 139.844 26.0062 139.1C25.0539 138.809 24.4215 138.013 24.2802 136.912C24.2058 136.347 24.3248 135.766 24.548 135.171C23.5585 134.338 22.9485 133.378 22.7178 132.314C21.7432 127.746 25.1209 123.401 28.878 122.211C32.4193 121.088 36.4145 120.649 40.194 120.344C40.4023 120.329 40.6032 120.307 40.7892 120.284C42.1358 120.143 43.9883 119.942 45.1117 122.338C45.573 123.312 45.9896 124.123 46.4657 124.971C46.808 125.574 47.0014 126.244 47.18 126.839C47.2916 127.226 47.4032 127.598 47.5296 127.888C48.7349 130.588 51.1528 133.683 53.0946 136.168C53.4815 136.667 53.846 137.135 54.1808 137.574C55.9143 139.836 57.6627 142.075 59.4185 144.322C60.7948 146.086 62.1786 147.856 63.5476 149.627C67.9817 155.37 73.9112 162.877 80.4732 169.997C84.208 174.044 88.3371 177.764 92.243 181.224C92.5257 181.469 92.801 181.722 93.0837 181.975C95.5537 184.2 97.6889 186.112 100.717 186.283C101.535 186.328 102.168 187.034 102.123 187.853C102.078 188.641 101.424 189.259 100.635 189.259L100.643 189.244ZM31.3778 132.805L30.4553 133.401C31.0728 133.192 31.6828 132.91 32.2185 132.597C32.6054 132.374 32.9773 132.121 33.327 131.861C33.6618 131.548 33.9371 131.273 34.1305 131.042L34.2049 130.96C35.2986 129.703 35.9756 128.78 36.3848 128.118C36.6005 127.665 36.7865 127.188 36.9428 126.697L37.0023 126.511C36.9948 126.474 36.9874 126.437 36.98 126.392C36.7196 126.199 36.3699 126.035 35.7524 126.184C35.8268 126.258 35.8937 126.348 35.9458 126.444C36.2062 126.876 36.2286 127.404 36.0128 127.858C35.001 129.949 33.4461 131.615 31.3778 132.805ZM31.4968 124.562C30.9091 124.703 30.3362 124.867 29.7782 125.038C28.1266 125.559 26.5493 127.04 25.8649 128.847C26.222 128.446 26.6461 128.029 27.1222 127.605C28.2456 126.615 29.7559 125.447 31.4894 124.562H31.4968Z" fill="#1A1A1A"/>
<path d="M41.7341 175.956C40.9975 175.956 40.3577 175.406 40.261 174.662C40.2015 174.394 39.6658 172.735 39.2789 171.522C38.401 168.792 38.1555 168.003 38.1109 167.609C38.0588 167.125 38.0811 166.672 38.1109 166.277C38.1258 166.047 38.1406 165.816 38.1332 165.593C38.1109 165.124 37.9547 164.67 37.7687 164.142C37.6422 163.785 37.5157 163.413 37.419 163.026C36.7271 160.34 36.7792 157.357 36.8908 154.768C36.9205 154.106 36.9428 153.436 36.9652 152.767C37.0396 150.55 37.114 148.265 37.352 146.034C37.6571 143.184 38.2746 140.268 38.8623 137.441L39.0706 136.429C39.7551 133.148 40.4693 129.651 41.0348 126.08C41.1612 125.269 41.9275 124.711 42.7385 124.845C43.5494 124.971 44.1074 125.738 43.9735 126.549C43.4006 130.187 42.6789 133.728 41.987 137.046L41.7713 138.058C41.191 140.811 40.5958 143.653 40.3056 146.353C40.075 148.474 40.0006 150.706 39.9336 152.863C39.9113 153.54 39.889 154.217 39.8592 154.887C39.7625 157.26 39.7104 159.991 40.2982 162.29C40.38 162.602 40.4768 162.892 40.5809 163.175C40.8041 163.822 41.0571 164.559 41.1017 165.459C41.1166 165.823 41.1017 166.166 41.0794 166.478C41.0571 166.776 41.0422 167.066 41.0645 167.282C41.124 167.572 41.6894 169.335 42.1061 170.622C42.9319 173.181 43.1625 173.933 43.2072 174.297C43.3113 175.116 42.7384 175.86 41.9201 175.964C41.8531 175.971 41.7936 175.979 41.7266 175.979L41.7341 175.956Z" fill="#1A1A1A"/>
<path d="M94.7586 247.327C94.647 247.327 94.5429 247.312 94.4387 247.289C93.2781 247.029 92.3555 246.531 91.4553 246.047C91.2173 245.92 90.9717 245.787 90.7188 245.66C89.6921 245.139 88.6951 244.552 87.728 243.986C86.917 243.51 86.0763 243.019 85.2431 242.573C83.4575 241.628 81.7315 240.482 80.065 239.381L78.9564 238.652C76.1814 236.836 74.1949 234.686 72.0969 232.417C70.1626 230.327 68.0124 228.348 65.9293 226.436L65.6614 226.19C65.4978 226.041 64.6943 225.424 63.9875 224.873C59.6129 221.496 58.4597 220.484 58.1249 219.71C57.7901 218.959 58.1249 218.081 58.8763 217.746C59.5831 217.433 60.4089 217.716 60.7809 218.386C61.3166 219.048 64.4562 221.473 65.8028 222.515C66.8593 223.333 67.4247 223.772 67.6702 223.995L67.938 224.241C70.0658 226.198 72.2606 228.214 74.2545 230.371C76.3376 232.618 78.1157 234.545 80.5857 236.159L81.7092 236.903C83.3162 237.967 84.9752 239.068 86.6343 239.946C87.5271 240.415 88.3975 240.928 89.2382 241.419C90.2054 241.992 91.128 242.528 92.0728 243.011C92.3481 243.153 92.6085 243.294 92.8689 243.436C93.345 243.696 93.784 243.934 94.2304 244.12C94.4982 244.001 94.8032 243.964 95.1157 244.023C95.9192 244.18 96.4475 244.961 96.2987 245.764L96.2243 246.129C96.1499 246.523 95.9192 246.873 95.577 247.089C95.3315 247.252 95.0488 247.334 94.7586 247.334V247.327Z" fill="#1A1A1A"/>
<path d="M209.398 282.651C208.952 282.651 208.498 282.644 208.052 282.621C205.463 282.368 202.903 282.13 200.366 281.915C198.32 281.862 196.274 281.825 194.228 281.803C191.148 281.624 188.239 280.977 185.427 280.352C183.716 279.973 181.953 279.578 180.204 279.303C176.938 278.79 176.403 277.525 175.592 274.943L175.502 274.668C174.416 271.216 174.178 268.448 174.677 264.796C175.294 260.227 175.941 256.024 176.656 251.94L177.02 249.856C177.69 246.01 178.382 242.03 179.126 238.116L179.364 236.874C180.093 233.139 180.785 229.605 180.249 226.049L180.197 225.729C180.056 224.911 180.011 224.204 180.814 223.244C180.963 223.066 181.149 222.932 181.358 222.835C181.819 222.634 182.28 222.418 182.734 222.188C183.277 221.86 183.813 221.511 184.334 221.154C185.383 220.454 186.432 219.777 187.488 219.093C190.189 217.352 192.986 215.551 195.411 213.498C204.905 205.456 211.779 197.339 216.429 188.701C216.816 187.979 217.723 187.704 218.445 188.098C219.167 188.485 219.442 189.393 219.048 190.115C214.219 199.087 207.122 207.479 197.331 215.767C194.757 217.947 191.877 219.8 189.095 221.592C188.053 222.262 187.019 222.932 186 223.609C185.435 223.996 184.832 224.39 184.222 224.754C184.192 224.769 184.162 224.792 184.133 224.806C183.805 224.97 183.478 225.134 183.143 225.29C183.158 225.387 183.18 225.491 183.195 225.603C183.813 229.665 183.039 233.615 182.295 237.439L182.057 238.667C181.313 242.55 180.621 246.523 179.959 250.355L179.594 252.438C178.888 256.485 178.248 260.652 177.63 265.182C177.191 268.396 177.392 270.725 178.344 273.761L178.434 274.043C178.865 275.417 179.609 276.188 180.666 276.357C182.503 276.647 184.319 277.049 186.074 277.443C188.894 278.068 191.558 278.663 194.333 278.827C196.341 278.849 198.417 278.887 200.493 278.939C200.523 278.939 200.552 278.939 200.582 278.939C203.149 279.154 205.738 279.392 208.282 279.645C209.763 279.72 211.34 279.645 212.88 279.415C212.94 279.407 213.007 279.4 213.066 279.4C213.989 279.385 214.904 279.244 215.782 278.983C216.771 278.522 217.589 277.629 218.453 276.684C218.624 276.498 218.795 276.312 218.966 276.126C218.765 275.792 218.691 275.368 218.802 274.958C219.018 274.17 219.844 273.701 220.632 273.917C221.175 274.066 221.689 274.289 222.172 274.571C222.596 274.824 222.864 275.263 222.894 275.754C222.924 276.245 222.716 276.714 222.329 277.019C221.756 277.473 221.213 278.061 220.647 278.686C219.643 279.787 218.497 281.037 216.89 281.736C216.838 281.758 216.779 281.781 216.726 281.796C215.588 282.138 214.405 282.331 213.215 282.361C211.958 282.54 210.678 282.629 209.406 282.629L209.398 282.651Z" fill="#1A1A1A"/>
<path d="M195.419 252.416C195.047 252.416 194.675 252.394 194.318 252.356C193.292 252.252 192.042 251.471 191.402 250.556C190.941 249.886 190.784 249.128 190.963 248.421C191.171 247.625 191.982 247.149 192.778 247.357C193.493 247.543 193.946 248.212 193.887 248.919C194.043 249.105 194.437 249.358 194.646 249.403C195.762 249.522 196.989 249.38 198.492 248.971C199.63 248.659 200.59 248.54 201.81 248.562H201.885C202.882 248.584 203.826 248.599 204.682 248.361C204.89 248.302 205.091 248.22 205.292 248.138C205.716 247.974 206.2 247.781 206.758 247.699C207.398 247.602 207.993 247.61 208.514 247.617C209.272 247.617 209.868 247.632 210.426 247.372C210.768 247.208 211.117 246.977 211.489 246.732C211.876 246.479 212.278 246.211 212.732 245.98C211.951 243.019 210.879 240.743 209.146 238.362C209.116 238.317 209.086 238.28 209.064 238.236C209.057 238.236 209.049 238.236 209.042 238.236C208.789 238.236 208.528 238.236 208.275 238.236C207.896 238.236 207.531 238.221 207.197 238.25C204.89 238.451 202.249 238.98 199.348 239.805C198.217 240.133 197.123 240.557 195.963 241.003C195.546 241.167 195.122 241.331 194.705 241.487C194.489 241.569 194.274 241.643 194.051 241.717C193.798 241.799 193.559 241.881 193.336 241.97C193.054 242.551 192.414 242.9 191.744 242.789L191.387 242.729C190.829 242.633 190.375 242.223 190.212 241.673C190.055 241.13 190.219 240.542 190.643 240.155C191.409 239.463 192.31 239.158 193.106 238.898C193.292 238.838 193.478 238.771 193.664 238.704C194.073 238.548 194.482 238.392 194.891 238.236C196.067 237.782 197.279 237.313 198.537 236.956C201.617 236.071 204.451 235.513 206.951 235.297C207.435 235.252 207.896 235.26 208.335 235.267C208.558 235.267 208.781 235.267 209.005 235.267H209.094C209.577 235.208 210.299 235.133 210.909 235.557C211.482 235.959 211.646 236.502 211.705 236.8C213.617 239.478 214.852 242.149 215.685 245.43C215.953 246.479 216.258 247.692 214.525 248.443C214.443 248.48 214.346 248.517 214.242 248.57C213.892 248.733 213.528 248.971 213.156 249.224C212.717 249.514 212.263 249.812 211.727 250.065C210.552 250.623 209.458 250.608 208.506 250.601C208.052 250.601 207.621 250.593 207.212 250.653C206.988 250.682 206.698 250.794 206.401 250.913C206.103 251.032 205.805 251.144 205.5 251.226C204.228 251.583 203.015 251.56 201.84 251.538H201.766C200.843 251.523 200.151 251.605 199.303 251.836C197.904 252.222 196.625 252.416 195.434 252.416H195.419Z" fill="#1A1A1A"/>
<path d="M202.724 265.8C200.879 265.8 199.056 265.398 197.933 264.037C197.71 263.769 197.606 263.494 197.36 262.772L197.308 262.623L197.025 262.08C196.787 261.626 196.557 261.173 196.333 260.719C196.132 260.31 195.872 259.93 195.589 259.528C194.868 258.494 193.975 257.207 194.258 255.228C194.377 254.417 195.128 253.852 195.939 253.963C196.75 254.082 197.315 254.834 197.204 255.645C197.092 256.433 197.375 256.88 198.03 257.825C198.342 258.279 198.699 258.784 198.997 259.402C199.213 259.841 199.436 260.272 199.659 260.704L199.986 261.336C200.009 261.381 200.083 261.567 200.172 261.812C200.217 261.946 200.269 262.11 200.321 262.244C200.79 262.668 202.099 263.152 205.7 262.504C206.08 262.437 206.496 262.378 206.92 262.318C208.408 262.11 210.097 261.879 210.841 261.046C211.488 260.324 211.92 259.491 212.024 258.978C211.927 258.859 211.838 258.74 211.764 258.598C211.406 257.899 211.168 257.163 210.945 256.448C210.819 256.047 210.692 255.652 210.543 255.28L210.462 255.065C209.762 253.316 208.899 251.136 209.212 248.994C209.331 248.183 210.09 247.617 210.901 247.736C211.711 247.855 212.277 248.614 212.158 249.425C211.957 250.779 212.664 252.542 213.229 253.963L213.318 254.179C213.497 254.633 213.646 255.094 213.787 255.548C213.973 256.128 214.144 256.672 214.36 257.133C214.382 257.155 214.405 257.185 214.427 257.207C214.665 257.475 214.911 257.743 214.985 258.204C215.335 260.377 213.445 262.616 213.066 263.04C211.6 264.684 209.234 265.012 207.337 265.272C206.95 265.324 206.571 265.376 206.228 265.443C205.172 265.637 203.937 265.808 202.724 265.808V265.8Z" fill="#1A1A1A"/>
<path d="M202.807 248.272C202.264 248.272 201.632 248.175 201.126 247.736C200.962 247.595 200.828 247.431 200.724 247.253C200.136 246.821 199.697 246.345 199.623 245.162C199.571 244.358 199.824 243.198 200.493 242.409C201.751 240.944 204.012 240.743 205.471 241.397C206.81 242 207.293 242.915 207.464 243.585C207.717 244.552 207.464 245.616 206.743 246.575C205.976 247.61 205.255 248.175 203.648 248.227C203.588 248.227 203.514 248.235 203.439 248.242C203.261 248.257 203.038 248.279 202.8 248.279L202.807 248.272ZM202.599 244.931L202.852 245.11C202.926 245.162 202.993 245.221 203.053 245.288C203.112 245.288 203.164 245.281 203.201 245.274C203.343 245.259 203.462 245.251 203.566 245.251C203.878 245.241 204.146 245.09 204.369 244.797C204.563 244.537 204.6 244.373 204.593 244.329C204.593 244.329 204.518 244.232 204.258 244.113C203.811 243.912 203.03 244.031 202.762 244.344C202.688 244.44 202.606 244.73 202.599 244.924V244.931Z" fill="#1A1A1A"/>
<path d="M189.46 233.34C189.103 233.34 188.776 233.295 188.478 233.176C188.188 233.05 187.31 232.678 187.213 231.562C187.079 231.279 186.953 230.989 186.827 230.706C186.469 229.88 186.187 229.225 185.651 228.787C185.011 228.266 184.922 227.328 185.443 226.696C185.963 226.056 186.901 225.967 187.533 226.488C188.634 227.388 189.125 228.534 189.564 229.538C189.676 229.798 189.788 230.066 189.914 230.327C189.914 230.334 189.921 230.349 189.929 230.356C189.959 230.356 189.981 230.356 190.003 230.356L190.189 230.341C191.216 230.267 192.31 229.33 193.374 228.415C193.641 228.184 193.909 227.953 194.17 227.745C196.483 225.87 198.098 223.534 199.809 221.057C200.285 220.365 200.769 219.665 201.275 218.966C202.182 217.709 203.142 216.474 204.072 215.268C205.463 213.483 206.892 211.63 208.127 209.748C208.938 208.506 209.622 207.256 210.351 205.931L210.946 204.845C211.78 203.35 212.323 201.691 212.516 200.061C212.613 199.243 213.357 198.663 214.168 198.759C214.986 198.856 215.567 199.6 215.47 200.411C215.232 202.42 214.562 204.451 213.55 206.281L212.963 207.352C212.241 208.669 211.49 210.038 210.619 211.37C209.325 213.356 207.851 215.254 206.423 217.091C205.508 218.274 204.563 219.494 203.685 220.707C203.194 221.391 202.718 222.068 202.257 222.745C200.501 225.29 198.686 227.916 196.044 230.059C195.806 230.252 195.561 230.461 195.315 230.676C194.021 231.785 192.406 233.169 190.398 233.31H190.271C189.981 233.347 189.713 233.369 189.468 233.369L189.46 233.34Z" fill="#1A1A1A"/>
<path d="M100.643 180.524C100.576 180.524 100.517 180.524 100.45 180.51C99.7952 180.42 99.2968 179.922 99.1777 179.312C99.1033 179.312 99.0289 179.297 98.9545 179.289C97.6526 179.141 96.3804 178.65 95.1454 178.181C94.4906 177.928 93.8732 177.69 93.3003 177.526C90.6517 176.76 87.2591 175.711 84.4915 174.394C82.6836 173.538 81.4114 172.646 80.2508 170.652C79.8416 169.938 80.0797 169.03 80.7865 168.621C81.5007 168.212 82.4084 168.45 82.8176 169.156C83.6062 170.518 84.3651 171.046 85.7637 171.708C88.3379 172.936 91.5817 173.933 94.1187 174.669C94.8106 174.87 95.5248 175.145 96.2092 175.406C97.2657 175.815 98.3594 176.232 99.2819 176.336L99.52 176.358C100.115 176.41 101.023 176.485 101.648 177.258C102.057 177.772 102.213 178.434 102.109 179.23C102.012 179.981 101.372 180.524 100.636 180.524H100.643Z" fill="#1A1A1A"/>
<path d="M48.3157 227.604C48.0188 227.604 47.722 227.574 47.4449 227.495C46.7226 227.297 46.1686 226.861 45.7332 226.505C45.6046 226.396 45.4759 226.297 45.3473 226.208C44.7338 225.792 44.0807 225.425 43.5167 225.128C43.1308 224.92 42.7054 224.742 42.2503 224.554C41.805 224.366 41.3597 224.178 40.9342 223.96C40.6176 223.801 38.3616 222.256 38.322 220.652C38.322 220.286 38.4408 219.929 38.6783 219.652C39.5193 218.652 40.5582 217.978 41.5576 217.325C42.2997 216.84 43.0022 216.384 43.5563 215.83C43.5563 215.83 43.5662 215.82 43.5761 215.81C43.4277 215.721 43.2694 215.631 43.1408 215.562C42.6461 215.285 42.1908 215.027 41.8346 214.74C41.5873 214.7 41.3498 214.651 41.1123 214.611C39.2423 214.275 37.481 213.958 35.6703 214.106C35.1459 214.146 34.7006 214.067 34.3444 213.997C34.1564 213.958 33.9585 213.928 33.8596 213.928C33.5034 213.948 33.1867 213.869 32.9096 213.77C32.6623 214.067 32.4545 214.384 32.1973 214.77L31.9994 215.057C30.9901 216.542 29.4267 217.929 27.6951 218.86C25.8448 219.86 24.1727 220.325 22.2729 220.385C21.1152 220.405 19.5123 219.86 17.9786 219.315C17.1475 219.018 16.2867 218.711 15.8019 218.632C14.9905 218.493 14.4561 217.731 14.5847 216.919C14.7727 215.81 14.9806 214.542 15.6336 213.334C15.9403 212.769 16.4252 212.185 16.7913 211.819C17.9787 210.621 19.5124 211.234 20.2545 211.532C20.3831 211.581 20.5116 211.641 20.6402 211.68C20.7491 211.65 21.0262 211.522 21.5902 211.046C21.798 210.878 21.9464 210.69 22.1442 210.442L22.4015 210.125C22.7775 209.68 23.1535 209.353 23.5097 209.036L23.7769 208.798C24.8059 207.877 25.8746 206.838 27.0521 205.62C27.0521 205.62 27.0619 205.61 27.0718 205.6C26.5375 205.481 25.9933 205.382 25.4194 205.283C24.8258 205.174 24.242 205.075 23.6681 204.946L22.7775 204.738C20.0367 204.104 17.197 203.451 14.3968 203.243C13.8921 203.203 13.3875 203.223 12.8432 203.243C11.9131 203.273 10.8545 203.312 9.71662 203.035C8.35116 202.698 7.27262 202.055 6.23368 200.945C5.38274 200.034 4.46258 199.084 3.55227 198.192C3.23564 197.885 2.83979 197.648 2.37474 197.37C1.96906 197.123 1.54357 196.875 1.1181 196.539C0.376002 195.954 0 195.271 0 194.528C0 193.36 0.900423 192.647 1.4941 192.162C1.64252 192.043 1.78109 191.934 1.90972 191.815C3.29497 190.468 4.76931 189.25 6.14466 188.131C7.70802 186.863 9.26141 185.695 10.894 184.546C11.3294 184.239 11.3986 184.19 11.2502 183.071C10.894 180.367 11.3591 178.476 12.6256 177.456C13.9317 176.396 15.6138 175.743 16.7616 175.336C17.2168 175.178 17.662 175.029 18.0875 174.891C18.9582 174.614 19.9774 174.277 20.9569 173.861C21.1647 173.772 21.3626 173.673 21.5605 173.574C21.8672 173.425 22.1739 173.267 22.4905 173.148C23.8758 172.603 24.806 173.316 25.3106 173.693C25.4392 173.792 25.5777 173.901 25.7459 174C26.5474 174.475 27.2796 175.01 27.9821 175.515C28.4175 175.832 28.8528 176.149 29.308 176.446C29.9907 176.901 30.6536 177.396 31.2869 177.872C32.0389 178.436 32.7613 178.971 33.4935 179.436C33.6617 179.545 33.8298 179.624 33.998 179.714C34.3641 179.902 34.7699 180.11 35.1855 180.446C35.3141 180.288 35.4427 180.139 35.5119 180.05L35.6802 179.842C37.0951 178.139 38.7079 176.564 40.1229 175.178C40.9936 174.326 42.6263 172.742 45.1197 173.326C45.7332 173.465 46.1586 173.722 46.495 173.92C46.584 173.97 46.6731 174.019 46.7622 174.079C47.2173 174.326 47.811 174.515 48.3948 174.693L48.6521 174.772C48.85 174.831 49.2952 174.911 49.7305 174.99C51.8183 175.356 55.3112 175.97 55.1331 178.832C55.1133 179.11 55.0737 179.337 55.0341 179.555C54.9846 179.813 54.9847 179.832 55.0144 179.941C55.2321 180.763 55.6575 181.556 56.1028 182.407C56.3303 182.833 56.5481 183.249 56.7459 183.685C57.0032 184.239 57.3198 184.784 57.6562 185.348C58.0718 186.051 58.4973 186.784 58.8337 187.586C58.9228 187.804 59.0216 188.052 59.1206 188.319C59.2987 188.785 59.6153 189.656 59.8627 189.854C59.8825 189.854 60.1101 189.914 60.2585 189.953C60.5553 190.023 60.9215 190.112 61.2777 190.29C61.9109 190.597 62.4946 190.953 63.0685 191.29C63.5039 191.557 63.9393 191.825 64.3945 192.053L65.7005 192.716C66.9868 193.37 68.3226 194.043 69.6386 194.786C69.8563 194.905 70.0937 195.033 70.3609 195.162C71.9242 195.954 74.5365 197.271 74.2991 199.925C74.2496 200.539 74.0912 201.114 73.9626 201.629C73.8834 201.926 73.8142 202.213 73.7548 202.51C73.646 203.154 73.5372 203.797 73.4283 204.441C73.2997 205.194 73.1809 205.946 73.0424 206.689C73.0028 206.917 73.0127 207.303 73.0226 207.679C73.0622 208.808 73.1216 210.522 71.6968 211.601C70.3511 212.631 68.1446 212.987 66.7593 212.799C66.4328 212.76 66.1062 212.7 65.7896 212.641C65.1563 212.532 64.6121 212.433 64.0679 212.453C63.118 212.492 62.1484 212.482 61.4063 212.472C61.1985 212.472 61.0104 212.492 60.8323 212.502C60.7829 212.502 60.7335 212.502 60.684 212.512C60.407 212.809 60.11 213.037 59.8627 213.205C59.7736 213.275 59.6845 213.334 59.5955 213.403C59.269 213.681 58.9623 213.968 58.6555 214.255C58.0124 214.849 57.3593 215.463 56.548 215.998L56.2215 216.226C55.6575 216.612 55.0242 217.048 54.3019 217.315C53.9951 217.434 53.738 217.543 53.5203 217.632C54.0942 217.751 54.6087 217.919 55.1133 218.077C55.4695 218.196 55.8356 218.315 56.2116 218.404C56.3303 218.434 56.459 218.454 56.5876 218.483C57.211 218.602 57.9827 218.751 58.6952 219.325C59.5659 220.018 59.6648 220.751 59.5955 221.246C59.4471 222.355 58.4181 222.791 57.9234 223.009C57.0328 223.395 56.2017 223.98 55.3211 224.613C54.2227 225.396 53.0947 226.198 51.7194 226.713L51.4226 226.832C50.5321 227.178 49.3744 227.614 48.2761 227.614L48.3157 227.604ZM41.706 220.84C41.9237 221.048 42.1512 221.246 42.2897 221.326C42.6361 221.504 43.0122 221.662 43.3882 221.811C43.8829 222.019 44.3973 222.227 44.9218 222.514C45.5451 222.851 46.2872 223.267 47.0095 223.752C47.1975 223.881 47.3955 224.039 47.5934 224.197C47.7814 224.346 48.0881 224.594 48.2069 224.633C48.6224 224.732 49.9087 224.237 50.3935 224.049L50.72 223.93C51.7293 223.554 52.6594 222.89 53.639 222.197C54.114 221.86 54.5988 221.514 55.1034 221.187C54.8066 221.108 54.5097 221.009 54.2228 220.91C53.728 220.751 53.2728 220.603 52.7979 220.523C52.6989 220.504 52.5802 220.504 52.4516 220.494C51.6699 220.424 50.4924 220.325 49.8394 219.375C49.4832 218.84 49.3941 218.176 49.6118 217.493C50.156 215.74 52.0954 214.998 53.2531 214.562C53.6588 214.403 54.1238 214.087 54.569 213.789L54.9252 213.542C55.5387 213.136 56.0829 212.631 56.6568 212.096C57.0031 211.779 57.3396 211.462 57.7057 211.155C57.8442 211.036 57.9926 210.928 58.1509 210.819C58.2499 210.739 58.4082 210.64 58.4775 210.571C58.6952 209.967 59.279 209.551 59.9419 209.591C60.1794 209.591 60.3772 209.581 60.585 209.561C60.8719 209.531 61.1589 209.511 61.4854 209.521C62.1879 209.531 63.0982 209.541 63.969 209.511C64.8397 209.472 65.6016 209.61 66.3437 209.739C66.6208 209.789 66.8978 209.838 67.1847 209.878C68.0159 209.987 69.3715 209.69 69.9256 209.264C70.1235 209.115 70.0938 208.333 70.074 207.808C70.0542 207.283 70.0344 206.739 70.1333 206.194C70.262 205.461 70.3906 204.718 70.5093 203.976C70.6182 203.322 70.7271 202.668 70.8458 202.015C70.9151 201.648 71.004 201.282 71.103 200.906C71.2118 200.47 71.3207 200.054 71.3503 199.688C71.4097 199.034 69.975 198.311 69.0251 197.826C68.7283 197.677 68.4414 197.529 68.194 197.39C66.9374 196.687 65.6907 196.053 64.3648 195.38L63.0488 194.707C62.5343 194.439 62.0396 194.142 61.5349 193.845C61.0006 193.528 60.5058 193.221 60.0012 192.983C59.9221 192.944 59.7242 192.894 59.556 192.855C59.1008 192.746 58.4874 192.597 57.963 192.152C57.1219 191.449 56.6866 190.3 56.3501 189.369C56.271 189.151 56.1918 188.943 56.1226 188.775C55.8554 188.141 55.4893 187.517 55.1034 186.863C54.7472 186.259 54.3909 185.635 54.0743 184.962C53.8962 184.576 53.6885 184.19 53.4906 183.803C52.9859 182.853 52.4715 181.862 52.1647 180.734C51.9569 179.961 52.0558 179.416 52.135 179.01C52.1449 178.931 52.1646 178.852 52.1745 178.763C51.7095 178.367 49.9185 178.05 49.2259 177.921C48.652 177.822 48.1573 177.733 47.7714 177.614L47.5241 177.535C46.8413 177.317 46.0696 177.079 45.3572 176.693C45.2286 176.624 45.1196 176.554 45.0009 176.495C44.7337 176.337 44.6151 176.267 44.4567 176.238C43.7542 176.069 43.2298 176.327 42.2007 177.327C40.8353 178.664 39.2818 180.179 37.9658 181.754L37.8372 181.912C37.2237 182.675 36.2046 183.972 34.8293 183.774C34.0773 183.665 33.6122 183.12 33.3649 182.833L33.2757 182.734C33.1471 182.635 32.9096 182.506 32.6425 182.368C32.3951 182.239 32.1576 182.11 31.9103 181.961C31.0692 181.427 30.2777 180.833 29.5059 180.258C28.8925 179.803 28.2889 179.347 27.6556 178.921C27.1708 178.595 26.7057 178.258 26.2307 177.921C25.548 177.426 24.9147 176.961 24.2221 176.555C23.945 176.396 23.7175 176.228 23.5097 176.069C23.4701 176.04 23.4306 176.01 23.4009 175.98C23.2129 176.059 23.0347 176.148 22.8665 176.238C22.6093 176.366 22.362 176.485 22.0948 176.594C21.0064 177.05 19.9081 177.416 18.978 177.713C18.5723 177.842 18.1567 177.981 17.7313 178.129C16.7913 178.456 15.4258 178.991 14.4759 179.763C14.2483 179.951 13.9219 180.773 14.1791 182.684C14.3275 183.843 14.5551 185.596 12.5861 186.982C11.0128 188.091 9.50884 189.22 7.99496 190.448C6.66908 191.518 5.26396 192.686 3.95786 193.944C3.76986 194.122 3.55218 194.301 3.33449 194.479C3.5027 194.588 3.69075 194.697 3.87875 194.806C4.43285 195.132 5.05622 195.509 5.62022 196.063C6.56021 196.984 7.51992 197.965 8.39065 198.905C9.0338 199.599 9.60773 199.945 10.4092 200.143C11.1513 200.321 11.8835 200.292 12.7245 200.262C13.3182 200.242 13.9317 200.222 14.6045 200.262C17.6323 200.49 20.5809 201.173 23.4306 201.827L24.3211 202.035C24.8456 202.154 25.3799 202.253 25.9241 202.342C26.8344 202.5 27.7743 202.669 28.6945 202.956C29.8819 203.322 30.2579 204.124 30.3668 204.58C30.6141 205.531 30.1985 206.6 29.1694 207.67C27.9425 208.947 26.8145 210.036 25.7261 211.007L25.4293 211.264C25.1127 211.542 24.8653 211.759 24.6377 212.027L24.4201 212.294C24.1727 212.601 23.8858 212.958 23.4504 213.314C22.8369 213.819 21.4121 215.017 19.8388 214.542C19.6014 214.473 19.354 214.374 19.1066 214.275C18.978 214.225 18.7998 214.156 18.6613 214.106C18.4733 214.324 18.2953 214.562 18.2161 214.72C17.9885 215.136 17.8401 215.592 17.7313 216.077C18.1172 216.206 18.5228 216.344 18.9384 216.493C20.0268 216.879 21.5308 217.434 22.1442 217.384C23.579 217.345 24.8059 216.988 26.2506 216.216C27.5566 215.513 28.7737 214.443 29.5059 213.364L29.6939 213.086C30.149 212.413 30.5745 211.769 31.2968 211.106C32.1378 210.323 33.2065 210.72 33.6616 210.878C33.7111 210.898 33.7606 210.918 33.8101 210.937C34.2059 210.937 34.5719 210.997 34.8589 211.056C35.0765 211.096 35.2745 211.136 35.3932 211.126C37.5898 210.947 39.6281 211.314 41.5972 211.67C41.9732 211.74 42.3591 211.809 42.745 211.878C43.1012 211.938 43.4276 212.126 43.6552 212.413C43.8135 212.542 44.2786 212.809 44.5656 212.968C45.2582 213.364 45.8618 213.7 46.2279 214.166L46.2872 214.215C46.594 214.522 47.3162 215.235 47.1084 216.255C46.96 217.008 46.3367 217.444 45.7826 217.82C45.6935 217.879 45.6144 217.939 45.5649 217.978C44.8426 218.691 43.9817 219.256 43.1506 219.801C42.6262 220.137 42.1216 220.474 41.6862 220.83L41.706 220.84Z" fill="#1A1A1A"/>
<mask id="mask0_2110_284" style="mask-type:alpha" maskUnits="userSpaceOnUse" x="53" y="0" width="188" height="44">
<rect x="53" width="188" height="44" fill="#D9D9D9"/>
</mask>
<g mask="url(#mask0_2110_284)">
<path d="M138.853 121.646C138.69 121.646 138.526 121.623 138.362 121.579C135.915 120.909 134.382 118.685 133.154 116.892C132.872 116.483 132.604 116.096 132.336 115.746C129.018 111.394 125.491 106.736 122.047 101.893C118.617 97.3325 115.5 92.4073 112.814 87.3036C112.792 87.259 112.769 87.2069 112.747 87.1622L109.057 78.3758C109.005 78.2493 108.968 78.1154 108.938 77.9815L107.591 70.4152C107.591 70.378 107.576 70.3334 107.576 70.2962C107.152 66.4795 108.395 63.392 111.17 61.3386C112.39 59.4861 114.213 58.6528 116.37 58.9728C118.431 58.4966 120.321 59.0992 121.772 60.6988C124.695 62.5215 127.173 64.932 129.137 67.8708L136.026 76.0248C138.459 79.0826 140.847 82.3412 143.258 85.8751C141.926 80.4813 141.442 74.9312 141.792 69.0611C141.792 69.0091 141.8 68.9644 141.807 68.9124L143.436 57.2914C144.121 52.3662 145.653 47.6865 147.989 43.3714C149.916 39.3763 154.031 32.487 160.035 30.8874C160.101 30.8725 160.161 30.8577 160.228 30.8502L164.223 30.2253C164.833 30.1286 165.443 30.3443 165.867 30.7907L168.836 33.9675C168.962 34.1014 169.066 34.2577 169.148 34.4288C171.075 38.3942 172.489 42.5977 173.344 46.9054C174.341 50.164 174.981 53.5417 175.242 56.9417C175.502 58.8909 175.74 60.8327 175.956 62.7819C176.357 61.0559 176.804 59.3075 177.295 57.5517C178.857 51.9347 181.052 44.6213 184.244 37.8139C185.672 34.1014 187.815 30.8651 190.627 28.1793C192.108 25.7093 194.436 24.5115 197.375 24.6975C198.885 24.7942 199.577 26.245 200.678 29.3027L200.745 29.4813C201.273 30.8949 201.653 32.3977 201.906 34.0568C202.025 34.8677 202.107 35.5448 202.144 36.192C202.189 36.9434 202.174 37.6577 202.151 38.357C202.151 38.5876 202.136 38.8183 202.136 39.0489C202.107 40.9535 202.233 42.9325 202.352 44.8445C202.427 46.087 202.508 47.3815 202.553 48.6537C202.836 55.8629 201.95 62.7894 201.021 69.262C200.835 70.5789 200.671 71.9255 200.507 73.2721C200.113 76.5233 199.711 79.8787 198.908 83.0852C198.007 86.6935 196.951 90.3539 195.924 93.8953L195.664 94.7881C195.463 95.4725 195.262 96.157 195.061 96.8489C194.622 98.3443 194.168 99.8918 193.759 101.417C193.722 101.558 193.707 101.781 193.685 102.02C193.655 102.377 193.625 102.823 193.491 103.292C193.335 103.865 193.097 104.237 192.948 104.49C192.874 104.609 192.852 104.638 192.844 104.676C192.829 104.75 192.822 105.07 192.822 105.278C192.822 105.568 192.814 105.859 192.785 106.104C192.673 107.123 191.758 107.867 190.739 107.756C189.719 107.644 188.983 106.729 189.087 105.71C189.102 105.568 189.102 105.405 189.102 105.241C189.102 104.72 189.117 104.08 189.333 103.463C189.481 103.031 189.675 102.726 189.801 102.525C189.898 102.369 189.898 102.362 189.913 102.325C189.95 102.198 189.965 101.975 189.98 101.752C190.01 101.395 190.039 100.941 190.166 100.465C190.582 98.9023 191.044 97.3325 191.49 95.8222C191.691 95.1452 191.892 94.4607 192.085 93.7837L192.346 92.8835C193.357 89.3793 194.407 85.7487 195.292 82.2073C196.036 79.2314 196.43 75.9876 196.81 72.8555C196.973 71.4791 197.144 70.1027 197.338 68.7561C198.245 62.4546 199.108 55.7215 198.833 48.81C198.796 47.5749 198.714 46.3176 198.64 45.0975C198.513 43.1185 198.387 41.0651 198.417 39.0192C198.417 38.7736 198.424 38.5281 198.431 38.2826C198.446 37.6353 198.461 37.0253 198.431 36.4375C198.402 35.9019 198.335 35.329 198.231 34.6371C198.015 33.231 197.702 31.9811 197.263 30.8056L197.189 30.5973C196.787 29.4962 196.512 28.834 196.333 28.4472C195.18 28.5662 194.354 29.1465 193.729 30.2774C193.633 30.4485 193.514 30.5973 193.372 30.7312C190.865 33.0822 188.953 35.9391 187.696 39.2349C187.681 39.2795 187.659 39.3167 187.644 39.3614C184.556 45.9382 182.406 53.0879 180.881 58.5784C178.924 65.6388 177.682 72.4314 177.243 78.4725C177.429 82.0511 177.548 85.6148 177.585 89.1412C177.593 90.1158 176.848 90.9342 175.874 91.0161C174.899 91.0979 174.029 90.406 173.887 89.4463C173.471 86.7382 173.307 84.4393 173.359 81.999C173.382 80.8458 173.434 79.6629 173.515 78.4428C173.143 71.4791 172.489 64.441 171.551 57.4178C171.551 57.3806 171.544 57.3509 171.544 57.3137C171.306 54.1369 170.703 50.9824 169.766 47.9469C169.743 47.8874 169.729 47.8205 169.721 47.7609C168.947 43.8178 167.668 39.9789 165.927 36.3483L163.821 34.1014L160.898 34.5553C156.188 35.8721 152.632 42.3373 151.315 45.0677C151.3 45.0975 151.285 45.1198 151.27 45.1496C149.135 49.0778 147.736 53.3482 147.112 57.8493L145.49 69.3959C145.058 76.873 146.055 83.7846 148.555 90.5176C149.083 91.9386 149.656 93.3745 150.214 94.7657C150.898 96.4843 151.613 98.2625 152.252 100.048C152.535 100.829 152.252 101.707 151.583 102.191C150.906 102.674 149.991 102.645 149.343 102.131C148.094 101.127 146.606 98.6196 144.761 95.1526C144.545 94.7509 144.396 94.4607 144.314 94.3342C140.52 88.308 136.859 83.1001 133.14 78.4204L126.213 70.2292C126.168 70.1771 126.124 70.1176 126.087 70.0581C124.361 67.4616 122.173 65.3412 119.577 63.764C119.398 63.6524 119.242 63.5185 119.108 63.3548C118.483 62.5959 117.888 62.41 116.98 62.6927C116.675 62.7894 116.348 62.8043 116.028 62.7299C115.12 62.529 114.629 62.7596 114.146 63.6003C114.004 63.8458 113.811 64.0542 113.58 64.2104C111.713 65.4752 110.976 67.2756 111.252 69.8647L112.554 77.1631L116.132 85.6892C118.714 90.5994 121.712 95.3237 125.038 99.743C128.482 104.579 131.986 109.214 135.282 113.544C135.58 113.938 135.885 114.377 136.205 114.838C137.135 116.192 138.199 117.732 139.33 118.045C140.319 118.313 140.907 119.339 140.631 120.329C140.408 121.155 139.657 121.698 138.838 121.698L138.853 121.646Z" fill="white"/>
</g>
</svg>
