<svg width="18" height="43" viewBox="0 0 18 43" fill="none" xmlns="http://www.w3.org/2000/svg">
<g id="Group">
<path id="Vector" d="M6.3966 23.8896C6.26757 23.7249 6.22914 23.6315 6.19345 23.4256C6.17149 23.3021 6.15776 23.1868 6.1605 23.0605C6.16599 22.8134 6.28679 22.4922 6.5723 22.4428C6.85782 22.3934 6.94292 22.8354 6.96214 23.0495C6.99508 23.3927 7.01155 23.8264 6.3966 23.8896Z" stroke="#151515" stroke-width="2" stroke-linecap="round" stroke-linejoin="round"/>
<path id="Vector_2" d="M11.8343 23.8238C11.7547 23.7305 11.6888 23.6536 11.6696 23.5246C11.6559 23.434 11.6641 23.3379 11.6696 23.2473C11.6806 22.9975 11.752 22.6159 12.0347 22.5198C12.2901 22.4347 12.3834 22.7587 12.4218 22.9618C12.4493 23.1128 12.4411 23.272 12.4081 23.4203C12.3505 23.6701 12.2105 23.7552 11.8343 23.8238Z" stroke="#151515" stroke-width="2" stroke-linecap="round" stroke-linejoin="round"/>
<path id="Vector_3" d="M7.87695 25.8361C7.95108 26.1765 8.15972 26.3385 8.32719 26.4456C8.49465 26.5526 8.66212 26.6625 8.82958 26.7338C9.14804 26.8711 9.46101 26.9068 9.77946 26.7311C9.93595 26.6432 10.0952 26.5911 10.2489 26.4895C10.3477 26.4236 10.4136 26.2918 10.4932 26.1628C10.5893 26.0036 10.6827 25.8965 10.7952 25.7922C10.8584 25.7345 10.916 25.6686 10.9545 25.5479" stroke="#151515" stroke-width="2" stroke-linecap="round" stroke-linejoin="round"/>
<path id="Vector_4" d="M5.73828 20.167C5.87829 19.9968 5.9936 19.8486 6.19401 19.7525C6.4054 19.6509 6.63051 19.6674 6.85837 19.6729" stroke="#151515" stroke-width="2" stroke-linecap="round" stroke-linejoin="round"/>
<path id="Vector_5" d="M11.4707 19.8043C11.8221 19.7906 12.0939 19.9059 12.3602 20.1338" stroke="#151515" stroke-width="2" stroke-linecap="round" stroke-linejoin="round"/>
<path id="Vector_6" d="M3.35849 17.5009C3.56988 16.9963 4.06678 16.5509 4.61585 16.2998C5.15668 16.0511 5.70025 15.8023 6.24931 15.5654C6.75171 15.3475 7.2541 15.2148 7.80317 15.1201C8.12162 15.0656 8.41263 15.0016 8.73932 15.004C9.01934 15.0063 9.29937 15.0063 9.57664 15.0063C9.99119 15.0063 10.414 14.9708 10.8148 15.0679C11.1744 15.1556 11.4901 15.319 11.8443 15.4138C12.5992 15.6175 13.2471 15.9587 13.9005 16.3448C14.1943 16.5178 14.521 16.7167 14.7461 16.9536C15.0536 17.2758 15.21 17.6004 15.4407 17.9652C15.9678 18.8062 16.2862 19.7585 16.5333 20.6871C16.6623 21.1657 16.7117 21.6395 16.7941 22.1204C16.8847 22.6605 17 23.1864 17 23.7313C17 24.3259 16.9231 24.911 16.9259 25.5056C16.9259 26.0647 16.9753 26.6427 16.8874 27.1971C16.8243 27.5998 16.7996 32.9276 16.7694 33.3327C16.7337 33.842 16.6349 34.349 16.6266 34.8607C16.6074 35.8391 16.5882 36.7961 16.3521 37.7532C16.2039 38.3525 15.9623 39.0845 15.4681 39.537C15.1332 39.8426 14.768 40.1079 14.4221 40.4041C14.2711 40.532 14.1751 40.7049 14.0213 40.8281C13.8346 40.9773 13.5519 41.0958 13.3185 41.1763C13.0852 41.2569 12.8299 41.2995 12.591 41.3801C12.3824 41.4488 12.182 41.5435 11.9651 41.5909C11.7482 41.6383 11.5094 41.6809 11.2842 41.733C10.9987 41.797 10.7297 41.906 10.4387 41.9557C9.30211 42.15 8.34674 41.6549 7.28979 41.4393C6.21088 41.219 5.1704 40.8542 4.39896 40.1529C3.60557 39.4304 3.06474 38.561 2.76275 37.6016C2.57607 37.0093 2.37841 36.4218 2.17525 35.8319C2.0627 35.5098 1.94465 35.1876 1.81836 34.8701C1.68384 34.5338 1.62344 34.1784 1.50265 33.8373C1.28028 33.2071 1.22537 27.633 1.11556 26.9839C0.994765 26.2684 0.948095 25.5411 1.07713 24.8257C1.13478 24.5106 1.20341 24.2169 1.2089 23.8995C1.21714 23.5086 1.31871 23.1509 1.39009 22.7671C1.45049 22.4402 1.44774 22.1085 1.50539 21.7792C1.55756 21.476 1.60972 21.1799 1.68384 20.8814C1.74698 20.6255 1.78267 20.3673 1.84581 20.1115C1.91719 19.8177 2.05171 19.5406 2.12584 19.2468C2.20545 18.9388 2.33448 18.6569 2.4992 18.3727C2.75452 17.932 3.18553 17.7022 3.35849 17.5032V17.5009Z" stroke="#151515" stroke-width="2" stroke-linecap="round" stroke-linejoin="round"/>
<path id="Vector_7" d="M6.08326 17.4462C4.66393 15.9116 3.57404 14.5005 2.84378 12.4799C2.25628 10.8245 1.80879 9.00983 1.98999 7.24459C2.0394 6.75318 2.17118 6.16842 2.6873 5.97075C2.98654 5.85545 3.19793 5.88291 3.48344 6.02566C3.81288 6.19038 4.0682 6.58845 4.23292 6.90691C4.66393 7.74698 5.06201 8.62549 5.41615 9.50125C5.95698 10.7119 6.52252 11.9199 6.85745 13.2102C6.92608 12.7462 6.90137 12.2795 6.78607 11.8128C6.52526 10.248 6.41545 8.67216 6.45937 7.08262C6.50055 5.55896 6.77234 4.00236 7.17865 2.5391C7.28846 2.14378 7.49985 1.84454 7.76889 1.53981C8.07637 1.19115 8.46895 0.946814 8.95213 1.00996C9.4957 1.08134 9.49021 1.75394 9.63571 2.22888C10.0997 3.76077 10.3797 5.35306 10.4868 6.94809C10.5636 8.08191 10.635 9.2075 10.5938 10.3441C10.5856 10.5939 10.5225 10.9343 10.6295 11.1649C10.7942 11.0167 10.8546 10.7037 10.937 10.4978C11.0935 10.1162 11.2582 9.74009 11.4037 9.353C11.8622 8.15054 11.9033 6.80259 12.8258 5.87468C13.2046 5.49308 13.4435 5.05107 14.0474 5.03735C14.4922 5.02636 14.7146 5.02911 14.9781 5.4162C15.6288 6.36883 15.2636 8.05446 15.0358 9.06748C14.8601 9.8499 14.7173 10.4154 14.7448 11.1786C14.7667 11.7963 14.4949 12.1093 14.2094 12.6062C13.9321 13.0866 13.6878 13.5863 13.4407 14.0804C13.3282 14.3056 13.0646 14.5554 12.9905 14.7805C12.9026 15.0523 12.963 15.1923 12.8258 15.4586" stroke="#151515" stroke-width="2" stroke-linecap="round" stroke-linejoin="round"/>
</g>
</svg>
