<svg width="18" height="17" viewBox="0 0 18 17" fill="none" xmlns="http://www.w3.org/2000/svg">
<g id="Group 4935">
<path id="Vector 11628" d="M12.0556 15.2808C11.1212 15.2808 10.1279 15.3784 9.20316 15.2503C8.43108 15.1434 7.72463 14.6061 7.11336 14.152C6.2401 13.5033 6.42694 12.5384 6.42694 11.5741C6.42694 11.0432 7.07463 10.4968 7.52522 10.2318C7.88993 10.0172 8.21165 9.09594 8.21165 8.69113C8.21165 7.37829 7.936 5.39628 9.85908 5.39628C10.2238 5.39628 10.5932 5.37807 10.9574 5.39628C11.3434 5.41558 11.388 5.75063 11.6133 5.97593C12.0361 6.39878 12.0664 6.9124 12.6734 7.24963C13.7321 7.8378 15.2061 6.76429 16.0369 8.21826C16.3634 8.78964 16.9979 9.26381 16.9979 9.99534C16.9979 10.5332 17.059 11.5436 16.5251 11.8487C16.2174 12.0245 15.6564 12.8577 15.4268 13.1529C15.1431 13.5176 14.8326 13.883 14.4581 14.1826C13.7508 14.7484 12.6917 15.9794 11.6438 15.2808" stroke="#F7F7F7" stroke-width="2" stroke-linecap="round"/>
<path id="Vector 11629" d="M1 8.56173C1.69331 9.19021 2.90246 9.92681 3.84452 9.92681C4.55859 9.92681 4.36425 9.84646 4.64396 9.24427C4.77082 8.97116 5.00024 8.49009 5.01579 8.22047C5.08926 6.94689 1.92087 7.02483 1.50197 7.8792" stroke="#F7F7F7" stroke-width="2" stroke-linecap="round"/>
<path id="Vector 11630" d="M4.125 2.53371C4.125 2.94442 4.24341 3.2351 4.32669 3.62385C4.43149 4.11309 5.03816 3.83786 5.35635 3.93217C5.95359 4.10918 7.06922 4.36985 7.46875 3.62385C8.65236 1.41378 4.84723 0.0879076 4.31607 1.74089" stroke="#F7F7F7" stroke-width="2" stroke-linecap="round"/>
<path id="Vector 11631" d="M12.1629 1C12.1629 2.31249 12.0412 3.09563 13.0389 3.99847C13.6526 4.55381 15.0898 4.81104 15.7694 4.27958C16.577 3.648 16.1171 1.50599 14.94 1.50599C14.0145 1.50599 13.2063 1.33733 12.3306 1.33733" stroke="#F7F7F7" stroke-width="2" stroke-linecap="round"/>
</g>
</svg>
