<svg width="256" height="180" viewBox="0 0 256 180" fill="none" xmlns="http://www.w3.org/2000/svg">
<path d="M232.305 90.2148C235.877 87.7129 239.501 85.2419 242.96 82.5946C245.985 80.2804 249.134 77.6893 252.704 76.2934C253.431 75.0746 254.594 74.4045 254.575 72.9376C254.563 71.9229 254.504 70.8268 254.187 69.8509C253.962 69.1481 253.707 69.2264 253.149 68.9604C252.465 68.6359 251.821 68.0172 251.098 67.8004C249.931 67.4442 248.381 68.3381 247.375 68.7986C244.612 70.0643 241.73 70.8999 238.902 72.0063C235.163 73.4688 231.437 74.9789 227.756 76.5893C225.819 77.4382 224.232 78.8185 222.268 79.5825" stroke="#FF6B00" stroke-width="2" stroke-miterlimit="10" stroke-linecap="round" stroke-linejoin="round"/>
<path d="M212.494 96.0384C213.916 97.4613 214.733 97.2528 216 98.8187C216.598 99.5568 217.423 99.964 218.113 100.635C218.12 100.585 218.123 100.528 218.129 100.477" stroke="#FF6B00" stroke-width="2" stroke-miterlimit="10" stroke-linecap="round" stroke-linejoin="round"/>
<path d="M207.647 78.4732C210.515 77.619 213.307 76.8892 216.261 76.4354C217.162 76.2963 218.007 76.0439 218.897 75.863C219.179 75.8029 219.447 75.7432 219.732 75.8133C220.708 76.0616 221.359 77.468 221.649 78.3013C222.723 81.416 225.896 83.4737 228.127 85.6482C230.137 87.6098 232.388 89.7954 233.585 92.3788C233.826 92.8949 234.009 94.5426 234.646 94.68C234.46 95.2732 231.64 95.2706 231.209 95.6195C229.964 96.6279 228.463 97.3691 227.112 98.2103C225.689 99.0962 224.291 100.071 222.809 100.857C221.725 101.427 220.855 101.82 219.604 101.73C219.948 98.5999 217.357 95.6036 216.508 92.612C215.513 89.091 214.213 85.9963 212.143 83.0007C211.339 81.8384 210.771 80.7457 209.771 79.7185C209.188 79.119 208.676 78.3216 208.058 77.7733C207.421 77.2051 206.551 76.7741 205.922 77.5112C205.271 78.2747 205.203 79.6377 205.147 80.5639C205.034 82.4539 208.37 87.5374 209.064 89.2972" stroke="#FF6B00" stroke-width="2" stroke-miterlimit="10" stroke-linecap="round" stroke-linejoin="round"/>
<path d="M215.833 94.1393C214.597 94.9351 213.435 95.7396 211.91 95.8365C210.287 95.941 207.855 95.2795 207.152 93.7034C205.546 90.101 210.352 88.4745 212.975 87.898" stroke="#FF6B00" stroke-width="2" stroke-miterlimit="10" stroke-linecap="round" stroke-linejoin="round"/>
<path d="M249.162 76.5151C248.905 76.3578 248.901 76.17 248.814 75.8839C248.535 74.9536 248.141 74.102 247.671 73.2503C247.264 72.5146 246.852 71.8107 246.201 71.276C245.512 70.7059 245.053 70.6578 244.217 70.9563" stroke="#FF6B00" stroke-width="2" stroke-miterlimit="10" stroke-linecap="round" stroke-linejoin="round"/>
<path d="M205.846 99.5644C204.313 101.905 202.608 104.135 200.803 106.271" stroke="#FF6B00" stroke-width="2" stroke-miterlimit="10" stroke-linecap="round" stroke-linejoin="round"/>
<path d="M202.424 97.6919C200.039 98.6067 197.628 99.4223 195.205 100.244" stroke="#FF6B00" stroke-width="2" stroke-miterlimit="10" stroke-linecap="round" stroke-linejoin="round"/>
<path d="M198.365 91.8742C196.335 91.4873 194.444 91.3639 192.383 91.336" stroke="#FF6B00" stroke-width="2" stroke-miterlimit="10" stroke-linecap="round" stroke-linejoin="round"/>
<path d="M216.04 107.262C214.262 108.25 213.063 109.469 211.819 110.674C209.746 112.683 207.835 114.736 205.523 116.661C201.752 119.802 197.412 122.723 193.493 125.806C190.14 128.443 186.409 130.947 183.22 133.645C182.628 134.146 182.127 134.678 181.724 135.243C181.025 136.233 172.658 141.655 171.5 142.5" stroke="#FF6B00" stroke-width="2" stroke-miterlimit="10" stroke-linecap="round" stroke-linejoin="round"/>
<path d="M200.747 82.5453C197.717 82.2031 194.502 82.4311 191.445 82.5835C188.419 82.7318 185.393 83.093 182.37 83.3676C177.617 83.7997 172.881 84.3041 168.137 84.871C163.9 85.3774 159.656 85.7649 155.406 85.9374C153.146 86.0278 150.74 85.8005 148.507 86.3366C147.686 86.5336 146.991 86.5051 146.157 86.4531C144.034 86.3191 141.894 86.4733 139.767 86.6637C135.194 87.0722 130.632 87.7012 126.072 88.3182C112.199 90.1946 98.3168 89.9527 84.4156 90.9631C69.4341 92.0546 54.4171 93.3114 39.4807 95.2406C23.4636 97.3071 19.1533 97.9139 3.20742 100.662" stroke="#FF6B00" stroke-width="2" stroke-miterlimit="10" stroke-linecap="round" stroke-linejoin="round"/>
</svg>
