<svg width="256" height="180" viewBox="0 0 256 180" fill="none" xmlns="http://www.w3.org/2000/svg">
<path d="M232.305 90.2142C235.877 87.7123 239.501 85.2413 242.96 82.594C245.985 80.2798 249.134 77.6887 252.704 76.2928C253.431 75.074 254.594 74.4039 254.575 72.937C254.563 71.9223 254.504 70.8262 254.187 69.8503C253.962 69.1475 253.707 69.2258 253.149 68.9598C252.465 68.6353 251.821 68.0166 251.098 67.7998C249.931 67.4435 248.381 68.3375 247.375 68.798C244.612 70.0637 241.73 70.8993 238.902 72.0057C235.163 73.4682 231.437 74.9783 227.756 76.5887C225.819 77.4376 224.232 78.8179 222.268 79.5819" stroke="#FF6B00" stroke-width="2" stroke-miterlimit="10" stroke-linecap="round" stroke-linejoin="round"/>
<path d="M212.497 96.0377C213.92 97.4606 214.737 97.2521 216.004 98.818C216.601 99.556 217.427 99.9633 218.117 100.635C218.123 100.584 218.127 100.527 218.133 100.477" stroke="#FF6B00" stroke-width="2" stroke-miterlimit="10" stroke-linecap="round" stroke-linejoin="round"/>
<path d="M207.647 78.4726C210.515 77.6185 213.307 76.8887 216.261 76.4349C217.162 76.2957 218.007 76.0433 218.897 75.8624C219.179 75.8024 219.447 75.7427 219.732 75.8127C220.708 76.0611 221.359 77.4675 221.649 78.3007C222.723 81.4155 225.896 83.4732 228.127 85.6476C230.137 87.6092 232.388 89.7949 233.585 92.3783C233.826 92.8944 234.009 94.542 234.646 94.6794C234.46 95.2726 231.64 95.27 231.209 95.619C229.964 96.6274 228.463 97.3686 227.112 98.2098C225.689 99.0956 224.291 100.071 222.809 100.856C221.725 101.427 220.855 101.82 219.604 101.73C219.948 98.5993 217.357 95.6031 216.508 92.6115C215.513 89.0905 214.213 85.9957 212.143 83.0001C211.339 81.8379 210.771 80.7451 209.771 79.718C209.188 79.1184 208.676 78.321 208.058 77.7727C207.421 77.2045 206.551 76.7736 205.922 77.5106C205.271 78.2741 205.203 79.6371 205.147 80.5633C205.034 82.4534 208.37 87.5368 209.064 89.2967" stroke="#FF6B00" stroke-width="2" stroke-miterlimit="10" stroke-linecap="round" stroke-linejoin="round"/>
<path d="M215.837 94.1387C214.601 94.9345 213.439 95.7389 211.914 95.8359C210.291 95.9404 207.859 95.2789 207.155 93.7028C205.549 90.1003 210.356 88.4739 212.979 87.8974" stroke="#FF6B00" stroke-width="2" stroke-miterlimit="10" stroke-linecap="round" stroke-linejoin="round"/>
<path d="M249.164 76.5145C248.907 76.3573 248.903 76.1695 248.816 75.8834C248.537 74.9531 248.143 74.1015 247.672 73.2498C247.266 72.5141 246.854 71.8102 246.203 71.2755C245.514 70.7053 245.055 70.6573 244.219 70.9557" stroke="#FF6B00" stroke-width="2" stroke-miterlimit="10" stroke-linecap="round" stroke-linejoin="round"/>
<path d="M205.849 99.5639C204.316 101.905 202.611 104.134 200.806 106.27" stroke="#FF6B00" stroke-width="2" stroke-miterlimit="10" stroke-linecap="round" stroke-linejoin="round"/>
<path d="M202.425 97.6914C200.04 98.6062 197.629 99.4217 195.206 100.243" stroke="#FF6B00" stroke-width="2" stroke-miterlimit="10" stroke-linecap="round" stroke-linejoin="round"/>
<path d="M198.366 91.8735C196.336 91.4866 194.445 91.3632 192.384 91.3354" stroke="#FF6B00" stroke-width="2" stroke-miterlimit="10" stroke-linecap="round" stroke-linejoin="round"/>
<path d="M216.043 107.261C214.264 108.249 213.066 109.468 211.822 110.674C209.749 112.683 207.838 114.735 205.526 116.66C201.754 119.802 197.414 122.722 193.496 125.806C190.143 128.442 186.412 130.947 183.223 133.644C182.631 134.146 182.13 134.677 181.727 135.242C181.028 136.232 172.661 141.655 171.503 142.499" stroke="#FF6B00" stroke-width="2" stroke-miterlimit="10" stroke-linecap="round" stroke-linejoin="round"/>
<path d="M200.751 82.5447C197.721 82.2025 194.506 82.4305 191.449 82.5829C188.423 82.7312 185.397 83.0924 182.374 83.367C177.621 83.7991 172.885 84.3035 168.141 84.8704C163.904 85.3768 159.659 85.7643 155.41 85.9368C153.149 86.0272 150.743 85.7999 148.51 86.336C147.69 86.533 146.994 86.5045 146.161 86.4525C144.038 86.3185 141.898 86.4727 139.771 86.6631C135.197 87.0716 130.636 87.7006 126.075 88.3176C112.203 90.194 98.3206 89.9521 84.4194 90.9625C69.4378 92.054 54.4209 93.3108 39.4845 95.24C23.4674 97.3065 19.1571 97.9133 3.21121 100.661" stroke="#FF6B00" stroke-width="2" stroke-miterlimit="10" stroke-linecap="round" stroke-linejoin="round"/>
</svg>
