<svg width="80" height="77" viewBox="0 0 80 77" fill="none" xmlns="http://www.w3.org/2000/svg">
<path d="M11.4501 3.93707C13.5023 3.93707 15.5633 3.87865 17.6135 3.96233C21.6716 4.12797 25.1101 6.86199 27.7175 9.84789C32.8416 15.7158 33.8526 24.7601 33.1736 32.2282C32.4527 40.1582 30.2408 48.5372 28.0206 56.1746C26.4248 61.6641 24.5651 70.1849 19.6343 73.7555C17.1398 75.5619 12.3501 75.8947 9.40407 75.751C4.93626 75.5331 2.44436 70.302 2.00291 66.329C0.793563 55.4449 8.2637 48.0281 15.9969 41.2207C26.8123 31.7001 40.7874 21.8832 55.5539 20.4065C61.3698 19.8249 67.9876 20.2974 73.4379 22.5789C75.1591 23.2994 76.3955 25.1309 78.2878 25.7616" stroke="black" stroke-width="2" stroke-linecap="round"/>
<path d="M11.0817 3.47192C11.4252 3.47192 10.741 3.47462 10.6708 3.47192C10.2821 3.45697 10.1572 3.19906 10.1572 2.82995C10.1572 2.25661 10.8472 1.67606 11.3128 1.44328C12.5103 0.844534 12.8537 3.06648 12.6866 3.81859C12.4971 4.67137 10.3883 5.16333 10.3883 3.88278C10.3883 1.77237 11.2789 1.62303 13.2772 1.62303C14.4848 1.62303 14.7794 4.09418 14.7794 4.97414C14.7794 5.73249 13.7391 5.78303 13.1617 5.78303C11.955 5.78303 11.4216 5.80309 10.8506 4.62747C10.3185 3.53199 10.462 1.72221 11.8906 1.40476C13.6128 1.02203 13.6239 2.25473 13.6239 3.70303" stroke="black" stroke-width="2" stroke-linecap="round"/>
</svg>
