<svg width="80" height="75" viewBox="0 0 80 75" fill="none" xmlns="http://www.w3.org/2000/svg">
<path d="M11.4501 1.93707C13.5023 1.93707 15.5633 1.87865 17.6135 1.96233C21.6716 2.12797 25.1101 4.86199 27.7175 7.84789C32.8416 13.7158 33.8526 22.7601 33.1736 30.2282C32.4527 38.1582 30.2408 46.5372 28.0206 54.1746C26.4248 59.6641 24.5651 68.1849 19.6343 71.7555C17.1398 73.5619 12.3501 73.8947 9.40407 73.751C4.93626 73.5331 2.44436 68.302 2.00291 64.329C0.793563 53.4449 8.2637 46.0281 15.9969 39.2207C26.8123 29.7001 40.7874 19.8832 55.5539 18.4065C61.3698 17.8249 67.9876 18.2974 73.4379 20.5789C75.1591 21.2994 76.3955 23.1309 78.2878 23.7616" stroke="black" stroke-width="2" stroke-linecap="round"/>
</svg>
