<svg width="438" height="414" viewBox="0 0 438 414" fill="none" xmlns="http://www.w3.org/2000/svg">
<path d="M337.865 413.989C336.507 413.989 335.325 412.995 335.138 411.615C334.663 408.258 334.243 404.846 333.835 401.545C333.15 395.969 332.443 390.194 331.461 384.629C330.467 379.009 329.153 373.356 327.872 367.901C325.907 359.498 323.886 350.808 322.948 341.876C320.927 322.707 320.916 302.115 322.915 278.938C323.102 276.818 323.389 274.709 323.676 272.678C324.041 270.116 324.383 267.687 324.516 265.224C324.604 263.557 324.405 261.901 324.195 260.145C324.063 259.019 323.919 257.859 323.853 256.645C323.809 255.938 323.831 255.287 323.853 254.657C323.875 254.039 323.886 253.454 323.853 252.935C323.588 250.042 322.937 247.006 322.296 244.057C322.108 243.207 321.932 242.357 321.755 241.518C320.375 234.804 318.94 229.295 317.228 224.193C317.007 223.531 316.797 222.791 316.599 222.018C316.256 220.771 315.914 219.479 315.45 218.584C314.876 217.458 318.576 226.748 317.616 225.544C316.81 224.54 315.982 223.502 315.275 222.375C311.223 215.938 319.216 223.648 313.751 218.304C310.175 214.808 326.04 225.014 315.274 222.375C313.794 222.011 312.889 220.52 313.253 219.041C313.618 217.561 315.108 216.656 316.588 217.02C328.038 219.825 315.275 212.511 317.616 214.808C323.501 220.583 315.716 212.714 319.945 219.449C320.487 220.311 318.521 217.388 319.261 218.304C320.354 219.673 319.547 214.455 320.375 216.089C321.082 217.491 321.534 219.125 321.921 220.572C322.097 221.234 322.274 221.875 322.462 222.449C324.24 227.76 325.73 233.468 327.155 240.403C327.32 241.231 327.508 242.059 327.685 242.898C328.358 246.001 329.043 249.214 329.341 252.438C329.418 253.299 329.396 254.116 329.374 254.834C329.352 255.364 329.341 255.872 329.374 256.336C329.429 257.374 329.551 258.389 329.683 259.483C329.915 261.393 330.158 263.369 330.036 265.522C329.882 268.217 329.517 270.867 329.153 273.439C328.866 275.493 328.59 277.437 328.424 279.413C326.459 302.236 326.459 322.476 328.446 341.302C329.352 349.892 331.339 358.405 333.261 366.653C334.552 372.185 335.889 377.916 336.904 383.68C337.909 389.388 338.627 395.229 339.323 400.882C339.72 404.162 340.14 407.552 340.603 410.853C340.813 412.366 339.764 413.757 338.251 413.978C338.119 414 337.986 414 337.865 414L337.865 413.989Z" fill="#1A1A1A"/>
<path d="M148.501 385.214C147.286 385.214 146.171 384.408 145.84 383.172C143.941 376.127 144.515 368.762 145.078 361.629C145.266 359.222 145.442 356.948 145.531 354.706C145.586 353.337 145.63 351.968 145.674 350.61C145.994 341.434 146.304 332.766 147.816 323.635C148.821 317.617 149.528 311.423 150.212 305.438C150.577 302.225 150.952 299.012 151.361 295.799C151.802 292.332 152.421 288.865 153.028 285.519C154.11 279.446 155.137 273.704 155.258 267.775C155.369 262.21 155.899 257.837 156.97 253.597C160.669 238.978 166.609 225.165 172.461 212.412C172.98 211.275 173.466 210.126 173.941 208.967C175.012 206.383 176.116 203.722 177.706 201.205C179.031 199.107 180.621 196.987 184.232 196.203L184.74 196.092C185.457 195.949 185.623 195.905 185.954 195.684C186.959 195.01 187.942 193.983 188.98 192.901C189.83 192.007 190.713 191.09 191.696 190.284C193.86 188.485 196.091 186.884 198.343 185.525C201.556 183.582 197.143 186.554 200.268 185.56C202.818 184.754 196.013 184.317 198.343 183.08C208.104 177.935 190.992 188.034 201.924 187.647C201.968 187.647 195.806 187.611 200.268 187.611C207.511 187.744 203.643 192.904 210.445 195.322C210.5 195.344 210.566 195.366 210.621 195.389C214.939 197.266 218.549 200.125 221.365 203.88C222.281 205.094 223.169 204.673 221.955 205.59C220.729 206.506 219.007 206.252 218.09 205.038C215.871 202.079 214.011 199.757 210.621 198.266C204.438 196.069 213.619 193.278 207.038 193.156C196.968 193.521 214.667 191.44 204.397 191.44C201.625 192.898 206.123 189.412 203.44 190.251C200.492 191.19 203.842 188.639 201.192 190.251C199.171 191.477 197.162 192.912 195.207 194.535C194.467 195.154 193.728 195.916 192.944 196.733C191.751 197.981 190.514 199.272 189.024 200.277C187.776 201.116 186.738 201.326 185.822 201.514L185.391 201.602C184.033 201.9 183.503 202.342 182.366 204.142C181.03 206.273 180.058 208.614 179.031 211.087C178.523 212.302 178.015 213.516 177.474 214.72C171.722 227.23 165.914 240.767 162.314 254.956C161.353 258.765 160.868 262.751 160.768 267.885C160.636 274.245 159.532 280.473 158.449 286.491C157.864 289.77 157.257 293.171 156.826 296.505C156.418 299.685 156.053 302.876 155.689 306.068C154.993 312.129 154.276 318.39 153.249 324.551C151.791 333.329 151.493 341.821 151.173 350.808C151.129 352.167 151.074 353.536 151.029 354.916C150.941 357.279 150.753 359.708 150.566 362.06C150.047 368.718 149.506 375.608 151.162 381.736C151.559 383.205 150.687 384.729 149.219 385.126C148.976 385.192 148.733 385.225 148.501 385.225L148.501 385.214Z" fill="#1A1A1A"/>
<path d="M267.729 245.769C263.942 245.769 260.21 245.339 256.544 244.919C255.44 244.798 254.335 244.665 253.242 244.555C251.73 244.4 250.625 243.042 250.78 241.529C250.935 240.017 252.293 238.913 253.805 239.067C254.932 239.189 256.047 239.31 257.173 239.443C263.268 240.138 269.021 240.801 274.707 239.575C276.198 239.255 277.667 240.204 277.987 241.695C278.307 243.186 277.357 244.654 275.867 244.974C273.139 245.56 270.423 245.781 267.74 245.781L267.729 245.769Z" fill="#1A1A1A"/>
<path d="M227.703 221.765C226.797 221.765 225.914 221.323 225.384 220.517C222.524 216.133 220.216 213.759 215.546 212.975C214.044 212.721 213.028 211.297 213.282 209.795C213.536 208.294 214.961 207.278 216.462 207.532C223.054 208.636 226.532 212.169 230.01 217.502C230.839 218.783 230.485 220.495 229.204 221.323C228.741 221.621 228.211 221.776 227.703 221.776L227.703 221.765Z" fill="#1A1A1A"/>
<path d="M236.502 295.6C232.174 295.6 228.376 294.021 225.924 291.139C224.931 289.98 225.074 288.235 226.234 287.253C227.393 286.259 229.138 286.402 230.12 287.562C231.666 289.384 234.46 290.3 237.596 290.035C240.367 289.792 242.067 288.644 243.878 285.806C244.695 284.525 246.407 284.139 247.688 284.956C248.968 285.773 249.355 287.484 248.538 288.765C246.694 291.647 243.845 295.026 238.081 295.534C237.551 295.578 237.021 295.6 236.502 295.6Z" fill="#1A1A1A"/>
<path d="M206.272 260.83C206.062 260.83 205.863 260.807 205.654 260.763C203.467 260.266 201.955 258.257 201.37 256.026C200.939 255.651 200.63 255.132 200.508 254.558C200.022 252.372 200.939 247.16 203.821 245.537C205.422 244.631 207.31 244.941 208.756 246.321C210.678 248.154 210.932 251.334 210.479 254.205C210.523 254.712 210.413 255.22 210.181 255.684C209.761 257.374 209.143 258.831 208.536 259.681C208.006 260.421 207.166 260.841 206.294 260.841L206.272 260.83Z" fill="#1A1A1A"/>
<path d="M260.541 268.813C259.47 268.813 258.444 268.184 258.002 267.124C257.858 266.793 257.792 266.439 257.781 266.097C257.593 265.998 257.417 265.865 257.251 265.711C255.661 264.253 254.877 262.321 255.054 260.256C255.308 257.22 257.571 254.481 259.713 253.112C260.365 252.692 261.16 252.571 261.911 252.77C262.661 252.968 263.291 253.465 263.655 254.15C265.345 257.341 265.499 262.619 264.793 265.976C264.605 266.859 263.998 267.599 263.158 267.952L261.635 268.592C261.281 268.736 260.917 268.813 260.564 268.813L260.541 268.813Z" fill="#1A1A1A"/>
<path d="M236.244 135.731C236.038 135.603 235.849 135.447 235.677 135.263C233.113 132.505 235.885 139.621 235.738 136.4C235.701 135.663 235.666 134.965 235.607 134.305C234.824 126.221 234.022 117.579 233.458 108.785C232.696 100.351 232.614 91.7003 233.217 83.1621C233.223 83.0883 233.236 83.0052 233.243 82.9314L235.457 68.9622C235.49 68.762 235.548 68.5639 235.615 68.3717L239.832 57.7739C239.861 57.727 239.877 57.6591 239.906 57.6122C242.355 52.4659 246.336 49.5423 251.442 49.1215C254.439 47.7442 257.375 48.1217 259.852 50.2027C262.824 51.2132 264.737 53.4508 265.317 56.6029C267.589 61.1941 268.821 66.1661 269.001 71.4089L271.317 87.0815C271.995 92.8409 272.46 98.8188 272.738 105.161C275.275 97.3159 279.005 89.9363 284.035 82.8045C284.076 82.7388 284.12 82.6883 284.17 82.6284L295.311 69.2422C300.025 63.5642 305.617 58.859 311.938 55.2418C317.492 51.7083 328.068 46.234 336.887 48.9195C336.974 48.9472 337.07 48.9808 337.16 49.0238L342.689 51.3589C343.534 51.7138 344.144 52.4688 344.321 53.3577L345.582 59.686C345.637 59.9539 345.646 60.2324 345.621 60.5028C344.952 67.0118 343.449 73.4197 341.16 79.5227C339.87 84.413 338.037 89.1742 335.707 93.6669C334.512 96.3295 333.294 98.9652 332.042 101.593C333.898 99.7295 335.828 97.873 337.82 96.0419C344.183 90.1774 352.669 82.6674 362.018 76.575C366.722 73.0085 371.955 70.601 377.603 69.4115C381.402 67.453 385.282 67.7532 388.838 70.2947C390.667 71.5975 390.406 73.9686 389.404 78.6869L389.349 78.9645C388.91 81.1607 388.214 83.3532 387.236 85.6439C386.758 86.7506 386.326 87.678 385.867 88.5236C385.336 89.5065 384.759 90.3958 384.184 91.2606C384.004 91.5516 383.805 91.8309 383.624 92.1218C382.098 94.5012 380.71 97.0966 379.365 99.6017C378.488 101.227 377.579 102.924 376.641 104.564C371.361 113.88 364.829 121.925 358.595 129.364C357.331 130.879 356.072 132.45 354.813 134.021C351.773 137.814 348.643 141.733 345.123 145.15C341.166 148.998 336.972 152.79 332.923 156.451L331.891 157.383C331.102 158.089 331.983 154.718 331.194 155.424C329.471 156.968 341.663 148.195 339.96 149.79C339.803 149.939 339.61 150.209 339.395 150.492C339.079 150.919 338.692 151.459 338.157 151.945C337.512 152.546 336.92 152.829 336.535 153.032C336.348 153.124 336.297 153.144 336.258 153.185C336.175 153.277 335.922 153.665 335.759 153.928C335.532 154.294 335.296 154.654 335.066 154.94C334.129 156.139 332.393 156.362 331.194 155.424C329.995 154.487 329.782 152.756 330.71 151.552C330.839 151.385 330.967 151.179 331.095 150.972C331.502 150.315 332.021 149.52 332.776 148.91C333.301 148.482 333.784 148.248 334.101 148.094C334.345 147.972 334.351 147.963 334.398 147.927C334.544 147.797 334.737 147.527 334.931 147.257C335.247 146.83 335.64 146.281 336.166 145.788C337.913 144.143 339.716 142.533 325.817 155.424C326.605 154.718 327.388 154.021 328.167 153.309L329.2 152.377C333.216 148.747 337.377 144.987 341.263 141.212C344.528 138.039 347.562 134.256 350.495 130.592C351.777 128.983 353.069 127.381 354.36 125.843C360.432 118.603 366.785 110.784 371.841 101.849C372.76 100.262 373.639 98.6122 374.499 97.0148C375.887 94.4194 377.333 91.7302 378.97 89.1724C379.162 88.8627 379.363 88.5588 379.565 88.2549C380.089 87.45 380.585 86.692 381.007 85.9273C381.388 85.2283 381.752 84.4533 382.161 83.499C382.988 81.5565 383.571 79.7354 383.937 77.9094L384.006 77.5884C384.36 75.8853 384.53 74.8348 384.607 74.2071C383.06 73.4557 381.564 73.5421 379.892 74.4801C379.636 74.6204 379.369 74.715 379.086 74.7734C374.091 75.7697 369.44 77.8882 365.283 81.0536C365.229 81.0982 365.166 81.1371 365.118 81.1724C356.081 87.0552 347.779 94.3937 341.563 100.128C333.574 107.505 326.696 115.102 321.42 122.38C318.856 127.04 316.221 131.629 313.51 136.106C312.758 137.342 311.179 137.792 309.886 137.134C308.593 136.475 308.035 134.922 308.607 133.6C310.199 129.858 311.79 126.83 313.763 123.793C314.693 122.355 315.689 120.894 316.75 119.434C321.725 110.359 326.402 100.968 330.71 91.3754C330.739 91.3285 330.753 91.2852 330.782 91.2382C332.965 87.0445 334.666 82.6033 335.868 78.0224C335.886 77.9299 335.92 77.8338 335.957 77.7529C338.064 72.1737 339.451 66.3303 340.093 60.3892L339.193 55.9087L335.15 54.1953C328.18 52.1747 318.639 57.5503 314.843 59.9652C314.801 59.9911 314.765 60.0076 314.723 60.0335C308.958 63.3197 303.855 67.6134 299.547 72.803L288.474 86.1012C282.084 95.1962 277.938 104.695 275.828 115.143C275.383 117.348 274.983 119.608 274.599 121.799C274.119 124.502 273.63 127.304 273.041 130.056C272.787 131.263 271.744 132.149 270.521 132.236C269.289 132.317 268.158 131.564 267.743 130.41C266.951 128.166 267.034 123.84 267.417 118.024C267.459 117.348 267.498 116.866 267.494 116.642C267.419 106.073 266.873 96.6419 265.839 87.8302L263.514 72.0874C263.499 71.9869 263.489 71.8769 263.489 71.7727C263.341 67.1478 262.239 62.7628 260.197 58.7431C260.059 58.4628 259.967 58.1717 259.926 57.8605C259.731 56.4146 259.125 55.7146 257.765 55.3523C257.305 55.2358 256.88 54.9986 256.535 54.6547C255.547 53.6916 254.747 53.5987 253.479 54.2812C253.109 54.4804 252.702 54.592 252.289 54.6087C248.945 54.7443 246.608 56.4397 244.931 59.9211L240.867 70.1461L238.725 83.7054C238.143 91.9181 238.232 100.222 238.972 108.397C239.537 117.19 240.334 125.777 241.106 133.816C241.173 134.546 241.209 135.348 241.258 136.171C241.373 138.606 238.544 130.259 239.727 131.537C240.766 132.649 240.704 134.403 239.584 135.436C238.656 136.304 237.284 136.401 236.251 135.762L236.244 135.731Z" fill="#1A1A1A"/>
<path d="M235.409 262.552C235.155 262.552 234.89 262.508 234.636 262.408C231.213 261.139 227.636 260.818 223.859 260.487L223.572 260.465C223.131 260.421 222.667 260.333 222.214 260.244C221.85 260.167 221.198 260.046 220.757 260.023C219.962 260.686 218.78 260.719 217.941 260.035L217.764 259.891C217.223 259.449 216.936 258.765 216.969 258.069C217.003 257.373 217.367 256.733 217.952 256.347C219.652 255.22 221.706 255.64 223.075 255.905C223.396 255.971 223.694 256.037 223.959 256.06L224.246 256.082C228.155 256.424 232.185 256.788 236.171 258.268C237.319 258.687 237.893 259.968 237.474 261.106C237.142 262 236.303 262.541 235.398 262.541L235.409 262.552Z" fill="#1A1A1A"/>
<path d="M298.789 253.321C298.049 253.321 297.32 252.946 296.912 252.272C296.293 251.268 296.569 249.943 297.552 249.28L298.104 248.916C298.303 248.783 298.513 248.684 298.723 248.629C303.493 245.979 308.384 243.549 312.591 241.507C317.173 239.276 321.899 237.443 325.918 235.953C326.813 235.621 327.718 235.268 328.635 234.915C332.168 233.535 335.812 232.11 339.577 231.591C341.112 231.381 345.771 230.73 348.51 234.098C349.581 235.423 350.652 236.924 351.171 238.857C351.667 240.701 351.414 242.445 351.193 243.98C351.16 244.245 351.115 244.499 351.082 244.764C350.928 245.979 349.824 246.818 348.609 246.674C347.394 246.52 346.544 245.415 346.699 244.201C346.732 243.914 346.776 243.638 346.82 243.351C347.008 242.07 347.162 240.966 346.897 239.994C346.599 238.857 345.837 237.83 345.076 236.88C344.292 235.92 342.702 235.621 340.184 235.964C336.927 236.416 333.526 237.741 330.236 239.033C329.297 239.398 328.37 239.762 327.453 240.104C323.533 241.562 318.94 243.329 314.523 245.482C310.073 247.646 304.862 250.241 299.871 253.056C299.529 253.244 299.153 253.343 298.789 253.343L298.789 253.321Z" fill="#1A1A1A"/>
<path d="M200.176 272.402C197.89 272.402 195.804 271.75 194.103 271.22C193.154 270.922 192.182 270.679 191.166 270.414C189.289 269.94 187.357 269.454 185.446 268.592C182.686 267.345 180.577 265.435 178.932 263.535C178.766 263.392 178.634 263.226 178.512 263.05C178.247 262.729 177.993 262.409 177.75 262.089C176.834 262.034 176.05 261.404 175.785 260.521C175.597 259.925 175.432 259.317 175.255 258.71C174.239 257.297 173.267 255.828 172.428 254.227C171.401 252.24 170.617 250.12 169.867 248.066C169.668 247.514 169.458 246.962 169.259 246.41C168.31 243.892 167.68 241.297 167.073 238.78C167.051 238.703 167.04 238.625 167.018 238.537C166.742 237.919 166.477 237.135 166.157 236.174C165.682 234.761 165.163 233.105 164.854 232.166C164.743 231.813 164.666 231.559 164.633 231.47L164.489 231.029C163.783 228.942 163.065 226.789 162.601 224.558L160.89 223.542C160.89 223.542 160.846 223.542 160.835 223.542C159.62 223.454 158.704 222.394 158.792 221.179L158.814 220.892C158.869 220.131 159.311 219.446 159.995 219.093C160.669 218.739 161.486 218.761 162.149 219.148L165.505 221.135C167.89 222.56 170.297 223.984 172.737 225.397C173.069 225.497 173.356 225.673 173.599 225.894C173.742 225.983 173.886 226.06 174.029 226.148C174.515 226.126 174.99 226.281 175.387 226.579C175.763 226.855 176.105 227.164 176.403 227.506C181.56 230.41 186.827 233.171 192.215 235.49C194.666 236.538 197.062 237.731 199.381 238.868C201.258 239.796 203.19 240.756 205.123 241.618C206.945 242.435 208.778 243.34 210.732 244.389C211.328 244.709 212.024 244.93 212.753 245.173C213.415 245.383 214.1 245.604 214.806 245.924C215.138 246.067 215.436 246.233 215.745 246.388C216.065 246.553 216.341 246.708 216.573 246.785C216.617 246.785 216.717 246.807 216.816 246.818C217.39 246.896 218.273 247.028 219.024 247.635C220.526 248.861 220.747 251.765 220.78 252.626C220.879 255.464 219.565 257.518 218.417 259.34C218.13 259.792 217.832 260.256 217.556 260.742C217.401 261.007 217.269 261.283 217.125 261.548C216.639 262.486 216.098 263.557 215.126 264.485C214.519 265.07 213.868 265.435 213.305 265.755C213.051 265.898 212.797 266.031 212.565 266.207C212.002 266.605 211.45 267.102 210.875 267.632C210.323 268.129 209.749 268.648 209.109 269.134C207.706 270.194 206.227 270.79 204.791 271.364L204.217 271.596C202.826 272.159 201.457 272.369 200.165 272.369L200.176 272.402ZM192.557 266.207C193.496 266.45 194.468 266.693 195.428 267.002C198.222 267.875 200.364 268.427 202.572 267.532L203.168 267.29C204.438 266.782 205.531 266.351 206.448 265.644C206.934 265.269 207.408 264.838 207.916 264.386C208.568 263.8 209.241 263.193 210.014 262.641C210.379 262.387 210.754 262.166 211.14 261.945C211.538 261.725 211.88 261.526 212.09 261.327C212.521 260.919 212.841 260.289 213.205 259.571C213.371 259.251 213.537 258.92 213.724 258.6C214.033 258.059 214.365 257.529 214.696 257.01C215.668 255.486 216.429 254.294 216.374 252.825C216.352 252.339 216.253 251.666 216.131 251.213C215.855 251.169 215.513 251.125 215.171 251.003C214.585 250.804 214.1 250.539 213.658 250.319C213.448 250.208 213.238 250.087 213.007 249.987C212.521 249.766 211.969 249.59 211.394 249.413C210.544 249.137 209.584 248.828 208.634 248.32C206.779 247.326 205.034 246.465 203.312 245.681C201.313 244.776 199.337 243.804 197.416 242.854C195.804 242.059 194.147 241.242 192.48 240.469C192.646 241.375 192.723 242.236 192.789 242.932C193.54 251.202 193.076 259.582 192.524 266.207L192.557 266.207Z" fill="#1A1A1A"/>
<path d="M200.042 263.623C198.828 263.623 197.834 262.629 197.834 261.415L197.834 258.754C197.834 257.539 198.828 256.545 200.042 256.545C201.257 256.545 202.251 257.539 202.251 258.754L202.251 261.415C202.251 262.629 201.257 263.623 200.042 263.623Z" fill="#1A1A1A"/>
<path d="M202.021 272.479C201.248 272.479 200.519 272.071 200.122 271.397C199.835 270.911 199.625 270.403 199.492 269.873C198.852 269.542 198.388 268.902 198.3 268.14C197.88 264.231 198.123 260.245 198.355 256.38C198.432 255.067 198.51 253.764 198.565 252.472C198.675 250.815 198.708 249.181 198.664 247.58C198.488 246.553 198.543 245.538 198.852 244.555C199.062 243.881 199.581 243.34 200.243 243.119C200.276 242.788 200.298 242.457 200.342 242.137C200.464 240.966 201.48 240.105 202.65 240.16C203.821 240.215 204.748 241.187 204.748 242.358C204.748 242.733 204.748 243.097 204.715 243.462C204.759 243.462 204.792 243.462 204.836 243.473C205.764 243.583 206.515 244.257 206.725 245.173C206.791 245.471 206.857 245.769 206.912 246.068C206.912 246.068 206.934 246.068 206.934 246.056C207.122 244.985 208.094 244.201 209.187 244.235C210.368 244.279 211.307 245.239 211.318 246.421C211.318 247.382 211.329 248.331 211.318 249.27C211.384 249.27 211.45 249.27 211.517 249.27C212.08 249.27 212.61 249.502 213.007 249.866C213.239 249.755 213.493 249.678 213.758 249.656C213.869 249.656 213.979 249.645 214.089 249.656C214.376 249.402 214.73 249.214 215.127 249.137C215.978 248.96 216.85 249.303 217.358 250.009C217.788 250.606 218.042 251.279 218.12 252.008C218.175 252.284 218.296 252.505 218.506 252.726C219.345 253.609 219.312 255.011 218.418 255.85C217.899 256.347 217.192 256.535 216.541 256.425C216.419 256.8 216.287 257.164 216.143 257.529C215.812 258.357 215.039 258.898 214.167 258.92C213.913 259.527 213.637 260.113 213.339 260.687C213.04 261.272 212.488 261.692 211.848 261.835C211.55 262.498 211.13 263.127 210.545 263.668C210.103 264.077 209.518 264.286 208.922 264.253C208.591 264.872 207.972 265.302 207.255 265.39C207.221 265.39 207.188 265.39 207.155 265.39C207.133 265.457 207.111 265.512 207.089 265.578C206.824 266.318 206.173 266.87 205.4 267.003C205.09 268.416 204.638 269.796 204.064 271.132C203.732 271.894 203.004 272.413 202.175 272.457C202.131 272.457 202.076 272.457 202.032 272.457L202.021 272.479Z" fill="#1A1A1A"/>
<path d="M263.213 284.989C262.517 284.989 261.811 284.923 261.093 284.713C260.441 284.515 259.845 284.272 259.282 284.029C258.785 283.819 258.322 283.62 257.88 283.499C254.335 282.461 251.266 281.401 248.494 280.275C248.042 280.087 247.6 279.877 247.158 279.678C246.728 279.48 246.308 279.27 245.855 279.104C245.624 279.016 245.392 278.939 245.16 278.861C244.365 278.596 243.36 278.276 242.455 277.558C240.644 276.134 239.738 274.566 238.789 272.899C237.442 270.536 236.58 268.449 235.995 266.086C235.543 264.264 235.576 262.486 235.62 260.775C235.631 260.234 235.642 259.693 235.642 259.152L235.642 259.008C235.642 258.611 235.631 258.07 235.697 257.496C235.929 255.685 236.845 254.823 237.563 254.415C239.153 253.532 240.975 254.139 241.582 254.338C241.803 254.415 241.925 254.448 241.991 254.459C242.079 254.426 242.256 254.36 242.609 254.205C245.292 253.035 248.097 252.703 250.968 252.438C253.286 252.229 255.616 251.632 258.079 250.992C259.514 250.628 260.994 250.241 262.473 249.943C266.073 249.225 269.794 249.192 273.393 249.159L274.089 249.159C277.004 249.126 279.864 248.298 282.889 247.426L284.093 247.083C286.533 246.388 288.587 246.355 290.751 246.31C291.292 246.31 291.844 246.288 292.407 246.266C293.909 246.211 295.466 246.034 296.669 245.791C296.835 245.758 297 245.714 297.166 245.681C298.005 245.482 299.054 245.228 300.346 245.537C301.373 245.78 302.08 246.708 302.047 247.757C302.013 248.762 301.693 249.678 301.406 250.495C301.318 250.738 301.24 250.97 301.174 251.202C300.92 252.052 300.766 252.924 300.589 253.852C300.335 255.21 300.07 256.601 299.518 258.048C298.348 261.117 297.045 264.054 295.543 267.036C295.267 267.588 295.002 268.162 294.726 268.725C293.809 270.679 292.871 272.7 291.325 274.422C289.801 276.134 287.902 277.238 286.069 278.32C285.484 278.663 284.91 278.994 284.358 279.347C282.69 280.418 281.012 281.036 279.389 281.633C278.793 281.854 278.197 282.074 277.589 282.317C275.723 283.079 274.188 283.488 272.289 283.731C271.583 283.819 270.843 283.996 270.059 284.183C268.811 284.47 267.519 284.78 266.128 284.813C265.775 284.813 265.399 284.857 265.013 284.89C264.45 284.934 263.853 284.989 263.235 284.989L263.213 284.989ZM240.059 258.489C240.059 258.644 240.059 258.799 240.059 258.942L240.059 259.097C240.059 259.682 240.059 260.278 240.036 260.863C240.003 262.343 239.97 263.745 240.279 264.993C240.765 266.947 241.483 268.692 242.587 270.624C243.448 272.126 244.045 273.175 245.171 274.058C245.469 274.29 245.955 274.456 246.529 274.643C246.827 274.743 247.125 274.842 247.423 274.952C247.975 275.162 248.505 275.416 249.035 275.67C249.4 275.847 249.764 276.024 250.14 276.178C252.779 277.26 255.705 278.265 259.105 279.259C259.79 279.457 260.397 279.711 260.983 279.954C261.468 280.153 261.921 280.352 262.341 280.473C262.882 280.628 263.754 280.562 264.604 280.473C265.09 280.429 265.565 280.396 266.007 280.385C266.945 280.363 267.961 280.131 269.032 279.877C269.893 279.678 270.776 279.469 271.715 279.347C273.25 279.148 274.398 278.85 275.922 278.232C276.573 277.967 277.225 277.724 277.865 277.492C279.334 276.951 280.714 276.443 281.973 275.637C282.569 275.251 283.198 274.886 283.839 274.511C285.451 273.572 286.964 272.678 288.035 271.485C289.15 270.238 289.923 268.592 290.729 266.859C291.016 266.252 291.303 265.633 291.601 265.048C293.037 262.21 294.273 259.417 295.399 256.48C295.808 255.409 296.029 254.26 296.25 253.046C296.415 252.151 296.592 251.224 296.857 250.274C295.554 250.506 294.063 250.65 292.573 250.705C291.966 250.727 291.391 250.738 290.828 250.749C288.885 250.782 287.195 250.815 285.307 251.345L284.126 251.688C280.946 252.604 277.655 253.565 274.133 253.598L273.438 253.598C270.048 253.631 266.537 253.664 263.345 254.305C261.976 254.581 260.618 254.923 259.172 255.298C256.654 255.95 254.037 256.612 251.365 256.866C248.77 257.109 246.441 257.374 244.365 258.28C242.742 258.986 241.902 259.119 240.169 258.545C240.125 258.534 240.081 258.511 240.048 258.5L240.059 258.489Z" fill="#1A1A1A"/>
<path d="M259.877 281.82C258.862 281.82 257.956 281.125 257.724 280.109C257.68 279.921 257.636 279.722 257.603 279.524C257.261 279.524 256.907 279.457 256.587 279.303C256.388 279.204 256.212 279.082 256.057 278.939C254.986 279.513 253.893 279.656 253.186 279.678C252.181 279.711 251.298 279.06 251.011 278.11C250.967 277.967 250.923 277.823 250.889 277.68C250.746 277.702 250.602 277.702 250.459 277.702C250.017 278.486 249.145 278.927 248.25 278.806C247.5 278.707 246.926 278.464 246.495 278.166C246.274 278.177 246.053 278.166 245.832 278.11C244.287 277.757 243.249 276.752 242.84 275.317C242.31 275.118 241.868 274.721 241.614 274.191C241.283 273.484 241.062 272.722 240.941 271.949C240.035 271.519 239.517 270.525 239.715 269.509C239.87 268.758 239.837 267.786 239.793 266.837C238.964 266.461 238.423 265.6 238.501 264.651C238.744 261.603 239.163 259.03 239.826 256.524C240.135 255.342 241.349 254.647 242.531 254.956C242.785 255.022 243.017 255.133 243.215 255.265C243.657 254.923 244.209 254.768 244.783 254.823C245.457 254.89 246.064 255.265 246.429 255.839C246.429 255.817 246.451 255.784 246.462 255.762C246.705 255.077 247.257 254.558 247.952 254.36C248.648 254.161 249.388 254.327 249.951 254.779C250.326 255.088 250.647 255.431 250.912 255.784C251.574 254.47 252.722 253.631 254.191 253.432C255.019 253.322 255.836 253.675 256.311 254.371C256.377 254.47 256.443 254.558 256.499 254.658C256.885 254.603 257.294 254.592 257.735 254.647C257.802 254.647 257.868 254.658 257.923 254.68C258.254 254.139 258.685 253.653 259.215 253.222C260.065 252.527 261.302 252.571 262.108 253.311C262.13 253.322 262.141 253.344 262.163 253.355C262.549 252.836 263.157 252.516 263.819 252.483C264.504 251.224 265.277 250.606 266.259 250.429C266.911 250.307 267.573 250.495 268.07 250.926C268.567 251.356 268.854 251.975 268.843 252.637C268.799 256.325 268.324 260.101 267.331 264.86C266.988 266.793 266.558 268.736 266.039 270.657C266.668 271.231 266.944 272.148 266.657 273.009C266.558 273.307 266.458 273.627 266.348 273.97C265.752 275.891 264.957 278.386 263.19 280.054C262.218 281.357 260.805 281.699 260.209 281.787C260.098 281.798 259.988 281.809 259.888 281.809L259.877 281.82ZM254.743 273.793C254.743 273.793 254.743 273.904 254.743 273.959C254.787 273.837 254.82 273.716 254.853 273.572C254.82 273.65 254.776 273.716 254.743 273.793Z" fill="#1A1A1A"/>
<path d="M271.859 280.859C271.749 280.859 271.65 280.859 271.539 280.837C270.369 280.661 269.541 279.601 269.662 278.43L269.971 275.361C270.247 272.622 270.523 269.796 270.855 267.013C271.274 263.369 271.727 259.659 272.202 256.005C272.224 255.872 272.246 255.729 272.29 255.607C272.401 255.265 272.489 254.934 272.544 254.602C272.423 254.404 272.323 254.172 272.268 253.929C271.937 252.526 272.478 251.235 273.67 250.55C274.311 250.186 275.084 250.164 275.746 250.484C275.757 250.484 275.779 250.495 275.79 250.506C276.199 249.932 276.696 249.424 277.292 249.015C277.954 248.563 278.816 248.496 279.533 248.861C280.251 249.225 280.715 249.954 280.748 250.76C281.179 250.252 281.687 249.81 282.261 249.424C282.747 249.104 283.332 248.993 283.884 249.093C284.281 248.099 284.734 247.127 285.253 246.2C285.717 245.36 286.677 244.919 287.616 245.118C288.555 245.305 289.272 246.089 289.372 247.039C289.405 247.37 289.427 247.701 289.438 248.033C289.537 248.033 289.648 248.033 289.758 248.033C290.553 248.055 291.282 248.496 291.657 249.203C291.679 249.247 291.701 249.28 291.723 249.324C292.011 249.214 292.32 249.159 292.64 249.181C292.795 249.181 292.938 249.214 293.082 249.247C293.623 248.551 294.55 248.22 295.434 248.474C296.582 248.805 297.255 249.976 296.968 251.135C296.637 252.46 296.262 253.763 295.864 255.055C295.776 255.43 295.687 255.806 295.599 256.17C295.754 256.192 295.919 256.225 296.074 256.281C297.222 256.689 297.83 257.948 297.421 259.096C296.494 261.724 295.29 264.253 293.844 266.627C293.369 267.4 292.485 267.797 291.613 267.665C290.763 269.917 289.791 272.148 288.51 274.257C288.025 275.052 287.097 275.449 286.192 275.272C285.617 275.162 285.121 274.82 284.811 274.367C284.568 274.742 284.314 275.118 284.061 275.482C283.597 276.145 282.813 276.498 282.018 276.41C281.642 276.365 281.3 276.233 281.002 276.034C280.306 276.619 279.567 277.006 278.871 277.26C278.606 277.757 278.341 278.243 278.065 278.739C277.778 279.269 277.27 279.656 276.685 279.81C276.099 279.965 275.47 279.866 274.962 279.546C274.697 279.38 274.377 279.148 274.057 278.85C274.046 278.927 274.024 279.015 274.013 279.093C273.814 280.142 272.886 280.882 271.848 280.882L271.859 280.859Z" fill="#1A1A1A"/>
<path d="M198.654 184.778C213.328 199.853 229.79 213.33 247.749 220.278C255.975 223.46 264.394 226.384 272.928 227.715C279.214 228.695 283.374 229 289.785 228.276C300.047 227.118 308.946 222.442 318.792 219.128" stroke="#1A1A1A" stroke-width="5.30251" stroke-linecap="round"/>
<path d="M197.498 187.089C199.926 181.554 204.179 176.406 205.756 170.552C206.051 169.456 206.139 169.122 206.74 168.221" stroke="#1A1A1A" stroke-width="5.30251" stroke-linecap="round"/>
<path d="M172.085 141.652C171.843 141.652 171.768 141.593 172.128 141.78C175.401 143.488 178.637 145.411 181.84 147.214C203.325 159.31 224.492 171.912 245.802 184.308C258.813 191.876 272.125 198.994 285.613 205.679C290.923 208.31 296.899 211.742 302.834 212.802C303.808 212.976 303.322 212.362 304.074 211.861C313.014 205.901 321.764 199.635 330.943 194.041C340.596 188.158 350.398 181.882 360.656 177.077C361.059 176.889 377.316 171.294 376.936 170.915" stroke="#1A1A1A" stroke-width="5.30251" stroke-linecap="round"/>
<path d="M170.546 143.192C170.197 142.807 168.95 141.917 170.182 141.737C175.536 140.959 181.535 141.052 186.847 140.539C211.82 138.131 236.713 134.558 261.762 132.967C267.709 132.589 274.464 132.025 280.287 132.025C281.825 132.025 284.813 134.483 286.02 135.063C294.929 139.344 304.242 142.815 313.274 146.829C333.968 156.026 355.211 163.384 376.552 170.916" stroke="#1A1A1A" stroke-width="5.30251" stroke-linecap="round"/>
<path d="M332.146 194.381C328.407 197.694 318.909 214.581 318.093 219.475" stroke="#1A1A1A" stroke-width="5.30251" stroke-linecap="round"/>
<path d="M343.377 188.961C347.46 189.62 350.528 197.059 352.107 199.92C354.843 204.881 356.965 209.791 358.544 215.212C359.65 219.006 360.794 222.497 362.836 225.921C366.408 231.91 371.6 235.219 378.504 236.297C382.751 236.959 387.065 236.674 391.15 235.338C393.773 234.48 395.183 233.13 397.379 231.713" stroke="#1A1A1A" stroke-width="4.242" stroke-linecap="round"/>
<path d="M397.378 231.338C397.965 229.797 398.764 228.69 399.795 227.358C402.916 223.328 406.224 219.356 409.879 215.795C412.81 212.939 416.34 210.234 420.254 208.837C421.935 208.236 421.951 209.392 421.504 210.962C419.73 217.194 412.622 221.946 407.67 225.462C404.092 228.003 400.319 230.624 396.42 232.671C396.178 232.798 400.113 229.945 400.67 229.588C410.037 223.578 421.113 218.212 432.463 218.212C436.211 218.212 435.239 220.041 432.463 222.087C425.353 227.329 415.966 230.353 407.379 232.088C403.62 232.847 399.844 233.237 396.045 233.671C393.451 233.967 400.396 232.585 400.628 232.546C406.51 231.554 412.288 231.117 418.004 233.171C421.807 234.538 426.973 236.675 429.38 240.171C431.602 243.4 427.806 245.076 425.088 245.255C417.792 245.734 410.919 243.097 404.254 240.505C401.961 239.613 397.884 238.713 396.503 236.296C395.748 234.975 398.568 235.53 399.045 235.629C405.125 236.891 411.513 244.901 413.254 250.63C413.823 252.502 408.735 249.206 408.42 249.005C404.265 246.349 400.35 243.33 397.545 239.213C395.918 236.824 394.984 234.015 394.086 231.421C393.738 230.414 394.733 227.728 394.753 228.504C394.811 230.777 394.734 233.173 393.836 235.296C393.379 236.378 391.459 239.741 389.878 238.13C388.477 236.702 388.464 233.502 389.003 231.713C389.278 230.8 390.681 227.87 391.836 227.754C393.55 227.583 393.628 230.295 393.628 231.338" stroke="#1A1A1A" stroke-width="4.242" stroke-linecap="round"/>
<path d="M340.456 359.946C336.877 361.551 334.319 364.521 331.122 366.732C325.423 370.673 319.115 373.832 312.898 376.86C306.692 379.884 304.23 380.628 298.233 375.882C279.092 360.733 263.966 340.622 248.619 321.824" stroke="#1A1A1A" stroke-width="5.30251" stroke-linecap="round"/>
<path d="M249.383 323.444C241.96 317.958 234.041 314.474 224.709 316.147C222.485 316.545 222.912 317.505 224.841 318.318C231.086 320.949 238.04 322.912 244.65 324.42C246.552 324.855 248.571 324.634 246.359 322.537C243.382 319.715 238.243 317.979 234.223 317.517C230.157 317.049 237.779 320.077 238.22 320.21C239.187 320.502 247.069 323.155 246.214 321.857C244.991 319.998 230.851 305.485 236.33 304.08C239.829 303.182 244.188 308.95 245.751 311.325C246.342 312.222 250.071 319.045 248.926 320.139C248.606 320.444 246.13 313.84 246.051 313.571C245.493 311.68 243.193 305.989 246.008 304.701C252.541 301.713 254.476 318.184 254.312 321.716" stroke="#1A1A1A" stroke-width="5.30251" stroke-linecap="round"/>
<path d="M151.708 317.055C138.141 324.529 117.392 321.207 103.149 318.725C82.732 315.167 61.7227 308.217 44.3731 296.606C43.9551 296.326 32.0468 286.319 34.4174 289.259" stroke="#1A1A1A" stroke-width="5.30405" stroke-linecap="round"/>
<path d="M33.3578 287.358C26.5102 286.365 14.0266 286.503 7.67839 282.664C5.18475 281.157 13.1253 279.852 16.0303 280.082C19.5376 280.358 25.5056 281.616 27.6963 284.898C28.6189 286.28 17.4623 281.289 16.5369 280.573C11.7318 276.853 2.53271 265.024 15.7558 269.6C20.2203 271.145 25.0727 273.682 28.0554 277.473C31.5073 281.861 25.8764 279.192 24.5772 277.799C23.4669 276.609 14.9193 260.379 18.017 260.736C23.7608 261.399 28.6503 281.086 27.0941 275.517C25.946 271.41 25.1198 267.317 25.2707 263.017C25.3161 261.724 26.7888 252.253 29.6913 257.732C33.3913 264.717 32.1152 274.389 31.8863 282.009" stroke="#1A1A1A" stroke-width="5.30405" stroke-linecap="round"/>
</svg>
