<svg width="1440" height="1313" viewBox="0 0 1440 1313" fill="none" xmlns="http://www.w3.org/2000/svg">
<path d="M772.262 -11.5234V1428" stroke="#DEDEDE"/>
<path d="M356.055 -11.5234V1428" stroke="#DEDEDE"/>
<path d="M1188.47 -11.5234V1428" stroke="#DEDEDE"/>
<path d="M147.949 -11.5234V1428" stroke="#DEDEDE"/>
<path d="M980.367 -11.5234V1428" stroke="#DEDEDE"/>
<path d="M564.16 -11.5234V1428" stroke="#DEDEDE"/>
<path d="M1396.58 -11.5234V1428" stroke="#DEDEDE"/>
<path d="M43.9023 -11.5234V1428" stroke="#DEDEDE"/>
<path d="M876.316 -11.5234V1428" stroke="#DEDEDE"/>
<path d="M460.109 -11.5234V1428" stroke="#DEDEDE"/>
<path d="M1292.53 -11.5234V1428" stroke="#DEDEDE"/>
<path d="M252.004 -11.5234V1428" stroke="#DEDEDE"/>
<path d="M1084.42 -11.5234V1428" stroke="#DEDEDE"/>
<path d="M668.215 -11.5234V1428" stroke="#DEDEDE"/>
<path d="M1440 760.265L0.47658 760.265" stroke="#DEDEDE"/>
<path d="M1440 344.057L0.47658 344.057" stroke="#DEDEDE"/>
<path d="M1440 1176.47L0.47658 1176.47" stroke="#DEDEDE"/>
<path d="M1440 135.952L0.47658 135.952" stroke="#DEDEDE"/>
<path d="M1440 968.37L0.47658 968.37" stroke="#DEDEDE"/>
<path d="M1440 552.159L0.47658 552.159" stroke="#DEDEDE"/>
<path d="M1440 31.8994L0.47658 31.8994" stroke="#DEDEDE"/>
<path d="M1440 864.317L0.47658 864.317" stroke="#DEDEDE"/>
<path d="M1440 448.107L0.47658 448.107" stroke="#DEDEDE"/>
<path d="M1440 1280.52L0.47658 1280.52" stroke="#DEDEDE"/>
<path d="M1440 240.004L0.47658 240.004" stroke="#DEDEDE"/>
<path d="M1440 1072.42L0.47658 1072.42" stroke="#DEDEDE"/>
<path d="M1440 656.212L0.47658 656.212" stroke="#DEDEDE"/>
</svg>
