<svg width="20" height="22" viewBox="0 0 20 22" fill="none" xmlns="http://www.w3.org/2000/svg">
<path d="M10.7865 18.0999C8.63121 18.5571 6.30437 18.2555 4.42074 17.0752C2.98031 16.1738 1.42907 14.465 1.12526 12.8729C0.235267 8.15498 4.217 3.34623 8.97434 1.73143C10.0502 1.36502 11.6836 0.833251 12.8453 1.0505C13.8496 1.23857 14.9255 2.08491 15.6618 2.66208C17.5883 4.17636 18.7178 6.32293 18.9144 8.61217C19.0573 10.2594 19.1467 12.3443 18.1101 13.784C17.5561 14.5525 16.8341 14.8865 16.0156 15.347C15.3079 15.7426 14.7396 16.2646 13.9068 16.417C14.0426 17.3379 14.9576 18.3042 15.5081 19.0629C15.8655 19.5558 16.7555 20.2659 16.4267 20.9209C15.5331 21.109 14.6753 20.9404 13.8425 20.6388C12.9525 20.321 10.715 19.8152 10.6292 18.7678C10.8866 18.7322 11.1511 18.6998 10.7865 18.0999Z" stroke="#FF6B00" stroke-width="2" stroke-miterlimit="10" stroke-linecap="round" stroke-linejoin="round"/>
</svg>
