<svg width="21" height="30" viewBox="0 0 21 30" fill="none" xmlns="http://www.w3.org/2000/svg">
<path d="M2.06826 2.14282C3.16392 2.24881 4.07285 3.64531 4.91644 4.23466C5.85541 4.89064 6.65829 5.81745 7.50676 6.5816C8.18794 7.19507 8.95629 7.74013 9.71029 8.26527C10.235 8.6307 10.6623 9.12701 11.193 9.48409C12.2638 10.2047 13.2325 10.9117 14.4631 11.3775C15.9831 11.9529 17.3629 13.0172 18.5244 14.0816C18.8462 14.3765 19.2928 14.4816 18.7354 14.8186C18.5743 14.916 18.3832 15.2459 18.29 15.4081C18.1274 15.6912 17.8083 15.756 17.5516 15.9183C16.1758 16.7885 15.1028 18.0188 13.8243 19.0306C12.0423 20.4409 10.0094 21.5902 8.29206 23.0669C7.62427 23.6411 6.92644 24.1844 6.20574 24.6938C5.57113 25.1424 5.01113 25.7921 4.36556 26.2245C3.73339 26.6478 2.6841 27.8571 1.85728 27.8571" stroke="#FAFAFA" stroke-width="3" stroke-linecap="round"/>
</svg>
