<svg width="131" height="230" viewBox="0 0 131 230" fill="none" xmlns="http://www.w3.org/2000/svg">
<path d="M27.6884 22.0868C23.3571 36.2148 27.9276 49.9367 29.8493 63.756C30.8465 70.9273 33.2925 78.7626 35.6339 85.6156C38.5957 94.2843 42.3184 104.272 48.1409 111.076C51.3037 114.773 53.7098 120.08 58.3075 122.151C60.0957 122.956 60.2542 122.829 62.4013 122.828C67.3688 122.827 72.5875 121.317 77.5972 121.006C81.3839 120.77 88.589 120.09 90.8546 115.957C92.6159 112.745 93.4703 109.179 94.5472 105.667C95.7132 101.864 96.6572 98.6241 94.8743 94.9538C93.2898 91.6918 90.6617 88.753 87.2666 87.7122C84.8547 86.9727 82.4427 86.2333 80.0308 85.4938C76.943 84.5472 78.3788 86.6552 76.7746 87.8326C73.8922 89.9482 73.7987 97.6907 74.5637 100.695C75.9255 106.044 78.5151 110.429 81.014 115.122C82.6843 118.26 86.6995 118.727 89.6943 119.645C92.561 120.524 95.9239 119.165 97.6563 116.182C99.5948 112.844 100.493 109.072 101.62 105.397C103.208 100.216 100.532 93.4298 99.2351 88.6221C97.1959 81.0649 92.7395 81.6311 86.6949 80.0286C85.0392 79.5897 81.9548 80.4509 80.8281 82.0162C79.7609 83.4987 76.9811 84.3661 76.3505 86.0982C75.8038 87.5998 74.9783 88.8201 74.4832 90.435C74.2705 91.1288 76.2589 90.7267 76.692 90.2458" stroke="white" stroke-width="4" stroke-linecap="round"/>
<path d="M82.2236 82.0083C75.4385 79.9281 71.0197 81.8502 65.1828 84.9479C63.8457 85.6576 61.7482 87.9572 61.2939 89.439C60.7396 91.2473 59.0765 96.672 59.6308 94.8637" stroke="white" stroke-width="4" stroke-linecap="round"/>
<path d="M60.3063 94.5058C57.6367 93.125 55.8916 89.2107 54.0258 86.9283C52.6688 85.2682 51.4249 83.4765 50.4205 81.584C48.6746 78.2943 46.4345 74.9241 45.9802 71.1795C45.728 69.1009 45.8268 66.8014 45.3976 64.7837C45.1358 63.5534 44.7924 60.5435 45.0941 59.3212C45.7179 56.7938 44.6573 53.3715 45.4034 50.9381" stroke="white" stroke-width="4" stroke-linecap="round"/>
<path d="M46.4386 51.2547C47.0376 49.9199 48.7939 50.503 49.7349 50.1301C51.5887 49.3956 53.8302 49.4948 55.7721 48.4642C58.9669 46.7687 61.5044 46.2256 64.1457 43.6838C65.5222 42.3591 66.7558 42.1348 67.3645 40.1491C68.0638 37.8684 69.3426 35.2523 69.4672 32.8809C69.8427 25.7361 68.1528 17.6562 62.7679 12.7407C58.201 8.57193 51.4742 9.01979 49.5363 15.3409C47.7837 21.0573 48.6694 24.8941 50.6641 30.5074C51.8446 33.8295 54.6503 42.7795 60.0913 41.75C62.6103 41.2734 63.411 34.6091 64.0988 32.3655C64.9542 29.5754 64.44 26.7611 64.1123 23.923C63.1139 15.2741 56.6595 8.28961 47.6766 7.58016C43.3782 7.24068 38.5936 9.07609 35.5221 12.3004C33.0234 14.9234 29.7425 17.2229 28.6883 20.6615C27.7349 23.7713 26.6074 26.6447 27.2873 29.8403C27.8185 32.3375 27.3573 36.0253 27.1571 38.561C26.9555 41.1137 27.3124 43.6669 27.114 46.178C26.7173 51.2019 28.6451 56.3382 28.6502 61.3441C28.6531 64.1776 29.376 67.5146 30.1292 70.2441C30.5539 71.7834 30.5165 74.4699 31.6443 75.5442" stroke="white" stroke-width="4" stroke-linecap="round"/>
<path d="M64.0067 126.409C64.0067 130.778 66.886 129.762 69.3663 128.384C70.7597 127.61 72.5344 128.231 73.0021 126.127C73.3596 124.518 71.6348 122.042 72.1872 123.588C73.3829 126.937 72.7933 129.794 69.0842 129.794C67.5024 129.794 66.0183 130.266 65.2604 128.666C64.1565 126.335 63.3843 126.351 61.75 124.717" stroke="white" stroke-width="4" stroke-linecap="round"/>
<path d="M67.9543 130.922C67.9543 141.7 69.0907 153.312 65.0081 163.519C62.5147 169.752 59.0504 176.473 51.9068 177.968C48.368 178.709 44.3899 178.711 42.1278 175.492C38.8696 170.855 44.0982 166.626 46.9546 163.77C52.6692 158.055 58.2058 153.489 66.7006 153.489C71.022 153.489 72.1395 157.241 74.1602 160.385C78.292 166.812 78.3096 175.081 76.9811 182.387C75.9164 188.243 73.5756 194.063 70.4931 199.156C68.6921 202.131 67.2286 206.527 63.4409 207.524C56.6333 209.316 55.8058 201.627 58.4888 197.056C63.3293 188.809 70.1673 180.417 77.6706 174.489C83.7817 169.66 91.8899 167.295 99.4225 170.54C109.141 174.726 110.756 186.991 110.831 196.366C110.921 207.61 108.945 219.719 97.8554 225.578C96.0762 226.518 93.4847 228.45 92.4958 225.922C91.1543 222.494 91.6495 218.592 91.6495 214.984C91.6495 203.172 95.5245 195.039 103.372 186.211C107.629 181.421 111.29 178.737 117.163 177.059C121.089 175.937 124.828 176.056 128.885 176.056" stroke="white" stroke-width="4" stroke-linecap="round"/>
</svg>
