<svg width="86" height="130" viewBox="0 0 86 130" fill="none" xmlns="http://www.w3.org/2000/svg">
<path d="M74.6562 34.2179C72.0043 42.2663 65.3197 47.1761 59.8427 53.0088C57.0006 56.0356 53.2603 58.8934 49.8943 61.326C45.6365 64.4031 40.5857 67.8453 35.6061 69.1024C32.9011 69.7852 30.0169 71.4727 27.1787 70.9192C26.0748 70.7039 26.0428 70.5919 25.0379 69.8804C22.7129 68.2343 20.7699 65.7991 18.5279 63.9938C16.8333 62.6294 13.6856 59.9244 13.9938 57.2395C14.2334 55.1521 15.0143 53.2 15.6737 51.199C16.3876 49.0324 17.0186 47.2032 19.069 46.0756C20.8912 45.0734 23.0949 44.5681 25.0289 45.2054C26.403 45.6581 27.777 46.1109 29.1511 46.5636C30.9101 47.1432 29.5397 47.6544 29.9007 48.737C30.5493 50.6821 28.0286 54.3376 26.6752 55.4907C24.2663 57.5434 21.6016 58.7384 18.8771 60.108C17.0559 61.0236 15.0217 59.912 13.3156 59.3499C11.6825 58.8118 10.5583 57.0618 10.7354 55.0915C10.9335 52.887 11.7622 50.8239 12.4522 48.7298C13.4246 45.7784 16.925 43.488 19.1248 41.6671C22.5825 38.8048 24.4811 40.5459 27.8416 41.7979C28.762 42.1408 29.9207 43.5655 29.9297 44.6715C29.9382 45.719 30.9523 47.0458 30.6738 48.0655C30.4323 48.9496 30.4146 49.7942 30.1114 50.7142C29.9812 51.1095 29.1836 50.2626 29.1401 49.894" stroke="white" stroke-width="2" stroke-linecap="round"/>
<path d="M29.2793 44.2058C33.1446 45.4794 34.5766 47.8428 36.283 51.2263C36.6739 52.0014 36.8941 53.7726 36.6159 54.6168C36.2765 55.6469 35.2582 58.7373 35.5977 57.7072" stroke="white" stroke-width="2" stroke-linecap="round"/>
<path d="M35.3985 57.3151C37.1056 57.5529 39.219 56.2985 40.8485 55.8481C42.0336 55.5204 43.2094 55.0937 44.3064 54.5404C46.2133 53.5787 48.3783 52.743 49.8313 51.1405C50.6379 50.251 51.3532 49.1417 52.2225 48.3394C52.7525 47.8501 53.9102 46.5549 54.1739 45.8827C54.719 44.493 56.349 43.2422 56.8058 41.8559" stroke="white" stroke-width="2" stroke-linecap="round"/>
<path d="M56.2146 41.6608C56.3763 40.8376 55.361 40.5288 55.044 40.0425C54.4195 39.0847 53.3373 38.3887 52.7696 37.263C51.8356 35.4111 50.8276 34.3164 50.4331 32.2516C50.2275 31.1756 49.7243 30.6619 50.097 29.5307C50.5251 28.2314 50.7929 26.5832 51.5201 25.4318C53.7109 21.9627 57.1782 18.74 61.3272 18.2225C64.8459 17.7836 67.8466 20.2214 66.6601 23.8224C65.5871 27.0789 63.9016 28.5817 61.1086 30.5488C59.4556 31.7129 55.1777 34.9734 52.9715 32.6893C51.9502 31.6318 53.7828 28.2468 54.2039 26.9687C54.7276 25.3792 55.9005 24.2321 56.9939 23.012C60.3261 19.2938 65.661 18.1621 70.1012 20.8053C72.2259 22.0701 73.8578 24.5142 74.2277 27.0409C74.5286 29.0965 75.3028 31.2596 74.6574 33.2185C74.0736 34.9901 73.6497 36.7087 72.273 37.9795C71.1972 38.9725 70.1916 40.8516 69.4454 42.105C68.6943 43.3668 67.6815 44.4438 66.9426 45.685C65.4643 48.1683 62.8605 49.9342 61.2001 52.276C60.2602 53.6015 58.8165 54.9242 57.5598 55.9525C56.8511 56.5323 55.9788 57.8024 55.095 57.9318" stroke="white" stroke-width="2" stroke-linecap="round"/>
<path d="M38.5003 69.1539C40.2447 70.9518 38.6541 71.6835 37.083 72.1069C36.2003 72.3447 35.7182 73.3093 34.6854 72.63C33.8958 72.1106 33.6167 70.4026 34.007 71.2597C34.8519 73.1152 36.2357 74.0559 37.7623 72.5747C38.4133 71.943 39.2125 71.5445 38.8855 70.5833C38.4091 69.1833 38.7332 68.8814 38.7532 67.5561" stroke="white" stroke-width="2" stroke-linecap="round"/>
<path d="M36.8172 73.0859C36.8172 79.2663 36.1656 85.9258 38.5068 91.7788C39.9366 95.3535 41.9233 99.2073 46.0198 100.065C48.0492 100.489 50.3305 100.491 51.6277 98.6448C53.4962 95.9858 50.4978 93.5606 48.8597 91.9226C45.5826 88.6455 42.4076 86.0271 37.5362 86.0271C35.058 86.0271 34.4172 88.1788 33.2584 89.9814C30.889 93.6672 30.8789 98.4089 31.6407 102.599C32.2513 105.957 33.5936 109.295 35.3613 112.215C36.3941 113.921 37.2334 116.443 39.4055 117.014C43.3094 118.041 43.7839 113.632 42.2453 111.011C39.4695 106.282 35.5481 101.469 31.2453 98.0696C27.7408 95.3007 23.0911 93.9442 18.7714 95.8049C13.1984 98.2056 12.2719 105.239 12.2289 110.615C12.1773 117.063 13.3107 124.007 19.6701 127.367C20.6904 127.906 22.1765 129.014 22.7437 127.565C23.5129 125.599 23.2289 123.361 23.2289 121.292C23.2289 114.518 21.0068 109.854 16.5067 104.792C14.0652 102.045 11.9659 100.506 8.59819 99.5435C6.34681 98.9003 4.20215 98.9683 1.87596 98.9683" stroke="white" stroke-width="2" stroke-linecap="round"/>
</svg>
