<svg width="21" height="30" viewBox="0 0 21 30" fill="none" xmlns="http://www.w3.org/2000/svg">
<path d="M18.5033 2.14282C17.4076 2.24881 16.4987 3.64531 15.6551 4.23466C14.7162 4.89064 13.9133 5.81745 13.0648 6.5816C12.3836 7.19507 11.6153 7.74013 10.8613 8.26527C10.3366 8.6307 9.90922 9.12701 9.37857 9.48409C8.30774 10.2047 7.33903 10.9117 6.10844 11.3775C4.58842 11.9529 3.20863 13.0172 2.04714 14.0816C1.72537 14.3765 1.27881 14.4816 1.83617 14.8186C1.99728 14.916 2.18839 15.2459 2.28156 15.4081C2.44416 15.6912 2.76328 15.756 3.01998 15.9183C4.39573 16.7885 5.4688 18.0188 6.74723 19.0306C8.52924 20.4409 10.5621 21.5902 12.2795 23.0669C12.9473 23.6411 13.6451 24.1844 14.3658 24.6938C15.0004 25.1424 15.5604 25.7921 16.206 26.2245C16.8382 26.6478 17.8875 27.8571 18.7143 27.8571" stroke="#FAFAFA" stroke-width="3" stroke-linecap="round"/>
</svg>
