<svg width="495" height="305" viewBox="0 0 495 305" fill="none" xmlns="http://www.w3.org/2000/svg">
<rect x="-40.8867" y="2.37793" width="536" height="280.296" rx="20" transform="rotate(2.3465 -40.8867 2.37793)" fill="#F7F7F7"/>
<path d="M425.636 23.7992C424.495 20.7482 424.516 17.3654 426.498 13.5535C429.933 6.94728 438.3 2.5295 445.622 2.32786C448.8 2.24036 451.754 3.30358 454.349 5.10841C455.149 5.45206 455.936 5.83755 456.705 6.26241C461.771 9.06045 464.109 15.1008 464.372 20.9127C464.858 23.1079 465.039 25.2795 464.87 27.2881C464.419 32.6385 459.879 37.7465 455.174 39.8945C447.201 43.5347 431.932 43.8283 427.559 34.3264C426.042 31.0298 425.436 27.3955 425.636 23.7992Z" fill="white"/>
<path d="M439.624 38.5689C431.855 32.2984 420.656 24.7901 426.498 13.5535C429.933 6.94728 438.3 2.5295 445.622 2.32786C457.154 2.0103 465.75 16.8496 464.87 27.2881C464.419 32.6385 459.879 37.7465 455.174 39.8945C447.201 43.5347 431.932 43.8283 427.559 34.3264C423.554 25.6241 425.902 14.5689 432.651 8.0687C439.269 1.69396 448.897 1.94991 456.705 6.26241C463.15 9.82194 465.18 18.6288 464.138 25.5371C462.866 33.9807 455.105 38.3517 447.133 39.1825C437.154 40.2228 429.51 35.0253 427.788 25.0037" stroke="#1A1A1A" stroke-width="3" stroke-linecap="round"/>
<path d="M390.382 16.8154C390.089 14.125 390.528 10.9326 392.038 8.92818C396.606 2.86163 404.843 3.46078 410.226 7.55816C411.414 8.25897 412.451 9.15642 413.248 10.2563C416.481 14.7192 418.074 22.1769 413.507 26.3303C411.306 28.3328 408.636 29.281 405.834 29.6015C404.286 30.0414 402.66 30.1808 401.044 29.9501C396.602 29.3163 390.642 26.8031 390.217 21.6278C390.198 21.3944 390.182 21.1583 390.171 20.9199C390.109 19.5945 390.172 18.1994 390.382 16.8154Z" fill="white"/>
<path d="M404.365 25.4202C399.238 24.9218 392.345 24.7226 390.721 18.6652C389.939 15.7482 390.161 11.4202 392.038 8.92818C399.533 -1.02534 416.906 6.96499 415.341 18.9092C414.462 25.6228 407.67 30.8957 401.044 29.9501C396.602 29.3163 390.642 26.8031 390.217 21.6278C389.77 16.1881 391.455 9.26518 396.866 6.83127C401.956 4.54163 409.825 5.53126 413.248 10.2563C416.481 14.7192 418.074 22.1769 413.507 26.3303C409.836 29.6696 404.863 30.0774 400.143 29.5308C392.359 28.6294 391.782 24.2087 388.84 17.8997" stroke="#1A1A1A" stroke-width="3" stroke-linecap="round"/>
<path d="M399.977 14.9143C401.474 15.0173 409.951 16.127 404.073 15.7706C402.628 15.683 401.373 15.054 399.977 14.9143ZM399.977 14.9143C399.304 14.8469 404.201 15.0874 404.788 15.1114" stroke="#1A1A1A" stroke-width="3" stroke-linecap="round"/>
<path d="M434.849 19.2037C434.792 20.5977 436.284 22.2419 437.145 23.2467C438.266 24.5539 439.204 26.0184 440.345 27.3028C441.011 28.0527 442.519 30.6508 443.691 30.6989C444.408 30.7283 445.205 28.826 445.565 28.2066C446.426 26.7262 447.908 25.3702 449.041 24.0672C450.561 22.3195 452.003 20.4373 453.382 18.5716C454.301 17.3271 454.828 15.8194 455.686 14.5863C455.779 14.453 456.184 13.2006 456.034 13.0544C455.286 12.323 453.837 13.9513 453.457 14.3999C452.521 15.507 451.83 16.8073 450.91 17.9351C449.767 19.3358 448.552 20.674 447.41 22.0735C446.372 23.3451 445.902 25.0112 445.045 26.3774C444.673 26.9712 443.699 28.7724 443.021 28.7446" stroke="#1A1A1A" stroke-width="3" stroke-linecap="round"/>
</svg>
