<svg width="265" height="18" viewBox="0 0 265 18" fill="none" xmlns="http://www.w3.org/2000/svg">
<circle cx="145.815" cy="8.71027" r="8.71027" transform="rotate(90 145.815 8.71027)" fill="#1A1A1A"/>
<circle cx="255.499" cy="8.71027" r="8.71027" transform="rotate(90 255.499 8.71027)" fill="#1A1A1A"/>
<circle cx="118.394" cy="8.71027" r="8.71027" transform="rotate(90 118.394 8.71027)" fill="#1A1A1A"/>
<circle cx="228.078" cy="8.71027" r="8.71027" transform="rotate(90 228.078 8.71027)" fill="#1A1A1A"/>
<circle cx="90.9733" cy="8.71027" r="8.71027" transform="rotate(90 90.9733 8.71027)" fill="#1A1A1A"/>
<circle cx="200.657" cy="8.71027" r="8.71027" transform="rotate(90 200.657 8.71027)" fill="#1A1A1A"/>
<circle cx="63.5524" cy="8.71027" r="8.71027" transform="rotate(90 63.5524 8.71027)" fill="#1A1A1A"/>
<circle cx="173.236" cy="8.71027" r="8.71027" transform="rotate(90 173.236 8.71027)" fill="#1A1A1A"/>
<circle cx="36.1315" cy="8.71027" r="8.71027" transform="rotate(90 36.1315 8.71027)" fill="#1A1A1A"/>
<circle cx="8.71063" cy="8.71027" r="8.71027" transform="rotate(90 8.71063 8.71027)" fill="#1A1A1A"/>
</svg>
