<svg width="688" height="22" viewBox="0 0 688 22" fill="none" xmlns="http://www.w3.org/2000/svg">
<circle cx="270" cy="11" r="11" transform="rotate(90 270 11)" fill="#F7F7F7"/>
<circle cx="566" cy="11" r="11" transform="rotate(90 566 11)" fill="#F7F7F7"/>
<circle cx="677" cy="11" r="11" transform="rotate(90 677 11)" fill="#F7F7F7"/>
<circle cx="233" cy="11" r="11" transform="rotate(90 233 11)" fill="#F7F7F7"/>
<circle cx="529" cy="11" r="11" transform="rotate(90 529 11)" fill="#F7F7F7"/>
<circle cx="640" cy="11" r="11" transform="rotate(90 640 11)" fill="#F7F7F7"/>
<circle cx="196" cy="11" r="11" transform="rotate(90 196 11)" fill="#F7F7F7"/>
<circle cx="492" cy="11" r="11" transform="rotate(90 492 11)" fill="#F7F7F7"/>
<circle cx="603" cy="11" r="11" transform="rotate(90 603 11)" fill="#F7F7F7"/>
<circle cx="159" cy="11" r="11" transform="rotate(90 159 11)" fill="#F7F7F7"/>
<circle cx="455" cy="11" r="11" transform="rotate(90 455 11)" fill="#F7F7F7"/>
<circle cx="122" cy="11" r="11" transform="rotate(90 122 11)" fill="#F7F7F7"/>
<circle cx="418" cy="11" r="11" transform="rotate(90 418 11)" fill="#F7F7F7"/>
<circle cx="85" cy="11" r="11" transform="rotate(90 85 11)" fill="#F7F7F7"/>
<circle cx="381" cy="11" r="11" transform="rotate(90 381 11)" fill="#F7F7F7"/>
<circle cx="48" cy="11" r="11" transform="rotate(90 48 11)" fill="#F7F7F7"/>
<circle cx="344" cy="11" r="11" transform="rotate(90 344 11)" fill="#F7F7F7"/>
<circle cx="11" cy="11" r="11" transform="rotate(90 11 11)" fill="#F7F7F7"/>
<circle cx="307" cy="11" r="11" transform="rotate(90 307 11)" fill="#F7F7F7"/>
</svg>
