<svg width="140" height="112" viewBox="0 0 140 112" fill="none" xmlns="http://www.w3.org/2000/svg">
<path d="M70.2031 5C80.1193 5.49548 80.0082 18.0395 79.6484 25.5902C78.8999 41.2994 67.9288 56.3565 56.7601 66.4632C44.7438 77.3368 28.7984 86.2765 12.1256 84.7265C2.51284 83.8329 -1.28886 67.1265 2.37279 59.5266C4.15893 55.8194 7.99412 52.97 11.247 50.6584C20.8201 43.8553 30.4379 37.6534 41.3401 33.1414C62.3544 24.4443 85.6876 25.2338 104.206 39.156C115.152 47.3851 125.433 59.4316 131.444 71.7315C135.852 80.7514 135.295 89.0235 132.322 98.2045C132.008 99.176 127.258 109.091 127.138 106.941C126.939 103.351 125.557 99.7899 125.557 96.2728C125.557 94.7432 124.087 90.0082 124.942 92.8924C125.855 95.9737 127.138 99.3983 127.138 102.595C127.138 104.834 127.138 107.073 127.138 109.312C127.138 110.128 123.419 111.839 126.408 110.512C129.915 108.954 137.325 100.806 139 97.4582" stroke="#FF6B00" stroke-width="2" stroke-linecap="round"/>
<path d="M69.3929 5.47298C69.3929 4.39985 70.2688 6.89185 70.2688 7.44379C70.2688 8.74576 66.8624 7.2428 66.3758 6.73819C65.6385 5.97354 65.4769 4.75841 65.8892 3.83064C66.2625 2.99075 67.8646 2.70882 68.6143 3.18587C69.2408 3.58458 70.4581 5.09228 70.4878 5.86227C70.5576 7.67686 69.1159 7.66277 67.4707 7.66277C65.8339 7.66277 65.0046 6.96256 63.8089 6.03259C62.9497 5.3643 63.583 3.42937 64.0279 2.63842C66.3344 -1.46198 71.309 6.44098 67.2031 7.6141C65.9229 7.97986 65.4041 7.9507 64.3564 7.12748C63.5565 6.49905 63.4944 5.70898 64.0401 4.81604C64.6193 3.8682 65.4216 3.56566 66.3272 3.11287C67.4069 2.57301 67.9884 2.88296 68.517 3.94013C69.4308 5.76784 69.2559 7.3746 66.7651 7.44379C66.1987 7.45952 63.8723 7.61939 63.7116 6.89634C63.5031 5.95816 63.5734 4.46925 63.7116 3.50217C63.8387 2.61248 65.7453 2.21516 66.4975 2.1883C67.5807 2.14961 68.1915 3.63875 68.298 4.59706C68.3712 5.25575 68.7453 5.65824 68.1763 6.22724C67.3218 7.08173 66.5333 6.33864 66.1082 5.59463C65.3181 4.21194 65.8527 1.53136 67.7505 1.53136C69.0483 1.53136 70.2688 3.84925 70.2688 5.08368C70.2688 6.74662 69.7941 8.75766 67.7505 8.75766C66.0467 8.75766 65.3328 8.85817 64.1374 7.66277" stroke="#FF6B00" stroke-width="2" stroke-linecap="round"/>
</svg>
