<svg width="1240" height="863" viewBox="0 0 1240 863" fill="none" xmlns="http://www.w3.org/2000/svg">
<mask id="mask0_2684_22511" style="mask-type:alpha" maskUnits="userSpaceOnUse" x="0" y="0" width="1240" height="863">
<rect width="1240" height="863" rx="50" transform="matrix(-1 0 0 1 1240 0)" fill="#1A1A1A"/>
</mask>
<g mask="url(#mask0_2684_22511)">
<path d="M722.043 -216V1224" stroke="#313131" stroke-width="2"/>
<path d="M305.697 -216V1224" stroke="#313131" stroke-width="2"/>
<path d="M1138.39 -216V1224" stroke="#313131" stroke-width="2"/>
<path d="M97.5254 -216V1224" stroke="#313131" stroke-width="2"/>
<path d="M930.217 -216V1224" stroke="#313131" stroke-width="2"/>
<path d="M513.871 -216V1224" stroke="#313131" stroke-width="2"/>
<path d="M826.129 -216V1224" stroke="#313131" stroke-width="2"/>
<path d="M409.783 -216V1224" stroke="#313131" stroke-width="2"/>
<path d="M201.611 -216V1224" stroke="#313131" stroke-width="2"/>
<path d="M1034.3 -216V1224" stroke="#313131" stroke-width="2"/>
<path d="M617.957 -216V1224" stroke="#313131" stroke-width="2"/>
<path d="M1390 556.043L-50 556.043" stroke="#313131" stroke-width="2"/>
<path d="M1390 139.698L-50 139.698" stroke="#313131" stroke-width="2"/>
<path d="M1390 764.218L-50 764.218" stroke="#313131" stroke-width="2"/>
<path d="M1390 347.87L-50 347.87" stroke="#313131" stroke-width="2"/>
<path d="M1390 660.13L-50 660.13" stroke="#313131" stroke-width="2"/>
<path d="M1390 243.782L-50 243.782" stroke="#313131" stroke-width="2"/>
<path d="M1390 35.6125L-50 35.6125" stroke="#313131" stroke-width="2"/>
<path d="M1390 451.957L-50 451.957" stroke="#313131" stroke-width="2"/>
</g>
</svg>
