<svg width="270" height="172" viewBox="0 0 270 172" fill="none" xmlns="http://www.w3.org/2000/svg">
<path d="M5.95508 9.37367C15.6332 9.37367 24.5437 8.26609 33.2103 13.2414C48.518 22.0291 59.9854 32.1759 69.047 47.4464C83.7275 72.1857 89.3397 101.858 77.7493 128.789C69.2212 148.604 56.3406 170.02 32.0621 170.367C17.3292 170.577 14.6574 150.547 14.6574 138.821C14.6574 116.292 22.3583 100.904 36.4132 84.1896C48.6994 69.579 64.5656 62.328 81.8587 55.3026C97.3215 49.0209 116.794 50.3997 133.227 50.7097C140.359 50.8443 149.483 52.6678 156.01 55.6048C161.864 58.239 168.307 59.7891 173.475 63.5215C178.682 67.2819 184.632 69.5406 189.792 73.5534C194.924 77.5453 200.078 81.8774 204.779 86.3651C214.017 95.1827 223.536 104.817 231.37 114.889C240.745 126.944 248.757 139.4 257.235 152.116C258.611 154.18 261.674 162.631 264.245 162.631C266.865 162.631 268.113 154.073 268.113 151.874C268.113 149.155 268.113 146.435 268.113 143.716C268.113 137.677 267.461 142.903 266.783 145.106C265.203 150.241 263.762 155.248 263.762 160.577C263.762 169.672 254.705 157.406 253.125 155.984C249.409 152.639 244.238 149.727 239.83 147.523" stroke="#FF6B00" stroke-width="3" stroke-linecap="round"/>
<path d="M3.51058 7.07691C3.51058 4.23274 5.94311 2.31607 8.72134 2.09381C11.2977 1.8877 11.8532 4.45956 12.5156 6.52042C14.0128 11.1785 7.68012 11.1604 4.64885 10.6941C0.837471 10.1077 1.47883 3.46572 4.4212 2.32146C8.57513 0.706046 9.86752 5.55805 11.1496 8.44284C12.6989 11.9286 8.09215 12.0853 6.14125 12.0853C3.1679 12.0853 1.63555 10.8663 3.30822 7.75987C4.29745 5.92273 8.91991 1.71002 9.85961 5.93864C10.2539 7.71288 7.69146 9.47811 6.69774 7.98753" stroke="#FF6B00" stroke-width="3" stroke-linecap="round"/>
</svg>
