<svg width="34" height="31" viewBox="0 0 34 31" fill="none" xmlns="http://www.w3.org/2000/svg">
<path d="M10.4128 15.9006C10.1417 15.9006 8.45266 15.8198 8.44533 15.4237C8.44167 15.2929 8.93261 14.8122 9.02054 14.6737C9.18541 14.4084 9.32099 14.1238 9.49319 13.8584C9.80828 13.3661 10.16 12.9084 10.5521 12.4815C10.8305 12.1777 11.1602 11.9546 11.4204 11.6315C12.0506 10.8431 12.8053 10.1547 13.4795 9.40474C14.3881 8.38939 15.1685 7.26636 16.0478 6.22409C16.3593 5.85488 16.689 5.50874 16.9858 5.12414C17.1616 4.89723 17.3705 4.64337 17.506 4.38184C17.5573 4.28569 17.5976 4.01649 17.7405 4.00879C17.8724 4.0011 17.9823 4.17418 18.0703 4.25494C18.902 4.70492 19.7447 5.14338 20.591 5.56259C21.463 6.00488 22.2911 6.5202 23.0788 7.10864C24.8118 8.32013 26.5814 9.63548 28.0836 11.1662C28.6368 11.7277 29.2047 12.2354 29.7836 12.7546C30.5164 13.4123 29.1058 13.9353 28.6332 14.143C27.4424 14.6622 26.1418 14.9199 24.8924 15.2506C24.3318 15.3968 23.7932 15.6006 23.2143 15.6468C23.262 16.5429 23.4268 17.4236 23.4891 18.3236C23.61 20.0812 23.5514 21.8388 23.6064 23.6003C23.6357 24.6464 23.7016 25.6887 23.7163 26.7348C23.72 27.0001 23.8408 27.6617 23.5441 27.8001C23.3096 27.9117 22.8553 27.8809 22.5988 27.9232C21.0417 28.1885 19.4882 28.504 17.942 28.8232C16.5131 29.1193 15.0293 29.4885 13.648 30C13.5747 29.1962 13.681 28.2924 13.6663 27.5078C13.6334 25.4656 13.4831 23.4311 13.4245 21.3888C13.3695 19.5043 13.2413 17.5736 13.8275 15.766C13.3549 15.7121 12.8822 15.7391 12.4133 15.8468C11.7428 15.8852 11.076 15.9006 10.4128 15.9006Z" stroke="#6736D0" stroke-width="2" stroke-miterlimit="10" stroke-linecap="round" stroke-linejoin="round"/>
<path d="M30.7657 8.73182C30.6338 6.50114 30.3407 4.31276 30.1465 2.08977C29.2709 3.38203 28.8788 4.26274 28.4941 5.81267C28.6627 4.53196 28.9521 3.14355 29.4504 1.96283C29.597 1.61669 29.7179 1.0744 30.1062 1.00518C30.7144 0.889796 31.5938 2.73976 31.6963 2.91667C32.114 3.65895 32.5427 4.37431 33.0007 5.08582" stroke="#6736D0" stroke-width="2" stroke-miterlimit="10" stroke-linecap="round" stroke-linejoin="round"/>
<path d="M3.80649 23.908C3.74421 25.5579 3.78084 27.2386 3.86877 28.8808C3.88709 29.2269 3.96405 29.6423 3.93107 30C3.93107 29.8769 3.93107 29.7577 3.93107 29.6347" stroke="#6736D0" stroke-width="2" stroke-miterlimit="10" stroke-linecap="round" stroke-linejoin="round"/>
<path d="M4.30478 20.5234C3.55736 21.7887 2.84292 23.0733 2.14312 24.3694C1.79506 25.0155 1.47997 25.7501 1 26.3001C1.39203 25.3924 1.87198 24.5386 2.35928 23.681C2.60476 23.2156 2.87222 22.7656 3.16533 22.331C3.36684 21.958 3.616 21.6234 3.91277 21.3272C4.3048 21.1272 4.61989 21.4657 4.89468 21.7349C5.2574 22.3003 5.53585 22.9079 5.73003 23.554C5.88025 24.0348 6.0671 24.5002 6.29792 24.9501" stroke="#6736D0" stroke-width="2" stroke-miterlimit="10" stroke-linecap="round" stroke-linejoin="round"/>
</svg>
