<svg width="27" height="16" viewBox="0 0 27 16" fill="none" xmlns="http://www.w3.org/2000/svg">
<path d="M21.4261 2.13073C20.9136 1.90025 20.3198 1.95719 19.7748 1.89211C19.3219 1.81348 18.8664 1.74296 18.4136 1.67789C17.5621 1.57756 16.7107 1.51793 15.8566 1.49623C14.4656 1.43658 13.08 1.46369 11.6889 1.45827C10.6233 1.45285 9.39766 1.45012 8.41337 1C8.47845 1.1871 6.61833 2.67575 7.01693 2.33138C6.37158 2.89267 5.72623 3.45127 5.08088 4.00985C3.74137 5.17581 2.3856 6.32009 1 7.43182C1.52604 7.64603 1.59111 7.93343 2.15782 8.01478C3.41598 8.19374 4.66871 8.34019 5.91874 8.58152C7.2718 8.84183 8.63843 8.99367 10.0105 9.1184C11.5479 9.2594 13.0935 9.31635 14.631 9.4682C15.2085 9.52514 15.7671 9.62274 16.3338 9.75289C16.83 9.86678 17.3235 10.0403 17.8279 10.1189C18.5736 10.2328 19.2623 9.99151 19.9944 9.92643C19.9619 9.52241 20.4201 8.83097 20.5693 8.37001C20.8621 7.46164 21.1522 6.55057 21.4261 5.63406C21.6159 5.00498 21.7325 4.34064 21.963 3.72241C22.1203 3.28585 21.2553 2.56186 21.4261 2.13073Z" stroke="#6736D0" stroke-width="2" stroke-miterlimit="10" stroke-linecap="round" stroke-linejoin="round"/>
<path d="M6.14135 8.93945C6.11695 9.13468 6.16035 9.3272 6.27152 9.51159C6.45319 10.119 6.61587 10.7291 6.76501 11.3446C6.84635 11.7378 6.89788 12.1337 6.925 12.535C6.9033 12.6597 6.91957 12.7736 6.9738 12.8766C6.96296 13.0719 7.10125 13.2481 7.22056 13.3891C7.55679 13.7931 8.05842 14.0155 8.52751 14.2297C9.7206 14.772 11.0303 15.0079 12.3373 14.9998C13.7364 14.9916 15.1003 14.5008 16.3883 13.9829C16.711 13.8528 17.0418 13.7253 17.3482 13.5572C17.4756 13.4867 17.5868 13.3891 17.7197 13.3268C17.6302 12.8631 17.9285 11.9547 18.102 11.4992C18.2349 11.1467 18.5114 10.8891 18.628 10.5257" stroke="#6736D0" stroke-width="2" stroke-miterlimit="10" stroke-linecap="round" stroke-linejoin="round"/>
<path d="M21.8026 2.81152C22.1822 3.12064 22.5862 3.31046 23.0011 3.56806C23.3237 3.76871 23.6925 4.01001 23.9583 4.28659C24.2186 4.55775 24.308 4.86957 24.384 5.23292C24.4762 5.6749 24.4626 6.08166 24.327 6.5128C24.205 6.89784 24.0315 7.25032 23.8552 7.61095C23.4132 8.51119 23.2071 9.54158 23.0906 10.5313C23.0851 10.4283 23.0987 10.6398 22.9929 10.6669C22.5293 10.7916 22.2445 11.5102 22.0195 11.8762C21.4582 12.79 20.9186 13.7201 20.3438 14.6284C20.6583 14.0183 21.1491 13.5303 21.5965 13.0178C22.1361 12.3969 22.5537 11.7407 22.9984 11.0519C22.9794 11.117 22.9496 11.1794 22.9116 11.2363C22.7272 11.6213 22.5672 12.0172 22.4344 12.4212C22.1605 13.1967 21.9436 13.9858 21.8026 14.7966C22.2256 13.8285 22.551 12.8253 22.9197 11.8356C23.0065 11.5725 23.1204 11.3204 23.256 11.0763C23.2695 10.9624 23.3156 10.8784 23.3997 10.8242C23.4132 11.6566 23.4132 12.5324 23.5488 13.3567C23.5678 13.4788 23.5705 13.7933 23.6871 13.8665C23.6871 12.8443 23.5461 11.8274 23.5217 10.8052C23.9962 11.1061 24.1941 11.9278 24.4246 12.4348C24.7066 13.0503 24.9697 13.6523 25.1351 14.3112" stroke="#6736D0" stroke-width="2" stroke-miterlimit="10" stroke-linecap="round" stroke-linejoin="round"/>
</svg>
