<svg width="23" height="20" viewBox="0 0 23 20" fill="none" xmlns="http://www.w3.org/2000/svg">
<path d="M12.0077 17.6407C10.7838 16.8284 9.29503 16.2299 8.02558 15.4256C6.39706 14.3939 5.09975 13.0871 3.81592 11.738C1.95862 9.78613 1 8.30712 1 5.81003C1 2.61965 6.26999 -0.724334 9.19177 2.0091C10.1158 2.87359 10.6607 4.57151 11.8655 5.18073C12.3569 5.42926 12.8254 5.77853 13.2308 6.13726C13.6439 6.50289 14.135 4.67229 14.5818 4.40041C15.7159 3.71041 17.0513 3.31942 18.3506 2.96562C19.1227 2.75538 19.9277 2.44828 20.5834 3.02855C21.0969 3.48295 21.6975 4.96358 21.7354 5.63382C21.7836 6.48688 22.2145 7.25589 21.8634 8.12582C21.4557 9.13598 20.4162 9.80041 20.0004 10.794C19.5274 11.9242 18.647 12.7712 17.7817 13.6762C16.9615 14.534 16.5173 15.5513 15.8476 16.4577C15.373 17.1 13.745 19 12.7757 19" stroke="#6736D0" stroke-width="2" stroke-linecap="round"/>
</svg>
