<svg width="26" height="23" viewBox="0 0 26 23" fill="none" xmlns="http://www.w3.org/2000/svg">
<path d="M1.71224 13.4425C1.64005 13.0794 2.34075 12.2789 2.42992 12.1537C3.00747 11.3319 3.602 10.3743 4.28784 9.63115C5.3134 8.51641 6.79549 7.66707 8.20538 7.15535C10.0378 6.49075 11.9106 6.0491 13.8237 5.69662C14.5329 5.5671 15.2421 5.46306 15.9661 5.46094C16.584 5.46094 17.1127 5.68388 17.6903 5.88348C18.6521 6.21472 19.7011 6.54596 20.5674 7.08529C21.3021 7.54393 22.0304 8.00892 22.7756 8.44845C23.3723 8.80092 23.6356 9.23408 23.9732 9.83286C24.1728 10.1853 24.3788 10.5803 24.6527 10.886C24.7864 11.0368 24.9563 11.0984 25.0009 11.3107" stroke="#6736D0" stroke-width="2" stroke-miterlimit="10" stroke-linecap="round" stroke-linejoin="round"/>
<path d="M1.93228 11.9753C1.85584 11.8925 1.78152 11.8076 1.70508 11.7248C1.79426 13.1538 3.80292 15.1178 4.54397 15.827C6.10461 17.3218 8.315 18.4345 10.1665 18.9228C12.5977 19.5641 15.0035 19.322 17.4283 18.8039C18.1609 18.6468 18.8552 18.7211 19.5347 18.324C20.2417 17.91 21.0762 17.5278 21.7408 17.0012C22.3884 16.4874 23.053 15.4576 23.4373 14.5764C23.707 13.9585 23.8811 13.2238 24.1763 12.6272C24.4077 12.1579 24.7559 11.78 25.0001 11.3086" stroke="#6736D0" stroke-width="2" stroke-miterlimit="10" stroke-linecap="round" stroke-linejoin="round"/>
<path d="M5.26576 7.93078C4.74342 8.20894 3.65841 7.03048 3.35265 6.77781C2.59887 6.15779 1.8281 5.60361 1 5.08765" stroke="#6736D0" stroke-width="2" stroke-miterlimit="10" stroke-linecap="round" stroke-linejoin="round"/>
<path d="M12.733 5.79871C12.6078 4.18499 12.5568 2.62435 12.5547 1" stroke="#6736D0" stroke-width="2" stroke-miterlimit="10" stroke-linecap="round" stroke-linejoin="round"/>
<path d="M21.9766 7.57594C22.104 6.84339 23.2357 6.08325 23.7538 5.62036" stroke="#6736D0" stroke-width="2" stroke-miterlimit="10" stroke-linecap="round" stroke-linejoin="round"/>
<path d="M10.7072 8.71197C9.63918 9.29164 8.95972 9.95624 8.66033 11.1772C8.3206 12.5594 8.87903 13.706 9.87062 14.6806C11.168 15.9568 12.5205 16.46 14.3424 16.339C15.4252 16.2668 16.5655 15.7975 17.3999 15.1138C18.2217 14.4386 19.0392 13.447 18.7631 12.3195C18.4276 10.9478 17.5889 9.48699 16.402 8.69287C15.4741 8.07286 14.6885 7.98579 13.5886 7.99641C12.4016 8.00915 11.6096 7.95607 10.7072 8.71197Z" stroke="#6736D0" stroke-width="2" stroke-miterlimit="10" stroke-linecap="round" stroke-linejoin="round"/>
<path d="M6.50902 17.5298C6.46231 17.8716 6.09285 18.1264 5.88052 18.377C5.53017 18.7868 5.22866 19.2285 4.91016 19.6637" stroke="#6736D0" stroke-width="2" stroke-miterlimit="10" stroke-linecap="round" stroke-linejoin="round"/>
<path d="M15.5777 19.8423C15.5671 20.5812 15.6096 21.2479 15.7561 21.9762" stroke="#6736D0" stroke-width="2" stroke-miterlimit="10" stroke-linecap="round" stroke-linejoin="round"/>
<path d="M21.7969 16.6426C22.6547 17.4983 23.3894 18.0227 24.4638 18.5982" stroke="#6736D0" stroke-width="2" stroke-miterlimit="10" stroke-linecap="round" stroke-linejoin="round"/>
<path d="M11.1523 8.80086C12.0356 9.58012 13.0081 10.2617 13.8766 11.058C14.1505 11.3085 14.4074 11.5782 14.6686 11.8414C14.7514 11.9243 14.8321 12.0368 14.934 12.0984C14.9658 11.9943 14.9425 11.8712 14.9573 11.7629C15.0041 11.4338 15.1633 11.0622 15.278 10.7628C15.433 10.3594 15.5816 9.95808 15.7239 9.5504C15.7536 9.46759 15.9277 9.14271 15.8343 9.08963C15.5561 9.29984 15.3693 10.1067 15.2992 10.3254C15.193 10.6567 15.1187 11.3043 14.7981 11.4869C15.055 10.4698 15.4585 9.49517 15.6772 8.46961C15.1102 9.37414 14.7854 10.3976 14.3671 11.3701C14.4966 10.731 14.7004 10.1109 14.8852 9.48456C14.9743 9.1788 15.2737 8.52694 15.1973 8.17871C14.6006 8.90064 14.2673 9.80519 13.9658 10.6821C14.1441 9.88163 14.4477 9.12784 14.6707 8.34434C14.3862 8.92825 14.1632 9.55463 13.8426 10.1173C13.9679 9.48243 14.1781 8.86244 14.2503 8.22119C13.9764 8.32311 13.8575 8.74565 13.7258 8.98984C13.6706 9.09388 13.4562 9.66292 13.3373 9.71812C13.4222 9.27435 13.5262 8.83482 13.6282 8.39529C13.4158 8.84544 13.2948 9.35081 13.1292 9.82219C13.0824 9.36355 13.1249 8.87941 13.1462 8.41865C12.9805 8.81783 12.8234 9.27859 12.5113 9.58435C12.3096 9.27222 12.2671 8.82208 12.0165 8.55454C11.9592 8.66496 11.9974 8.77112 12.1291 8.86879C12.3541 9.20003 12.6302 9.47607 12.9593 9.69902C13.5199 10.147 14.2036 10.4443 14.7238 10.9369C14.2248 10.4592 13.7428 9.98993 13.1653 9.60561C12.73 9.31471 12.1482 8.92401 11.5982 8.95586C12.3669 9.6332 13.3139 10.0961 14.1186 10.7395C13.9169 10.5717 13.7173 10.3997 13.522 10.2256" stroke="#6736D0" stroke-width="2" stroke-miterlimit="10" stroke-linecap="round" stroke-linejoin="round"/>
<path d="M14.2339 15.7527C14.217 15.5977 14.3465 15.4193 14.4208 15.2919C14.5716 15.0308 14.7096 14.7632 14.8518 14.4978C14.9495 14.3131 15.0323 14.1008 15.1406 13.9266C15.1852 13.8523 15.1618 13.7886 15.2553 13.7653C15.4421 13.7207 15.767 14.0179 15.888 14.1177C16.2723 14.4341 16.5547 14.8545 16.9199 15.1964C16.5526 14.7993 16.1025 14.4341 15.6629 14.1177C15.5929 14.3237 15.6672 14.5573 15.7012 14.7675C15.7288 14.9501 15.7458 15.1836 15.8307 15.3535C15.7415 14.9904 15.5907 14.6401 15.3678 14.3407C15.2192 14.7505 15.2064 15.2325 15.1809 15.6656C15.1257 15.4023 15.0811 15.1348 15.0408 14.8694C15.0153 14.6995 15.0217 14.4851 14.9283 14.3364C14.7648 14.7802 14.7223 15.2728 14.6501 15.74C14.7754 15.6975 14.8476 15.5956 14.8646 15.4342" stroke="#6736D0" stroke-width="2" stroke-miterlimit="10" stroke-linecap="round" stroke-linejoin="round"/>
</svg>
