<svg width="288" height="84" viewBox="0 0 288 84" fill="none" xmlns="http://www.w3.org/2000/svg">
<path d="M197.395 8.02602C171.398 7.64723 83.6609 11.4983 43.0418 13.4711C1.21917 15.3929 -17.4355 35.2515 20.7765 54.191C58.9886 73.1306 191.076 66.265 219.359 63.4241C247.642 60.5831 286.155 45.4315 287.96 29.5696C289.765 13.7078 229.89 8.49951 197.395 8.02602Z" fill="#FAFAFA"/>
<path d="M105.632 12.1045C116.172 12.1045 126.407 11.8341 136.894 11.0917C145.384 10.4905 154.259 11.0107 162.796 11.0107C172.416 11.0107 182.037 11.0107 191.657 11.0107C202.702 11.0107 213.295 12.2898 224.203 13.2793C231.8 13.9685 239.712 13.4885 247.202 14.5757C254.182 15.5887 261.034 17.3498 268.025 18.2218C272.83 18.8211 281.68 20.6205 284.102 24.1365C285.404 26.026 286 28.2501 286 30.3551C286 34.0764 283.435 38.7441 279.971 41.6173C278.268 43.0297 276.299 44.3257 274.277 45.4862C272.423 46.5502 270.077 47.0351 268.192 48.0385C263.51 50.53 257.954 51.5569 252.589 53.1429C245.046 55.373 237.54 57.2894 229.701 58.9361C207.897 63.5167 185.005 64.9724 162.405 64.9724C149.44 64.9724 136.582 65.2507 123.719 64.0406C115.261 63.2449 106.359 61.3263 97.8167 61.3263C84.8248 61.3263 72.6718 58.1244 60.0237 56.6675C53.1481 55.8755 46.2165 53.2112 39.3129 52.9404C35.096 52.775 29.5728 50.8926 25.7477 49.6589C22.7895 48.7048 19.5736 48.6658 16.5925 47.9169C13.1238 47.0456 11.2023 44.9695 8.16305 43.7442C4.95603 42.4512 5.88142 40.3111 4.53448 38.3561C3.72443 37.1804 2.44792 36.5274 2.16195 35.0747C1.94559 33.9756 1.94644 32.5234 2.16195 31.4286C2.64803 28.9594 5.82191 25.9647 8.66547 24.7037C10.5027 23.8889 12.3086 23.2036 14.0804 22.3135C15.5153 21.5926 16.4359 20.453 18.2393 20.1258C20.9224 19.639 23.1182 18.3211 25.636 17.5736C28.0096 16.8689 30.5961 16.4134 33.0606 15.9126C39.1579 14.6737 44.7706 12.7871 51.1198 12.1045C72.2874 9.82872 93.2693 7 114.676 7" stroke="#1A1A1A" stroke-width="1.5" stroke-linecap="round"/>
<path d="M64.6828 18.1486C62.2936 15.494 61.3845 10.4456 60.3845 7.07071C59.8199 5.16503 59.8971 2.99388 59.8971 1" stroke="#1A1A1A" stroke-width="1.5" stroke-linecap="round"/>
<path d="M264.562 62.3516C260.971 64.9809 255.716 65.9785 253.537 66.1487C254.67 68.4053 254.089 71.9025 250.859 75.1002C247.629 78.2979 239.534 81.5472 237.315 79.0753C235.54 77.0978 236.438 74.0097 237.109 72.7128C234.184 72.6598 227.578 71.478 224.548 67.1746C219.941 65.3582 218.822 58.4761 226.092 55.9665C227.313 48.442 235.346 44.7817 239.21 43.892C243.079 41.4606 251.267 36.3711 253.073 35.4647C255.329 34.3316 256.224 36.6538 255.69 42.1923C259.128 41.2483 263.334 41.9767 265.007 42.4589C266.483 42.2248 270.162 42.5328 273.069 45.6376C275.975 48.7425 272.482 54.1006 270.372 56.3916C269.932 57.2827 268.154 59.7222 264.562 62.3516Z" fill="#FAFAFA"/>
<path d="M244.427 48.4183C244.613 48.7454 246.008 47.4177 246.421 47.3043C246.986 47.1493 247.55 46.9944 248.115 46.8394C248.934 46.6144 249.676 47.2669 250.405 47.1548C251.04 47.0572 251.078 46.947 251.697 46.622C252.218 46.3483 254.617 45.5381 255.066 45.9802C255.865 46.7657 257.609 45.9326 258.53 45.6798C259.681 45.3636 260.955 44.8501 261.898 45.8881C262.762 46.8385 264.064 45.9992 265.295 46.2357C266.691 46.5039 267.815 46.0934 269.126 46.9255C270.285 47.6614 270.694 49.1477 271.029 50.3688C271.342 51.5074 269.861 52.2376 268.965 52.6246C268.334 52.8975 268.029 53.6088 267.379 53.8261C267.149 53.9028 265.77 54.4511 266.591 54.7977C267.076 55.0023 265.956 56.5564 265.699 56.7842C265.212 57.2162 264.465 57.2685 263.947 57.6953C263.532 58.0374 262.785 58.1088 262.268 58.2507C261.701 58.4063 261.03 58.0469 260.491 58.3713C260.153 58.575 259.986 59.2643 259.65 59.536C259.15 59.9414 258.618 60.2762 258.139 60.6642C257.128 61.4834 255.351 60.5486 254.763 61.633C254.136 62.7908 252.883 63.4713 251.675 63.8028C250.577 64.1042 248.34 65.0518 247.504 63.8147" stroke="#FF6B00" stroke-width="1.5" stroke-linecap="round"/>
<path d="M243.222 48.4907C243.605 47.9605 244.9 47.2937 245.521 47.0872C246.085 46.8998 246.377 46.3191 246.938 46.1189C248.136 45.6919 249.168 44.5374 250.12 43.7434C251.097 42.9293 251.884 42.2202 252.509 41.1139C252.724 40.7324 252.812 40.1235 252.698 39.7102C252.506 39.0077 251.965 40.0846 251.688 40.3738C250.81 41.2884 249.602 41.7857 248.607 42.421C246.972 43.4656 245.388 44.5399 243.78 45.6342C242.533 46.4832 241.244 47.4463 239.797 47.8862C238.838 48.178 237.778 48.6262 236.854 49.0375C235.683 49.559 234.517 50.4211 233.319 50.8234C232.446 51.1163 231.398 51.8931 230.911 52.6857C230.416 53.4919 229.959 54.3209 229.521 55.1485C229.135 55.878 229.056 56.5442 228.766 57.2867" stroke="#FF6B00" stroke-width="1.5" stroke-linecap="round"/>
<path d="M243.376 49.1677C241.094 49.7942 238.966 51.6422 237.044 52.9936C236.332 53.495 235.655 54.0102 235.27 54.7672C234.805 55.6815 234.972 56.03 235.968 55.7565C237.595 55.3098 239.097 54.4605 240.561 53.6415C241.716 52.9952 243.07 52.668 244.347 52.3174C245.126 52.1034 246.059 51.6785 246.876 51.739C247.849 51.8111 248.853 52.2717 249.803 52.2959C250.906 52.3239 252.129 52.725 253.236 52.9137C254.639 53.1529 256.107 53.4038 257.485 53.7403C258.009 53.8683 258.509 53.9334 257.794 54.1298C256.994 54.3494 256.194 54.5691 255.394 54.7888C252.35 55.6243 249.321 56.2843 246.541 57.7463C244.565 58.7858 242.738 60.7305 240.559 61.3287C237.877 62.0651 235.372 63.8213 232.486 63.3553" stroke="#FF6B00" stroke-width="1.5" stroke-linecap="round"/>
<path d="M240.343 62.2689C241.753 61.8817 242.65 62.2802 243.992 62.8801C245.227 63.4321 246.433 63.9722 247.601 64.6411C248.827 65.3432 251.138 67.2867 250.736 68.915C250.448 70.0801 249.113 71.2625 248.398 72.2032C247.809 72.9783 246.853 73.8444 246.025 74.3728C244.459 75.3721 242.816 76.0848 241.001 76.5111C240.394 76.6536 239.936 76.1222 239.682 75.6398C239.417 75.1373 240.108 74.8583 240.479 74.6091C241.956 73.6175 243.349 72.3767 244.677 71.1794C245.401 70.5264 244.737 69.1506 244.466 68.3485C244.055 67.1356 242.721 67.4994 241.966 68.1809C240.688 69.3324 239.72 69.4612 238.091 69.5398C235.751 69.6525 233.508 68.7363 231.306 68.1658C230.643 67.9942 229.694 66.98 229.262 66.4497C228.639 65.6871 227.828 64.0371 227.941 63.0166C228.051 62.0274 227.548 61.0183 227.693 60.0484C227.829 59.1399 228.083 58.2924 228.253 57.4275" stroke="#FF6B00" stroke-width="1.5" stroke-linecap="round"/>
<path d="M227.256 59.2698C226.554 59.4624 225.434 59.5623 225.168 60.3498C224.971 60.9322 224.344 61.8953 224.559 62.5327C224.632 62.7493 225.907 63.0699 226.157 63.1502C226.561 63.2799 227.344 63.623 227.367 63.1197" stroke="#FF6B00" stroke-width="1.5" stroke-linecap="round"/>
<path d="M34.9806 37.56C34.9166 37.56 34.8686 37.56 34.8046 37.56H34.7566C34.2286 37.464 33.7166 37.32 33.2206 37.112C32.7246 36.952 32.3246 36.664 32.0366 36.248C31.6846 35.72 31.5886 35.192 31.5566 34.776C31.5406 34.488 31.7486 34.248 32.0366 34.216C32.3086 34.2 32.5646 34.408 32.5806 34.696C32.6126 35.128 32.7086 35.416 32.8846 35.656C33.0446 35.896 33.2686 36.056 33.5406 36.136C33.5566 36.152 33.5726 36.152 33.5886 36.152C34.0046 36.328 34.4526 36.456 34.9006 36.536C35.1246 36.552 35.3486 36.52 35.5566 36.472C35.5726 36.472 35.5886 36.456 35.6046 36.456C36.0846 36.376 36.5646 36.232 36.9966 36.008C37.3006 35.784 37.5406 35.512 37.7326 35.16C37.7326 35.144 37.7486 35.128 37.7646 35.112C37.9726 34.824 38.0846 34.52 38.1006 34.184C38.1006 33.816 37.8766 33.416 37.5086 33.192C37.1566 32.984 36.7086 32.968 36.2446 33.016C35.9086 33.272 35.5246 33.48 35.0926 33.64C34.7406 33.752 34.3246 33.88 33.8606 33.88C33.8286 33.88 33.7966 33.88 33.7646 33.896C33.6046 33.896 33.4126 33.912 33.2206 33.848C33.1086 33.8 32.9966 33.72 32.9326 33.608C32.8366 33.448 32.8366 33.256 32.9166 33.08C32.9806 32.936 33.1726 32.552 35.2846 32.136L35.8286 32.04C36.0526 31.848 36.2446 31.64 36.4366 31.432C36.7406 31.112 37.0126 30.776 37.3006 30.408L37.5406 30.168L37.6046 30.12L37.6206 30.104C37.6366 30.04 37.6366 29.944 37.5726 29.832C37.4446 29.64 37.1406 29.448 36.8686 29.416C36.7406 29.384 36.6446 29.384 36.5486 29.384C36.4686 29.4 36.3566 29.432 36.2446 29.464C36.1486 29.496 36.0526 29.528 35.9406 29.544C35.7966 29.576 35.6686 29.608 35.5406 29.624C35.3326 29.64 35.1566 29.672 34.9966 29.736C34.7726 29.832 34.5486 29.976 34.3246 30.12C34.2446 30.168 34.1646 30.216 34.1006 30.264C33.9726 30.344 33.8606 30.456 33.7326 30.584C33.6526 30.664 33.5886 30.728 33.5086 30.792L33.3966 30.888C33.3646 30.984 33.3166 31.064 33.2366 31.128C33.0286 31.32 32.7086 31.304 32.5166 31.096L32.4686 31.048C32.3406 30.888 32.3086 30.664 32.4046 30.472C32.5006 30.28 32.6606 30.168 32.7566 30.088L32.8206 30.04C32.8846 29.992 32.9486 29.928 32.9966 29.864C33.1566 29.72 33.3166 29.544 33.5566 29.4C33.6206 29.352 33.6846 29.32 33.7646 29.272C34.0206 29.096 34.2926 28.92 34.5966 28.792C34.8846 28.68 35.1566 28.632 35.3966 28.6C35.5086 28.584 35.6206 28.568 35.7326 28.552L35.9406 28.488C36.1006 28.44 36.2606 28.392 36.4526 28.376C36.6286 28.36 36.8046 28.36 37.0286 28.392C37.5886 28.488 38.1486 28.84 38.4366 29.288C38.6606 29.64 38.7086 30.04 38.5966 30.424C38.5326 30.696 38.3566 30.84 38.2446 30.92L38.2126 30.952C38.1646 30.984 38.1326 31.016 38.1006 31.064C37.8446 31.384 37.5726 31.704 37.2846 32.024C37.5566 32.072 37.8126 32.168 38.0526 32.312C38.7086 32.728 39.1246 33.464 39.1246 34.216C39.0926 34.776 38.9166 35.256 38.6126 35.688C38.3566 36.152 38.0046 36.552 37.5566 36.856C37.5406 36.872 37.5246 36.888 37.4926 36.904C36.9646 37.176 36.3886 37.368 35.7966 37.464C35.5246 37.528 35.2526 37.56 34.9806 37.56ZM39.5522 37.032C39.4562 37.032 39.3442 37 39.2642 36.936C39.0242 36.792 38.9602 36.472 39.1202 36.232L39.2322 36.008C39.2962 35.896 39.3602 35.752 39.4562 35.608C39.5682 35.464 39.6962 35.32 39.8082 35.192L40.0002 35C40.0962 34.888 40.1922 34.776 40.3042 34.664C40.6242 34.296 40.9762 33.96 41.3122 33.624L42.8002 33.576C42.5762 33.8 42.3362 34.056 42.0962 34.28L41.7442 34.632C41.2642 34.648 40.7842 34.664 40.3042 34.664C40.2082 34.664 40.1282 34.664 40.0482 34.664H39.7602C39.4882 34.664 39.2642 34.44 39.2642 34.152C39.2642 33.864 39.4882 33.64 39.7762 33.64H39.8242H39.8402C40.3202 33.64 40.8162 33.64 41.3122 33.624C41.3282 33.608 41.3602 33.576 41.3762 33.56L42.0962 32.824C43.2002 31.688 44.4962 30.392 46.1122 29.48C46.6242 29.208 47.0402 29.064 47.4882 29.016C47.7922 28.984 48.0642 29 48.3042 29.032C48.3842 29.048 48.4642 29.048 48.5442 29.064C48.6562 29 48.7842 28.984 48.9122 29.032C49.1682 29.096 49.3282 29.352 49.2802 29.608L49.2642 29.672C49.2482 29.752 49.2162 29.816 49.1842 29.88C48.9122 30.536 48.6722 31.224 48.4322 31.88C48.2722 32.36 48.0802 32.872 47.8882 33.368C47.8722 33.448 47.8402 33.512 47.8082 33.592C47.7122 33.864 47.6002 34.136 47.5042 34.392C47.1362 34.392 46.7682 34.408 46.4002 34.424C46.5282 34.072 46.6722 33.736 46.8002 33.384C47.1522 33.368 47.5042 33.368 47.8562 33.368H47.8882C48.3842 33.384 48.8322 33.448 49.2482 33.512C49.6482 33.576 50.0322 33.64 50.4162 33.64C50.7042 33.64 50.9282 33.88 50.9122 34.168C50.9122 34.44 50.6882 34.68 50.4002 34.664C49.9362 34.664 49.5042 34.584 49.0882 34.52C48.6722 34.456 48.2722 34.392 47.8722 34.392C47.7442 34.392 47.6322 34.392 47.5042 34.392L46.8802 36.072L46.8482 36.136C46.7682 36.344 46.6882 36.584 46.5122 36.792C46.3842 36.968 46.1442 37.032 45.9362 36.952C45.7282 36.888 45.6002 36.68 45.6002 36.456L45.6162 36.344C45.6162 36.184 45.6962 36.04 45.8242 35.96C45.8402 35.896 45.8722 35.832 45.8882 35.784L45.9202 35.704C46.0642 35.304 46.2242 34.872 46.4002 34.424C45.6002 34.44 44.8162 34.488 44.0322 34.536C43.2802 34.568 42.5122 34.616 41.7442 34.632C41.4082 34.968 41.0722 35.32 40.7682 35.672C40.7042 35.752 40.6402 35.816 40.5602 35.896L40.2882 36.216C40.2402 36.28 40.1922 36.36 40.1602 36.456C40.1122 36.568 40.0482 36.68 39.9682 36.792C39.8722 36.952 39.7122 37.032 39.5522 37.032ZM42.8002 33.576C43.2002 33.544 43.6002 33.528 43.9842 33.512C44.9122 33.448 45.8562 33.4 46.8002 33.384L46.8642 33.224C47.0722 32.664 47.2802 32.104 47.4722 31.544C47.6482 31.048 47.8242 30.536 48.0162 30.04C47.8722 30.024 47.7442 30.008 47.6002 30.024C47.2962 30.056 47.0082 30.168 46.6242 30.376C45.1202 31.224 43.9362 32.408 42.8322 33.544L42.8002 33.576ZM51.6813 38.04C51.6013 38.04 51.5213 38.024 51.4413 37.992C51.2333 37.88 51.1373 37.64 51.1853 37.416C51.2813 37 51.4573 36.616 51.6973 36.248C52.0013 35.576 52.2733 34.904 52.5133 34.2C52.6413 33.864 52.7373 33.512 52.8493 33.176C53.2173 33.16 53.5853 33.128 53.9533 33.096L53.9053 33.24C53.8093 33.544 53.7293 33.848 53.6173 34.168C53.2653 34.184 52.8813 34.216 52.5133 34.2C51.9853 34.184 51.4733 34.12 50.9773 33.928C50.7053 33.816 50.5773 33.528 50.6733 33.256C50.7693 33 51.0733 32.872 51.3293 32.968C51.7773 33.128 52.3053 33.176 52.8493 33.176C52.8653 33.096 52.8973 33.016 52.9133 32.936C53.0573 32.472 53.1853 31.976 53.3133 31.496C53.5853 30.488 53.8573 29.448 54.3053 28.472C54.4333 28.216 54.7373 28.104 54.9933 28.216C55.2493 28.328 55.3613 28.632 55.2333 28.904C54.8333 29.784 54.5613 30.792 54.3053 31.768C54.1933 32.2 54.0813 32.648 53.9533 33.096C54.0813 33.08 54.2093 33.064 54.3373 33.048L54.7373 33C55.8573 32.888 56.9933 32.76 58.1133 32.6C58.8653 32.376 59.6013 32.328 60.3373 32.456C60.5293 32.488 60.7053 32.536 60.8813 32.584C61.0093 32.616 61.1213 32.696 61.1853 32.808C61.2173 32.856 61.2333 32.904 61.2493 32.952C61.1053 33.4 60.9613 33.816 60.8333 34.232C60.7853 34.248 60.7213 34.248 60.6733 34.248C60.5613 34.248 60.4493 34.2 60.3533 34.12C60.1613 33.96 60.1133 33.688 60.2413 33.48C60.1613 33.464 60.0813 33.448 60.0173 33.448C60.1133 33.128 60.2253 32.792 60.3373 32.456C60.5293 31.896 60.7373 31.32 60.9613 30.696C61.2173 30.04 61.4573 29.384 61.6973 28.728C61.7133 28.68 61.7453 28.632 61.7773 28.6L61.7933 28.568C61.7453 28.28 61.9373 28.024 62.2253 27.976C62.4973 27.944 62.7693 28.136 62.8013 28.408C62.8493 28.68 62.7853 28.92 62.6413 29.16L61.9213 31.048C61.6813 31.72 61.4573 32.344 61.2493 32.952C61.4093 33.336 61.3453 33.736 61.0733 34.056C61.0093 34.136 60.9293 34.2 60.8333 34.232C60.6253 34.888 60.4173 35.512 60.2413 36.136C60.1133 36.6 60.0333 37.048 59.9373 37.544C59.9213 37.672 59.8893 37.832 59.7773 38.008C59.6813 38.168 59.5213 38.248 59.3453 38.248C59.2493 38.248 59.1533 38.216 59.0733 38.152C58.8333 38.008 58.7693 37.688 58.9133 37.448C58.9293 37.432 58.9293 37.4 58.9293 37.368C59.0253 36.84 59.1213 36.36 59.2653 35.848C59.4893 35.08 59.7293 34.28 60.0173 33.448C59.4733 33.384 58.9293 33.416 58.3693 33.592C58.3373 33.608 58.3213 33.608 58.2893 33.608C57.1373 33.768 55.9853 33.912 54.8333 34.024C54.7213 34.04 54.5933 34.056 54.4653 34.072L53.6173 34.168C53.3453 35.032 53.0093 35.88 52.6253 36.712C52.6093 36.744 52.5933 36.776 52.5773 36.792L52.4813 36.936C52.5613 37.128 52.5293 37.336 52.4013 37.496L52.0653 37.88C51.9693 37.992 51.8253 38.04 51.6813 38.04ZM68.1133 34.264C67.9693 34.264 67.8413 34.216 67.7293 34.104L67.3453 33.704C67.5693 33.432 67.7773 33.16 68.0013 32.904C68.1613 33.064 68.3373 33.24 68.4973 33.416C68.5773 33.512 68.6253 33.624 68.6253 33.736C68.4813 33.912 68.3533 34.088 68.2093 34.264H68.1133ZM62.7693 36.04C62.8493 35.768 63.1213 35.608 63.3933 35.688C64.0333 35.88 64.5773 36.12 65.0093 36.328C65.2013 36.424 65.2973 36.408 65.7293 35.816L65.7613 35.768C66.2893 35.064 66.8173 34.376 67.3453 33.704C67.1213 33.48 66.8973 33.272 66.6573 33.048C66.2733 32.712 65.9053 32.376 65.5533 31.992C65.2173 31.624 64.8973 31.24 64.6093 30.856C64.3693 30.552 64.1293 30.248 63.8733 29.976C63.6173 29.944 63.4253 29.736 63.4093 29.48V29.272C63.3933 29.064 63.5213 28.872 63.7133 28.792C63.9053 28.712 64.1293 28.744 64.2733 28.888C64.6893 29.32 65.0573 29.784 65.4093 30.232C65.7133 30.6 65.9853 30.968 66.2893 31.288C66.6253 31.64 66.9773 31.96 67.3453 32.296L68.0013 32.904C68.5933 32.184 69.1693 31.496 69.6973 30.856L70.0653 30.44C70.5133 29.928 70.9293 29.464 71.1693 28.92C71.2973 28.664 71.5853 28.552 71.8573 28.664C72.1133 28.776 72.2253 29.08 72.1133 29.336C71.7933 30.024 71.3133 30.584 70.8333 31.112C70.7213 31.256 70.5933 31.384 70.4813 31.512C69.8893 32.2 69.2653 32.952 68.6253 33.736C68.6253 33.88 68.5773 34.024 68.4493 34.136C68.3853 34.2 68.3053 34.248 68.2093 34.264C67.6653 34.936 67.1213 35.656 66.5933 36.376L66.5613 36.424C66.2893 36.792 65.8413 37.4 65.1533 37.4C64.9773 37.4 64.7853 37.352 64.5613 37.256C64.0013 36.984 63.5693 36.808 63.1213 36.68C62.8493 36.6 62.6893 36.312 62.7693 36.04ZM75.1982 32.776L75.1022 33H75.1662C75.5182 33.032 75.8382 33.064 76.1742 33.048H76.1902C76.9902 33.016 78.1902 32.968 78.8942 32.6C79.6302 32.216 80.2222 31.64 80.6062 30.952C80.6222 30.92 80.6382 30.888 80.6702 30.856C80.8142 30.68 80.8462 30.504 80.7502 30.28C80.6542 30.056 80.4942 29.912 80.2702 29.816L80.2222 29.784C79.7262 29.496 79.1342 29.416 78.5102 29.32H78.4302C77.6782 29.208 77.0862 29.224 76.5902 29.352C76.5742 29.368 76.5742 29.384 76.5582 29.416C76.6062 29.912 75.7422 31.944 75.2302 32.744C75.2142 32.744 75.2142 32.76 75.1982 32.776ZM71.9822 36.888C72.4302 36.344 72.7662 35.736 72.9902 35.048C72.9902 35.032 73.0062 35.016 73.0222 34.984L73.6142 33.72C73.5822 33.656 73.5502 33.56 73.5502 33.48C73.5342 33.208 73.7262 32.984 73.9822 32.952L74.2862 32.344L74.3342 32.248C74.5902 31.816 75.3582 30.28 75.5182 29.672C75.5182 29.656 75.5022 29.64 75.5022 29.624C75.5022 29.288 75.6462 28.552 76.2062 28.392C76.8782 28.2 77.6302 28.168 78.5742 28.296L78.6542 28.312C79.3422 28.408 80.0462 28.504 80.7022 28.888C81.1502 29.08 81.4862 29.416 81.6942 29.88C81.9342 30.472 81.8542 31.016 81.4862 31.48C81.0062 32.344 80.2702 33.048 79.3582 33.512C78.4622 33.976 77.1822 34.024 76.2382 34.072H76.2062C75.8062 34.088 75.4382 34.056 75.0702 34.024C74.9262 34.008 74.7822 33.992 74.6382 33.992L73.9502 35.4C73.6942 36.2 73.2942 36.92 72.7662 37.544C72.6702 37.656 72.5262 37.72 72.3822 37.72C72.2702 37.72 72.1422 37.688 72.0462 37.608C71.8382 37.416 71.8062 37.096 71.9822 36.888ZM85.2763 37.32C84.5403 37.32 84.0283 36.968 83.5163 36.568C82.0763 35.448 81.2603 33.176 82.4283 31.464C83.2923 30.184 84.8763 28.824 86.7323 28.824H86.7963C87.4043 28.84 88.1083 29.176 88.5563 29.672C88.9243 30.056 89.0843 30.504 89.0523 30.952C89.0363 31.24 88.7963 31.448 88.5083 31.432C88.2363 31.4 88.0123 31.16 88.0443 30.872C88.0443 30.68 87.9163 30.488 87.8043 30.36C87.5483 30.072 87.1003 29.864 86.7803 29.848C85.3083 29.832 83.9643 31.016 83.2763 32.024C82.4443 33.256 83.0683 34.92 84.1403 35.768C84.6683 36.184 84.9723 36.344 85.4523 36.296C86.0443 36.12 86.6203 35.88 87.1803 35.576C87.7883 35.288 88.3803 34.984 88.9563 34.664C89.2123 34.52 89.5163 34.616 89.6603 34.856C89.7883 35.112 89.7083 35.416 89.4523 35.56C88.8603 35.88 88.2523 36.2 87.6443 36.488C87.0363 36.824 86.3803 37.08 85.7083 37.288C85.6763 37.288 85.6603 37.304 85.6283 37.304C85.5163 37.32 85.3883 37.32 85.2763 37.32ZM91.3403 32.888C91.3723 32.904 91.3883 32.936 91.4043 32.952C91.4843 33.096 91.6443 33.272 92.0603 33.304C92.1083 33.32 92.1403 33.32 92.1723 33.336C93.0203 33.592 93.8843 33.672 94.7643 33.576C95.3563 33.528 95.8683 33.4 96.4283 33.272C96.5723 33.224 96.7323 33.192 96.9083 33.144C97.1163 33.096 97.3563 33.064 97.5963 33.112C97.6123 33.016 97.6443 32.936 97.6763 32.856C97.7723 32.616 97.8843 32.28 98.0283 31.912C98.2843 31.208 98.6203 30.36 98.8763 29.672C98.9083 29.576 98.9563 29.496 98.9883 29.4C98.7643 29.416 98.5403 29.416 98.3163 29.416C97.0683 29.464 95.8203 29.704 94.5403 30.136C93.2443 30.568 92.3483 31.112 91.8203 31.8C91.5803 32.088 91.4523 32.392 91.4043 32.728C91.3883 32.792 91.3723 32.84 91.3403 32.888ZM89.3723 37.368C89.3243 37.096 89.5163 36.824 89.7883 36.776C91.1803 36.536 92.6203 35.976 94.2203 35.08C94.4923 34.936 94.7803 34.76 95.0523 34.584C94.9883 34.584 94.9243 34.584 94.8603 34.6C93.8843 34.712 92.8763 34.616 91.9163 34.328C91.3403 34.264 90.8763 34.008 90.5723 33.56C90.2843 33.272 90.2203 32.888 90.3963 32.488C90.4923 31.992 90.7003 31.544 91.0203 31.16C91.6763 30.328 92.7163 29.672 94.2203 29.16C95.5963 28.696 96.9403 28.456 98.3003 28.392H98.3163C98.6843 28.392 99.0363 28.392 99.3883 28.36C99.4683 28.312 99.5323 28.264 99.6123 28.232C99.7243 28.168 99.8523 28.152 100.028 28.216C100.268 28.312 100.412 28.568 100.348 28.824C100.316 28.888 100.3 28.952 100.252 29.016C100.028 29.48 98.7163 32.968 98.5243 33.512C98.5243 33.528 98.5083 33.544 98.5083 33.56C98.0923 34.664 97.6603 35.784 97.2123 36.872C97.1643 37.176 97.0203 37.448 96.8123 37.64C96.6523 37.8 96.3963 37.816 96.2043 37.704C96.0123 37.592 95.9163 37.368 95.9643 37.144L96.0283 36.888C96.0603 36.76 96.1243 36.664 96.2203 36.584C96.2203 36.584 96.2363 36.568 96.2363 36.552L97.0523 34.52C96.7003 34.728 96.3643 34.952 96.0283 35.16C95.5963 35.448 95.1643 35.72 94.7163 35.976C93.0203 36.936 91.4683 37.528 89.9643 37.784C89.9323 37.8 89.9003 37.8 89.8683 37.8C89.6283 37.8 89.4203 37.624 89.3723 37.368ZM114.355 34.84C114.195 34.84 114.035 34.776 113.939 34.632L113.699 34.328C113.491 34.104 113.267 33.896 113.011 33.672C112.995 33.656 112.979 33.64 112.947 33.624C113.187 33.368 113.411 33.112 113.635 32.84L113.715 32.92C113.923 33.128 114.163 33.336 114.371 33.56C114.147 33.816 113.923 34.072 113.699 34.328L113.619 34.424C113.091 35.048 112.515 35.672 111.907 36.248L111.827 36.296L111.059 36.808C111.043 36.808 111.027 36.824 111.011 36.824C110.771 36.952 110.547 37 110.323 37C109.987 37 109.683 36.888 109.395 36.648L108.835 36.264C108.819 36.264 108.803 36.248 108.803 36.232C108.787 36.232 108.787 36.232 108.771 36.216C108.595 36.424 108.307 36.44 108.083 36.28C107.859 36.12 107.811 35.8 107.987 35.576C108.211 35.272 108.467 35.192 108.643 35.16C108.899 35.128 109.171 35.224 109.427 35.432L109.987 35.816C110.019 35.816 110.035 35.832 110.051 35.848C110.211 35.992 110.339 36.008 110.531 35.928L111.235 35.464C111.795 34.936 112.339 34.36 112.835 33.752C112.867 33.704 112.915 33.656 112.947 33.624C112.755 33.432 112.547 33.24 112.339 33.016C111.651 32.28 111.027 31.464 110.435 30.68C110.259 30.44 110.083 30.2 109.907 29.976C109.763 29.928 109.635 29.832 109.587 29.688C109.443 29.368 109.571 29.032 109.859 28.904C110.083 28.808 110.339 28.856 110.483 29.048C110.739 29.384 110.995 29.72 111.251 30.072C111.843 30.824 112.435 31.624 113.091 32.312C113.267 32.488 113.443 32.664 113.635 32.84C114.099 32.312 114.563 31.768 115.011 31.208C115.379 30.744 115.779 30.264 116.179 29.8L116.227 29.752C116.307 29.672 116.371 29.592 116.419 29.48C116.547 29.224 116.851 29.112 117.107 29.24C117.363 29.368 117.475 29.672 117.347 29.928C117.251 30.136 117.107 30.328 116.947 30.488C116.563 30.936 116.179 31.4 115.795 31.864C115.331 32.424 114.851 33 114.371 33.56C114.515 33.704 114.643 33.864 114.771 34.024C114.931 34.264 114.883 34.584 114.659 34.744C114.563 34.808 114.451 34.84 114.355 34.84ZM128.959 37.688H128.943L127.743 37.64H127.679C126.879 37.496 126.287 37.08 125.919 36.408C125.231 35.496 124.975 34.536 125.119 33.48C125.263 32.472 125.999 31.48 126.543 30.824C128.895 27.928 130.543 28.488 131.151 28.872C131.951 29.368 132.431 30.344 132.303 31.224C132.255 31.48 132.031 31.672 131.759 31.656C131.503 31.64 131.295 31.432 131.279 31.176V31.064C131.263 31.016 131.279 30.952 131.295 30.904C131.279 30.456 131.023 29.992 130.607 29.736C129.439 29 127.679 31.048 127.343 31.464C127.071 31.8 126.255 32.792 126.143 33.624C126.031 34.408 126.223 35.112 126.751 35.832C126.767 35.848 126.783 35.864 126.799 35.896C127.023 36.296 127.343 36.536 127.823 36.616L128.895 36.664L130.047 36.28C130.895 35.832 131.711 35.272 132.447 34.632C132.655 34.44 132.975 34.472 133.167 34.68C133.343 34.888 133.327 35.224 133.119 35.4C132.319 36.104 131.423 36.712 130.479 37.208C130.463 37.224 130.431 37.24 130.399 37.24L129.119 37.672C129.071 37.688 129.023 37.688 128.959 37.688ZM136.975 30.008C136.959 30.04 136.943 30.072 136.927 30.088L136.895 30.152C136.735 30.44 136.607 30.712 136.479 30.984C136.159 31.688 135.839 32.408 135.551 33.112C135.567 33.096 135.599 33.08 135.631 33.08C135.855 33.032 136.063 32.984 136.239 32.92L136.447 32.824C136.607 32.744 136.799 32.648 137.023 32.6C137.439 32.504 137.919 32.504 138.351 32.504H138.591C138.735 32.488 138.863 32.504 139.007 32.504C139.391 32.36 139.759 32.216 140.095 32.008C140.415 31.816 140.671 31.56 140.751 31.336C140.831 31.112 140.783 30.6 140.767 30.424C140.735 30.104 140.591 29.848 140.351 29.656C140.191 29.544 139.967 29.56 139.615 29.592C139.567 29.592 139.503 29.608 139.439 29.608C138.767 29.656 137.999 29.72 137.375 29.912C137.311 29.928 137.231 29.944 137.151 29.96L136.975 30.008ZM133.119 36.456C133.103 36.36 133.119 36.264 133.151 36.184C133.183 36.072 133.231 35.96 133.263 35.864L133.279 35.816C133.279 35.8 133.295 35.768 133.311 35.752C133.327 35.704 133.343 35.672 133.375 35.64C133.551 35.112 133.775 34.6 133.999 34.104C134.063 33.944 134.143 33.784 134.207 33.624C134.335 33.352 134.447 33.08 134.559 32.808C134.879 32.072 135.199 31.304 135.551 30.552C135.679 30.264 135.823 29.976 135.983 29.672C135.983 29.656 135.999 29.656 135.999 29.656C135.999 29.512 136.047 29.368 136.175 29.256L136.239 29.208C136.319 29.128 136.431 29.08 136.543 29.08C136.655 29.032 136.799 29 136.911 28.968C136.975 28.952 137.039 28.936 137.071 28.936C137.807 28.712 138.639 28.632 139.375 28.584L139.535 28.568C139.951 28.536 140.479 28.488 140.959 28.84C141.439 29.192 141.727 29.72 141.791 30.312C141.839 30.792 141.855 31.288 141.727 31.672C141.535 32.184 141.119 32.552 140.799 32.776C141.183 32.92 141.535 33.176 141.743 33.688C142.015 34.328 141.903 35.112 141.455 35.816C140.607 37.096 139.103 37.848 137.567 37.848C137.103 37.848 136.655 37.784 136.207 37.64C135.727 37.496 135.215 37.304 134.735 37.08C134.543 36.984 134.447 36.984 134.431 36.984C134.223 37.096 133.999 37.048 133.839 36.888C133.775 36.92 133.695 36.936 133.615 36.936C133.343 36.92 133.135 36.712 133.119 36.456ZM134.367 35.896C134.367 35.912 134.383 35.912 134.383 35.928L134.431 35.96C134.655 35.96 134.895 36.024 135.167 36.152C135.615 36.344 136.063 36.52 136.511 36.664C138.015 37.128 139.775 36.52 140.591 35.256C140.799 34.936 140.959 34.472 140.799 34.088C140.655 33.72 140.383 33.656 139.679 33.576H139.599L139.151 33.528C138.735 33.672 138.319 33.784 137.903 33.896L137.855 33.912C137.487 33.992 137.103 34.104 136.671 34.088H136.639C136.351 34.088 136.047 34.072 135.759 34.088C135.535 34.104 135.343 33.976 135.263 33.768C135.231 33.864 135.183 33.944 135.151 34.024C135.087 34.184 135.007 34.36 134.927 34.52C134.735 34.968 134.527 35.432 134.367 35.896ZM142.756 37.656C142.708 37.656 142.676 37.656 142.628 37.64C142.388 37.592 142.228 37.368 142.244 37.128V37.032C142.244 36.888 142.292 36.76 142.388 36.664C142.484 36.44 142.564 36.2 142.66 35.944L142.804 35.544C143.028 34.888 143.3 34.248 143.54 33.608C143.684 33.256 143.828 32.904 143.956 32.552C144.148 32.072 144.324 31.576 144.5 31.096C144.724 30.472 144.964 29.816 145.22 29.192C145.316 28.92 145.62 28.792 145.876 28.904C146.148 29.016 146.276 29.304 146.164 29.576C145.908 30.184 145.684 30.824 145.46 31.432C145.284 31.928 145.108 32.44 144.916 32.936C144.772 33.288 144.644 33.64 144.5 33.992C144.244 34.616 143.988 35.256 143.764 35.896L143.62 36.296C143.492 36.632 143.38 37 143.22 37.352C143.14 37.544 142.948 37.656 142.756 37.656ZM146.276 26.952C146.324 26.728 146.42 26.552 146.516 26.408C146.564 26.312 146.612 26.232 146.628 26.152C146.708 25.88 146.996 25.736 147.268 25.816C147.54 25.896 147.7 26.184 147.62 26.456C147.556 26.632 147.476 26.776 147.412 26.904C147.348 27 147.3 27.096 147.284 27.16C147.236 27.4 147.028 27.56 146.788 27.56H146.676C146.404 27.496 146.228 27.224 146.276 26.952ZM148.529 36.12C148.609 36.12 148.673 36.136 148.753 36.184C148.625 36.12 148.497 36.12 148.385 36.136C148.385 36.152 148.369 36.152 148.353 36.152C148.369 36.152 148.385 36.152 148.385 36.136C148.433 36.136 148.481 36.12 148.529 36.12ZM147.105 29.848C146.945 29.608 147.025 29.288 147.265 29.144C147.505 29 147.825 29.064 147.969 29.304C148.017 29.384 148.033 29.416 148.433 29.4H148.641C149.905 29.384 151.201 29.32 152.529 29.176C152.753 29.16 152.961 29.128 153.185 29.112C153.729 29.048 154.289 28.984 154.865 28.968C155.393 28.952 155.713 29.016 156.081 29.096C156.257 29.032 156.465 29.08 156.609 29.208L156.705 29.32C156.881 29.48 156.913 29.72 156.801 29.928C156.689 30.12 156.465 30.232 156.241 30.184C156.129 30.152 156.017 30.136 155.921 30.104C155.553 30.024 155.329 29.976 154.881 29.992C154.369 30.008 153.825 30.072 153.297 30.12C153.089 30.152 152.865 30.184 152.641 30.2C152.369 30.232 152.097 30.248 151.825 30.28L151.633 30.68C151.633 30.696 151.633 30.712 151.617 30.712C151.505 30.968 151.377 31.224 151.265 31.48C150.881 32.296 150.497 33.144 150.145 33.992V34.024C150.065 34.248 149.905 34.648 149.617 35.368C149.025 36.872 148.977 36.92 148.881 37.016C148.785 37.096 148.657 37.144 148.529 37.144C148.449 37.144 148.369 37.128 148.305 37.096C148.049 36.984 147.937 36.664 148.065 36.424C148.081 36.376 148.097 36.36 148.129 36.328C148.289 35.992 148.993 34.2 149.169 33.72C149.169 33.688 149.185 33.672 149.185 33.64C149.553 32.76 149.953 31.896 150.337 31.048C150.449 30.824 150.545 30.584 150.657 30.36C149.969 30.392 149.313 30.408 148.657 30.424C148.593 30.424 148.529 30.424 148.465 30.424H148.273C147.889 30.424 147.409 30.36 147.105 29.848ZM150.657 30.36L150.961 29.672C151.089 29.416 151.377 29.304 151.633 29.416C151.889 29.512 152.017 29.816 151.905 30.072C151.873 30.136 151.857 30.216 151.825 30.28C151.425 30.312 151.041 30.344 150.657 30.36ZM165.823 36.6C165.887 36.616 165.935 36.648 165.983 36.696C165.935 36.648 165.871 36.616 165.823 36.6ZM165.263 36.744C165.311 36.712 165.343 36.664 165.391 36.632C165.567 36.392 166.063 35.496 166.783 33.992L167.071 33.4C167.247 33.032 167.423 32.664 167.615 32.296C167.967 32.248 168.271 32.472 168.447 32.6C168.463 32.6 168.479 32.616 168.495 32.632L168.543 32.664L168.559 32.68C168.351 33.128 168.127 33.576 167.903 34.024C167.631 33.992 167.359 33.896 167.167 33.608C167.135 33.56 167.103 33.48 167.071 33.4C167.007 33.176 166.991 32.888 167.087 32.696C167.183 32.488 167.343 32.36 167.535 32.312C167.567 32.312 167.583 32.296 167.615 32.296C167.775 31.96 167.951 31.64 168.111 31.304L168.559 30.408L168.703 30.12C168.799 29.944 169.007 29.592 169.151 29.272C169.119 29.16 169.119 29.048 169.167 28.936C169.231 28.76 169.327 28.616 169.455 28.488C169.599 28.328 169.823 28.28 170.031 28.376C170.223 28.456 170.351 28.664 170.335 28.872C170.303 29.336 169.967 29.96 169.599 30.616C169.551 30.728 169.503 30.808 169.471 30.872L169.023 31.768C168.879 32.072 168.719 32.376 168.559 32.68L168.783 32.856C169.311 32.712 169.855 32.504 170.463 32.184C171.215 31.8 171.967 31.384 172.687 30.952C173.279 30.632 173.855 30.28 174.399 29.896C174.783 29.608 175.135 29.288 175.423 29.016C175.631 28.824 175.951 28.824 176.143 29.032C176.335 29.224 176.335 29.56 176.127 29.752C175.839 30.024 175.455 30.392 175.007 30.728L174.991 30.744C174.415 31.128 173.807 31.512 173.199 31.848C172.463 32.28 171.695 32.696 170.927 33.096C170.495 33.32 170.111 33.496 169.711 33.64C170.303 34.232 170.991 34.696 171.759 35.032L171.807 35.064C172.495 35.48 173.247 35.736 174.047 35.816C174.063 35.816 174.095 35.816 174.111 35.832C174.607 35.944 175.119 36.024 175.631 36.056C175.919 36.072 176.127 36.312 176.111 36.584C176.095 36.856 175.871 37.08 175.599 37.08H175.583C175.023 37.048 174.463 36.968 173.903 36.84C172.975 36.728 172.095 36.44 171.311 35.96C170.415 35.56 169.615 35 168.927 34.296L168.527 33.976C168.351 34.008 168.127 34.04 167.903 34.024L167.711 34.424C166.239 37.496 166.047 37.528 165.775 37.592H165.679C165.551 37.592 165.423 37.544 165.327 37.464C165.103 37.288 165.087 36.968 165.263 36.744ZM181.827 34.488C181.747 34.488 181.667 34.472 181.603 34.44C181.539 34.424 181.491 34.376 181.443 34.328C181.251 34.12 181.075 33.896 180.899 33.688L181.523 32.824C181.747 33.112 181.971 33.384 182.195 33.64C182.003 33.912 181.811 34.184 181.603 34.44C181.075 35.128 180.515 35.784 179.875 36.36C179.555 36.84 179.091 37.112 178.547 37.192C178.307 37.272 178.083 37.32 177.843 37.32C177.523 37.32 177.187 37.24 176.883 37.064C176.707 36.984 176.547 36.872 176.387 36.76C176.243 36.648 176.019 36.488 175.923 36.472C175.635 36.44 175.443 36.184 175.459 35.912C175.491 35.624 175.747 35.432 176.035 35.448C176.403 35.496 176.723 35.72 176.995 35.928C177.107 36.024 177.235 36.104 177.331 36.152C177.331 36.152 177.347 36.152 177.363 36.168C177.651 36.328 177.923 36.344 178.211 36.216C178.259 36.2 178.323 36.184 178.371 36.184C178.675 36.152 178.883 36.008 179.059 35.752C179.091 35.704 179.123 35.672 179.155 35.64C179.795 35.064 180.355 34.392 180.899 33.688C180.451 33.112 180.035 32.536 179.635 31.96C179.091 31.176 178.547 30.392 177.907 29.688C177.715 29.48 177.731 29.16 177.955 28.968C178.163 28.776 178.483 28.792 178.675 29C179.347 29.752 179.923 30.568 180.483 31.368C180.819 31.848 181.155 32.344 181.523 32.824L181.763 32.504C182.067 32.072 182.371 31.64 182.691 31.224C182.787 31.096 182.883 30.968 182.995 30.84C183.555 30.088 184.195 29.24 184.899 28.632C185.123 28.44 185.443 28.472 185.635 28.68C185.811 28.888 185.795 29.224 185.571 29.4C184.947 29.944 184.339 30.744 183.811 31.448L183.507 31.848C183.203 32.248 182.899 32.68 182.595 33.096C182.467 33.272 182.339 33.464 182.195 33.64C182.387 33.848 182.371 34.168 182.163 34.36C182.067 34.44 181.939 34.488 181.827 34.488ZM185.992 37.736C185.928 37.736 185.848 37.72 185.768 37.688C185.528 37.576 185.432 37.288 185.512 37.048L185.8 36.296C185.848 36.168 185.944 36.056 186.072 36.008C186.136 35.848 186.2 35.688 186.264 35.528L186.296 35.48C186.568 34.936 186.84 34.376 187.096 33.8C187.288 33.352 187.48 32.904 187.672 32.44L187.768 32.216C187.832 32.184 187.912 32.152 187.992 32.136C188.024 32.136 188.056 32.12 188.088 32.12L188.92 32.056C188.824 32.312 188.728 32.584 188.616 32.84C188.456 33.24 188.28 33.656 188.104 34.056C188.024 34.088 187.928 34.104 187.848 34.136C187.72 34.184 187.592 34.168 187.464 34.12C187.336 34.056 187.192 33.96 187.096 33.8C187 33.656 186.952 33.464 186.968 33.208C187 32.872 187.16 32.456 187.768 32.216C187.992 31.624 188.216 31.032 188.424 30.456C188.664 29.8 188.92 29.112 189.192 28.456C189.288 28.216 189.544 28.088 189.784 28.152C190.04 28.216 190.2 28.456 190.168 28.712L190.152 28.84C190.136 28.952 190.088 29.048 190.024 29.128C189.8 29.688 189.592 30.248 189.384 30.808C189.24 31.208 189.08 31.64 188.92 32.056L189.144 32.04H189.224C189.48 32.056 189.72 32.104 189.96 32.168C190.584 31.816 191.176 31.368 191.752 30.92L191.896 30.808C191.912 30.808 191.928 30.792 191.928 30.792C192.552 30.392 193.112 29.912 193.592 29.368C193.624 29.32 193.672 29.288 193.704 29.272C193.864 29.176 193.912 29.08 193.896 28.904C193.88 28.616 194.088 28.376 194.36 28.36C194.648 28.328 194.888 28.552 194.92 28.824C194.952 29.352 194.744 29.784 194.312 30.088C193.784 30.68 193.176 31.208 192.504 31.64L192.376 31.736C191.944 32.072 191.496 32.408 191.032 32.712C191.16 32.808 191.288 32.92 191.4 33.048C191.992 33.464 192.472 34.008 192.84 34.648L193.368 35.48L193.64 35.864C193.944 36.008 194.28 36.072 194.632 36.056C194.92 36.04 195.16 36.248 195.176 36.536C195.192 36.824 194.968 37.064 194.696 37.08H194.504C193.992 37.08 193.512 36.952 193.048 36.712C192.984 36.68 192.936 36.632 192.888 36.568L192.52 36.072C192.52 36.056 192.504 36.056 192.504 36.04L191.96 35.192C191.96 35.176 191.944 35.176 191.944 35.16C191.656 34.632 191.256 34.2 190.776 33.864L190.696 33.784C190.488 33.576 190.264 33.416 190.024 33.288C189.64 33.464 189.272 33.608 188.888 33.752C188.632 33.864 188.376 33.96 188.104 34.056C187.816 34.68 187.528 35.304 187.224 35.912C187 36.472 186.744 37 186.424 37.496C186.328 37.656 186.168 37.736 185.992 37.736ZM201.723 34.264C201.579 34.264 201.451 34.216 201.339 34.104L200.955 33.704C201.179 33.432 201.387 33.16 201.611 32.904C201.771 33.064 201.947 33.24 202.107 33.416C202.187 33.512 202.235 33.624 202.235 33.736C202.091 33.912 201.963 34.088 201.819 34.264H201.723ZM196.379 36.04C196.459 35.768 196.731 35.608 197.003 35.688C197.643 35.88 198.187 36.12 198.619 36.328C198.811 36.424 198.907 36.408 199.339 35.816L199.371 35.768C199.899 35.064 200.427 34.376 200.955 33.704C200.731 33.48 200.507 33.272 200.267 33.048C199.883 32.712 199.515 32.376 199.163 31.992C198.827 31.624 198.507 31.24 198.219 30.856C197.979 30.552 197.739 30.248 197.483 29.976C197.227 29.944 197.035 29.736 197.019 29.48V29.272C197.003 29.064 197.131 28.872 197.323 28.792C197.515 28.712 197.739 28.744 197.883 28.888C198.299 29.32 198.667 29.784 199.019 30.232C199.323 30.6 199.595 30.968 199.899 31.288C200.235 31.64 200.587 31.96 200.955 32.296L201.611 32.904C202.203 32.184 202.779 31.496 203.307 30.856L203.675 30.44C204.123 29.928 204.539 29.464 204.779 28.92C204.907 28.664 205.195 28.552 205.467 28.664C205.723 28.776 205.835 29.08 205.723 29.336C205.403 30.024 204.923 30.584 204.443 31.112C204.331 31.256 204.203 31.384 204.091 31.512C203.499 32.2 202.875 32.952 202.235 33.736C202.235 33.88 202.187 34.024 202.059 34.136C201.995 34.2 201.915 34.248 201.819 34.264C201.275 34.936 200.731 35.656 200.203 36.376L200.171 36.424C199.899 36.792 199.451 37.4 198.763 37.4C198.587 37.4 198.395 37.352 198.171 37.256C197.611 36.984 197.179 36.808 196.731 36.68C196.459 36.6 196.299 36.312 196.379 36.04ZM208.808 32.776L208.712 33H208.776C209.128 33.032 209.448 33.064 209.784 33.048H209.8C210.6 33.016 211.8 32.968 212.504 32.6C213.24 32.216 213.832 31.64 214.216 30.952C214.232 30.92 214.248 30.888 214.28 30.856C214.424 30.68 214.456 30.504 214.36 30.28C214.264 30.056 214.104 29.912 213.88 29.816L213.832 29.784C213.336 29.496 212.744 29.416 212.12 29.32H212.04C211.288 29.208 210.696 29.224 210.2 29.352C210.184 29.368 210.184 29.384 210.168 29.416C210.216 29.912 209.352 31.944 208.84 32.744C208.824 32.744 208.824 32.76 208.808 32.776ZM205.592 36.888C206.04 36.344 206.376 35.736 206.6 35.048C206.6 35.032 206.616 35.016 206.632 34.984L207.224 33.72C207.192 33.656 207.16 33.56 207.16 33.48C207.144 33.208 207.336 32.984 207.592 32.952L207.896 32.344L207.944 32.248C208.2 31.816 208.968 30.28 209.128 29.672C209.128 29.656 209.112 29.64 209.112 29.624C209.112 29.288 209.256 28.552 209.816 28.392C210.488 28.2 211.24 28.168 212.184 28.296L212.264 28.312C212.952 28.408 213.656 28.504 214.312 28.888C214.76 29.08 215.096 29.416 215.304 29.88C215.544 30.472 215.464 31.016 215.096 31.48C214.616 32.344 213.88 33.048 212.968 33.512C212.072 33.976 210.792 34.024 209.848 34.072H209.816C209.416 34.088 209.048 34.056 208.68 34.024C208.536 34.008 208.392 33.992 208.248 33.992L207.56 35.4C207.304 36.2 206.904 36.92 206.376 37.544C206.28 37.656 206.136 37.72 205.992 37.72C205.88 37.72 205.752 37.688 205.656 37.608C205.448 37.416 205.416 37.096 205.592 36.888ZM221.03 34.488C220.95 34.488 220.87 34.472 220.806 34.44C220.742 34.424 220.694 34.376 220.646 34.328C220.454 34.12 220.278 33.896 220.102 33.688L220.726 32.824C220.95 33.112 221.174 33.384 221.398 33.64C221.206 33.912 221.014 34.184 220.806 34.44C220.278 35.128 219.718 35.784 219.078 36.36C218.758 36.84 218.294 37.112 217.75 37.192C217.51 37.272 217.286 37.32 217.046 37.32C216.726 37.32 216.39 37.24 216.086 37.064C215.91 36.984 215.75 36.872 215.59 36.76C215.446 36.648 215.222 36.488 215.126 36.472C214.838 36.44 214.646 36.184 214.662 35.912C214.694 35.624 214.95 35.432 215.238 35.448C215.606 35.496 215.926 35.72 216.198 35.928C216.31 36.024 216.438 36.104 216.534 36.152C216.534 36.152 216.55 36.152 216.566 36.168C216.854 36.328 217.126 36.344 217.414 36.216C217.462 36.2 217.526 36.184 217.574 36.184C217.878 36.152 218.086 36.008 218.262 35.752C218.294 35.704 218.326 35.672 218.358 35.64C218.998 35.064 219.558 34.392 220.102 33.688C219.654 33.112 219.238 32.536 218.838 31.96C218.294 31.176 217.75 30.392 217.11 29.688C216.918 29.48 216.934 29.16 217.158 28.968C217.366 28.776 217.686 28.792 217.878 29C218.55 29.752 219.126 30.568 219.686 31.368C220.022 31.848 220.358 32.344 220.726 32.824L220.966 32.504C221.27 32.072 221.574 31.64 221.894 31.224C221.99 31.096 222.086 30.968 222.198 30.84C222.758 30.088 223.398 29.24 224.102 28.632C224.326 28.44 224.646 28.472 224.838 28.68C225.014 28.888 224.998 29.224 224.774 29.4C224.15 29.944 223.542 30.744 223.014 31.448L222.71 31.848C222.406 32.248 222.102 32.68 221.798 33.096C221.67 33.272 221.542 33.464 221.398 33.64C221.59 33.848 221.574 34.168 221.366 34.36C221.27 34.44 221.142 34.488 221.03 34.488ZM227.259 36.872C227.179 36.872 227.099 36.856 227.019 36.824C226.795 36.728 226.667 36.504 226.699 36.264L226.715 36.184C226.731 36.088 226.763 36.008 226.827 35.944C227.387 35.896 227.915 35.88 228.363 35.88H228.683C228.523 36.024 228.363 36.168 228.187 36.312C228.171 36.344 228.139 36.36 228.107 36.392C227.899 36.584 227.595 36.872 227.259 36.872ZM223.995 38.312C224.155 37.8 224.347 37.4 224.587 37.016C224.619 36.984 224.651 36.936 224.667 36.872C224.683 36.856 224.699 36.84 224.715 36.808C224.683 36.6 224.795 36.36 224.987 36.248C225.083 36.2 225.163 36.184 225.259 36.2C225.787 36.072 226.315 35.992 226.827 35.944C226.939 35.816 227.115 35.736 227.291 35.752C227.339 35.72 227.371 35.672 227.403 35.64L227.531 35.528C227.867 35.256 228.187 34.952 228.523 34.632C228.667 34.472 228.827 34.328 228.987 34.184L230.155 33.128C230.603 32.728 231.083 32.312 231.531 31.88C231.739 31.688 231.947 31.48 232.139 31.272C232.523 30.904 232.907 30.52 233.323 30.152C233.995 29.592 234.763 29.16 235.435 28.776L235.643 28.664C235.931 28.488 236.267 28.296 236.619 28.2C236.923 28.104 237.195 28.12 237.451 28.232C237.483 28.248 237.579 28.28 237.659 28.296C237.963 28.392 238.315 28.488 238.507 28.76C238.667 28.984 238.731 29.352 238.427 29.704L237.211 33.176C236.923 34.024 236.571 34.856 236.203 35.672C236.203 35.688 236.187 35.704 236.187 35.704C236.171 35.72 236.171 35.736 236.155 35.768C236.107 35.864 236.075 35.976 236.043 36.088C235.963 36.36 235.691 36.52 235.419 36.456C235.147 36.392 234.987 36.12 235.035 35.848C235.035 35.832 235.051 35.816 235.051 35.8C235.419 35.784 235.787 35.768 236.155 35.768C236.491 35.752 236.811 35.752 237.131 35.752C237.163 35.752 237.211 35.752 237.243 35.736C237.483 35.72 237.803 35.704 238.059 35.88C238.187 35.976 238.267 36.136 238.283 36.296C238.283 36.456 238.203 36.616 238.075 36.712C237.979 36.792 237.883 36.936 237.771 37.08L237.259 37.832C237.083 38.296 236.699 38.568 236.235 38.584H236.219C235.947 38.584 235.707 38.344 235.707 38.072C235.707 37.784 235.947 37.56 236.219 37.56C236.251 37.56 236.251 37.544 236.251 37.544C236.267 37.544 236.299 37.512 236.315 37.432C236.331 37.384 236.347 37.352 236.379 37.304C236.491 37.128 236.619 36.952 236.747 36.776C235.803 36.792 234.859 36.84 233.883 36.888C232.683 36.952 231.483 36.936 230.315 36.92C229.675 36.904 229.019 36.904 228.363 36.904C227.627 36.904 226.699 36.936 225.739 37.128C225.723 37.16 225.707 37.176 225.675 37.192L225.563 37.368C225.531 37.448 225.483 37.528 225.451 37.592C225.243 37.88 225.099 38.2 224.971 38.616C224.907 38.84 224.699 38.984 224.491 38.984C224.427 38.984 224.379 38.968 224.331 38.952C224.059 38.872 223.915 38.584 223.995 38.312ZM228.683 35.88C229.243 35.88 229.787 35.88 230.331 35.896C231.483 35.912 232.667 35.928 233.835 35.864C234.235 35.848 234.651 35.816 235.051 35.8V35.704C235.035 35.512 235.131 35.336 235.275 35.224C235.643 34.456 235.963 33.64 236.251 32.84L237.467 29.32C237.435 29.304 237.403 29.288 237.371 29.288C237.243 29.24 237.131 29.208 237.035 29.176C237.019 29.16 237.003 29.16 236.907 29.176C236.667 29.256 236.427 29.4 236.171 29.544C236.091 29.592 236.011 29.64 235.931 29.672C235.307 30.024 234.587 30.424 233.995 30.936C233.595 31.272 233.243 31.624 232.875 32.008L232.251 32.616C231.787 33.064 231.291 33.496 230.827 33.896C230.443 34.232 230.059 34.584 229.691 34.936L229.227 35.368C229.051 35.544 228.859 35.704 228.683 35.88ZM241.824 37.56C241.76 37.56 241.712 37.56 241.648 37.56H241.6C241.072 37.464 240.56 37.32 240.064 37.112C239.568 36.952 239.168 36.664 238.88 36.248C238.528 35.72 238.432 35.192 238.4 34.776C238.384 34.488 238.592 34.248 238.88 34.216C239.152 34.2 239.408 34.408 239.424 34.696C239.456 35.128 239.552 35.416 239.728 35.656C239.888 35.896 240.112 36.056 240.384 36.136C240.4 36.152 240.416 36.152 240.432 36.152C240.848 36.328 241.296 36.456 241.744 36.536C241.968 36.552 242.192 36.52 242.4 36.472C242.416 36.472 242.432 36.456 242.448 36.456C242.928 36.376 243.408 36.232 243.84 36.008C244.144 35.784 244.384 35.512 244.576 35.16C244.576 35.144 244.592 35.128 244.608 35.112C244.816 34.824 244.928 34.52 244.944 34.184C244.944 33.816 244.72 33.416 244.352 33.192C244 32.984 243.552 32.968 243.088 33.016C242.752 33.272 242.368 33.48 241.936 33.64C241.584 33.752 241.168 33.88 240.704 33.88C240.672 33.88 240.64 33.88 240.608 33.896C240.448 33.896 240.256 33.912 240.064 33.848C239.952 33.8 239.84 33.72 239.776 33.608C239.68 33.448 239.68 33.256 239.76 33.08C239.824 32.936 240.016 32.552 242.128 32.136L242.672 32.04C242.896 31.848 243.088 31.64 243.28 31.432C243.584 31.112 243.856 30.776 244.144 30.408L244.384 30.168L244.448 30.12L244.464 30.104C244.48 30.04 244.48 29.944 244.416 29.832C244.288 29.64 243.984 29.448 243.712 29.416C243.584 29.384 243.488 29.384 243.392 29.384C243.312 29.4 243.2 29.432 243.088 29.464C242.992 29.496 242.896 29.528 242.784 29.544C242.64 29.576 242.512 29.608 242.384 29.624C242.176 29.64 242 29.672 241.84 29.736C241.616 29.832 241.392 29.976 241.168 30.12C241.088 30.168 241.008 30.216 240.944 30.264C240.816 30.344 240.704 30.456 240.576 30.584C240.496 30.664 240.432 30.728 240.352 30.792L240.24 30.888C240.208 30.984 240.16 31.064 240.08 31.128C239.872 31.32 239.552 31.304 239.36 31.096L239.312 31.048C239.184 30.888 239.152 30.664 239.248 30.472C239.344 30.28 239.504 30.168 239.6 30.088L239.664 30.04C239.728 29.992 239.792 29.928 239.84 29.864C240 29.72 240.16 29.544 240.4 29.4C240.464 29.352 240.528 29.32 240.608 29.272C240.864 29.096 241.136 28.92 241.44 28.792C241.728 28.68 242 28.632 242.24 28.6C242.352 28.584 242.464 28.568 242.576 28.552L242.784 28.488C242.944 28.44 243.104 28.392 243.296 28.376C243.472 28.36 243.648 28.36 243.872 28.392C244.432 28.488 244.992 28.84 245.28 29.288C245.504 29.64 245.552 30.04 245.44 30.424C245.376 30.696 245.2 30.84 245.088 30.92L245.056 30.952C245.008 30.984 244.976 31.016 244.944 31.064C244.688 31.384 244.416 31.704 244.128 32.024C244.4 32.072 244.656 32.168 244.896 32.312C245.552 32.728 245.968 33.464 245.968 34.216C245.936 34.776 245.76 35.256 245.456 35.688C245.2 36.152 244.848 36.552 244.4 36.856C244.384 36.872 244.368 36.888 244.336 36.904C243.808 37.176 243.232 37.368 242.64 37.464C242.368 37.528 242.096 37.56 241.824 37.56ZM246.54 37.448C246.492 37.448 246.428 37.432 246.38 37.416C246.14 37.368 245.964 37.144 245.98 36.904C245.98 36.76 246.012 36.632 246.044 36.536C246.044 36.504 246.06 36.472 246.06 36.44C246.156 35.96 246.316 35.496 246.476 35.064C246.54 34.904 246.588 34.76 246.636 34.6C246.876 33.896 247.132 33.176 247.372 32.488L247.9 31.032C248.06 30.6 248.204 30.168 248.332 29.72C248.3 29.608 248.3 29.464 248.364 29.336C248.428 29.176 248.508 29.032 248.588 28.888C248.684 28.68 248.908 28.568 249.148 28.616C249.372 28.664 249.532 28.856 249.548 29.08C249.564 29.304 249.516 29.512 249.404 29.72C249.244 30.28 249.052 30.84 248.86 31.384C248.7 31.864 248.524 32.344 248.348 32.84C248.092 33.512 247.852 34.232 247.612 34.92C247.564 35.08 247.5 35.24 247.452 35.4C247.388 35.56 247.34 35.704 247.292 35.848C247.34 35.8 247.372 35.768 247.404 35.752L248.668 34.728C249.612 33.944 250.604 33.144 251.644 32.408C251.996 32.168 252.348 31.928 252.716 31.688C253.692 31.016 254.7 30.328 255.628 29.576L255.884 29.368C256.06 29.24 256.284 29.08 256.38 28.936C256.524 28.712 256.828 28.632 257.052 28.776C257.292 28.904 257.388 29.208 257.26 29.448C257.18 29.608 257.116 29.816 257.036 30.024C257.004 30.152 256.956 30.28 256.908 30.408L256.524 31.416C256.284 32.024 256.044 32.648 255.82 33.272C255.66 33.72 255.516 34.184 255.372 34.632L255.036 35.624C254.796 36.552 254.62 36.776 254.364 36.888C254.22 36.952 254.044 36.936 253.9 36.856C253.756 36.776 253.66 36.616 253.644 36.456V36.296C253.628 36.072 253.74 35.88 253.916 35.8C253.948 35.688 253.996 35.56 254.044 35.368C254.044 35.336 254.06 35.32 254.06 35.32L254.396 34.312C254.54 33.864 254.7 33.384 254.86 32.92C255.084 32.296 255.324 31.656 255.564 31.048L255.644 30.872C254.86 31.448 254.06 31.992 253.292 32.52C252.94 32.776 252.588 33.016 252.236 33.256C251.212 33.96 250.252 34.744 249.308 35.512C248.892 35.864 248.476 36.216 248.044 36.552C248.028 36.568 247.996 36.584 247.964 36.616C247.388 37.128 246.94 37.448 246.54 37.448ZM86.3556 53.56C86.2916 53.56 86.2436 53.56 86.1796 53.56H86.1316C85.6036 53.464 85.0916 53.32 84.5956 53.112C84.0996 52.952 83.6996 52.664 83.4116 52.248C83.0596 51.72 82.9636 51.192 82.9316 50.776C82.9156 50.488 83.1236 50.248 83.4116 50.216C83.6836 50.2 83.9396 50.408 83.9556 50.696C83.9876 51.128 84.0836 51.416 84.2596 51.656C84.4196 51.896 84.6436 52.056 84.9156 52.136C84.9316 52.152 84.9476 52.152 84.9636 52.152C85.3796 52.328 85.8276 52.456 86.2756 52.536C86.4996 52.552 86.7236 52.52 86.9316 52.472C86.9476 52.472 86.9636 52.456 86.9796 52.456C87.4596 52.376 87.9396 52.232 88.3716 52.008C88.6756 51.784 88.9156 51.512 89.1076 51.16C89.1076 51.144 89.1236 51.128 89.1396 51.112C89.3476 50.824 89.4596 50.52 89.4756 50.184C89.4756 49.816 89.2516 49.416 88.8836 49.192C88.5316 48.984 88.0836 48.968 87.6196 49.016C87.2836 49.272 86.8996 49.48 86.4676 49.64C86.1156 49.752 85.6996 49.88 85.2356 49.88C85.2036 49.88 85.1716 49.88 85.1396 49.896C84.9796 49.896 84.7876 49.912 84.5956 49.848C84.4836 49.8 84.3716 49.72 84.3076 49.608C84.2116 49.448 84.2116 49.256 84.2916 49.08C84.3556 48.936 84.5476 48.552 86.6596 48.136L87.2036 48.04C87.4276 47.848 87.6196 47.64 87.8116 47.432C88.1156 47.112 88.3876 46.776 88.6756 46.408L88.9156 46.168L88.9796 46.12L88.9956 46.104C89.0116 46.04 89.0116 45.944 88.9476 45.832C88.8196 45.64 88.5156 45.448 88.2436 45.416C88.1156 45.384 88.0196 45.384 87.9236 45.384C87.8436 45.4 87.7316 45.432 87.6196 45.464C87.5236 45.496 87.4276 45.528 87.3156 45.544C87.1716 45.576 87.0436 45.608 86.9156 45.624C86.7076 45.64 86.5316 45.672 86.3716 45.736C86.1476 45.832 85.9236 45.976 85.6996 46.12C85.6196 46.168 85.5396 46.216 85.4756 46.264C85.3476 46.344 85.2356 46.456 85.1076 46.584C85.0276 46.664 84.9636 46.728 84.8836 46.792L84.7716 46.888C84.7396 46.984 84.6916 47.064 84.6116 47.128C84.4036 47.32 84.0836 47.304 83.8916 47.096L83.8436 47.048C83.7156 46.888 83.6836 46.664 83.7796 46.472C83.8756 46.28 84.0356 46.168 84.1316 46.088L84.1956 46.04C84.2596 45.992 84.3236 45.928 84.3716 45.864C84.5316 45.72 84.6916 45.544 84.9316 45.4C84.9956 45.352 85.0596 45.32 85.1396 45.272C85.3956 45.096 85.6676 44.92 85.9716 44.792C86.2596 44.68 86.5316 44.632 86.7716 44.6C86.8836 44.584 86.9956 44.568 87.1076 44.552L87.3156 44.488C87.4756 44.44 87.6356 44.392 87.8276 44.376C88.0036 44.36 88.1796 44.36 88.4036 44.392C88.9636 44.488 89.5236 44.84 89.8116 45.288C90.0356 45.64 90.0836 46.04 89.9716 46.424C89.9076 46.696 89.7316 46.84 89.6196 46.92L89.5876 46.952C89.5396 46.984 89.5076 47.016 89.4756 47.064C89.2196 47.384 88.9476 47.704 88.6596 48.024C88.9316 48.072 89.1876 48.168 89.4276 48.312C90.0836 48.728 90.4996 49.464 90.4996 50.216C90.4676 50.776 90.2916 51.256 89.9876 51.688C89.7316 52.152 89.3796 52.552 88.9316 52.856C88.9156 52.872 88.8996 52.888 88.8676 52.904C88.3396 53.176 87.7636 53.368 87.1716 53.464C86.8996 53.528 86.6276 53.56 86.3556 53.56ZM90.9272 53.032C90.8312 53.032 90.7192 53 90.6392 52.936C90.3992 52.792 90.3352 52.472 90.4952 52.232L90.6072 52.008C90.6712 51.896 90.7352 51.752 90.8312 51.608C90.9432 51.464 91.0712 51.32 91.1832 51.192L91.3752 51C91.4712 50.888 91.5672 50.776 91.6792 50.664C91.9992 50.296 92.3512 49.96 92.6872 49.624L94.1752 49.576C93.9512 49.8 93.7112 50.056 93.4712 50.28L93.1192 50.632C92.6392 50.648 92.1592 50.664 91.6792 50.664C91.5832 50.664 91.5032 50.664 91.4232 50.664H91.1352C90.8632 50.664 90.6392 50.44 90.6392 50.152C90.6392 49.864 90.8632 49.64 91.1512 49.64H91.1992H91.2152C91.6952 49.64 92.1912 49.64 92.6872 49.624C92.7032 49.608 92.7352 49.576 92.7512 49.56L93.4712 48.824C94.5752 47.688 95.8712 46.392 97.4872 45.48C97.9992 45.208 98.4152 45.064 98.8632 45.016C99.1672 44.984 99.4392 45 99.6792 45.032C99.7592 45.048 99.8392 45.048 99.9192 45.064C100.031 45 100.159 44.984 100.287 45.032C100.543 45.096 100.703 45.352 100.655 45.608L100.639 45.672C100.623 45.752 100.591 45.816 100.559 45.88C100.287 46.536 100.047 47.224 99.8072 47.88C99.6472 48.36 99.4552 48.872 99.2632 49.368C99.2472 49.448 99.2152 49.512 99.1832 49.592C99.0872 49.864 98.9752 50.136 98.8792 50.392C98.5112 50.392 98.1432 50.408 97.7752 50.424C97.9032 50.072 98.0472 49.736 98.1752 49.384C98.5272 49.368 98.8792 49.368 99.2312 49.368H99.2632C99.7592 49.384 100.207 49.448 100.623 49.512C101.023 49.576 101.407 49.64 101.791 49.64C102.079 49.64 102.303 49.88 102.287 50.168C102.287 50.44 102.063 50.68 101.775 50.664C101.311 50.664 100.879 50.584 100.463 50.52C100.047 50.456 99.6472 50.392 99.2472 50.392C99.1192 50.392 99.0072 50.392 98.8792 50.392L98.2552 52.072L98.2232 52.136C98.1432 52.344 98.0632 52.584 97.8872 52.792C97.7592 52.968 97.5192 53.032 97.3112 52.952C97.1032 52.888 96.9752 52.68 96.9752 52.456L96.9912 52.344C96.9912 52.184 97.0712 52.04 97.1992 51.96C97.2152 51.896 97.2472 51.832 97.2632 51.784L97.2952 51.704C97.4392 51.304 97.5992 50.872 97.7752 50.424C96.9752 50.44 96.1912 50.488 95.4072 50.536C94.6552 50.568 93.8872 50.616 93.1192 50.632C92.7832 50.968 92.4472 51.32 92.1432 51.672C92.0792 51.752 92.0152 51.816 91.9352 51.896L91.6632 52.216C91.6152 52.28 91.5672 52.36 91.5352 52.456C91.4872 52.568 91.4232 52.68 91.3432 52.792C91.2472 52.952 91.0872 53.032 90.9272 53.032ZM94.1752 49.576C94.5752 49.544 94.9752 49.528 95.3592 49.512C96.2872 49.448 97.2312 49.4 98.1752 49.384L98.2392 49.224C98.4472 48.664 98.6552 48.104 98.8472 47.544C99.0232 47.048 99.1992 46.536 99.3912 46.04C99.2472 46.024 99.1192 46.008 98.9752 46.024C98.6712 46.056 98.3832 46.168 97.9992 46.376C96.4952 47.224 95.3112 48.408 94.2072 49.544L94.1752 49.576Z" fill="#1A1A1A"/>
<path d="M111.328 50.344C111.312 50.84 111.376 51.32 111.504 51.752C111.776 52.68 112.672 52.664 113.04 52.616C113.968 52.472 114.832 51.992 115.68 51.112C115.984 50.808 116.176 50.552 116.272 50.184C116.272 50.168 116.288 50.136 116.304 50.104C116.336 50.024 116.336 49.96 116.32 49.88C116.288 49.816 116.288 49.752 116.304 49.672V49.64C116.288 49.64 116.272 49.624 116.24 49.608C116.176 49.576 116.128 49.56 116.096 49.512C115.44 48.92 114.416 48.792 113.712 48.76C113.664 48.76 113.616 48.744 113.584 48.728C113.184 48.616 112.864 48.664 112.56 48.92C112.496 48.952 112.448 48.984 112.384 49C111.872 49.16 111.584 49.496 111.472 50.072C111.456 50.184 111.408 50.28 111.328 50.344ZM110.512 52.04C110.048 50.456 110.352 48.456 111.28 46.792C111.456 46.472 111.712 46.248 111.92 46.056L112.032 45.944C112.528 45.496 113.152 44.984 113.952 44.616C114.768 44.248 116.032 43.944 117.088 44.168C117.664 44.28 118.256 44.472 118.608 44.984C118.784 45.24 118.992 45.688 119.04 46.04C119.04 46.072 119.136 46.84 118.656 47.048C118.448 47.144 118.192 47.08 118.032 46.872C117.888 46.696 117.888 46.456 118.016 46.264V46.168C117.984 46.008 117.872 45.72 117.76 45.56C117.616 45.352 117.248 45.24 116.88 45.16C116.064 44.984 115.008 45.272 114.368 45.56C113.84 45.8 113.344 46.136 112.736 46.696L112.608 46.808C112.416 46.984 112.272 47.128 112.176 47.288C112.016 47.56 111.888 47.848 111.776 48.136C111.84 48.104 111.92 48.072 111.984 48.056C112.528 47.656 113.168 47.544 113.824 47.736C114.672 47.784 115.856 47.944 116.72 48.712C117.12 48.904 117.328 49.256 117.328 49.688C117.392 49.96 117.36 50.232 117.248 50.488C117.088 51.08 116.752 51.48 116.416 51.832C115.392 52.872 114.336 53.464 113.184 53.624C113.04 53.64 112.896 53.656 112.752 53.656C111.664 53.656 110.816 53.048 110.512 52.04ZM122.621 45.336C122.509 45.416 122.333 45.56 122.093 45.8L122.045 45.848C121.261 46.568 120.685 47.64 120.333 49.016C120.077 50.008 120.205 51.016 120.701 51.72C121.085 52.264 121.677 52.6 122.413 52.664C123.405 52.76 124.621 52.072 125.341 51.416C125.741 51 126.093 50.52 126.349 49.992C126.349 49.976 126.349 49.96 126.365 49.96C126.669 49.416 126.861 48.856 126.957 48.248C127.005 47.512 126.637 46.632 126.109 46.12C125.629 45.72 125.085 45.464 124.461 45.352C124.157 45.336 123.869 45.384 123.613 45.416C123.229 45.48 122.893 45.528 122.621 45.336ZM119.341 48.744C119.757 47.192 120.429 45.96 121.341 45.096L121.373 45.064C122.061 44.408 122.621 44.008 123.117 44.28C123.181 44.312 123.245 44.36 123.293 44.424C123.357 44.424 123.421 44.408 123.469 44.408C123.757 44.36 124.125 44.312 124.541 44.328H124.605C125.421 44.472 126.157 44.824 126.781 45.336C126.781 45.352 126.797 45.352 126.797 45.368C127.581 46.088 128.045 47.288 127.981 48.344V48.376C127.869 49.112 127.629 49.8 127.261 50.44C126.957 51.08 126.541 51.656 126.045 52.152C125.181 52.952 123.821 53.704 122.589 53.704C122.493 53.704 122.413 53.688 122.317 53.688C121.277 53.592 120.429 53.112 119.869 52.312C119.197 51.368 119.005 50.04 119.341 48.744ZM139.37 53.32C138.634 53.32 138.122 52.968 137.61 52.568C136.17 51.448 135.354 49.176 136.522 47.464C137.386 46.184 138.97 44.824 140.826 44.824H140.89C141.498 44.84 142.202 45.176 142.65 45.672C143.018 46.056 143.178 46.504 143.146 46.952C143.13 47.24 142.89 47.448 142.602 47.432C142.33 47.4 142.106 47.16 142.138 46.872C142.138 46.68 142.01 46.488 141.898 46.36C141.642 46.072 141.194 45.864 140.874 45.848C139.402 45.832 138.058 47.016 137.37 48.024C136.538 49.256 137.162 50.92 138.234 51.768C138.762 52.184 139.066 52.344 139.546 52.296C140.138 52.12 140.714 51.88 141.274 51.576C141.882 51.288 142.474 50.984 143.05 50.664C143.306 50.52 143.61 50.616 143.754 50.856C143.882 51.112 143.802 51.416 143.546 51.56C142.954 51.88 142.346 52.2 141.738 52.488C141.13 52.824 140.474 53.08 139.802 53.288C139.77 53.288 139.754 53.304 139.722 53.304C139.61 53.32 139.482 53.32 139.37 53.32ZM144.714 54.28C144.586 54.28 144.41 54.264 144.25 54.12C144.074 53.944 144.058 53.72 144.058 53.64C144.058 53.384 144.17 53.144 144.25 52.92C144.282 52.856 144.298 52.808 144.314 52.76C144.442 52.376 144.602 51.992 144.746 51.624C144.874 51.272 145.018 50.904 145.13 50.552C145.242 50.264 145.338 49.976 145.434 49.672C145.834 48.536 146.234 47.368 146.506 46.2C146.49 46.12 146.506 46.024 146.538 45.928L146.602 45.768C146.698 45.56 146.874 45.448 147.082 45.448C147.242 45.32 147.45 45.192 147.706 45.128L148.234 45C148.986 44.808 149.77 44.632 150.57 44.504C150.778 44.472 151.002 44.424 151.226 44.392C151.69 44.312 152.154 44.232 152.634 44.184C152.682 44.168 152.762 44.168 152.826 44.152C153.258 44.088 153.85 44.008 154.282 44.344C154.442 44.472 154.506 44.68 154.458 44.872L154.442 44.968C154.362 45.24 154.09 45.4 153.818 45.336C153.69 45.304 153.578 45.224 153.514 45.112C153.354 45.112 153.098 45.144 152.97 45.16C152.89 45.176 152.81 45.192 152.746 45.192C152.298 45.24 151.85 45.32 151.402 45.4C151.178 45.432 150.954 45.48 150.714 45.512C149.962 45.624 149.242 45.8 148.474 45.992L147.946 46.12C147.85 46.136 147.754 46.216 147.626 46.328C147.578 46.344 147.546 46.376 147.514 46.408C147.29 47.384 146.97 48.36 146.65 49.304C146.57 49.528 146.49 49.768 146.41 50.008L146.266 50.424C146.25 50.424 146.218 50.424 146.186 50.424H146.058C145.786 50.36 145.594 50.104 145.658 49.816C145.69 49.576 145.914 49.4 146.154 49.4L146.218 49.384C146.362 49.352 146.506 49.32 146.65 49.304C146.826 49.256 147.002 49.224 147.194 49.192C147.354 49.16 147.514 49.112 147.69 49.08L147.914 49.032C148.49 48.92 149.098 48.792 149.658 48.632C149.93 48.552 150.218 48.712 150.298 48.984C150.362 49.256 150.202 49.544 149.93 49.624C149.338 49.784 148.714 49.912 148.122 50.04L147.898 50.088L147.402 50.184C147.066 50.264 146.73 50.328 146.41 50.392C146.378 50.408 146.33 50.408 146.266 50.424C146.218 50.584 146.154 50.728 146.106 50.888C145.978 51.256 145.834 51.64 145.69 51.992C145.546 52.344 145.402 52.728 145.29 53.08C145.274 53.112 145.274 53.128 145.258 53.144C146.074 52.936 146.906 52.76 147.722 52.584L148.282 52.456C149.306 52.232 150.362 51.992 151.434 51.864L151.626 51.832C151.914 51.8 152.202 51.768 152.506 51.752C153.018 51.752 153.21 51.992 153.386 52.2L153.402 52.232C153.594 52.456 153.562 52.776 153.338 52.952C153.114 53.128 152.794 53.096 152.618 52.888L152.602 52.856C152.57 52.824 152.554 52.808 152.538 52.776H152.522C152.282 52.792 152.026 52.824 151.754 52.856L151.562 52.872C150.538 53 149.498 53.24 148.506 53.448L147.93 53.576C147.13 53.752 146.298 53.944 145.482 54.152L145.402 54.168C145.21 54.232 145.002 54.28 144.778 54.28H144.714ZM156.554 53.736C156.49 53.736 156.41 53.72 156.33 53.688C156.09 53.576 155.994 53.288 156.074 53.048L156.362 52.296C156.41 52.168 156.506 52.056 156.634 52.008C156.698 51.848 156.762 51.688 156.826 51.528L156.858 51.48C157.13 50.936 157.402 50.376 157.658 49.8C157.85 49.352 158.042 48.904 158.234 48.44L158.33 48.216C158.394 48.184 158.474 48.152 158.554 48.136C158.586 48.136 158.618 48.12 158.65 48.12L159.482 48.056C159.386 48.312 159.29 48.584 159.178 48.84C159.018 49.24 158.842 49.656 158.666 50.056C158.586 50.088 158.49 50.104 158.41 50.136C158.282 50.184 158.154 50.168 158.026 50.12C157.898 50.056 157.754 49.96 157.658 49.8C157.562 49.656 157.514 49.464 157.53 49.208C157.562 48.872 157.722 48.456 158.33 48.216C158.554 47.624 158.778 47.032 158.986 46.456C159.226 45.8 159.482 45.112 159.754 44.456C159.85 44.216 160.106 44.088 160.346 44.152C160.602 44.216 160.762 44.456 160.73 44.712L160.714 44.84C160.698 44.952 160.65 45.048 160.586 45.128C160.362 45.688 160.154 46.248 159.946 46.808C159.802 47.208 159.642 47.64 159.482 48.056L159.706 48.04H159.786C160.042 48.056 160.282 48.104 160.522 48.168C161.146 47.816 161.738 47.368 162.314 46.92L162.458 46.808C162.474 46.808 162.49 46.792 162.49 46.792C163.114 46.392 163.674 45.912 164.154 45.368C164.186 45.32 164.234 45.288 164.266 45.272C164.426 45.176 164.474 45.08 164.458 44.904C164.442 44.616 164.65 44.376 164.922 44.36C165.21 44.328 165.45 44.552 165.482 44.824C165.514 45.352 165.306 45.784 164.874 46.088C164.346 46.68 163.738 47.208 163.066 47.64L162.938 47.736C162.506 48.072 162.058 48.408 161.594 48.712C161.722 48.808 161.85 48.92 161.962 49.048C162.554 49.464 163.034 50.008 163.402 50.648L163.93 51.48L164.202 51.864C164.506 52.008 164.842 52.072 165.194 52.056C165.482 52.04 165.722 52.248 165.738 52.536C165.754 52.824 165.53 53.064 165.258 53.08H165.066C164.554 53.08 164.074 52.952 163.61 52.712C163.546 52.68 163.498 52.632 163.45 52.568L163.082 52.072C163.082 52.056 163.066 52.056 163.066 52.04L162.522 51.192C162.522 51.176 162.506 51.176 162.506 51.16C162.218 50.632 161.818 50.2 161.338 49.864L161.258 49.784C161.05 49.576 160.826 49.416 160.586 49.288C160.202 49.464 159.834 49.608 159.45 49.752C159.194 49.864 158.938 49.96 158.666 50.056C158.378 50.68 158.09 51.304 157.786 51.912C157.562 52.472 157.306 53 156.986 53.496C156.89 53.656 156.73 53.736 156.554 53.736ZM173.245 50.84C173.085 50.84 172.925 50.776 172.829 50.632L172.589 50.328C172.381 50.104 172.157 49.896 171.901 49.672C171.885 49.656 171.869 49.64 171.837 49.624C172.077 49.368 172.301 49.112 172.525 48.84L172.605 48.92C172.813 49.128 173.053 49.336 173.261 49.56C173.037 49.816 172.813 50.072 172.589 50.328L172.509 50.424C171.981 51.048 171.405 51.672 170.797 52.248L170.717 52.296L169.949 52.808C169.933 52.808 169.917 52.824 169.901 52.824C169.661 52.952 169.437 53 169.213 53C168.877 53 168.573 52.888 168.285 52.648L167.725 52.264C167.709 52.264 167.693 52.248 167.693 52.232C167.677 52.232 167.677 52.232 167.661 52.216C167.485 52.424 167.197 52.44 166.973 52.28C166.749 52.12 166.701 51.8 166.877 51.576C167.101 51.272 167.357 51.192 167.533 51.16C167.789 51.128 168.061 51.224 168.317 51.432L168.877 51.816C168.909 51.816 168.925 51.832 168.941 51.848C169.101 51.992 169.229 52.008 169.421 51.928L170.125 51.464C170.685 50.936 171.229 50.36 171.725 49.752C171.757 49.704 171.805 49.656 171.837 49.624C171.645 49.432 171.437 49.24 171.229 49.016C170.541 48.28 169.917 47.464 169.325 46.68C169.149 46.44 168.973 46.2 168.797 45.976C168.653 45.928 168.525 45.832 168.477 45.688C168.333 45.368 168.461 45.032 168.749 44.904C168.973 44.808 169.229 44.856 169.373 45.048C169.629 45.384 169.885 45.72 170.141 46.072C170.733 46.824 171.325 47.624 171.981 48.312C172.157 48.488 172.333 48.664 172.525 48.84C172.989 48.312 173.453 47.768 173.901 47.208C174.269 46.744 174.669 46.264 175.069 45.8L175.117 45.752C175.197 45.672 175.261 45.592 175.309 45.48C175.437 45.224 175.741 45.112 175.997 45.24C176.253 45.368 176.365 45.672 176.237 45.928C176.141 46.136 175.997 46.328 175.837 46.488C175.453 46.936 175.069 47.4 174.685 47.864C174.221 48.424 173.741 49 173.261 49.56C173.405 49.704 173.533 49.864 173.661 50.024C173.821 50.264 173.773 50.584 173.549 50.744C173.453 50.808 173.341 50.84 173.245 50.84ZM176.442 54.312C176.394 54.312 176.362 54.312 176.314 54.296C176.074 54.232 175.898 53.992 175.93 53.736L175.946 53.64C175.946 53.544 175.994 53.464 176.042 53.384C176.25 52.824 176.474 52.28 176.682 51.736C176.89 51.224 177.082 50.728 177.274 50.216C177.306 50.104 177.354 50.008 177.386 49.896C177.53 49.528 177.658 49.16 177.786 48.792L178.25 48.712C178.474 48.664 178.714 48.632 178.938 48.584C178.81 48.968 178.698 49.336 178.554 49.688C178.522 49.704 178.474 49.704 178.426 49.72C178.09 49.784 177.738 49.848 177.386 49.896C176.938 49.976 176.49 50.056 176.042 50.12H175.978C175.722 50.12 175.498 49.928 175.466 49.672C175.434 49.4 175.626 49.144 175.898 49.096C176.522 49 177.162 48.904 177.786 48.792C178.17 47.672 178.522 46.536 178.874 45.432C178.97 45.096 179.082 44.76 179.178 44.424C179.258 44.2 179.466 44.056 179.706 44.072C179.93 44.072 180.138 44.248 180.17 44.472L180.186 44.552C180.218 44.712 180.186 44.856 180.09 44.984L179.85 45.736C179.562 46.68 179.258 47.64 178.938 48.584C179.53 48.488 180.138 48.392 180.73 48.312C181.914 48.136 183.114 47.976 184.298 47.848C184.65 47.704 185.002 47.624 185.338 47.624C185.674 47.64 186.01 47.72 186.33 47.896L185.93 49.256C185.658 49.272 185.434 49.112 185.386 48.856C185.37 48.792 185.37 48.728 185.37 48.664C185.258 48.648 185.146 48.664 185.018 48.696C185.13 48.344 185.226 47.992 185.338 47.624C185.514 47 185.706 46.36 185.898 45.72C185.898 45.704 185.898 45.688 185.914 45.672C186.058 45.288 186.17 44.872 186.234 44.456C186.186 44.264 186.234 44.12 186.282 44.056C186.362 43.896 186.506 43.8 186.666 43.768C186.826 43.736 187.002 43.784 187.114 43.896C187.226 44.008 187.29 44.168 187.274 44.328C187.226 44.904 187.082 45.48 186.874 46.024C186.682 46.648 186.506 47.272 186.33 47.896L186.442 47.96C186.586 48.04 186.682 48.2 186.682 48.376C186.698 48.824 186.426 49.16 185.994 49.256C185.978 49.256 185.946 49.256 185.93 49.256L185.882 49.416C185.786 49.72 185.706 50.008 185.626 50.312C185.402 51.128 185.162 51.976 184.826 52.76C184.746 52.952 184.554 53.064 184.362 53.064C184.282 53.064 184.218 53.064 184.154 53.032C183.898 52.92 183.77 52.616 183.882 52.36C184.202 51.624 184.426 50.824 184.634 50.04C184.714 49.736 184.81 49.432 184.89 49.128C184.938 48.984 184.97 48.84 185.018 48.696C184.89 48.712 184.762 48.76 184.634 48.824C184.586 48.84 184.538 48.856 184.49 48.856C183.29 49 182.074 49.144 180.874 49.32C180.106 49.432 179.322 49.56 178.554 49.688C178.458 49.992 178.346 50.296 178.234 50.584C178.042 51.096 177.85 51.608 177.642 52.104C177.402 52.728 177.146 53.352 176.922 53.976C176.842 54.184 176.65 54.312 176.442 54.312ZM190.134 52.872C190.054 52.872 189.974 52.856 189.894 52.824C189.67 52.728 189.542 52.504 189.574 52.264L189.59 52.184C189.606 52.088 189.638 52.008 189.702 51.944C190.262 51.896 190.79 51.88 191.238 51.88H191.558C191.398 52.024 191.238 52.168 191.062 52.312C191.046 52.344 191.014 52.36 190.982 52.392C190.774 52.584 190.47 52.872 190.134 52.872ZM186.87 54.312C187.03 53.8 187.222 53.4 187.462 53.016C187.494 52.984 187.526 52.936 187.542 52.872C187.558 52.856 187.574 52.84 187.59 52.808C187.558 52.6 187.67 52.36 187.862 52.248C187.958 52.2 188.038 52.184 188.134 52.2C188.662 52.072 189.19 51.992 189.702 51.944C189.814 51.816 189.99 51.736 190.166 51.752C190.214 51.72 190.246 51.672 190.278 51.64L190.406 51.528C190.742 51.256 191.062 50.952 191.398 50.632C191.542 50.472 191.702 50.328 191.862 50.184L193.03 49.128C193.478 48.728 193.958 48.312 194.406 47.88C194.614 47.688 194.822 47.48 195.014 47.272C195.398 46.904 195.782 46.52 196.198 46.152C196.87 45.592 197.638 45.16 198.31 44.776L198.518 44.664C198.806 44.488 199.142 44.296 199.494 44.2C199.798 44.104 200.07 44.12 200.326 44.232C200.358 44.248 200.454 44.28 200.534 44.296C200.838 44.392 201.19 44.488 201.382 44.76C201.542 44.984 201.606 45.352 201.302 45.704L200.086 49.176C199.798 50.024 199.446 50.856 199.078 51.672C199.078 51.688 199.062 51.704 199.062 51.704C199.046 51.72 199.046 51.736 199.03 51.768C198.982 51.864 198.95 51.976 198.918 52.088C198.838 52.36 198.566 52.52 198.294 52.456C198.022 52.392 197.862 52.12 197.91 51.848C197.91 51.832 197.926 51.816 197.926 51.8C198.294 51.784 198.662 51.768 199.03 51.768C199.366 51.752 199.686 51.752 200.006 51.752C200.038 51.752 200.086 51.752 200.118 51.736C200.358 51.72 200.678 51.704 200.934 51.88C201.062 51.976 201.142 52.136 201.158 52.296C201.158 52.456 201.078 52.616 200.95 52.712C200.854 52.792 200.758 52.936 200.646 53.08L200.134 53.832C199.958 54.296 199.574 54.568 199.11 54.584H199.094C198.822 54.584 198.582 54.344 198.582 54.072C198.582 53.784 198.822 53.56 199.094 53.56C199.126 53.56 199.126 53.544 199.126 53.544C199.142 53.544 199.174 53.512 199.19 53.432C199.206 53.384 199.222 53.352 199.254 53.304C199.366 53.128 199.494 52.952 199.622 52.776C198.678 52.792 197.734 52.84 196.758 52.888C195.558 52.952 194.358 52.936 193.19 52.92C192.55 52.904 191.894 52.904 191.238 52.904C190.502 52.904 189.574 52.936 188.614 53.128C188.598 53.16 188.582 53.176 188.55 53.192L188.438 53.368C188.406 53.448 188.358 53.528 188.326 53.592C188.118 53.88 187.974 54.2 187.846 54.616C187.782 54.84 187.574 54.984 187.366 54.984C187.302 54.984 187.254 54.968 187.206 54.952C186.934 54.872 186.79 54.584 186.87 54.312ZM191.558 51.88C192.118 51.88 192.662 51.88 193.206 51.896C194.358 51.912 195.542 51.928 196.71 51.864C197.11 51.848 197.526 51.816 197.926 51.8V51.704C197.91 51.512 198.006 51.336 198.15 51.224C198.518 50.456 198.838 49.64 199.126 48.84L200.342 45.32C200.31 45.304 200.278 45.288 200.246 45.288C200.118 45.24 200.006 45.208 199.91 45.176C199.894 45.16 199.878 45.16 199.782 45.176C199.542 45.256 199.302 45.4 199.046 45.544C198.966 45.592 198.886 45.64 198.806 45.672C198.182 46.024 197.462 46.424 196.87 46.936C196.47 47.272 196.118 47.624 195.75 48.008L195.126 48.616C194.662 49.064 194.166 49.496 193.702 49.896C193.318 50.232 192.934 50.584 192.566 50.936L192.102 51.368C191.926 51.544 191.734 51.704 191.558 51.88ZM202.907 50.44C202.811 50.44 202.731 50.408 202.635 50.36C202.395 50.216 202.331 49.896 202.475 49.656C203.467 48.04 204.363 46.344 205.147 44.616C205.147 44.536 205.179 44.44 205.227 44.36L205.339 44.2C205.483 43.976 205.771 43.912 206.011 44.04C206.235 44.168 206.331 44.44 206.235 44.696C205.403 46.584 204.427 48.44 203.339 50.2C203.243 50.36 203.083 50.44 202.907 50.44ZM201.211 52.28C201.227 52.024 201.339 51.8 201.531 51.64C201.563 51.608 201.595 51.592 201.643 51.56C201.691 51.544 201.723 51.528 201.771 51.528C201.883 51.464 201.995 51.432 202.123 51.432C202.299 51.448 202.443 51.528 202.539 51.672C202.715 51.928 202.731 52.264 202.603 52.552C202.475 52.856 202.203 53.064 201.899 53.112H201.819C201.675 53.112 201.531 53.064 201.435 52.952C201.275 52.776 201.195 52.52 201.211 52.28Z" fill="#FF6B00"/>
</svg>
