<svg width="480" height="174" viewBox="0 0 480 174" fill="none" xmlns="http://www.w3.org/2000/svg">
<path d="M328.501 10.0549C285.301 9.25495 139.501 17.3883 72.0006 21.5549C2.5006 25.6136 -28.4994 67.5547 35.0006 107.555C98.5006 147.555 318.001 133.055 365.001 127.055C412.001 121.055 476.001 89.0547 479.001 55.5547C482.001 22.0547 382.501 11.0549 328.501 10.0549Z" fill="#FAFAFA"/>
<path d="M34.6511 73.6047C34.5311 73.6047 34.4411 73.6047 34.3211 73.6047H34.2311C33.2411 73.4247 32.2811 73.1547 31.3511 72.7647C30.4211 72.4647 29.6711 71.9247 29.1311 71.1447C28.4711 70.1547 28.2911 69.1647 28.2311 68.3847C28.2011 67.8447 28.5911 67.3947 29.1311 67.3347C29.6411 67.3047 30.1211 67.6947 30.1511 68.2347C30.2111 69.0447 30.3911 69.5847 30.7211 70.0347C31.0211 70.4847 31.4411 70.7847 31.9511 70.9347C31.9811 70.9647 32.0111 70.9647 32.0411 70.9647C32.8211 71.2947 33.6611 71.5347 34.5011 71.6847C34.9211 71.7147 35.3411 71.6547 35.7311 71.5647C35.7611 71.5647 35.7911 71.5347 35.8211 71.5347C36.7211 71.3847 37.6211 71.1147 38.4311 70.6947C39.0011 70.2747 39.4511 69.7647 39.8111 69.1047C39.8111 69.0747 39.8411 69.0447 39.8711 69.0147C40.2611 68.4747 40.4711 67.9047 40.5011 67.2747C40.5011 66.5847 40.0811 65.8347 39.3911 65.4147C38.7311 65.0247 37.8911 64.9947 37.0211 65.0847C36.3911 65.5647 35.6711 65.9547 34.8611 66.2547C34.2011 66.4647 33.4211 66.7047 32.5511 66.7047C32.4911 66.7047 32.4311 66.7047 32.3711 66.7347C32.0711 66.7347 31.7111 66.7647 31.3511 66.6447C31.1411 66.5547 30.9311 66.4047 30.8111 66.1947C30.6311 65.8947 30.6311 65.5347 30.7811 65.2047C30.9011 64.9347 31.2611 64.2147 35.2211 63.4347L36.2411 63.2547C36.6611 62.8947 37.0211 62.5047 37.3811 62.1147C37.9511 61.5147 38.4611 60.8847 39.0011 60.1947L39.4511 59.7447L39.5711 59.6547L39.6011 59.6247C39.6311 59.5047 39.6311 59.3247 39.5111 59.1147C39.2711 58.7547 38.7011 58.3947 38.1911 58.3347C37.9511 58.2747 37.7711 58.2747 37.5911 58.2747C37.4411 58.3047 37.2311 58.3647 37.0211 58.4247C36.8411 58.4847 36.6611 58.5447 36.4511 58.5747C36.1811 58.6347 35.9411 58.6947 35.7011 58.7247C35.3111 58.7547 34.9811 58.8147 34.6811 58.9347C34.2611 59.1147 33.8411 59.3847 33.4211 59.6547C33.2711 59.7447 33.1211 59.8347 33.0011 59.9247C32.7611 60.0747 32.5511 60.2847 32.3111 60.5247C32.1611 60.6747 32.0411 60.7947 31.8911 60.9147L31.6811 61.0947C31.6211 61.2747 31.5311 61.4247 31.3811 61.5447C30.9911 61.9047 30.3911 61.8747 30.0311 61.4847L29.9411 61.3947C29.7011 61.0947 29.6411 60.6747 29.8211 60.3147C30.0011 59.9547 30.3011 59.7447 30.4811 59.5947L30.6011 59.5047C30.7211 59.4147 30.8411 59.2947 30.9311 59.1747C31.2311 58.9047 31.5311 58.5747 31.9811 58.3047C32.1011 58.2147 32.2211 58.1547 32.3711 58.0647C32.8511 57.7347 33.3611 57.4047 33.9311 57.1647C34.4711 56.9547 34.9811 56.8647 35.4311 56.8047C35.6411 56.7747 35.8511 56.7447 36.0611 56.7147L36.4511 56.5947C36.7511 56.5047 37.0511 56.4147 37.4111 56.3847C37.7411 56.3547 38.0711 56.3547 38.4911 56.4147C39.5411 56.5947 40.5911 57.2547 41.1311 58.0947C41.5511 58.7547 41.6411 59.5047 41.4311 60.2247C41.3111 60.7347 40.9811 61.0047 40.7711 61.1547L40.7111 61.2147C40.6211 61.2747 40.5611 61.3347 40.5011 61.4247C40.0211 62.0247 39.5111 62.6247 38.9711 63.2247C39.4811 63.3147 39.9611 63.4947 40.4111 63.7647C41.6411 64.5447 42.4211 65.9247 42.4211 67.3347C42.3611 68.3847 42.0311 69.2847 41.4611 70.0947C40.9811 70.9647 40.3211 71.7147 39.4811 72.2847C39.4511 72.3147 39.4211 72.3447 39.3611 72.3747C38.3711 72.8847 37.2911 73.2447 36.1811 73.4247C35.6711 73.5447 35.1611 73.6047 34.6511 73.6047ZM43.2229 72.6147C43.0429 72.6147 42.8329 72.5547 42.6829 72.4347C42.2329 72.1647 42.1129 71.5647 42.4129 71.1147L42.6229 70.6947C42.7429 70.4847 42.8629 70.2147 43.0429 69.9447C43.2529 69.6747 43.4929 69.4047 43.7029 69.1647L44.0629 68.8047C44.2429 68.5947 44.4229 68.3847 44.6329 68.1747C45.2329 67.4847 45.8929 66.8547 46.5229 66.2247L49.3129 66.1347C48.8929 66.5547 48.4429 67.0347 47.9929 67.4547L47.3329 68.1147C46.4329 68.1447 45.5329 68.1747 44.6329 68.1747C44.4529 68.1747 44.3029 68.1747 44.1529 68.1747H43.6129C43.1029 68.1747 42.6829 67.7547 42.6829 67.2147C42.6829 66.6747 43.1029 66.2547 43.6429 66.2547H43.7329H43.7629C44.6629 66.2547 45.5929 66.2547 46.5229 66.2247C46.5529 66.1947 46.6129 66.1347 46.6429 66.1047L47.9929 64.7247C50.0629 62.5947 52.4929 60.1647 55.5229 58.4547C56.4829 57.9447 57.2629 57.6747 58.1029 57.5847C58.6729 57.5247 59.1829 57.5547 59.6329 57.6147C59.7829 57.6447 59.9329 57.6447 60.0829 57.6747C60.2929 57.5547 60.5329 57.5247 60.7729 57.6147C61.2529 57.7347 61.5529 58.2147 61.4629 58.6947L61.4329 58.8147C61.4029 58.9647 61.3429 59.0847 61.2829 59.2047C60.7729 60.4347 60.3229 61.7247 59.8729 62.9547C59.5729 63.8547 59.2129 64.8147 58.8529 65.7447C58.8229 65.8947 58.7629 66.0147 58.7029 66.1647C58.5229 66.6747 58.3129 67.1847 58.1329 67.6647C57.4429 67.6647 56.7529 67.6947 56.0629 67.7247C56.3029 67.0647 56.5729 66.4347 56.8129 65.7747C57.4729 65.7447 58.1329 65.7447 58.7929 65.7447H58.8529C59.7829 65.7747 60.6229 65.8947 61.4029 66.0147C62.1529 66.1347 62.8729 66.2547 63.5929 66.2547C64.1329 66.2547 64.5529 66.7047 64.5229 67.2447C64.5229 67.7547 64.1029 68.2047 63.5629 68.1747C62.6929 68.1747 61.8829 68.0247 61.1029 67.9047C60.3229 67.7847 59.5729 67.6647 58.8229 67.6647C58.5829 67.6647 58.3729 67.6647 58.1329 67.6647L56.9629 70.8147L56.9029 70.9347C56.7529 71.3247 56.6029 71.7747 56.2729 72.1647C56.0329 72.4947 55.5829 72.6147 55.1929 72.4647C54.8029 72.3447 54.5629 71.9547 54.5629 71.5347L54.5929 71.3247C54.5929 71.0247 54.7429 70.7547 54.9829 70.6047C55.0129 70.4847 55.0729 70.3647 55.1029 70.2747L55.1629 70.1247C55.4329 69.3747 55.7329 68.5647 56.0629 67.7247C54.5629 67.7547 53.0929 67.8447 51.6229 67.9347C50.2129 67.9947 48.7729 68.0847 47.3329 68.1147C46.7029 68.7447 46.0729 69.4047 45.5029 70.0647C45.3829 70.2147 45.2629 70.3347 45.1129 70.4847L44.6029 71.0847C44.5129 71.2047 44.4229 71.3547 44.3629 71.5347C44.2729 71.7447 44.1529 71.9547 44.0029 72.1647C43.8229 72.4647 43.5229 72.6147 43.2229 72.6147ZM49.3129 66.1347C50.0629 66.0747 50.8129 66.0447 51.5329 66.0147C53.2729 65.8947 55.0429 65.8047 56.8129 65.7747L56.9329 65.4747C57.3229 64.4247 57.7129 63.3747 58.0729 62.3247C58.4029 61.3947 58.7329 60.4347 59.0929 59.5047C58.8229 59.4747 58.5829 59.4447 58.3129 59.4747C57.7429 59.5347 57.2029 59.7447 56.4829 60.1347C53.6629 61.7247 51.4429 63.9447 49.3729 66.0747L49.3129 66.1347ZM65.965 74.5047C65.815 74.5047 65.665 74.4747 65.515 74.4147C65.125 74.2047 64.945 73.7547 65.035 73.3347C65.215 72.5547 65.545 71.8347 65.995 71.1447C66.565 69.8847 67.075 68.6247 67.525 67.3047C67.765 66.6747 67.945 66.0147 68.155 65.3847C68.845 65.3547 69.535 65.2947 70.225 65.2347L70.135 65.5047C69.955 66.0747 69.805 66.6447 69.595 67.2447C68.935 67.2747 68.215 67.3347 67.525 67.3047C66.535 67.2747 65.575 67.1547 64.645 66.7947C64.135 66.5847 63.895 66.0447 64.075 65.5347C64.255 65.0547 64.825 64.8147 65.305 64.9947C66.145 65.2947 67.135 65.3847 68.155 65.3847C68.185 65.2347 68.245 65.0847 68.275 64.9347C68.545 64.0647 68.785 63.1347 69.025 62.2347C69.535 60.3447 70.045 58.3947 70.885 56.5647C71.125 56.0847 71.695 55.8747 72.175 56.0847C72.655 56.2947 72.865 56.8647 72.625 57.3747C71.875 59.0247 71.365 60.9147 70.885 62.7447C70.675 63.5547 70.465 64.3947 70.225 65.2347C70.465 65.2047 70.705 65.1747 70.945 65.1447L71.695 65.0547C73.795 64.8447 75.925 64.6047 78.025 64.3047C79.435 63.8847 80.815 63.7947 82.195 64.0347C82.555 64.0947 82.885 64.1847 83.215 64.2747C83.455 64.3347 83.665 64.4847 83.785 64.6947C83.845 64.7847 83.875 64.8747 83.905 64.9647C83.635 65.8047 83.365 66.5847 83.125 67.3647C83.035 67.3947 82.915 67.3947 82.825 67.3947C82.615 67.3947 82.405 67.3047 82.225 67.1547C81.865 66.8547 81.775 66.3447 82.015 65.9547C81.865 65.9247 81.715 65.8947 81.595 65.8947C81.775 65.2947 81.985 64.6647 82.195 64.0347C82.555 62.9847 82.945 61.9047 83.365 60.7347C83.845 59.5047 84.295 58.2747 84.745 57.0447C84.775 56.9547 84.835 56.8647 84.895 56.8047L84.925 56.7447C84.835 56.2047 85.195 55.7247 85.735 55.6347C86.245 55.5747 86.755 55.9347 86.815 56.4447C86.905 56.9547 86.785 57.4047 86.515 57.8547L85.165 61.3947C84.715 62.6547 84.295 63.8247 83.905 64.9647C84.205 65.6847 84.085 66.4347 83.575 67.0347C83.455 67.1847 83.305 67.3047 83.125 67.3647C82.735 68.5947 82.345 69.7647 82.015 70.9347C81.775 71.8047 81.625 72.6447 81.445 73.5747C81.415 73.8147 81.355 74.1147 81.145 74.4447C80.965 74.7447 80.665 74.8947 80.335 74.8947C80.155 74.8947 79.975 74.8347 79.825 74.7147C79.375 74.4447 79.255 73.8447 79.525 73.3947C79.555 73.3647 79.555 73.3047 79.555 73.2447C79.735 72.2547 79.915 71.3547 80.185 70.3947C80.605 68.9547 81.055 67.4547 81.595 65.8947C80.575 65.7747 79.555 65.8347 78.505 66.1647C78.445 66.1947 78.415 66.1947 78.355 66.1947C76.195 66.4947 74.035 66.7647 71.875 66.9747C71.665 67.0047 71.425 67.0347 71.185 67.0647L69.595 67.2447C69.085 68.8647 68.455 70.4547 67.735 72.0147C67.705 72.0747 67.675 72.1347 67.645 72.1647L67.465 72.4347C67.615 72.7947 67.555 73.1847 67.315 73.4847L66.685 74.2047C66.505 74.4147 66.235 74.5047 65.965 74.5047ZM96.775 67.4247C96.505 67.4247 96.265 67.3347 96.055 67.1247L95.335 66.3747C95.755 65.8647 96.145 65.3547 96.565 64.8747C96.865 65.1747 97.195 65.5047 97.495 65.8347C97.645 66.0147 97.735 66.2247 97.735 66.4347C97.465 66.7647 97.225 67.0947 96.955 67.4247H96.775ZM86.755 70.7547C86.905 70.2447 87.415 69.9447 87.925 70.0947C89.125 70.4547 90.145 70.9047 90.955 71.2947C91.315 71.4747 91.495 71.4447 92.305 70.3347L92.365 70.2447C93.355 68.9247 94.345 67.6347 95.335 66.3747C94.915 65.9547 94.495 65.5647 94.045 65.1447C93.325 64.5147 92.635 63.8847 91.975 63.1647C91.345 62.4747 90.745 61.7547 90.205 61.0347C89.755 60.4647 89.305 59.8947 88.825 59.3847C88.345 59.3247 87.985 58.9347 87.955 58.4547V58.0647C87.925 57.6747 88.165 57.3147 88.525 57.1647C88.885 57.0147 89.305 57.0747 89.575 57.3447C90.355 58.1547 91.045 59.0247 91.705 59.8647C92.275 60.5547 92.785 61.2447 93.355 61.8447C93.985 62.5047 94.645 63.1047 95.335 63.7347L96.565 64.8747C97.675 63.5247 98.755 62.2347 99.745 61.0347L100.435 60.2547C101.275 59.2947 102.055 58.4247 102.505 57.4047C102.745 56.9247 103.285 56.7147 103.795 56.9247C104.275 57.1347 104.485 57.7047 104.275 58.1847C103.675 59.4747 102.775 60.5247 101.875 61.5147C101.665 61.7847 101.425 62.0247 101.215 62.2647C100.105 63.5547 98.935 64.9647 97.735 66.4347C97.735 66.7047 97.645 66.9747 97.405 67.1847C97.285 67.3047 97.135 67.3947 96.955 67.4247C95.935 68.6847 94.915 70.0347 93.925 71.3847L93.865 71.4747C93.355 72.1647 92.515 73.3047 91.225 73.3047C90.895 73.3047 90.535 73.2147 90.115 73.0347C89.065 72.5247 88.255 72.1947 87.415 71.9547C86.905 71.8047 86.605 71.2647 86.755 70.7547ZM110.059 64.6347L109.879 65.0547H109.999C110.659 65.1147 111.259 65.1747 111.889 65.1447H111.919C113.419 65.0847 115.669 64.9947 116.989 64.3047C118.369 63.5847 119.479 62.5047 120.199 61.2147C120.229 61.1547 120.259 61.0947 120.319 61.0347C120.589 60.7047 120.649 60.3747 120.469 59.9547C120.289 59.5347 119.989 59.2647 119.569 59.0847L119.479 59.0247C118.549 58.4847 117.439 58.3347 116.269 58.1547H116.119C114.709 57.9447 113.599 57.9747 112.669 58.2147C112.639 58.2447 112.639 58.2747 112.609 58.3347C112.699 59.2647 111.079 63.0747 110.119 64.5747C110.089 64.5747 110.089 64.6047 110.059 64.6347ZM104.029 72.3447C104.869 71.3247 105.499 70.1847 105.919 68.8947C105.919 68.8647 105.949 68.8347 105.979 68.7747L107.089 66.4047C107.029 66.2847 106.969 66.1047 106.969 65.9547C106.939 65.4447 107.299 65.0247 107.779 64.9647L108.349 63.8247L108.439 63.6447C108.919 62.8347 110.359 59.9547 110.659 58.8147C110.659 58.7847 110.629 58.7547 110.629 58.7247C110.629 58.0947 110.899 56.7147 111.949 56.4147C113.209 56.0547 114.619 55.9947 116.389 56.2347L116.539 56.2647C117.829 56.4447 119.149 56.6247 120.379 57.3447C121.219 57.7047 121.849 58.3347 122.239 59.2047C122.689 60.3147 122.539 61.3347 121.849 62.2047C120.949 63.8247 119.569 65.1447 117.859 66.0147C116.179 66.8847 113.779 66.9747 112.009 67.0647H111.949C111.199 67.0947 110.509 67.0347 109.819 66.9747C109.549 66.9447 109.279 66.9147 109.009 66.9147L107.719 69.5547C107.239 71.0547 106.489 72.4047 105.499 73.5747C105.319 73.7847 105.049 73.9047 104.779 73.9047C104.569 73.9047 104.329 73.8447 104.149 73.6947C103.759 73.3347 103.699 72.7347 104.029 72.3447ZM128.956 73.1547C127.576 73.1547 126.616 72.4947 125.656 71.7447C122.956 69.6447 121.426 65.3847 123.616 62.1747C125.236 59.7747 128.206 57.2247 131.686 57.2247H131.806C132.946 57.2547 134.266 57.8847 135.106 58.8147C135.796 59.5347 136.096 60.3747 136.036 61.2147C136.006 61.7547 135.556 62.1447 135.016 62.1147C134.506 62.0547 134.086 61.6047 134.146 61.0647C134.146 60.7047 133.906 60.3447 133.696 60.1047C133.216 59.5647 132.376 59.1747 131.776 59.1447C129.016 59.1147 126.496 61.3347 125.206 63.2247C123.646 65.5347 124.816 68.6547 126.826 70.2447C127.816 71.0247 128.386 71.3247 129.286 71.2347C130.396 70.9047 131.476 70.4547 132.526 69.8847C133.666 69.3447 134.776 68.7747 135.856 68.1747C136.336 67.9047 136.906 68.0847 137.176 68.5347C137.416 69.0147 137.266 69.5847 136.786 69.8547C135.676 70.4547 134.536 71.0547 133.396 71.5947C132.256 72.2247 131.026 72.7047 129.766 73.0947C129.706 73.0947 129.676 73.1247 129.616 73.1247C129.406 73.1547 129.166 73.1547 128.956 73.1547ZM140.326 64.8447C140.386 64.8747 140.416 64.9347 140.446 64.9647C140.596 65.2347 140.896 65.5647 141.676 65.6247C141.766 65.6547 141.826 65.6547 141.886 65.6847C143.476 66.1647 145.096 66.3147 146.746 66.1347C147.856 66.0447 148.816 65.8047 149.866 65.5647C150.136 65.4747 150.436 65.4147 150.766 65.3247C151.156 65.2347 151.606 65.1747 152.056 65.2647C152.086 65.0847 152.146 64.9347 152.206 64.7847C152.386 64.3347 152.596 63.7047 152.866 63.0147C153.346 61.6947 153.976 60.1047 154.456 58.8147C154.516 58.6347 154.606 58.4847 154.666 58.3047C154.246 58.3347 153.826 58.3347 153.406 58.3347C151.066 58.4247 148.726 58.8747 146.326 59.6847C143.896 60.4947 142.216 61.5147 141.226 62.8047C140.776 63.3447 140.536 63.9147 140.446 64.5447C140.416 64.6647 140.386 64.7547 140.326 64.8447ZM136.636 73.2447C136.546 72.7347 136.906 72.2247 137.416 72.1347C140.026 71.6847 142.726 70.6347 145.726 68.9547C146.236 68.6847 146.776 68.3547 147.286 68.0247C147.166 68.0247 147.046 68.0247 146.926 68.0547C145.096 68.2647 143.206 68.0847 141.406 67.5447C140.326 67.4247 139.456 66.9447 138.886 66.1047C138.346 65.5647 138.226 64.8447 138.556 64.0947C138.736 63.1647 139.126 62.3247 139.726 61.6047C140.956 60.0447 142.906 58.8147 145.726 57.8547C148.306 56.9847 150.826 56.5347 153.376 56.4147H153.406C154.096 56.4147 154.756 56.4147 155.416 56.3547C155.566 56.2647 155.686 56.1747 155.836 56.1147C156.046 55.9947 156.286 55.9647 156.616 56.0847C157.066 56.2647 157.336 56.7447 157.216 57.2247C157.156 57.3447 157.126 57.4647 157.036 57.5847C156.616 58.4547 154.156 64.9947 153.796 66.0147C153.796 66.0447 153.766 66.0747 153.766 66.1047C152.986 68.1747 152.176 70.2747 151.336 72.3147C151.246 72.8847 150.976 73.3947 150.586 73.7547C150.286 74.0547 149.806 74.0847 149.446 73.8747C149.086 73.6647 148.906 73.2447 148.996 72.8247L149.116 72.3447C149.176 72.1047 149.296 71.9247 149.476 71.7747C149.476 71.7747 149.506 71.7447 149.506 71.7147L151.036 67.9047C150.376 68.2947 149.746 68.7147 149.116 69.1047C148.306 69.6447 147.496 70.1547 146.656 70.6347C143.476 72.4347 140.566 73.5447 137.746 74.0247C137.686 74.0547 137.626 74.0547 137.566 74.0547C137.116 74.0547 136.726 73.7247 136.636 73.2447ZM183.477 68.5047C183.177 68.5047 182.877 68.3847 182.697 68.1147L182.247 67.5447C181.857 67.1247 181.437 66.7347 180.957 66.3147C180.927 66.2847 180.897 66.2547 180.837 66.2247C181.287 65.7447 181.707 65.2647 182.127 64.7547L182.277 64.9047C182.667 65.2947 183.117 65.6847 183.507 66.1047C183.087 66.5847 182.667 67.0647 182.247 67.5447L182.097 67.7247C181.107 68.8947 180.027 70.0647 178.887 71.1447L178.737 71.2347L177.297 72.1947C177.267 72.1947 177.237 72.2247 177.207 72.2247C176.757 72.4647 176.337 72.5547 175.917 72.5547C175.287 72.5547 174.717 72.3447 174.177 71.8947L173.127 71.1747C173.097 71.1747 173.067 71.1447 173.067 71.1147C173.037 71.1147 173.037 71.1147 173.007 71.0847C172.677 71.4747 172.137 71.5047 171.717 71.2047C171.297 70.9047 171.207 70.3047 171.537 69.8847C171.957 69.3147 172.437 69.1647 172.767 69.1047C173.247 69.0447 173.757 69.2247 174.237 69.6147L175.287 70.3347C175.347 70.3347 175.377 70.3647 175.407 70.3947C175.707 70.6647 175.947 70.6947 176.307 70.5447L177.627 69.6747C178.677 68.6847 179.697 67.6047 180.627 66.4647C180.687 66.3747 180.777 66.2847 180.837 66.2247C180.477 65.8647 180.087 65.5047 179.697 65.0847C178.407 63.7047 177.237 62.1747 176.127 60.7047C175.797 60.2547 175.467 59.8047 175.137 59.3847C174.867 59.2947 174.627 59.1147 174.537 58.8447C174.267 58.2447 174.507 57.6147 175.047 57.3747C175.467 57.1947 175.947 57.2847 176.217 57.6447C176.697 58.2747 177.177 58.9047 177.657 59.5647C178.767 60.9747 179.877 62.4747 181.107 63.7647C181.437 64.0947 181.767 64.4247 182.127 64.7547C182.997 63.7647 183.867 62.7447 184.707 61.6947C185.397 60.8247 186.147 59.9247 186.897 59.0547L186.987 58.9647C187.137 58.8147 187.257 58.6647 187.347 58.4547C187.587 57.9747 188.157 57.7647 188.637 58.0047C189.117 58.2447 189.327 58.8147 189.087 59.2947C188.907 59.6847 188.637 60.0447 188.337 60.3447C187.617 61.1847 186.897 62.0547 186.177 62.9247C185.307 63.9747 184.407 65.0547 183.507 66.1047C183.777 66.3747 184.017 66.6747 184.257 66.9747C184.557 67.4247 184.467 68.0247 184.047 68.3247C183.867 68.4447 183.657 68.5047 183.477 68.5047ZM210.861 73.8447H210.831L208.581 73.7547H208.461C206.961 73.4847 205.851 72.7047 205.161 71.4447C203.871 69.7347 203.391 67.9347 203.661 65.9547C203.931 64.0647 205.311 62.2047 206.331 60.9747C210.741 55.5447 213.831 56.5947 214.971 57.3147C216.471 58.2447 217.371 60.0747 217.131 61.7247C217.041 62.2047 216.621 62.5647 216.111 62.5347C215.631 62.5047 215.241 62.1147 215.211 61.6347V61.4247C215.181 61.3347 215.211 61.2147 215.241 61.1247C215.211 60.2847 214.731 59.4147 213.951 58.9347C211.761 57.5547 208.461 61.3947 207.831 62.1747C207.321 62.8047 205.791 64.6647 205.581 66.2247C205.371 67.6947 205.731 69.0147 206.721 70.3647C206.751 70.3947 206.781 70.4247 206.811 70.4847C207.231 71.2347 207.831 71.6847 208.731 71.8347L210.741 71.9247L212.901 71.2047C214.491 70.3647 216.021 69.3147 217.401 68.1147C217.791 67.7547 218.391 67.8147 218.751 68.2047C219.081 68.5947 219.051 69.2247 218.661 69.5547C217.161 70.8747 215.481 72.0147 213.711 72.9447C213.681 72.9747 213.621 73.0047 213.561 73.0047L211.161 73.8147C211.071 73.8447 210.981 73.8447 210.861 73.8447ZM225.891 59.4447C225.861 59.5047 225.831 59.5647 225.801 59.5947L225.741 59.7147C225.441 60.2547 225.201 60.7647 224.961 61.2747C224.361 62.5947 223.761 63.9447 223.221 65.2647C223.251 65.2347 223.311 65.2047 223.371 65.2047C223.791 65.1147 224.181 65.0247 224.511 64.9047L224.901 64.7247C225.201 64.5747 225.561 64.3947 225.981 64.3047C226.761 64.1247 227.661 64.1247 228.471 64.1247H228.921C229.191 64.0947 229.431 64.1247 229.701 64.1247C230.421 63.8547 231.111 63.5847 231.741 63.1947C232.341 62.8347 232.821 62.3547 232.971 61.9347C233.121 61.5147 233.031 60.5547 233.001 60.2247C232.941 59.6247 232.671 59.1447 232.221 58.7847C231.921 58.5747 231.501 58.6047 230.841 58.6647C230.751 58.6647 230.631 58.6947 230.511 58.6947C229.251 58.7847 227.811 58.9047 226.641 59.2647C226.521 59.2947 226.371 59.3247 226.221 59.3547L225.891 59.4447ZM218.661 71.5347C218.631 71.3547 218.661 71.1747 218.721 71.0247C218.781 70.8147 218.871 70.6047 218.931 70.4247L218.961 70.3347C218.961 70.3047 218.991 70.2447 219.021 70.2147C219.051 70.1247 219.081 70.0647 219.141 70.0047C219.471 69.0147 219.891 68.0547 220.311 67.1247C220.431 66.8247 220.581 66.5247 220.701 66.2247C220.941 65.7147 221.151 65.2047 221.361 64.6947C221.961 63.3147 222.561 61.8747 223.221 60.4647C223.461 59.9247 223.731 59.3847 224.031 58.8147C224.031 58.7847 224.061 58.7847 224.061 58.7847C224.061 58.5147 224.151 58.2447 224.391 58.0347L224.511 57.9447C224.661 57.7947 224.871 57.7047 225.081 57.7047C225.291 57.6147 225.561 57.5547 225.771 57.4947C225.891 57.4647 226.011 57.4347 226.071 57.4347C227.451 57.0147 229.011 56.8647 230.391 56.7747L230.691 56.7447C231.471 56.6847 232.461 56.5947 233.361 57.2547C234.261 57.9147 234.801 58.9047 234.921 60.0147C235.011 60.9147 235.041 61.8447 234.801 62.5647C234.441 63.5247 233.661 64.2147 233.061 64.6347C233.781 64.9047 234.441 65.3847 234.831 66.3447C235.341 67.5447 235.131 69.0147 234.291 70.3347C232.701 72.7347 229.881 74.1447 227.001 74.1447C226.131 74.1447 225.291 74.0247 224.451 73.7547C223.551 73.4847 222.591 73.1247 221.691 72.7047C221.331 72.5247 221.151 72.5247 221.121 72.5247C220.731 72.7347 220.311 72.6447 220.011 72.3447C219.891 72.4047 219.741 72.4347 219.591 72.4347C219.081 72.4047 218.691 72.0147 218.661 71.5347ZM221.001 70.4847C221.001 70.5147 221.031 70.5147 221.031 70.5447L221.121 70.6047C221.541 70.6047 221.991 70.7247 222.501 70.9647C223.341 71.3247 224.181 71.6547 225.021 71.9247C227.841 72.7947 231.141 71.6547 232.671 69.2847C233.061 68.6847 233.361 67.8147 233.061 67.0947C232.791 66.4047 232.281 66.2847 230.961 66.1347H230.811L229.971 66.0447C229.191 66.3147 228.411 66.5247 227.631 66.7347L227.541 66.7647C226.851 66.9147 226.131 67.1247 225.321 67.0947H225.261C224.721 67.0947 224.151 67.0647 223.611 67.0947C223.191 67.1247 222.831 66.8847 222.681 66.4947C222.621 66.6747 222.531 66.8247 222.471 66.9747C222.351 67.2747 222.201 67.6047 222.051 67.9047C221.691 68.7447 221.301 69.6147 221.001 70.4847ZM236.731 73.7847C236.641 73.7847 236.581 73.7847 236.491 73.7547C236.041 73.6647 235.741 73.2447 235.771 72.7947V72.6147C235.771 72.3447 235.861 72.1047 236.041 71.9247C236.221 71.5047 236.371 71.0547 236.551 70.5747L236.821 69.8247C237.241 68.5947 237.751 67.3947 238.201 66.1947C238.471 65.5347 238.741 64.8747 238.981 64.2147C239.341 63.3147 239.671 62.3847 240.001 61.4847C240.421 60.3147 240.871 59.0847 241.351 57.9147C241.531 57.4047 242.101 57.1647 242.581 57.3747C243.091 57.5847 243.331 58.1247 243.121 58.6347C242.641 59.7747 242.221 60.9747 241.801 62.1147C241.471 63.0447 241.141 64.0047 240.781 64.9347C240.511 65.5947 240.271 66.2547 240.001 66.9147C239.521 68.0847 239.041 69.2847 238.621 70.4847L238.351 71.2347C238.111 71.8647 237.901 72.5547 237.601 73.2147C237.451 73.5747 237.091 73.7847 236.731 73.7847ZM243.331 53.7147C243.421 53.2947 243.601 52.9647 243.781 52.6947C243.871 52.5147 243.961 52.3647 243.991 52.2147C244.141 51.7047 244.681 51.4347 245.191 51.5847C245.701 51.7347 246.001 52.2747 245.851 52.7847C245.731 53.1147 245.581 53.3847 245.461 53.6247C245.341 53.8047 245.251 53.9847 245.221 54.1047C245.131 54.5547 244.741 54.8547 244.291 54.8547H244.081C243.571 54.7347 243.241 54.2247 243.331 53.7147ZM247.555 70.9047C247.705 70.9047 247.825 70.9347 247.975 71.0247C247.735 70.9047 247.495 70.9047 247.285 70.9347C247.285 70.9647 247.255 70.9647 247.225 70.9647C247.255 70.9647 247.285 70.9647 247.285 70.9347C247.375 70.9347 247.465 70.9047 247.555 70.9047ZM244.885 59.1447C244.585 58.6947 244.735 58.0947 245.185 57.8247C245.635 57.5547 246.235 57.6747 246.505 58.1247C246.595 58.2747 246.625 58.3347 247.375 58.3047H247.765C250.135 58.2747 252.565 58.1547 255.055 57.8847C255.475 57.8547 255.865 57.7947 256.285 57.7647C257.305 57.6447 258.355 57.5247 259.435 57.4947C260.425 57.4647 261.025 57.5847 261.715 57.7347C262.045 57.6147 262.435 57.7047 262.705 57.9447L262.885 58.1547C263.215 58.4547 263.275 58.9047 263.065 59.2947C262.855 59.6547 262.435 59.8647 262.015 59.7747C261.805 59.7147 261.595 59.6847 261.415 59.6247C260.725 59.4747 260.305 59.3847 259.465 59.4147C258.505 59.4447 257.485 59.5647 256.495 59.6547C256.105 59.7147 255.685 59.7747 255.265 59.8047C254.755 59.8647 254.245 59.8947 253.735 59.9547L253.375 60.7047C253.375 60.7347 253.375 60.7647 253.345 60.7647C253.135 61.2447 252.895 61.7247 252.685 62.2047C251.965 63.7347 251.245 65.3247 250.585 66.9147V66.9747C250.435 67.3947 250.135 68.1447 249.595 69.4947C248.485 72.3147 248.395 72.4047 248.215 72.5847C248.035 72.7347 247.795 72.8247 247.555 72.8247C247.405 72.8247 247.255 72.7947 247.135 72.7347C246.655 72.5247 246.445 71.9247 246.685 71.4747C246.715 71.3847 246.745 71.3547 246.805 71.2947C247.105 70.6647 248.425 67.3047 248.755 66.4047C248.755 66.3447 248.785 66.3147 248.785 66.2547C249.475 64.6047 250.225 62.9847 250.945 61.3947C251.155 60.9747 251.335 60.5247 251.545 60.1047C250.255 60.1647 249.025 60.1947 247.795 60.2247C247.675 60.2247 247.555 60.2247 247.435 60.2247H247.075C246.355 60.2247 245.455 60.1047 244.885 59.1447ZM251.545 60.1047L252.115 58.8147C252.355 58.3347 252.895 58.1247 253.375 58.3347C253.855 58.5147 254.095 59.0847 253.885 59.5647C253.825 59.6847 253.795 59.8347 253.735 59.9547C252.985 60.0147 252.265 60.0747 251.545 60.1047ZM279.981 71.8047C280.101 71.8347 280.191 71.8947 280.281 71.9847C280.191 71.8947 280.071 71.8347 279.981 71.8047ZM278.931 72.0747C279.021 72.0147 279.081 71.9247 279.171 71.8647C279.501 71.4147 280.431 69.7347 281.781 66.9147L282.321 65.8047C282.651 65.1147 282.981 64.4247 283.341 63.7347C284.001 63.6447 284.571 64.0647 284.901 64.3047C284.931 64.3047 284.961 64.3347 284.991 64.3647L285.081 64.4247L285.111 64.4547C284.721 65.2947 284.301 66.1347 283.881 66.9747C283.371 66.9147 282.861 66.7347 282.501 66.1947C282.441 66.1047 282.381 65.9547 282.321 65.8047C282.201 65.3847 282.171 64.8447 282.351 64.4847C282.531 64.0947 282.831 63.8547 283.191 63.7647C283.251 63.7647 283.281 63.7347 283.341 63.7347C283.641 63.1047 283.971 62.5047 284.271 61.8747L285.111 60.1947L285.381 59.6547C285.561 59.3247 285.951 58.6647 286.221 58.0647C286.161 57.8547 286.161 57.6447 286.251 57.4347C286.371 57.1047 286.551 56.8347 286.791 56.5947C287.061 56.2947 287.481 56.2047 287.871 56.3847C288.231 56.5347 288.471 56.9247 288.441 57.3147C288.381 58.1847 287.751 59.3547 287.061 60.5847C286.971 60.7947 286.881 60.9447 286.821 61.0647L285.981 62.7447C285.711 63.3147 285.411 63.8847 285.111 64.4547L285.531 64.7847C286.521 64.5147 287.541 64.1247 288.681 63.5247C290.091 62.8047 291.501 62.0247 292.851 61.2147C293.961 60.6147 295.041 59.9547 296.061 59.2347C296.781 58.6947 297.441 58.0947 297.981 57.5847C298.371 57.2247 298.971 57.2247 299.331 57.6147C299.691 57.9747 299.691 58.6047 299.301 58.9647C298.761 59.4747 298.041 60.1647 297.201 60.7947L297.171 60.8247C296.091 61.5447 294.951 62.2647 293.811 62.8947C292.431 63.7047 290.991 64.4847 289.551 65.2347C288.741 65.6547 288.021 65.9847 287.271 66.2547C288.381 67.3647 289.671 68.2347 291.111 68.8647L291.201 68.9247C292.491 69.7047 293.901 70.1847 295.401 70.3347C295.431 70.3347 295.491 70.3347 295.521 70.3647C296.451 70.5747 297.411 70.7247 298.371 70.7847C298.911 70.8147 299.301 71.2647 299.271 71.7747C299.241 72.2847 298.821 72.7047 298.311 72.7047H298.281C297.231 72.6447 296.181 72.4947 295.131 72.2547C293.391 72.0447 291.741 71.5047 290.271 70.6047C288.591 69.8547 287.091 68.8047 285.801 67.4847L285.051 66.8847C284.721 66.9447 284.301 67.0047 283.881 66.9747L283.521 67.7247C280.761 73.4847 280.401 73.5447 279.891 73.6647H279.711C279.471 73.6647 279.231 73.5747 279.051 73.4247C278.631 73.0947 278.601 72.4947 278.931 72.0747ZM309.987 67.8447C309.837 67.8447 309.687 67.8147 309.567 67.7547C309.447 67.7247 309.357 67.6347 309.267 67.5447C308.907 67.1547 308.577 66.7347 308.247 66.3447L309.417 64.7247C309.837 65.2647 310.257 65.7747 310.677 66.2547C310.317 66.7647 309.957 67.2747 309.567 67.7547C308.577 69.0447 307.527 70.2747 306.327 71.3547C305.727 72.2547 304.857 72.7647 303.837 72.9147C303.387 73.0647 302.967 73.1547 302.517 73.1547C301.917 73.1547 301.287 73.0047 300.717 72.6747C300.387 72.5247 300.087 72.3147 299.787 72.1047C299.517 71.8947 299.097 71.5947 298.917 71.5647C298.377 71.5047 298.017 71.0247 298.047 70.5147C298.107 69.9747 298.587 69.6147 299.127 69.6447C299.817 69.7347 300.417 70.1547 300.927 70.5447C301.137 70.7247 301.377 70.8747 301.557 70.9647C301.557 70.9647 301.587 70.9647 301.617 70.9947C302.157 71.2947 302.667 71.3247 303.207 71.0847C303.297 71.0547 303.417 71.0247 303.507 71.0247C304.077 70.9647 304.467 70.6947 304.797 70.2147C304.857 70.1247 304.917 70.0647 304.977 70.0047C306.177 68.9247 307.227 67.6647 308.247 66.3447C307.407 65.2647 306.627 64.1847 305.877 63.1047C304.857 61.6347 303.837 60.1647 302.637 58.8447C302.277 58.4547 302.307 57.8547 302.727 57.4947C303.117 57.1347 303.717 57.1647 304.077 57.5547C305.337 58.9647 306.417 60.4947 307.467 61.9947C308.097 62.8947 308.727 63.8247 309.417 64.7247L309.867 64.1247C310.437 63.3147 311.007 62.5047 311.607 61.7247C311.787 61.4847 311.967 61.2447 312.177 61.0047C313.227 59.5947 314.427 58.0047 315.747 56.8647C316.167 56.5047 316.767 56.5647 317.127 56.9547C317.457 57.3447 317.427 57.9747 317.007 58.3047C315.837 59.3247 314.697 60.8247 313.707 62.1447L313.137 62.8947C312.567 63.6447 311.997 64.4547 311.427 65.2347C311.187 65.5647 310.947 65.9247 310.677 66.2547C311.037 66.6447 311.007 67.2447 310.617 67.6047C310.437 67.7547 310.197 67.8447 309.987 67.8447ZM317.797 73.9347C317.677 73.9347 317.527 73.9047 317.377 73.8447C316.927 73.6347 316.747 73.0947 316.897 72.6447L317.437 71.2347C317.527 70.9947 317.707 70.7847 317.947 70.6947C318.067 70.3947 318.187 70.0947 318.307 69.7947L318.367 69.7047C318.877 68.6847 319.387 67.6347 319.867 66.5547C320.227 65.7147 320.587 64.8747 320.947 64.0047L321.127 63.5847C321.247 63.5247 321.397 63.4647 321.547 63.4347C321.607 63.4347 321.667 63.4047 321.727 63.4047L323.287 63.2847C323.107 63.7647 322.927 64.2747 322.717 64.7547C322.417 65.5047 322.087 66.2847 321.757 67.0347C321.607 67.0947 321.427 67.1247 321.277 67.1847C321.037 67.2747 320.797 67.2447 320.557 67.1547C320.317 67.0347 320.047 66.8547 319.867 66.5547C319.687 66.2847 319.597 65.9247 319.627 65.4447C319.687 64.8147 319.987 64.0347 321.127 63.5847C321.547 62.4747 321.967 61.3647 322.357 60.2847C322.807 59.0547 323.287 57.7647 323.797 56.5347C323.977 56.0847 324.457 55.8447 324.907 55.9647C325.387 56.0847 325.687 56.5347 325.627 57.0147L325.597 57.2547C325.567 57.4647 325.477 57.6447 325.357 57.7947C324.937 58.8447 324.547 59.8947 324.157 60.9447C323.887 61.6947 323.587 62.5047 323.287 63.2847L323.707 63.2547H323.857C324.337 63.2847 324.787 63.3747 325.237 63.4947C326.407 62.8347 327.517 61.9947 328.597 61.1547L328.867 60.9447C328.897 60.9447 328.927 60.9147 328.927 60.9147C330.097 60.1647 331.147 59.2647 332.047 58.2447C332.107 58.1547 332.197 58.0947 332.257 58.0647C332.557 57.8847 332.647 57.7047 332.617 57.3747C332.587 56.8347 332.977 56.3847 333.487 56.3547C334.027 56.2947 334.477 56.7147 334.537 57.2247C334.597 58.2147 334.207 59.0247 333.397 59.5947C332.407 60.7047 331.267 61.6947 330.007 62.5047L329.767 62.6847C328.957 63.3147 328.117 63.9447 327.247 64.5147C327.487 64.6947 327.727 64.9047 327.937 65.1447C329.047 65.9247 329.947 66.9447 330.637 68.1447L331.627 69.7047L332.137 70.4247C332.707 70.6947 333.337 70.8147 333.997 70.7847C334.537 70.7547 334.987 71.1447 335.017 71.6847C335.047 72.2247 334.627 72.6747 334.117 72.7047H333.757C332.797 72.7047 331.897 72.4647 331.027 72.0147C330.907 71.9547 330.817 71.8647 330.727 71.7447L330.037 70.8147C330.037 70.7847 330.007 70.7847 330.007 70.7547L328.987 69.1647C328.987 69.1347 328.957 69.1347 328.957 69.1047C328.417 68.1147 327.667 67.3047 326.767 66.6747L326.617 66.5247C326.227 66.1347 325.807 65.8347 325.357 65.5947C324.637 65.9247 323.947 66.1947 323.227 66.4647C322.747 66.6747 322.267 66.8547 321.757 67.0347C321.217 68.2047 320.677 69.3747 320.107 70.5147C319.687 71.5647 319.207 72.5547 318.607 73.4847C318.427 73.7847 318.127 73.9347 317.797 73.9347ZM347.293 67.4247C347.023 67.4247 346.783 67.3347 346.573 67.1247L345.853 66.3747C346.273 65.8647 346.663 65.3547 347.083 64.8747C347.383 65.1747 347.713 65.5047 348.013 65.8347C348.163 66.0147 348.253 66.2247 348.253 66.4347C347.983 66.7647 347.743 67.0947 347.473 67.4247H347.293ZM337.273 70.7547C337.423 70.2447 337.933 69.9447 338.443 70.0947C339.643 70.4547 340.663 70.9047 341.473 71.2947C341.833 71.4747 342.013 71.4447 342.823 70.3347L342.883 70.2447C343.873 68.9247 344.863 67.6347 345.853 66.3747C345.433 65.9547 345.013 65.5647 344.563 65.1447C343.843 64.5147 343.153 63.8847 342.493 63.1647C341.863 62.4747 341.263 61.7547 340.723 61.0347C340.273 60.4647 339.823 59.8947 339.343 59.3847C338.863 59.3247 338.503 58.9347 338.473 58.4547V58.0647C338.443 57.6747 338.683 57.3147 339.043 57.1647C339.403 57.0147 339.823 57.0747 340.093 57.3447C340.873 58.1547 341.563 59.0247 342.223 59.8647C342.793 60.5547 343.303 61.2447 343.873 61.8447C344.503 62.5047 345.163 63.1047 345.853 63.7347L347.083 64.8747C348.193 63.5247 349.273 62.2347 350.263 61.0347L350.953 60.2547C351.793 59.2947 352.573 58.4247 353.023 57.4047C353.263 56.9247 353.803 56.7147 354.313 56.9247C354.793 57.1347 355.003 57.7047 354.793 58.1847C354.193 59.4747 353.293 60.5247 352.393 61.5147C352.183 61.7847 351.943 62.0247 351.733 62.2647C350.623 63.5547 349.453 64.9647 348.253 66.4347C348.253 66.7047 348.163 66.9747 347.923 67.1847C347.803 67.3047 347.653 67.3947 347.473 67.4247C346.453 68.6847 345.433 70.0347 344.443 71.3847L344.383 71.4747C343.873 72.1647 343.033 73.3047 341.743 73.3047C341.413 73.3047 341.053 73.2147 340.633 73.0347C339.583 72.5247 338.773 72.1947 337.933 71.9547C337.423 71.8047 337.123 71.2647 337.273 70.7547ZM360.577 64.6347L360.397 65.0547H360.517C361.177 65.1147 361.777 65.1747 362.407 65.1447H362.437C363.937 65.0847 366.187 64.9947 367.507 64.3047C368.887 63.5847 369.997 62.5047 370.717 61.2147C370.747 61.1547 370.777 61.0947 370.837 61.0347C371.107 60.7047 371.167 60.3747 370.987 59.9547C370.807 59.5347 370.507 59.2647 370.087 59.0847L369.997 59.0247C369.067 58.4847 367.957 58.3347 366.787 58.1547H366.637C365.227 57.9447 364.117 57.9747 363.187 58.2147C363.157 58.2447 363.157 58.2747 363.127 58.3347C363.217 59.2647 361.597 63.0747 360.637 64.5747C360.607 64.5747 360.607 64.6047 360.577 64.6347ZM354.547 72.3447C355.387 71.3247 356.017 70.1847 356.437 68.8947C356.437 68.8647 356.467 68.8347 356.497 68.7747L357.607 66.4047C357.547 66.2847 357.487 66.1047 357.487 65.9547C357.457 65.4447 357.817 65.0247 358.297 64.9647L358.867 63.8247L358.957 63.6447C359.437 62.8347 360.877 59.9547 361.177 58.8147C361.177 58.7847 361.147 58.7547 361.147 58.7247C361.147 58.0947 361.417 56.7147 362.467 56.4147C363.727 56.0547 365.137 55.9947 366.907 56.2347L367.057 56.2647C368.347 56.4447 369.667 56.6247 370.897 57.3447C371.737 57.7047 372.367 58.3347 372.757 59.2047C373.207 60.3147 373.057 61.3347 372.367 62.2047C371.467 63.8247 370.087 65.1447 368.377 66.0147C366.697 66.8847 364.297 66.9747 362.527 67.0647H362.467C361.717 67.0947 361.027 67.0347 360.337 66.9747C360.067 66.9447 359.797 66.9147 359.527 66.9147L358.237 69.5547C357.757 71.0547 357.007 72.4047 356.017 73.5747C355.837 73.7847 355.567 73.9047 355.297 73.9047C355.087 73.9047 354.847 73.8447 354.667 73.6947C354.277 73.3347 354.217 72.7347 354.547 72.3447ZM383.493 67.8447C383.343 67.8447 383.193 67.8147 383.073 67.7547C382.953 67.7247 382.863 67.6347 382.773 67.5447C382.413 67.1547 382.083 66.7347 381.753 66.3447L382.923 64.7247C383.343 65.2647 383.763 65.7747 384.183 66.2547C383.823 66.7647 383.463 67.2747 383.073 67.7547C382.083 69.0447 381.033 70.2747 379.833 71.3547C379.233 72.2547 378.363 72.7647 377.343 72.9147C376.893 73.0647 376.473 73.1547 376.023 73.1547C375.423 73.1547 374.793 73.0047 374.223 72.6747C373.893 72.5247 373.593 72.3147 373.293 72.1047C373.023 71.8947 372.603 71.5947 372.423 71.5647C371.883 71.5047 371.523 71.0247 371.553 70.5147C371.613 69.9747 372.093 69.6147 372.633 69.6447C373.323 69.7347 373.923 70.1547 374.433 70.5447C374.643 70.7247 374.883 70.8747 375.063 70.9647C375.063 70.9647 375.093 70.9647 375.123 70.9947C375.663 71.2947 376.173 71.3247 376.713 71.0847C376.803 71.0547 376.923 71.0247 377.013 71.0247C377.583 70.9647 377.973 70.6947 378.303 70.2147C378.363 70.1247 378.423 70.0647 378.483 70.0047C379.683 68.9247 380.733 67.6647 381.753 66.3447C380.913 65.2647 380.133 64.1847 379.383 63.1047C378.363 61.6347 377.343 60.1647 376.143 58.8447C375.783 58.4547 375.813 57.8547 376.233 57.4947C376.623 57.1347 377.223 57.1647 377.583 57.5547C378.843 58.9647 379.923 60.4947 380.973 61.9947C381.603 62.8947 382.233 63.8247 382.923 64.7247L383.373 64.1247C383.943 63.3147 384.513 62.5047 385.113 61.7247C385.293 61.4847 385.473 61.2447 385.683 61.0047C386.733 59.5947 387.933 58.0047 389.253 56.8647C389.673 56.5047 390.273 56.5647 390.633 56.9547C390.963 57.3447 390.933 57.9747 390.513 58.3047C389.343 59.3247 388.203 60.8247 387.213 62.1447L386.643 62.8947C386.073 63.6447 385.503 64.4547 384.933 65.2347C384.693 65.5647 384.453 65.9247 384.183 66.2547C384.543 66.6447 384.513 67.2447 384.123 67.6047C383.943 67.7547 383.703 67.8447 383.493 67.8447ZM395.173 72.3147C395.023 72.3147 394.873 72.2847 394.723 72.2247C394.303 72.0447 394.063 71.6247 394.123 71.1747L394.153 71.0247C394.183 70.8447 394.243 70.6947 394.363 70.5747C395.413 70.4847 396.403 70.4547 397.243 70.4547H397.843C397.543 70.7247 397.243 70.9947 396.913 71.2647C396.883 71.3247 396.823 71.3547 396.763 71.4147C396.373 71.7747 395.803 72.3147 395.173 72.3147ZM389.053 75.0147C389.353 74.0547 389.713 73.3047 390.163 72.5847C390.223 72.5247 390.283 72.4347 390.313 72.3147C390.343 72.2847 390.373 72.2547 390.403 72.1947C390.343 71.8047 390.553 71.3547 390.913 71.1447C391.093 71.0547 391.243 71.0247 391.423 71.0547C392.413 70.8147 393.403 70.6647 394.363 70.5747C394.573 70.3347 394.903 70.1847 395.233 70.2147C395.323 70.1547 395.383 70.0647 395.443 70.0047L395.683 69.7947C396.313 69.2847 396.913 68.7147 397.543 68.1147C397.813 67.8147 398.113 67.5447 398.413 67.2747L400.603 65.2947C401.443 64.5447 402.343 63.7647 403.183 62.9547C403.573 62.5947 403.963 62.2047 404.323 61.8147C405.043 61.1247 405.763 60.4047 406.543 59.7147C407.803 58.6647 409.243 57.8547 410.503 57.1347L410.893 56.9247C411.433 56.5947 412.063 56.2347 412.723 56.0547C413.293 55.8747 413.803 55.9047 414.283 56.1147C414.343 56.1447 414.523 56.2047 414.673 56.2347C415.243 56.4147 415.903 56.5947 416.263 57.1047C416.563 57.5247 416.683 58.2147 416.113 58.8747L413.833 65.3847C413.293 66.9747 412.633 68.5347 411.943 70.0647C411.943 70.0947 411.913 70.1247 411.913 70.1247C411.883 70.1547 411.883 70.1847 411.853 70.2447C411.763 70.4247 411.703 70.6347 411.643 70.8447C411.493 71.3547 410.983 71.6547 410.473 71.5347C409.963 71.4147 409.663 70.9047 409.753 70.3947C409.753 70.3647 409.783 70.3347 409.783 70.3047C410.473 70.2747 411.163 70.2447 411.853 70.2447C412.483 70.2147 413.083 70.2147 413.683 70.2147C413.743 70.2147 413.833 70.2147 413.893 70.1847C414.343 70.1547 414.943 70.1247 415.423 70.4547C415.663 70.6347 415.813 70.9347 415.843 71.2347C415.843 71.5347 415.693 71.8347 415.453 72.0147C415.273 72.1647 415.093 72.4347 414.883 72.7047L413.923 74.1147C413.593 74.9847 412.873 75.4947 412.003 75.5247H411.973C411.463 75.5247 411.013 75.0747 411.013 74.5647C411.013 74.0247 411.463 73.6047 411.973 73.6047C412.033 73.6047 412.033 73.5747 412.033 73.5747C412.063 73.5747 412.123 73.5147 412.153 73.3647C412.183 73.2747 412.213 73.2147 412.273 73.1247C412.483 72.7947 412.723 72.4647 412.963 72.1347C411.193 72.1647 409.423 72.2547 407.593 72.3447C405.343 72.4647 403.093 72.4347 400.903 72.4047C399.703 72.3747 398.473 72.3747 397.243 72.3747C395.863 72.3747 394.123 72.4347 392.323 72.7947C392.293 72.8547 392.263 72.8847 392.203 72.9147L391.993 73.2447C391.933 73.3947 391.843 73.5447 391.783 73.6647C391.393 74.2047 391.123 74.8047 390.883 75.5847C390.763 76.0047 390.373 76.2747 389.983 76.2747C389.863 76.2747 389.773 76.2447 389.683 76.2147C389.173 76.0647 388.903 75.5247 389.053 75.0147ZM397.843 70.4547C398.893 70.4547 399.913 70.4547 400.933 70.4847C403.093 70.5147 405.313 70.5447 407.503 70.4247C408.253 70.3947 409.033 70.3347 409.783 70.3047V70.1247C409.753 69.7647 409.933 69.4347 410.203 69.2247C410.893 67.7847 411.493 66.2547 412.033 64.7547L414.313 58.1547C414.253 58.1247 414.193 58.0947 414.133 58.0947C413.893 58.0047 413.683 57.9447 413.503 57.8847C413.473 57.8547 413.443 57.8547 413.263 57.8847C412.813 58.0347 412.363 58.3047 411.883 58.5747C411.733 58.6647 411.583 58.7547 411.433 58.8147C410.263 59.4747 408.913 60.2247 407.803 61.1847C407.053 61.8147 406.393 62.4747 405.703 63.1947L404.533 64.3347C403.663 65.1747 402.733 65.9847 401.863 66.7347C401.143 67.3647 400.423 68.0247 399.733 68.6847L398.863 69.4947C398.533 69.8247 398.173 70.1247 397.843 70.4547ZM422.483 73.6047C422.363 73.6047 422.273 73.6047 422.153 73.6047H422.063C421.073 73.4247 420.113 73.1547 419.183 72.7647C418.253 72.4647 417.503 71.9247 416.963 71.1447C416.303 70.1547 416.123 69.1647 416.063 68.3847C416.033 67.8447 416.423 67.3947 416.963 67.3347C417.473 67.3047 417.953 67.6947 417.983 68.2347C418.043 69.0447 418.223 69.5847 418.553 70.0347C418.853 70.4847 419.273 70.7847 419.783 70.9347C419.813 70.9647 419.843 70.9647 419.873 70.9647C420.653 71.2947 421.493 71.5347 422.333 71.6847C422.753 71.7147 423.173 71.6547 423.563 71.5647C423.593 71.5647 423.623 71.5347 423.653 71.5347C424.553 71.3847 425.453 71.1147 426.263 70.6947C426.833 70.2747 427.283 69.7647 427.643 69.1047C427.643 69.0747 427.673 69.0447 427.703 69.0147C428.093 68.4747 428.303 67.9047 428.333 67.2747C428.333 66.5847 427.913 65.8347 427.223 65.4147C426.563 65.0247 425.723 64.9947 424.853 65.0847C424.223 65.5647 423.503 65.9547 422.693 66.2547C422.033 66.4647 421.253 66.7047 420.383 66.7047C420.323 66.7047 420.263 66.7047 420.203 66.7347C419.903 66.7347 419.543 66.7647 419.183 66.6447C418.973 66.5547 418.763 66.4047 418.643 66.1947C418.463 65.8947 418.463 65.5347 418.613 65.2047C418.733 64.9347 419.093 64.2147 423.053 63.4347L424.073 63.2547C424.493 62.8947 424.853 62.5047 425.213 62.1147C425.783 61.5147 426.293 60.8847 426.833 60.1947L427.283 59.7447L427.403 59.6547L427.433 59.6247C427.463 59.5047 427.463 59.3247 427.343 59.1147C427.103 58.7547 426.533 58.3947 426.023 58.3347C425.783 58.2747 425.603 58.2747 425.423 58.2747C425.273 58.3047 425.063 58.3647 424.853 58.4247C424.673 58.4847 424.493 58.5447 424.283 58.5747C424.013 58.6347 423.773 58.6947 423.533 58.7247C423.143 58.7547 422.813 58.8147 422.513 58.9347C422.093 59.1147 421.673 59.3847 421.253 59.6547C421.103 59.7447 420.953 59.8347 420.833 59.9247C420.593 60.0747 420.383 60.2847 420.143 60.5247C419.993 60.6747 419.873 60.7947 419.723 60.9147L419.513 61.0947C419.453 61.2747 419.363 61.4247 419.213 61.5447C418.823 61.9047 418.223 61.8747 417.863 61.4847L417.773 61.3947C417.533 61.0947 417.473 60.6747 417.653 60.3147C417.833 59.9547 418.133 59.7447 418.313 59.5947L418.433 59.5047C418.553 59.4147 418.673 59.2947 418.763 59.1747C419.063 58.9047 419.363 58.5747 419.813 58.3047C419.933 58.2147 420.053 58.1547 420.203 58.0647C420.683 57.7347 421.193 57.4047 421.763 57.1647C422.303 56.9547 422.813 56.8647 423.263 56.8047C423.473 56.7747 423.683 56.7447 423.893 56.7147L424.283 56.5947C424.583 56.5047 424.883 56.4147 425.243 56.3847C425.573 56.3547 425.903 56.3547 426.323 56.4147C427.373 56.5947 428.423 57.2547 428.963 58.0947C429.383 58.7547 429.473 59.5047 429.263 60.2247C429.143 60.7347 428.813 61.0047 428.603 61.1547L428.543 61.2147C428.453 61.2747 428.393 61.3347 428.333 61.4247C427.853 62.0247 427.343 62.6247 426.803 63.2247C427.313 63.3147 427.793 63.4947 428.243 63.7647C429.473 64.5447 430.253 65.9247 430.253 67.3347C430.193 68.3847 429.863 69.2847 429.293 70.0947C428.813 70.9647 428.153 71.7147 427.313 72.2847C427.283 72.3147 427.253 72.3447 427.193 72.3747C426.203 72.8847 425.123 73.2447 424.013 73.4247C423.503 73.5447 422.993 73.6047 422.483 73.6047ZM431.325 73.3947C431.235 73.3947 431.115 73.3647 431.025 73.3347C430.575 73.2447 430.245 72.8247 430.275 72.3747C430.275 72.1047 430.335 71.8647 430.395 71.6847C430.395 71.6247 430.425 71.5647 430.425 71.5047C430.605 70.6047 430.905 69.7347 431.205 68.9247C431.325 68.6247 431.415 68.3547 431.505 68.0547C431.955 66.7347 432.435 65.3847 432.885 64.0947L433.875 61.3647C434.175 60.5547 434.445 59.7447 434.685 58.9047C434.625 58.6947 434.625 58.4247 434.745 58.1847C434.865 57.8847 435.015 57.6147 435.165 57.3447C435.345 56.9547 435.765 56.7447 436.215 56.8347C436.635 56.9247 436.935 57.2847 436.965 57.7047C436.995 58.1247 436.905 58.5147 436.695 58.9047C436.395 59.9547 436.035 61.0047 435.675 62.0247C435.375 62.9247 435.045 63.8247 434.715 64.7547C434.235 66.0147 433.785 67.3647 433.335 68.6547C433.245 68.9547 433.125 69.2547 433.035 69.5547C432.915 69.8547 432.825 70.1247 432.735 70.3947C432.825 70.3047 432.885 70.2447 432.945 70.2147L435.315 68.2947C437.085 66.8247 438.945 65.3247 440.895 63.9447C441.555 63.4947 442.215 63.0447 442.905 62.5947C444.735 61.3347 446.625 60.0447 448.365 58.6347L448.845 58.2447C449.175 58.0047 449.595 57.7047 449.775 57.4347C450.045 57.0147 450.615 56.8647 451.035 57.1347C451.485 57.3747 451.665 57.9447 451.425 58.3947C451.275 58.6947 451.155 59.0847 451.005 59.4747C450.945 59.7147 450.855 59.9547 450.765 60.1947L450.045 62.0847C449.595 63.2247 449.145 64.3947 448.725 65.5647C448.425 66.4047 448.155 67.2747 447.885 68.1147L447.255 69.9747C446.805 71.7147 446.475 72.1347 445.995 72.3447C445.725 72.4647 445.395 72.4347 445.125 72.2847C444.855 72.1347 444.675 71.8347 444.645 71.5347V71.2347C444.615 70.8147 444.825 70.4547 445.155 70.3047C445.215 70.0947 445.305 69.8547 445.395 69.4947C445.395 69.4347 445.425 69.4047 445.425 69.4047L446.055 67.5147C446.325 66.6747 446.625 65.7747 446.925 64.9047C447.345 63.7347 447.795 62.5347 448.245 61.3947L448.395 61.0647C446.925 62.1447 445.425 63.1647 443.985 64.1547C443.325 64.6347 442.665 65.0847 442.005 65.5347C440.085 66.8547 438.285 68.3247 436.515 69.7647C435.735 70.4247 434.955 71.0847 434.145 71.7147C434.115 71.7447 434.055 71.7747 433.995 71.8347C432.915 72.7947 432.075 73.3947 431.325 73.3947ZM130.979 103.605C130.859 103.605 130.769 103.605 130.649 103.605H130.559C129.569 103.425 128.609 103.155 127.679 102.765C126.749 102.465 125.999 101.925 125.459 101.145C124.799 100.155 124.619 99.1647 124.559 98.3847C124.529 97.8447 124.919 97.3947 125.459 97.3347C125.969 97.3047 126.449 97.6947 126.479 98.2347C126.539 99.0447 126.719 99.5847 127.049 100.035C127.349 100.485 127.769 100.785 128.279 100.935C128.309 100.965 128.339 100.965 128.369 100.965C129.149 101.295 129.989 101.535 130.829 101.685C131.249 101.715 131.669 101.655 132.059 101.565C132.089 101.565 132.119 101.535 132.149 101.535C133.049 101.385 133.949 101.115 134.759 100.695C135.329 100.275 135.779 99.7647 136.139 99.1047C136.139 99.0747 136.169 99.0447 136.199 99.0147C136.589 98.4747 136.799 97.9047 136.829 97.2747C136.829 96.5847 136.409 95.8347 135.719 95.4147C135.059 95.0247 134.219 94.9947 133.349 95.0847C132.719 95.5647 131.999 95.9547 131.189 96.2547C130.529 96.4647 129.749 96.7047 128.879 96.7047C128.819 96.7047 128.759 96.7047 128.699 96.7347C128.399 96.7347 128.039 96.7647 127.679 96.6447C127.469 96.5547 127.259 96.4047 127.139 96.1947C126.959 95.8947 126.959 95.5347 127.109 95.2047C127.229 94.9347 127.589 94.2147 131.549 93.4347L132.569 93.2547C132.989 92.8947 133.349 92.5047 133.709 92.1147C134.279 91.5147 134.789 90.8847 135.329 90.1947L135.779 89.7447L135.899 89.6547L135.929 89.6247C135.959 89.5047 135.959 89.3247 135.839 89.1147C135.599 88.7547 135.029 88.3947 134.519 88.3347C134.279 88.2747 134.099 88.2747 133.919 88.2747C133.769 88.3047 133.559 88.3647 133.349 88.4247C133.169 88.4847 132.989 88.5447 132.779 88.5747C132.509 88.6347 132.269 88.6947 132.029 88.7247C131.639 88.7547 131.309 88.8147 131.009 88.9347C130.589 89.1147 130.169 89.3847 129.749 89.6547C129.599 89.7447 129.449 89.8347 129.329 89.9247C129.089 90.0747 128.879 90.2847 128.639 90.5247C128.489 90.6747 128.369 90.7947 128.219 90.9147L128.009 91.0947C127.949 91.2747 127.859 91.4247 127.709 91.5447C127.319 91.9047 126.719 91.8747 126.359 91.4847L126.269 91.3947C126.029 91.0947 125.969 90.6747 126.149 90.3147C126.329 89.9547 126.629 89.7447 126.809 89.5947L126.929 89.5047C127.049 89.4147 127.169 89.2947 127.259 89.1747C127.559 88.9047 127.859 88.5747 128.309 88.3047C128.429 88.2147 128.549 88.1547 128.699 88.0647C129.179 87.7347 129.689 87.4047 130.259 87.1647C130.799 86.9547 131.309 86.8647 131.759 86.8047C131.969 86.7747 132.179 86.7447 132.389 86.7147L132.779 86.5947C133.079 86.5047 133.379 86.4147 133.739 86.3847C134.069 86.3547 134.399 86.3547 134.819 86.4147C135.869 86.5947 136.919 87.2547 137.459 88.0947C137.879 88.7547 137.969 89.5047 137.759 90.2247C137.639 90.7347 137.309 91.0047 137.099 91.1547L137.039 91.2147C136.949 91.2747 136.889 91.3347 136.829 91.4247C136.349 92.0247 135.839 92.6247 135.299 93.2247C135.809 93.3147 136.289 93.4947 136.739 93.7647C137.969 94.5447 138.749 95.9247 138.749 97.3347C138.689 98.3847 138.359 99.2847 137.789 100.095C137.309 100.965 136.649 101.715 135.809 102.285C135.779 102.315 135.749 102.345 135.689 102.375C134.699 102.885 133.619 103.245 132.509 103.425C131.999 103.545 131.489 103.605 130.979 103.605ZM139.551 102.615C139.371 102.615 139.161 102.555 139.011 102.435C138.561 102.165 138.441 101.565 138.741 101.115L138.951 100.695C139.071 100.485 139.191 100.215 139.371 99.9447C139.581 99.6747 139.821 99.4047 140.031 99.1647L140.391 98.8047C140.571 98.5947 140.751 98.3847 140.961 98.1747C141.561 97.4847 142.221 96.8547 142.851 96.2247L145.641 96.1347C145.221 96.5547 144.771 97.0347 144.321 97.4547L143.661 98.1147C142.761 98.1447 141.861 98.1747 140.961 98.1747C140.781 98.1747 140.631 98.1747 140.481 98.1747H139.941C139.431 98.1747 139.011 97.7547 139.011 97.2147C139.011 96.6747 139.431 96.2547 139.971 96.2547H140.061H140.091C140.991 96.2547 141.921 96.2547 142.851 96.2247C142.881 96.1947 142.941 96.1347 142.971 96.1047L144.321 94.7247C146.391 92.5947 148.821 90.1647 151.851 88.4547C152.811 87.9447 153.591 87.6747 154.431 87.5847C155.001 87.5247 155.511 87.5547 155.961 87.6147C156.111 87.6447 156.261 87.6447 156.411 87.6747C156.621 87.5547 156.861 87.5247 157.101 87.6147C157.581 87.7347 157.881 88.2147 157.791 88.6947L157.761 88.8147C157.731 88.9647 157.671 89.0847 157.611 89.2047C157.101 90.4347 156.651 91.7247 156.201 92.9547C155.901 93.8547 155.541 94.8147 155.181 95.7447C155.151 95.8947 155.091 96.0147 155.031 96.1647C154.851 96.6747 154.641 97.1847 154.461 97.6647C153.771 97.6647 153.081 97.6947 152.391 97.7247C152.631 97.0647 152.901 96.4347 153.141 95.7747C153.801 95.7447 154.461 95.7447 155.121 95.7447H155.181C156.111 95.7747 156.951 95.8947 157.731 96.0147C158.481 96.1347 159.201 96.2547 159.921 96.2547C160.461 96.2547 160.881 96.7047 160.851 97.2447C160.851 97.7547 160.431 98.2047 159.891 98.1747C159.021 98.1747 158.211 98.0247 157.431 97.9047C156.651 97.7847 155.901 97.6647 155.151 97.6647C154.911 97.6647 154.701 97.6647 154.461 97.6647L153.291 100.815L153.231 100.935C153.081 101.325 152.931 101.775 152.601 102.165C152.361 102.495 151.911 102.615 151.521 102.465C151.131 102.345 150.891 101.955 150.891 101.535L150.921 101.325C150.921 101.025 151.071 100.755 151.311 100.605C151.341 100.485 151.401 100.365 151.431 100.275L151.491 100.125C151.761 99.3747 152.061 98.5647 152.391 97.7247C150.891 97.7547 149.421 97.8447 147.951 97.9347C146.541 97.9947 145.101 98.0847 143.661 98.1147C143.031 98.7447 142.401 99.4047 141.831 100.065C141.711 100.215 141.591 100.335 141.441 100.485L140.931 101.085C140.841 101.205 140.751 101.355 140.691 101.535C140.601 101.745 140.481 101.955 140.331 102.165C140.151 102.465 139.851 102.615 139.551 102.615ZM145.641 96.1347C146.391 96.0747 147.141 96.0447 147.861 96.0147C149.601 95.8947 151.371 95.8047 153.141 95.7747L153.261 95.4747C153.651 94.4247 154.041 93.3747 154.401 92.3247C154.731 91.3947 155.061 90.4347 155.421 89.5047C155.151 89.4747 154.911 89.4447 154.641 89.4747C154.071 89.5347 153.531 89.7447 152.811 90.1347C149.991 91.7247 147.771 93.9447 145.701 96.0747L145.641 96.1347Z" fill="#1A1A1A"/>
<path d="M177.803 97.5747C177.773 98.5047 177.893 99.4047 178.133 100.215C178.643 101.955 180.323 101.925 181.013 101.835C182.753 101.565 184.373 100.665 185.963 99.0147C186.533 98.4447 186.893 97.9647 187.073 97.2747C187.073 97.2447 187.103 97.1847 187.133 97.1247C187.193 96.9747 187.193 96.8547 187.163 96.7047C187.103 96.5847 187.103 96.4647 187.133 96.3147V96.2547C187.103 96.2547 187.073 96.2247 187.013 96.1947C186.893 96.1347 186.803 96.1047 186.743 96.0147C185.513 94.9047 183.593 94.6647 182.273 94.6047C182.183 94.6047 182.093 94.5747 182.033 94.5447C181.283 94.3347 180.683 94.4247 180.113 94.9047C179.993 94.9647 179.903 95.0247 179.783 95.0547C178.823 95.3547 178.283 95.9847 178.073 97.0647C178.043 97.2747 177.953 97.4547 177.803 97.5747ZM176.273 100.755C175.403 97.7847 175.973 94.0347 177.713 90.9147C178.043 90.3147 178.523 89.8947 178.913 89.5347L179.123 89.3247C180.053 88.4847 181.223 87.5247 182.723 86.8347C184.253 86.1447 186.623 85.5747 188.603 85.9947C189.683 86.2047 190.793 86.5647 191.453 87.5247C191.783 88.0047 192.173 88.8447 192.263 89.5047C192.263 89.5647 192.443 91.0047 191.543 91.3947C191.153 91.5747 190.673 91.4547 190.373 91.0647C190.103 90.7347 190.103 90.2847 190.343 89.9247V89.7447C190.283 89.4447 190.073 88.9047 189.863 88.6047C189.593 88.2147 188.903 88.0047 188.213 87.8547C186.683 87.5247 184.703 88.0647 183.503 88.6047C182.513 89.0547 181.583 89.6847 180.443 90.7347L180.203 90.9447C179.843 91.2747 179.573 91.5447 179.393 91.8447C179.093 92.3547 178.853 92.8947 178.643 93.4347C178.763 93.3747 178.913 93.3147 179.033 93.2847C180.053 92.5347 181.253 92.3247 182.483 92.6847C184.073 92.7747 186.293 93.0747 187.913 94.5147C188.663 94.8747 189.053 95.5347 189.053 96.3447C189.173 96.8547 189.113 97.3647 188.903 97.8447C188.603 98.9547 187.973 99.7047 187.343 100.365C185.423 102.315 183.443 103.425 181.283 103.725C181.013 103.755 180.743 103.785 180.473 103.785C178.433 103.785 176.843 102.645 176.273 100.755ZM198.977 88.1847C198.767 88.3347 198.437 88.6047 197.987 89.0547L197.897 89.1447C196.427 90.4947 195.347 92.5047 194.687 95.0847C194.207 96.9447 194.447 98.8347 195.377 100.155C196.097 101.175 197.207 101.805 198.587 101.925C200.447 102.105 202.727 100.815 204.077 99.5847C204.827 98.8047 205.487 97.9047 205.967 96.9147C205.967 96.8847 205.967 96.8547 205.997 96.8547C206.567 95.8347 206.927 94.7847 207.107 93.6447C207.197 92.2647 206.507 90.6147 205.517 89.6547C204.617 88.9047 203.597 88.4247 202.427 88.2147C201.857 88.1847 201.317 88.2747 200.837 88.3347C200.117 88.4547 199.487 88.5447 198.977 88.1847ZM192.827 94.5747C193.607 91.6647 194.867 89.3547 196.577 87.7347L196.637 87.6747C197.927 86.4447 198.977 85.6947 199.907 86.2047C200.027 86.2647 200.147 86.3547 200.237 86.4747C200.357 86.4747 200.477 86.4447 200.567 86.4447C201.107 86.3547 201.797 86.2647 202.577 86.2947H202.697C204.227 86.5647 205.607 87.2247 206.777 88.1847C206.777 88.2147 206.807 88.2147 206.807 88.2447C208.277 89.5947 209.147 91.8447 209.027 93.8247V93.8847C208.817 95.2647 208.367 96.5547 207.677 97.7547C207.107 98.9547 206.327 100.035 205.397 100.965C203.777 102.465 201.227 103.875 198.917 103.875C198.737 103.875 198.587 103.845 198.407 103.845C196.457 103.665 194.867 102.765 193.817 101.265C192.557 99.4947 192.197 97.0047 192.827 94.5747ZM230.381 103.155C229.001 103.155 228.041 102.495 227.081 101.745C224.381 99.6447 222.851 95.3847 225.041 92.1747C226.661 89.7747 229.631 87.2247 233.111 87.2247H233.231C234.371 87.2547 235.691 87.8847 236.531 88.8147C237.221 89.5347 237.521 90.3747 237.461 91.2147C237.431 91.7547 236.981 92.1447 236.441 92.1147C235.931 92.0547 235.511 91.6047 235.571 91.0647C235.571 90.7047 235.331 90.3447 235.121 90.1047C234.641 89.5647 233.801 89.1747 233.201 89.1447C230.441 89.1147 227.921 91.3347 226.631 93.2247C225.071 95.5347 226.241 98.6547 228.251 100.245C229.241 101.025 229.811 101.325 230.711 101.235C231.821 100.905 232.901 100.455 233.951 99.8847C235.091 99.3447 236.201 98.7747 237.281 98.1747C237.761 97.9047 238.331 98.0847 238.601 98.5347C238.841 99.0147 238.691 99.5847 238.211 99.8547C237.101 100.455 235.961 101.055 234.821 101.595C233.681 102.225 232.451 102.705 231.191 103.095C231.131 103.095 231.101 103.125 231.041 103.125C230.831 103.155 230.591 103.155 230.381 103.155ZM240.401 104.955C240.161 104.955 239.831 104.925 239.531 104.655C239.201 104.325 239.171 103.905 239.171 103.755C239.171 103.275 239.381 102.825 239.531 102.405C239.591 102.285 239.621 102.195 239.651 102.105C239.891 101.385 240.191 100.665 240.461 99.9747C240.701 99.3147 240.971 98.6247 241.181 97.9647C241.391 97.4247 241.571 96.8847 241.751 96.3147C242.501 94.1847 243.251 91.9947 243.761 89.8047C243.731 89.6547 243.761 89.4747 243.821 89.2947L243.941 88.9947C244.121 88.6047 244.451 88.3947 244.841 88.3947C245.141 88.1547 245.531 87.9147 246.011 87.7947L247.001 87.5547C248.411 87.1947 249.881 86.8647 251.381 86.6247C251.771 86.5647 252.191 86.4747 252.611 86.4147C253.481 86.2647 254.351 86.1147 255.251 86.0247C255.341 85.9947 255.491 85.9947 255.611 85.9647C256.421 85.8447 257.531 85.6947 258.341 86.3247C258.641 86.5647 258.761 86.9547 258.671 87.3147L258.641 87.4947C258.491 88.0047 257.981 88.3047 257.471 88.1847C257.231 88.1247 257.021 87.9747 256.901 87.7647C256.601 87.7647 256.121 87.8247 255.881 87.8547C255.731 87.8847 255.581 87.9147 255.461 87.9147C254.621 88.0047 253.781 88.1547 252.941 88.3047C252.521 88.3647 252.101 88.4547 251.651 88.5147C250.241 88.7247 248.891 89.0547 247.451 89.4147L246.461 89.6547C246.281 89.6847 246.101 89.8347 245.861 90.0447C245.771 90.0747 245.711 90.1347 245.651 90.1947C245.231 92.0247 244.631 93.8547 244.031 95.6247C243.881 96.0447 243.731 96.4947 243.581 96.9447L243.311 97.7247C243.281 97.7247 243.221 97.7247 243.161 97.7247H242.921C242.411 97.6047 242.051 97.1247 242.171 96.5847C242.231 96.1347 242.651 95.8047 243.101 95.8047L243.221 95.7747C243.491 95.7147 243.761 95.6547 244.031 95.6247C244.361 95.5347 244.691 95.4747 245.051 95.4147C245.351 95.3547 245.651 95.2647 245.981 95.2047L246.401 95.1147C247.481 94.9047 248.621 94.6647 249.671 94.3647C250.181 94.2147 250.721 94.5147 250.871 95.0247C250.991 95.5347 250.691 96.0747 250.181 96.2247C249.071 96.5247 247.901 96.7647 246.791 97.0047L246.371 97.0947L245.441 97.2747C244.811 97.4247 244.181 97.5447 243.581 97.6647C243.521 97.6947 243.431 97.6947 243.311 97.7247C243.221 98.0247 243.101 98.2947 243.011 98.5947C242.771 99.2847 242.501 100.005 242.231 100.665C241.961 101.325 241.691 102.045 241.481 102.705C241.451 102.765 241.451 102.795 241.421 102.825C242.951 102.435 244.511 102.105 246.041 101.775L247.091 101.535C249.011 101.115 250.991 100.665 253.001 100.425L253.361 100.365C253.901 100.305 254.441 100.245 255.011 100.215C255.971 100.215 256.331 100.665 256.661 101.055L256.691 101.115C257.051 101.535 256.991 102.135 256.571 102.465C256.151 102.795 255.551 102.735 255.221 102.345L255.191 102.285C255.131 102.225 255.101 102.195 255.071 102.135H255.041C254.591 102.165 254.111 102.225 253.601 102.285L253.241 102.315C251.321 102.555 249.371 103.005 247.511 103.395L246.431 103.635C244.931 103.965 243.371 104.325 241.841 104.715L241.691 104.745C241.331 104.865 240.941 104.955 240.521 104.955H240.401ZM262.601 103.935C262.481 103.935 262.331 103.905 262.181 103.845C261.731 103.635 261.551 103.095 261.701 102.645L262.241 101.235C262.331 100.995 262.511 100.785 262.751 100.695C262.871 100.395 262.991 100.095 263.111 99.7947L263.171 99.7047C263.681 98.6847 264.191 97.6347 264.671 96.5547C265.031 95.7147 265.391 94.8747 265.751 94.0047L265.931 93.5847C266.051 93.5247 266.201 93.4647 266.351 93.4347C266.411 93.4347 266.471 93.4047 266.531 93.4047L268.091 93.2847C267.911 93.7647 267.731 94.2747 267.521 94.7547C267.221 95.5047 266.891 96.2847 266.561 97.0347C266.411 97.0947 266.231 97.1247 266.081 97.1847C265.841 97.2747 265.601 97.2447 265.361 97.1547C265.121 97.0347 264.851 96.8547 264.671 96.5547C264.491 96.2847 264.401 95.9247 264.431 95.4447C264.491 94.8147 264.791 94.0347 265.931 93.5847C266.351 92.4747 266.771 91.3647 267.161 90.2847C267.611 89.0547 268.091 87.7647 268.601 86.5347C268.781 86.0847 269.261 85.8447 269.711 85.9647C270.191 86.0847 270.491 86.5347 270.431 87.0147L270.401 87.2547C270.371 87.4647 270.281 87.6447 270.161 87.7947C269.741 88.8447 269.351 89.8947 268.961 90.9447C268.691 91.6947 268.391 92.5047 268.091 93.2847L268.511 93.2547H268.661C269.141 93.2847 269.591 93.3747 270.041 93.4947C271.211 92.8347 272.321 91.9947 273.401 91.1547L273.671 90.9447C273.701 90.9447 273.731 90.9147 273.731 90.9147C274.901 90.1647 275.951 89.2647 276.851 88.2447C276.911 88.1547 277.001 88.0947 277.061 88.0647C277.361 87.8847 277.451 87.7047 277.421 87.3747C277.391 86.8347 277.781 86.3847 278.291 86.3547C278.831 86.2947 279.281 86.7147 279.341 87.2247C279.401 88.2147 279.011 89.0247 278.201 89.5947C277.211 90.7047 276.071 91.6947 274.811 92.5047L274.571 92.6847C273.761 93.3147 272.921 93.9447 272.051 94.5147C272.291 94.6947 272.531 94.9047 272.741 95.1447C273.851 95.9247 274.751 96.9447 275.441 98.1447L276.431 99.7047L276.941 100.425C277.511 100.695 278.141 100.815 278.801 100.785C279.341 100.755 279.791 101.145 279.821 101.685C279.851 102.225 279.431 102.675 278.921 102.705H278.561C277.601 102.705 276.701 102.465 275.831 102.015C275.711 101.955 275.621 101.865 275.531 101.745L274.841 100.815C274.841 100.785 274.811 100.785 274.811 100.755L273.791 99.1647C273.791 99.1347 273.761 99.1347 273.761 99.1047C273.221 98.1147 272.471 97.3047 271.571 96.6747L271.421 96.5247C271.031 96.1347 270.611 95.8347 270.161 95.5947C269.441 95.9247 268.751 96.1947 268.031 96.4647C267.551 96.6747 267.071 96.8547 266.561 97.0347C266.021 98.2047 265.481 99.3747 264.911 100.515C264.491 101.565 264.011 102.555 263.411 103.485C263.231 103.785 262.931 103.935 262.601 103.935ZM293.897 98.5047C293.597 98.5047 293.297 98.3847 293.117 98.1147L292.667 97.5447C292.277 97.1247 291.857 96.7347 291.377 96.3147C291.347 96.2847 291.317 96.2547 291.257 96.2247C291.707 95.7447 292.127 95.2647 292.547 94.7547L292.697 94.9047C293.087 95.2947 293.537 95.6847 293.927 96.1047C293.507 96.5847 293.087 97.0647 292.667 97.5447L292.517 97.7247C291.527 98.8947 290.447 100.065 289.307 101.145L289.157 101.235L287.717 102.195C287.687 102.195 287.657 102.225 287.627 102.225C287.177 102.465 286.757 102.555 286.337 102.555C285.707 102.555 285.137 102.345 284.597 101.895L283.547 101.175C283.517 101.175 283.487 101.145 283.487 101.115C283.457 101.115 283.457 101.115 283.427 101.085C283.097 101.475 282.557 101.505 282.137 101.205C281.717 100.905 281.627 100.305 281.957 99.8847C282.377 99.3147 282.857 99.1647 283.187 99.1047C283.667 99.0447 284.177 99.2247 284.657 99.6147L285.707 100.335C285.767 100.335 285.797 100.365 285.827 100.395C286.127 100.665 286.367 100.695 286.727 100.545L288.047 99.6747C289.097 98.6847 290.117 97.6047 291.047 96.4647C291.107 96.3747 291.197 96.2847 291.257 96.2247C290.897 95.8647 290.507 95.5047 290.117 95.0847C288.827 93.7047 287.657 92.1747 286.547 90.7047C286.217 90.2547 285.887 89.8047 285.557 89.3847C285.287 89.2947 285.047 89.1147 284.957 88.8447C284.687 88.2447 284.927 87.6147 285.467 87.3747C285.887 87.1947 286.367 87.2847 286.637 87.6447C287.117 88.2747 287.597 88.9047 288.077 89.5647C289.187 90.9747 290.297 92.4747 291.527 93.7647C291.857 94.0947 292.187 94.4247 292.547 94.7547C293.417 93.7647 294.287 92.7447 295.127 91.6947C295.817 90.8247 296.567 89.9247 297.317 89.0547L297.407 88.9647C297.557 88.8147 297.677 88.6647 297.767 88.4547C298.007 87.9747 298.577 87.7647 299.057 88.0047C299.537 88.2447 299.747 88.8147 299.507 89.2947C299.327 89.6847 299.057 90.0447 298.757 90.3447C298.037 91.1847 297.317 92.0547 296.597 92.9247C295.727 93.9747 294.827 95.0547 293.927 96.1047C294.197 96.3747 294.437 96.6747 294.677 96.9747C294.977 97.4247 294.887 98.0247 294.467 98.3247C294.287 98.4447 294.077 98.5047 293.897 98.5047ZM299.891 105.015C299.801 105.015 299.741 105.015 299.651 104.985C299.201 104.865 298.871 104.415 298.931 103.935L298.961 103.755C298.961 103.575 299.051 103.425 299.141 103.275C299.531 102.225 299.951 101.205 300.341 100.185C300.731 99.2247 301.091 98.2947 301.451 97.3347C301.511 97.1247 301.601 96.9447 301.661 96.7347C301.931 96.0447 302.171 95.3547 302.411 94.6647L303.281 94.5147C303.701 94.4247 304.151 94.3647 304.571 94.2747C304.331 94.9947 304.121 95.6847 303.851 96.3447C303.791 96.3747 303.701 96.3747 303.611 96.4047C302.981 96.5247 302.321 96.6447 301.661 96.7347C300.821 96.8847 299.981 97.0347 299.141 97.1547H299.021C298.541 97.1547 298.121 96.7947 298.061 96.3147C298.001 95.8047 298.361 95.3247 298.871 95.2347C300.041 95.0547 301.241 94.8747 302.411 94.6647C303.131 92.5647 303.791 90.4347 304.451 88.3647C304.631 87.7347 304.841 87.1047 305.021 86.4747C305.171 86.0547 305.561 85.7847 306.011 85.8147C306.431 85.8147 306.821 86.1447 306.881 86.5647L306.911 86.7147C306.971 87.0147 306.911 87.2847 306.731 87.5247L306.281 88.9347C305.741 90.7047 305.171 92.5047 304.571 94.2747C305.681 94.0947 306.821 93.9147 307.931 93.7647C310.151 93.4347 312.401 93.1347 314.621 92.8947C315.281 92.6247 315.941 92.4747 316.571 92.4747C317.201 92.5047 317.831 92.6547 318.431 92.9847L317.681 95.5347C317.171 95.5647 316.751 95.2647 316.661 94.7847C316.631 94.6647 316.631 94.5447 316.631 94.4247C316.421 94.3947 316.211 94.4247 315.971 94.4847C316.181 93.8247 316.361 93.1647 316.571 92.4747C316.901 91.3047 317.261 90.1047 317.621 88.9047C317.621 88.8747 317.621 88.8447 317.651 88.8147C317.921 88.0947 318.131 87.3147 318.251 86.5347C318.161 86.1747 318.251 85.9047 318.341 85.7847C318.491 85.4847 318.761 85.3047 319.061 85.2447C319.361 85.1847 319.691 85.2747 319.901 85.4847C320.111 85.6947 320.231 85.9947 320.201 86.2947C320.111 87.3747 319.841 88.4547 319.451 89.4747C319.091 90.6447 318.761 91.8147 318.431 92.9847L318.641 93.1047C318.911 93.2547 319.091 93.5547 319.091 93.8847C319.121 94.7247 318.611 95.3547 317.801 95.5347C317.771 95.5347 317.711 95.5347 317.681 95.5347L317.591 95.8347C317.411 96.4047 317.261 96.9447 317.111 97.5147C316.691 99.0447 316.241 100.635 315.611 102.105C315.461 102.465 315.101 102.675 314.741 102.675C314.591 102.675 314.471 102.675 314.351 102.615C313.871 102.405 313.631 101.835 313.841 101.355C314.441 99.9747 314.861 98.4747 315.251 97.0047C315.401 96.4347 315.581 95.8647 315.731 95.2947C315.821 95.0247 315.881 94.7547 315.971 94.4847C315.731 94.5147 315.491 94.6047 315.251 94.7247C315.161 94.7547 315.071 94.7847 314.981 94.7847C312.731 95.0547 310.451 95.3247 308.201 95.6547C306.761 95.8647 305.291 96.1047 303.851 96.3447C303.671 96.9147 303.461 97.4847 303.251 98.0247C302.891 98.9847 302.531 99.9447 302.141 100.875C301.691 102.045 301.211 103.215 300.791 104.385C300.641 104.775 300.281 105.015 299.891 105.015ZM325.563 102.315C325.413 102.315 325.263 102.285 325.113 102.225C324.693 102.045 324.453 101.625 324.513 101.175L324.543 101.025C324.573 100.845 324.633 100.695 324.753 100.575C325.803 100.485 326.793 100.455 327.633 100.455H328.233C327.933 100.725 327.633 100.995 327.303 101.265C327.273 101.325 327.213 101.355 327.153 101.415C326.763 101.775 326.193 102.315 325.563 102.315ZM319.443 105.015C319.743 104.055 320.103 103.305 320.553 102.585C320.613 102.525 320.673 102.435 320.703 102.315C320.733 102.285 320.763 102.255 320.793 102.195C320.733 101.805 320.943 101.355 321.303 101.145C321.483 101.055 321.633 101.025 321.813 101.055C322.803 100.815 323.793 100.665 324.753 100.575C324.963 100.335 325.293 100.185 325.623 100.215C325.713 100.155 325.773 100.065 325.833 100.005L326.073 99.7947C326.703 99.2847 327.303 98.7147 327.933 98.1147C328.203 97.8147 328.503 97.5447 328.803 97.2747L330.993 95.2947C331.833 94.5447 332.733 93.7647 333.573 92.9547C333.963 92.5947 334.353 92.2047 334.713 91.8147C335.433 91.1247 336.153 90.4047 336.933 89.7147C338.193 88.6647 339.633 87.8547 340.893 87.1347L341.283 86.9247C341.823 86.5947 342.453 86.2347 343.113 86.0547C343.683 85.8747 344.193 85.9047 344.673 86.1147C344.733 86.1447 344.913 86.2047 345.063 86.2347C345.633 86.4147 346.293 86.5947 346.653 87.1047C346.953 87.5247 347.073 88.2147 346.503 88.8747L344.223 95.3847C343.683 96.9747 343.023 98.5347 342.333 100.065C342.333 100.095 342.303 100.125 342.303 100.125C342.273 100.155 342.273 100.185 342.243 100.245C342.153 100.425 342.093 100.635 342.033 100.845C341.883 101.355 341.373 101.655 340.863 101.535C340.353 101.415 340.053 100.905 340.143 100.395C340.143 100.365 340.173 100.335 340.173 100.305C340.863 100.275 341.553 100.245 342.243 100.245C342.873 100.215 343.473 100.215 344.073 100.215C344.133 100.215 344.223 100.215 344.283 100.185C344.733 100.155 345.333 100.125 345.813 100.455C346.053 100.635 346.203 100.935 346.233 101.235C346.233 101.535 346.083 101.835 345.843 102.015C345.663 102.165 345.483 102.435 345.273 102.705L344.313 104.115C343.983 104.985 343.263 105.495 342.393 105.525H342.363C341.853 105.525 341.403 105.075 341.403 104.565C341.403 104.025 341.853 103.605 342.363 103.605C342.423 103.605 342.423 103.575 342.423 103.575C342.453 103.575 342.513 103.515 342.543 103.365C342.573 103.275 342.603 103.215 342.663 103.125C342.873 102.795 343.113 102.465 343.353 102.135C341.583 102.165 339.813 102.255 337.983 102.345C335.733 102.465 333.483 102.435 331.293 102.405C330.093 102.375 328.863 102.375 327.633 102.375C326.253 102.375 324.513 102.435 322.713 102.795C322.683 102.855 322.653 102.885 322.593 102.915L322.383 103.245C322.323 103.395 322.233 103.545 322.173 103.665C321.783 104.205 321.513 104.805 321.273 105.585C321.153 106.005 320.763 106.275 320.373 106.275C320.253 106.275 320.163 106.245 320.073 106.215C319.563 106.065 319.293 105.525 319.443 105.015ZM328.233 100.455C329.283 100.455 330.303 100.455 331.323 100.485C333.483 100.515 335.703 100.545 337.893 100.425C338.643 100.395 339.423 100.335 340.173 100.305V100.125C340.143 99.7647 340.323 99.4347 340.593 99.2247C341.283 97.7847 341.883 96.2547 342.423 94.7547L344.703 88.1547C344.643 88.1247 344.583 88.0947 344.523 88.0947C344.283 88.0047 344.073 87.9447 343.893 87.8847C343.863 87.8547 343.833 87.8547 343.653 87.8847C343.203 88.0347 342.753 88.3047 342.273 88.5747C342.123 88.6647 341.973 88.7547 341.823 88.8147C340.653 89.4747 339.303 90.2247 338.193 91.1847C337.443 91.8147 336.783 92.4747 336.093 93.1947L334.923 94.3347C334.053 95.1747 333.123 95.9847 332.253 96.7347C331.533 97.3647 330.813 98.0247 330.123 98.6847L329.253 99.4947C328.923 99.8247 328.563 100.125 328.233 100.455ZM349.514 97.7547C349.334 97.7547 349.184 97.6947 349.004 97.6047C348.554 97.3347 348.434 96.7347 348.704 96.2847C350.564 93.2547 352.244 90.0747 353.714 86.8347C353.714 86.6847 353.774 86.5047 353.864 86.3547L354.074 86.0547C354.344 85.6347 354.884 85.5147 355.334 85.7547C355.754 85.9947 355.934 86.5047 355.754 86.9847C354.194 90.5247 352.364 94.0047 350.324 97.3047C350.144 97.6047 349.844 97.7547 349.514 97.7547ZM346.334 101.205C346.364 100.725 346.574 100.305 346.934 100.005C346.994 99.9447 347.054 99.9147 347.144 99.8547C347.234 99.8247 347.294 99.7947 347.384 99.7947C347.594 99.6747 347.804 99.6147 348.044 99.6147C348.374 99.6447 348.644 99.7947 348.824 100.065C349.154 100.545 349.184 101.175 348.944 101.715C348.704 102.285 348.194 102.675 347.624 102.765H347.474C347.204 102.765 346.934 102.675 346.754 102.465C346.454 102.135 346.304 101.655 346.334 101.205Z" fill="#FF6B00"/>
<path d="M175.598 18.737C193.153 18.737 210.199 18.1683 227.664 16.6067C241.806 15.3422 256.586 16.4362 270.805 16.4362C286.827 16.4362 302.85 16.4362 318.873 16.4362C337.268 16.4362 354.91 19.1269 373.077 21.2082C385.73 22.6579 398.907 21.6482 411.383 23.9351C423.007 26.066 434.419 29.7702 446.062 31.6044C454.065 32.865 468.804 36.65 472.839 44.0457C475.007 48.0202 476 52.6985 476 57.1261C476 64.9539 471.729 74.772 465.959 80.8158C463.122 83.7867 459.844 86.5126 456.475 88.9537C453.387 91.1918 449.481 92.2117 446.341 94.3223C438.544 99.563 429.289 101.723 420.355 105.059C407.792 109.75 395.29 113.781 382.235 117.245C345.919 126.88 307.794 129.942 270.154 129.942C248.56 129.942 227.145 130.527 205.722 127.982C191.635 126.308 176.81 122.273 162.582 122.273C140.944 122.273 120.703 115.538 99.6381 112.473C88.1868 110.807 76.6422 105.203 65.1444 104.633C58.1211 104.285 48.9223 100.326 42.5516 97.7308C37.6248 95.7239 32.2687 95.6418 27.3037 94.0666C21.5267 92.2338 18.3264 87.8669 13.2645 85.2895C7.92325 82.5698 9.46449 78.0682 7.22116 73.956C5.87203 71.483 3.74601 70.1093 3.26973 67.0536C2.90938 64.7418 2.9108 61.6871 3.26973 59.3843C4.07928 54.1904 9.36537 47.8913 14.1013 45.2387C17.1611 43.5249 20.169 42.0835 23.1198 40.2111C25.5097 38.6947 27.0429 36.2977 30.0465 35.6095C34.5151 34.5856 38.1722 31.8133 42.3656 30.241C46.3188 28.7587 50.6267 27.8005 54.7313 26.7472C64.8862 24.1411 74.2341 20.1729 84.8086 18.737C120.063 13.9501 155.008 8 190.66 8" stroke="#1A1A1A" stroke-width="3" stroke-linecap="round"/>
<path d="M88.6859 36.2331C83.8612 30.8723 82.0255 20.6777 80.0061 13.8626C78.8659 10.0143 79.0218 5.62992 79.0218 1.60352" stroke="#1A1A1A" stroke-width="3" stroke-linecap="round"/>
<path d="M431.738 129.534C424.485 134.844 413.873 136.859 409.474 137.202C411.762 141.759 410.589 148.821 404.066 155.279C397.543 161.736 381.197 168.298 376.715 163.306C373.13 159.313 374.944 153.077 376.299 150.458C370.393 150.351 357.052 147.964 350.933 139.274C341.63 135.606 339.37 121.708 354.053 116.641C356.518 101.446 372.74 94.0542 380.543 92.2577C388.355 87.3477 404.891 77.0701 408.536 75.2397C413.093 72.9516 414.899 77.6409 413.821 88.8252C420.764 86.9191 429.257 88.39 432.635 89.3637C435.616 88.8909 443.046 89.5128 448.915 95.7827C454.785 102.053 447.731 112.873 443.47 117.499C442.582 119.299 438.991 124.225 431.738 129.534Z" fill="#FAFAFA"/>
<path d="M391.078 101.398C391.453 102.059 394.271 99.3775 395.105 99.1485C396.245 98.8356 397.384 98.5227 398.524 98.2098C400.18 97.7553 401.677 99.073 403.15 98.8466C404.432 98.6496 404.508 98.4269 405.758 97.7706C406.81 97.218 411.655 95.582 412.562 96.4746C414.174 98.0608 417.697 96.3785 419.556 95.8681C421.882 95.2295 424.454 94.1926 426.359 96.2887C428.103 98.2079 430.733 96.5131 433.217 96.9905C436.037 97.5323 438.307 96.7032 440.954 98.3836C443.295 99.8696 444.121 102.871 444.798 105.337C445.429 107.636 442.439 109.111 440.63 109.892C439.354 110.443 438.738 111.88 437.425 112.319C436.962 112.473 434.178 113.581 435.835 114.281C436.814 114.694 434.552 117.832 434.034 118.292C433.05 119.164 431.543 119.27 430.496 120.132C429.658 120.823 428.15 120.967 427.106 121.253C425.961 121.568 424.604 120.842 423.517 121.497C422.835 121.908 422.496 123.3 421.819 123.849C420.808 124.668 419.735 125.344 418.767 126.127C416.725 127.782 413.136 125.894 411.951 128.083C410.685 130.422 408.152 131.796 405.714 132.465C403.497 133.074 398.979 134.987 397.291 132.489" stroke="#FF6B00" stroke-width="3" stroke-linecap="round"/>
<path d="M388.644 101.544C389.415 100.473 392.031 99.1267 393.286 98.7098C394.424 98.3313 395.013 97.1587 396.147 96.7544C398.566 95.8922 400.649 93.5609 402.573 91.9575C404.546 90.3134 406.135 88.8815 407.396 86.6476C407.831 85.877 408.008 84.6475 407.779 83.8128C407.389 82.3943 406.298 84.569 405.738 85.153C403.966 86.9998 401.525 88.0041 399.517 89.2871C396.215 91.3965 393.017 93.5658 389.77 95.7756C387.251 97.4901 384.649 99.435 381.727 100.323C379.789 100.913 377.649 101.818 375.784 102.648C373.418 103.701 371.065 105.442 368.644 106.255C366.882 106.846 364.766 108.415 363.783 110.015C362.783 111.643 361.86 113.317 360.976 114.989C360.196 116.462 360.036 117.807 359.451 119.306" stroke="#FF6B00" stroke-width="3" stroke-linecap="round"/>
<path d="M388.954 102.911C384.346 104.176 380.048 107.908 376.169 110.637C374.729 111.65 373.363 112.69 372.585 114.219C371.646 116.065 371.983 116.769 373.995 116.216C377.281 115.315 380.315 113.6 383.27 111.946C385.602 110.64 388.337 109.98 390.915 109.272C392.489 108.84 394.372 107.981 396.023 108.104C397.988 108.249 400.014 109.179 401.932 109.228C404.161 109.285 406.63 110.095 408.866 110.476C411.7 110.959 414.663 111.465 417.446 112.145C418.505 112.404 419.515 112.535 418.071 112.932C416.455 113.375 414.839 113.819 413.223 114.262C407.077 115.95 400.96 117.282 395.347 120.235C391.355 122.334 387.667 126.261 383.267 127.469C377.85 128.956 372.792 132.502 366.964 131.561" stroke="#FF6B00" stroke-width="3" stroke-linecap="round"/>
<path d="M382.829 129.368C385.677 128.586 387.489 129.39 390.199 130.602C392.692 131.716 395.128 132.807 397.486 134.158C399.962 135.576 404.629 139.5 403.816 142.789C403.235 145.141 400.539 147.529 399.095 149.429C397.905 150.994 395.976 152.743 394.304 153.81C391.141 155.828 387.823 157.267 384.159 158.128C382.933 158.416 382.008 157.343 381.494 156.368C380.959 155.354 382.355 154.79 383.104 154.287C386.087 152.285 388.899 149.779 391.581 147.361C393.043 146.042 391.703 143.264 391.155 141.644C390.326 139.195 387.632 139.93 386.106 141.306C383.527 143.631 381.572 143.892 378.282 144.05C373.557 144.278 369.027 142.428 364.58 141.276C363.242 140.929 361.325 138.881 360.452 137.81C359.196 136.27 357.557 132.938 357.786 130.877C358.008 128.88 356.992 126.842 357.284 124.883C357.558 123.049 358.073 121.338 358.415 119.591" stroke="#FF6B00" stroke-width="3" stroke-linecap="round"/>
<path d="M356.402 123.311C354.985 123.7 352.722 123.902 352.185 125.492C351.787 126.668 350.521 128.613 350.955 129.9C351.102 130.338 353.677 130.985 354.183 131.147C354.999 131.409 356.58 132.102 356.627 131.086" stroke="#FF6B00" stroke-width="3" stroke-linecap="round"/>
</svg>
