<svg width="1440" height="753" viewBox="0 0 1440 753" fill="none" xmlns="http://www.w3.org/2000/svg">
<path d="M772.158 -419V1095.66" stroke="#3F3F3F" stroke-width="2"/>
<path d="M350.896 -419V1095.66" stroke="#3F3F3F" stroke-width="2"/>
<path d="M1193.42 -419V1095.66" stroke="#3F3F3F" stroke-width="2"/>
<path d="M140.268 -419V1095.66" stroke="#3F3F3F" stroke-width="2"/>
<path d="M982.789 -419V1095.66" stroke="#3F3F3F" stroke-width="2"/>
<path d="M561.527 -419V1095.66" stroke="#3F3F3F" stroke-width="2"/>
<path d="M1404.05 -419V1095.66" stroke="#3F3F3F" stroke-width="2"/>
<path d="M34.9512 -419V1095.66" stroke="#3F3F3F" stroke-width="2"/>
<path d="M877.473 -419V1095.66" stroke="#3F3F3F" stroke-width="2"/>
<path d="M456.211 -419V1095.66" stroke="#3F3F3F" stroke-width="2"/>
<path d="M1298.73 -419V1095.66" stroke="#3F3F3F" stroke-width="2"/>
<path d="M245.582 -419V1095.66" stroke="#3F3F3F" stroke-width="2"/>
<path d="M1088.1 -419V1095.66" stroke="#3F3F3F" stroke-width="2"/>
<path d="M666.842 -419V1095.66" stroke="#3F3F3F" stroke-width="2"/>
<path d="M1448 393.07L-8.99998 393.07" stroke="#3F3F3F" stroke-width="2"/>
<path d="M1448 612.039L-8.99998 612.039" stroke="#3F3F3F" stroke-width="2"/>
<path d="M1448 174.105L-8.99998 174.105" stroke="#3F3F3F" stroke-width="2"/>
<path d="M1448 502.554L-8.99998 502.553" stroke="#3F3F3F" stroke-width="2"/>
<path d="M1448 64.6196L-8.99998 64.6195" stroke="#3F3F3F" stroke-width="2"/>
<path d="M1448 721.514L-8.99998 721.513" stroke="#3F3F3F" stroke-width="2"/>
<path d="M1448 283.588L-8.99998 283.588" stroke="#3F3F3F" stroke-width="2"/>
</svg>
