<svg width="30" height="33" viewBox="0 0 30 33" fill="none" xmlns="http://www.w3.org/2000/svg">
<path d="M15.5287 11.9147C15.5287 25.0694 15.5675 24.6238 14.3082 25.9218C12.0609 28.266 8.51551 27.8592 6.88813 25.0694C6.44254 24.3138 6.34568 23.907 6.34568 22.8802C6.34568 21.369 6.77189 20.381 7.93431 19.3348C8.90298 18.4436 9.85229 18.153 11.2859 18.2499L12.429 18.3274V16.6806C12.429 15.7701 12.4871 14.4333 12.5452 13.7165L12.6808 12.4378L11.5959 12.3022C10.1816 12.1278 7.87619 12.5928 6.22943 13.4065C3.45902 14.7626 1.2698 17.8043 0.766091 20.9816C-0.22196 27.3748 5.377 33.3225 11.7315 32.6638C15.9162 32.2376 19.171 29.6415 20.5852 25.5731C21.0115 24.3719 21.0502 24.0038 21.1083 17.6881L21.1858 11.0817L22.2707 11.721C23.7431 12.5928 26.0098 13.329 27.7147 13.484L29.0902 13.6196V10.9073V8.21439L27.8116 7.94316C26.0486 7.61381 24.0919 6.58701 23.0844 5.50209C22.0576 4.37842 21.1471 2.46044 21.0115 1.08492L20.8952 0H18.2217H15.5287V11.9147Z" fill="#1A1A1A"/>
</svg>
