<svg width="29" height="33" viewBox="0 0 29 33" fill="none" xmlns="http://www.w3.org/2000/svg">
<g id="Black">
<path id="Vector" d="M15.2026 11.9147C15.2026 25.0694 15.2413 24.6238 13.982 25.9218C11.7347 28.266 8.18934 27.8592 6.56196 25.0694C6.11637 24.3138 6.0195 23.907 6.0195 22.8802C6.0195 21.369 6.44572 20.381 7.60814 19.3348C8.57681 18.4436 9.52612 18.153 10.9598 18.2499L12.1028 18.3274V16.6806C12.1028 15.7701 12.1609 14.4333 12.219 13.7165L12.3547 12.4378L11.2697 12.3022C9.85547 12.1278 7.55001 12.5928 5.90326 13.4065C3.13284 14.7626 0.943632 17.8043 0.439919 20.9816C-0.548132 27.3748 5.05083 33.3225 11.4054 32.6638C15.59 32.2376 18.8448 29.6415 20.2591 25.5731C20.6853 24.3719 20.724 24.0038 20.7822 17.6881L20.8596 11.0817L21.9446 11.721C23.417 12.5928 25.6837 13.329 27.3885 13.484L28.7641 13.6196V10.9073V8.21439L27.4854 7.94316C25.7224 7.61381 23.7657 6.58701 22.7583 5.50209C21.7315 4.37842 20.8209 2.46044 20.6853 1.08492L20.569 0H17.8955H15.2026V11.9147Z" fill="#1A1A1A"/>
</g>
</svg>
