<svg width="33" height="40" viewBox="0 0 33 40" fill="none" xmlns="http://www.w3.org/2000/svg">
<path d="M27.6234 28.0978C28.0777 26.7788 28.5467 25.5013 28.6835 24.0993C28.7495 23.4325 28.7934 22.6411 28.5492 22.0085C28.3733 21.5517 28.0191 21.3221 27.5331 21.4369C27.3279 21.4857 27.1911 21.5688 27.0421 21.6982C26.9713 21.7593 26.9762 21.8253 26.8907 21.8497C26.854 21.7813 26.8491 21.708 26.876 21.6299C26.8809 21.3197 26.8394 21.0119 26.7514 20.7115C26.6195 20.3158 26.3704 19.986 25.9527 19.881C25.2395 19.7027 23.5395 20.2596 23.217 20.8556C22.9899 20.5038 22.902 20.0935 22.6675 19.754C22.5331 19.5586 22.3621 19.3241 22.1716 19.1751C21.9689 19.0188 20.1883 19.0529 19.9391 19.0578C19.8023 19.0603 19.5679 19.009 19.436 19.0456C19.2479 19.0969 19.0916 19.2801 18.9499 19.3998C18.3563 19.9103 17.9704 20.135 17.819 20.8849C18.0388 20.7163 17.9265 20.1057 17.9265 19.8663C17.9265 19.3265 17.9509 18.7843 17.9045 18.2469C17.8019 17.0207 17.648 15.8043 17.604 14.5733C17.5576 13.2323 17.5991 11.8034 17.2279 10.5015C17.118 10.1156 16.925 9.14835 16.4218 9.04332C16.009 8.95783 15.4839 9.17033 15.1028 9.31689C14.3286 9.61488 13.9671 10.3696 13.7252 11.1048C13.6007 11.4859 13.4468 11.8352 13.4126 12.2358C13.3637 12.7731 13.4639 13.1835 13.5787 13.6891C13.6178 13.8649 13.6178 14.0433 13.6227 14.2216C13.6349 14.9592 13.6251 15.6969 13.6227 16.4321C13.6178 17.9978 13.6129 19.561 13.6178 21.1267C13.6202 22.2234 13.6813 23.242 13.8449 24.3191C13.9304 24.8711 13.1439 25.8115 13.1952 26.366C13.2465 26.9473 12.5308 26.5809 12.289 26.4759C11.5831 26.1681 11.1239 25.8335 10.7038 25.1911C10.335 24.6269 10.164 23.9772 9.74142 23.4447C9.568 23.2249 9.48251 22.944 9.34573 22.7021C9.12345 22.3065 8.71799 21.7569 8.20749 22.0598C7.70677 22.3577 7.60174 23.2908 7.58708 23.8233C7.55777 24.8809 7.73852 25.9972 8.04628 27.0035C8.33939 27.9634 8.81813 28.8427 9.51915 29.5633C9.98568 30.042 10.5426 30.4011 11.0238 30.8652C11.4805 31.3049 11.8274 31.8105 12.228 32.2941C12.3086 32.3918 12.3965 32.4773 12.4991 32.5554C12.6969 32.7044 12.8826 32.8217 13.0389 33.022C13.4663 33.574 13.6471 34.402 13.8254 35.0664C13.8694 35.2276 14.1527 36.8568 14.4824 36.7909C14.7609 37.233 14.988 37.1866 15.4546 37.4479C15.7672 37.6238 16.1067 37.7654 16.4463 37.8827C17.1448 38.122 17.8629 38.0927 18.5884 38.0879C19.6631 38.083 22.4525 38.1709 23.4271 37.6458C23.625 37.5383 23.8204 37.443 24.0304 37.3624C24.2673 37.272 25.5448 37.2549 25.7622 37.1377C26.1188 36.9472 26.0406 36.3341 26.0895 35.997C26.2214 35.0957 26.1164 34.1065 26.1115 33.2003C26.109 32.3991 26.1213 31.4392 26.4998 30.7089C26.6171 30.4793 26.7881 30.2839 26.9175 30.064C27.2815 29.4729 27.4012 28.745 27.6234 28.0978Z" stroke="#FF6B00" stroke-width="2" stroke-miterlimit="10" stroke-linecap="round" stroke-linejoin="round"/>
<path d="M15.7796 1C15.7723 2.48996 15.9017 3.97749 15.8895 5.46501C15.8895 5.44547 15.8871 5.42593 15.8871 5.40639" stroke="#FF6B00" stroke-width="2" stroke-miterlimit="10" stroke-linecap="round" stroke-linejoin="round"/>
<path d="M21.2637 10.9977C21.889 10.9732 22.4801 10.9097 23.0907 10.7827" stroke="#FF6B00" stroke-width="2" stroke-miterlimit="10" stroke-linecap="round" stroke-linejoin="round"/>
<path d="M8.57617 6.26855C9.03782 7.21871 9.70708 8.24703 10.7256 8.63295" stroke="#FF6B00" stroke-width="2" stroke-miterlimit="10" stroke-linecap="round" stroke-linejoin="round"/>
<path d="M30.8533 4.15584C28.3277 4.0044 25.8021 3.99708 23.274 4.13142C21.7083 4.19249 20.1475 4.30973 18.5892 4.4856C16.5301 4.67123 14.4686 4.81045 12.4046 4.89594C10.3504 4.97899 8.2962 5.07181 6.24444 5.18417C5.28696 5.18172 4.34169 5.28675 3.40863 5.5017C2.90302 5.66779 2.41939 5.88274 1.95775 6.14898C1.70372 6.29553 1.69151 6.43476 1.52053 6.68635C1.37153 6.90374 1.27383 7.17242 1.17613 7.41667C0.985605 7.88076 1.00026 8.34485 1.00026 8.83825C1.00026 9.53926 1.07842 10.2158 1.15414 10.912C1.25673 11.8499 1.38374 12.7805 1.42038 13.7258C1.44481 14.3291 1.42527 14.9153 1.56694 15.5089C1.68418 16.0096 1.90645 16.481 2.02614 16.9769C2.07743 17.1845 2.09941 17.5435 2.3168 17.673C2.51709 17.7927 3.00805 17.8244 3.21811 17.8782C4.21223 18.142 5.19658 18.3447 6.22979 18.3789C6.79646 18.3887 7.36314 18.3667 7.92737 18.3154C8.4745 18.2983 9.02164 18.3129 9.56633 18.3618C10.0329 18.3765 10.4969 18.3911 10.9635 18.4082C11.3079 18.4522 11.6523 18.4693 11.9991 18.4571C12.4754 18.4033 12.9395 18.3105 13.4109 18.2104" stroke="#FF6B00" stroke-width="2" stroke-miterlimit="10" stroke-linecap="round" stroke-linejoin="round"/>
<path d="M18.0977 17.5166C19.4948 17.5362 20.8822 17.3481 22.2818 17.3359C23.1611 17.3285 24.0404 17.3237 24.9197 17.3456C25.4156 17.3579 25.8821 17.4604 26.3731 17.502C27.0692 17.563 27.7458 17.4751 28.4199 17.2944C28.6495 17.2333 28.8669 17.182 29.1038 17.1698C29.3774 17.1551 29.5679 17.0354 29.8122 16.9084C30.1615 16.9304 30.1175 16.6642 30.3398 16.4395C30.8259 15.9509 31.3583 15.4575 31.693 14.8493C32.0398 14.2192 32.0081 13.5084 31.9885 12.8098C31.9641 11.9598 31.8981 11.1147 31.8908 10.2646C31.8859 9.46349 31.9055 8.69653 31.8102 7.90025C31.732 7.2432 31.6343 6.59837 31.627 5.93643C31.6221 5.47723 31.5513 5.04489 31.544 4.58813" stroke="#FF6B00" stroke-width="2" stroke-miterlimit="10" stroke-linecap="round" stroke-linejoin="round"/>
</svg>
