<svg width="33" height="34" viewBox="0 0 33 34" fill="none" xmlns="http://www.w3.org/2000/svg">
<path d="M11.6424 12.7171C11.4899 12.2825 11.5421 11.9106 11.6131 11.4634C11.6779 11.0392 11.7218 10.544 11.866 10.1386C11.9475 9.91295 12.146 9.72907 12.2567 9.51594C12.4176 9.20251 12.6036 8.84102 12.8731 8.60281C13.1594 8.34997 13.477 8.12221 13.826 7.96341C13.9095 7.9258 13.9952 7.9049 14.0725 7.85057C14.3275 7.67714 14.5051 7.41177 14.7725 7.24461C14.9313 7.17774 15.0818 7.09416 15.2197 6.99386C15.0839 6.81207 15.0525 6.56968 14.9313 6.37536C14.8143 6.1873 14.7077 6.0473 14.6242 5.83416C14.2752 4.94193 14.1269 4.14164 14.0997 3.18881C14.0892 2.77299 14.1269 2.51179 14.3922 2.18791C14.7579 1.74284 15.3158 1.50255 15.8152 1.26016C16.091 1.12643 16.2958 0.986429 16.6113 1.00106C17.0585 1.02195 17.3991 1.09091 17.7439 1.37926C18.4815 1.99568 18.9537 2.93388 19.148 3.85955C19.3235 4.68701 19.1355 5.47476 18.6465 6.15804C18.4689 6.4067 18.2976 6.58849 18.1868 6.86222C18.1012 7.07326 18.1095 7.26968 18.0134 7.45774C18.2307 7.49535 18.283 7.51207 18.4271 7.68132C18.565 7.84221 18.6674 7.92789 18.8722 7.98012C19.171 8.05535 19.3716 8.22669 19.6286 8.41057C19.9734 8.65922 20.3432 8.864 20.6838 9.1231C21.8331 10.0028 22.2573 11.3443 22.5247 12.715C22.1862 12.7129 21.9773 13.3022 21.6408 13.3565C21.0704 13.4505 20.5041 13.4192 19.9379 13.5362C18.5525 13.8225 17.1985 13.3356 15.8027 13.4422C14.9397 13.507 13.9242 13.6929 13.0675 13.4882C12.8982 13.4485 12.731 13.3816 12.5597 13.3502C12.4385 13.3294 12.2672 13.3628 12.1501 13.3356C12.0582 13.3126 12.0499 13.2437 11.9579 13.2228C11.8639 13.204 11.7364 12.7192 11.6424 12.7171Z" stroke="white" stroke-width="1.5" stroke-miterlimit="10" stroke-linecap="round"/>
<path d="M0.966801 32.3231C0.954264 31.8425 0.979338 31.3285 1.09217 30.8604C1.1277 30.71 1.24053 30.57 1.2677 30.4237C1.29486 30.2816 1.2677 30.1249 1.28859 29.9786C1.38889 29.3204 1.7253 28.8733 2.07426 28.3383C2.25605 28.0604 2.36053 27.8055 2.63008 27.5903C2.77634 27.4733 2.9644 27.4001 3.10231 27.2706C3.36559 27.0219 3.51604 26.7273 3.8441 26.5706C4.00499 26.4933 4.18678 26.4787 4.13455 26.2697C4.12619 26.2321 3.94231 25.9793 3.91932 25.9375C3.86082 25.8351 3.80649 25.7536 3.73962 25.6575C3.52022 25.344 3.29873 24.9491 3.17963 24.5814C3.02709 24.1091 3.01664 23.6223 3.01664 23.1312C3.01455 22.6569 3.01037 22.3351 3.32798 21.9548C3.67485 21.5411 4.11156 21.2924 4.60887 21.0918C5.15006 20.8724 5.66618 20.6614 6.25543 20.7763C6.90737 20.9038 7.36916 21.096 7.8393 21.5891C8.3387 22.1136 8.54975 22.5942 8.72318 23.29C8.86109 23.8458 9.02407 24.5625 8.75034 25.0954C8.54557 25.4924 8.11721 25.6846 7.86856 26.0399C8.06706 26.1966 8.40557 26.1652 8.63751 26.253C8.99064 26.3867 9.2978 26.673 9.59243 26.9028C10.4512 27.5736 10.6121 28.6539 10.8253 29.6548C10.9381 30.1897 10.9924 30.7413 11.1282 31.27C11.2244 31.644 11.3309 31.9679 11.3393 32.3544C11.3414 32.4631 11.4041 32.8518 11.3205 32.9291C11.2014 33.0398 10.9172 32.7807 10.8357 32.7327C10.4596 32.5133 10.1065 32.5216 9.68228 32.5258C9.09303 32.5321 8.4996 32.5425 7.91035 32.5341C6.59394 32.5174 5.27961 32.1121 3.97992 31.9282C3.40321 31.8467 2.87664 32.0159 2.31038 32.0118C2.11605 32.0118 1.90083 31.9825 1.71486 32.0327C1.68769 32.0891 1.64172 32.1246 1.57904 32.1434C1.44322 32.1936 1.30949 32.2186 0.966801 32.3231Z" stroke="white" stroke-width="1.5" stroke-miterlimit="10" stroke-linecap="round"/>
<path d="M22.5226 32.428C22.4014 31.3039 22.416 30.186 22.719 29.0806C22.9175 28.3576 23.4733 27.8582 23.9643 27.3295C24.3467 26.9179 24.5703 26.6107 25.1449 26.5209C25.3413 26.4896 25.7843 26.5334 25.6966 26.2221C25.6652 26.1113 25.4751 25.963 25.3999 25.8585C25.2912 25.706 25.1658 25.5848 25.0509 25.4385C24.7563 25.0666 24.5369 24.5797 24.3634 24.143C24.1608 23.6373 24.2464 22.9729 24.2611 22.4317C24.2819 21.6355 24.9652 20.9773 25.684 20.6911C26.0393 20.549 26.4028 20.5406 26.7748 20.4947C27.4434 20.4111 28.0097 20.3985 28.6679 20.6138C29.1485 20.7705 29.8506 21.1278 30.1118 21.5833C30.4503 22.1726 30.513 23.14 30.5318 23.8003C30.5589 24.7072 29.8527 25.3821 29.5121 26.1427C29.6688 26.2472 29.8527 26.2764 30.0094 26.3809C30.2768 26.5564 30.4774 26.851 30.6404 27.1164C31.0312 27.7537 31.2715 28.4454 31.4595 29.1683C31.5452 29.5006 31.5703 29.8412 31.6601 30.1734C31.7583 30.5391 31.8733 30.9236 31.9506 31.2934C31.9777 31.4209 32.0404 31.8618 31.9631 31.9621C31.8879 32.0603 31.7479 32.0185 31.6225 32.0143C31.355 32.008 31.1315 32.0456 30.8703 32.0895C30.07 32.2253 29.2321 32.3507 28.4192 32.3382C27.8154 32.3298 27.2219 32.2358 26.6201 32.217C26.1897 32.2044 25.7572 32.2504 25.3267 32.2274C24.9945 32.2086 24.6894 32.1125 24.3551 32.1167C23.9414 32.1209 23.3584 32.2274 22.9718 32.1021C22.9927 32.0728 23.0136 32.0456 22.5226 32.428Z" stroke="white" stroke-width="1.5" stroke-miterlimit="10" stroke-linecap="round"/>
<path d="M4.4563 16.0017C4.49182 14.9382 4.81779 13.9749 5.18137 12.974C5.68704 11.5886 6.62942 10.1949 7.84345 9.32983" stroke="white" stroke-width="1.5" stroke-miterlimit="10" stroke-linecap="round"/>
<path d="M25.3976 9.12524C25.4353 9.36972 26.0141 9.7124 26.1645 9.89628C26.6263 10.4605 26.992 11.1605 27.3514 11.7915C27.8027 12.5876 28.1997 13.5112 28.4734 14.3846C28.672 15.0157 28.72 15.676 28.8872 16.3133" stroke="white" stroke-width="1.5" stroke-miterlimit="10" stroke-linecap="round"/>
<path d="M12.4634 26.9863C13.5876 27.4669 14.624 27.7469 15.8631 27.7992C17.3425 27.8618 18.7905 27.6738 20.2636 27.6027" stroke="white" stroke-width="1.5" stroke-miterlimit="10" stroke-linecap="round"/>
</svg>
