<svg width="21" height="33" viewBox="0 0 21 33" fill="none" xmlns="http://www.w3.org/2000/svg">
<g id="Group">
<path id="Vector" d="M1.93054 11.4385C1.31858 11.6032 1.3055 12.7199 1.22443 13.1802C0.962912 14.6813 0.787698 16.967 1.53826 18.3478C1.92008 19.0513 2.36466 19.7705 3.25382 19.794C4.48035 19.8254 5.46366 16.0334 5.64934 15.4737" stroke="white" stroke-width="1.5" stroke-miterlimit="10" stroke-linecap="round" stroke-linejoin="round"/>
<path id="Vector_2" d="M6.23771 12.9004C5.5473 14.2315 5.48454 15.5444 5.69114 17.0455C5.81928 17.9686 5.96312 20.542 7.37009 20.372C8.11542 20.2805 8.98628 18.578 9.22165 17.9974C9.32103 17.7516 9.74468 16.8389 9.36548 16.6192" stroke="white" stroke-width="1.5" stroke-miterlimit="10" stroke-linecap="round" stroke-linejoin="round"/>
<path id="Vector_3" d="M12.2528 17.0926C11.8343 15.7902 11.5074 14.4565 11.1204 13.1437C10.4771 10.9678 9.82587 8.7946 9.70296 6.51415C9.62973 5.16472 9.55128 3.55115 10.0534 2.26709C10.2678 1.7179 10.7935 0.904565 11.4944 1.00917C11.8187 1.05886 11.9991 1.33346 12.2005 1.55836C12.3574 1.7362 12.5221 1.90619 12.6372 2.1154C13.0164 2.8032 13.1393 3.69498 13.3538 4.44815C13.8846 6.29971 14.426 8.15388 14.8392 10.0368C15.391 12.5579 16.1206 14.4356 16.7117 16.9461C16.7195 16.8938 17.1772 25.7123 17.185 25.66" stroke="white" stroke-width="1.5" stroke-miterlimit="10" stroke-linecap="round" stroke-linejoin="round"/>
<path id="Vector_4" d="M14.0807 6.2135C14.188 5.76369 14.8052 5.07327 15.0274 4.80129C15.6603 4.01935 16.3194 3.25834 17.1091 2.63331C17.7342 2.13642 19.1856 1.35709 19.7897 2.39009C20.3415 3.33679 19.6694 4.73853 19.3477 5.63031C18.8509 7.00329 18.2128 8.47302 17.457 9.72308C17.0124 10.458 16.4292 11.151 16.05 11.9198" stroke="white" stroke-width="1.5" stroke-miterlimit="10" stroke-linecap="round" stroke-linejoin="round"/>
<path id="Vector_5" d="M2.15808 11.3706C2.89295 10.7403 3.71935 10.7691 4.6242 11.0044C5.09494 11.1273 5.54475 11.2843 5.80104 11.7288C5.90042 11.8988 5.93964 12.0871 6.0861 12.2309C6.34761 12.4872 6.45223 12.3957 6.72944 12.2362C6.95434 12.1054 7.29693 11.9904 7.55845 11.9224C7.68659 11.9119 7.81474 11.9014 7.94288 11.891C9.52769 12.6049 11.068 13.4052 12.5639 14.2917" stroke="white" stroke-width="1.5" stroke-miterlimit="10" stroke-linecap="round" stroke-linejoin="round"/>
<path id="Vector_6" d="M14.86 25.1971C14.7188 24.9225 14.452 24.8963 14.0624 25.1134C13.1967 25.2023 12.3259 25.2494 11.455 25.2468C10.4351 25.2363 8.97582 25.2781 8.11542 24.5982C7.45901 24.0778 7.2341 23.2304 7.75452 22.5426C8.09188 22.0954 8.75614 21.881 9.26872 21.7136C10.0559 21.4573 10.9294 21.2821 11.7427 21.1383C12.6894 20.9709 13.6361 20.8977 14.5776 20.712C15.1006 20.6074 15.3804 20.8375 15.8459 21.0886C16.7586 21.5802 16.7011 22.2654 16.824 23.2984C16.9182 24.0882 17.1038 24.8649 17.1823 25.6573C17.2712 26.5648 17.2032 27.42 16.9757 28.2987C16.6828 29.4206 16.233 30.1241 15.2314 30.6942C14.588 31.0577 13.8845 31.3924 13.147 31.4971C12.3834 31.6043 11.6982 31.3715 10.9791 31.1754C9.86237 30.8668 8.55216 30.9008 7.78852 29.8966C7.42763 29.4232 7.33871 28.7982 6.77383 28.5131C6.19064 28.2202 5.34332 27.9875 4.68952 27.8907C4.30509 27.8332 3.89974 27.8855 3.52576 27.773C2.95827 27.603 2.53461 27.0591 2.19202 26.6014C0.795503 24.7289 0.994254 21.8601 1.64805 19.7627" stroke="white" stroke-width="1.5" stroke-miterlimit="10" stroke-linecap="round" stroke-linejoin="round"/>
</g>
</svg>
