<svg width="35" height="22" viewBox="0 0 35 22" fill="none" xmlns="http://www.w3.org/2000/svg">
<g id="Group 1203">
<path id="Vector" d="M29.0997 2.55552C28.3947 2.23845 27.5778 2.31678 26.828 2.22726C26.2051 2.11908 25.5784 2.02208 24.9554 1.93255C23.7842 1.79454 22.6129 1.7125 21.4378 1.68266C19.5242 1.60059 17.6181 1.63789 15.7045 1.63043C14.2385 1.62297 12.5525 1.61922 11.1984 1C11.2879 1.25738 8.72901 3.30529 9.27735 2.83155C8.38956 3.6037 7.50176 4.37215 6.61397 5.14058C4.77124 6.74457 2.90614 8.31872 1 9.84811C1.72366 10.1428 1.81317 10.5382 2.59279 10.6501C4.32361 10.8963 6.04697 11.0977 7.7666 11.4297C9.62797 11.7878 11.508 11.9967 13.3955 12.1683C15.5105 12.3623 17.6367 12.4406 19.7518 12.6495C20.5463 12.7278 21.3148 12.8621 22.0944 13.0412C22.777 13.1978 23.4559 13.4365 24.1497 13.5447C25.1755 13.7014 26.123 13.3694 27.1302 13.2799C27.0854 12.7241 27.7158 11.7729 27.921 11.1387C28.3238 9.88913 28.723 8.63579 29.0997 7.37497C29.3608 6.50956 29.5212 5.59564 29.8383 4.74515C30.0547 4.14459 28.8647 3.14862 29.0997 2.55552Z" stroke="white" stroke-width="1.5" stroke-miterlimit="10" stroke-linecap="round" stroke-linejoin="round"/>
<path id="Vector_2" d="M8.07242 11.9221C8.03885 12.1907 8.09854 12.4555 8.25148 12.7092C8.50141 13.5448 8.7252 14.3841 8.93036 15.2308C9.04227 15.7717 9.11315 16.3163 9.15046 16.8684C9.12061 17.04 9.14299 17.1967 9.2176 17.3384C9.20268 17.607 9.39293 17.8494 9.55706 18.0434C10.0196 18.5992 10.7097 18.9051 11.355 19.1998C12.9963 19.9458 14.798 20.2703 16.596 20.2591C18.5208 20.248 20.3971 19.5728 22.1689 18.8603C22.6128 18.6813 23.0679 18.506 23.4894 18.2747C23.6647 18.1777 23.8177 18.0434 24.0004 17.9576C23.8773 17.3198 24.2877 16.0701 24.5264 15.4435C24.7092 14.9585 25.0897 14.6041 25.2501 14.1043" stroke="white" stroke-width="1.5" stroke-miterlimit="10" stroke-linecap="round" stroke-linejoin="round"/>
<path id="Vector_3" d="M29.6182 3.49194C30.1404 3.91719 30.6962 4.17832 31.2669 4.53269C31.7108 4.80872 32.2182 5.14068 32.5837 5.52116C32.9418 5.89418 33.0649 6.32315 33.1694 6.823C33.2962 7.43103 33.2775 7.99059 33.091 8.5837C32.9232 9.11339 32.6844 9.59829 32.442 10.0944C31.8339 11.3328 31.5504 12.7503 31.39 14.1119C31.3826 13.9701 31.4012 14.2611 31.2558 14.2984C30.6179 14.47 30.2262 15.4585 29.9166 15.962C29.1444 17.2191 28.4021 18.4986 27.6113 19.7482C28.044 18.9089 28.7192 18.2375 29.3347 17.5325C30.077 16.6783 30.6515 15.7756 31.2632 14.8281C31.2371 14.9176 31.1961 15.0034 31.1439 15.0817C30.8902 15.6114 30.6701 16.156 30.4873 16.7118C30.1106 17.7787 29.8122 18.8641 29.6182 19.9795C30.2001 18.6478 30.6477 17.2676 31.155 15.9061C31.2744 15.5443 31.4311 15.1974 31.6176 14.8616C31.6362 14.705 31.6997 14.5894 31.8153 14.5148C31.8339 15.6599 31.8339 16.8648 32.0204 17.9988C32.0466 18.1666 32.0503 18.5993 32.2107 18.7C32.2107 17.2938 32.0167 15.8949 31.9832 14.4886C32.6359 14.9027 32.9082 16.0329 33.2253 16.7305C33.6132 17.5772 33.9751 18.4054 34.2026 19.3118" stroke="white" stroke-width="1.5" stroke-miterlimit="10" stroke-linecap="round" stroke-linejoin="round"/>
<path id="Vector_4" d="M9.63171 16.0889C9.78465 16.2343 9.92642 16.3313 10.1167 16.4283C10.9522 16.8535 11.9594 17.1557 12.8546 17.3385C13.97 17.566 15.1226 17.7301 16.2603 17.7488C17.5323 17.7712 18.7185 17.3609 19.9346 17.0252" stroke="white" stroke-width="1.5" stroke-miterlimit="10" stroke-linecap="round" stroke-linejoin="round"/>
</g>
</svg>
