<svg width="457" height="94" viewBox="0 0 457 94" fill="none" xmlns="http://www.w3.org/2000/svg">
<path d="M22.4532 3.94971C20.3226 3.94971 18.1921 3.94971 16.0616 3.94971C14.7685 3.94971 13.8349 4.90614 12.5462 5.19252C10.3277 5.68551 6.83567 5.73736 4.87623 6.82594C1.93931 8.45756 3.27832 13.9566 3.27832 17.3721C3.27832 18.8929 3.28569 25.0384 2 25.6812" stroke="#C7B4FF" stroke-width="3" stroke-linecap="round"/>
<path d="M2 76.1748C2 80.2228 2 84.2709 2 88.3189C2 91.6699 3.18381 92.2104 6.15455 91.5502C11.3517 90.3953 17.0435 90.8755 22.4532 90.8755" stroke="#C7B4FF" stroke-width="3" stroke-linecap="round"/>
<path d="M435.465 2.0322C441.391 2.0322 447.442 1.68399 453.361 2.0322C454.142 2.07812 454.64 17.2964 454.64 19.2896" stroke="#C7B4FF" stroke-width="3" stroke-linecap="round"/>
<path d="M427.795 87.0406C432.476 87.0406 437.177 87.1705 441.856 87.0406C444.143 86.9771 449.758 87.1962 451.763 86.0818C454.008 84.835 454.001 83.6929 454.001 81.2526C454.001 79.367 455.682 71.9021 454.001 71.0615" stroke="#C7B4FF" stroke-width="3" stroke-linecap="round"/>
</svg>
