<svg width="33" height="31" viewBox="0 0 33 31" fill="none" xmlns="http://www.w3.org/2000/svg">
<path d="M1.57838 24.4203C1.12067 22.7458 1.36713 20.8709 1.53657 19.2007C1.80943 16.5315 1.69721 13.7787 1.79183 11.0918C1.86665 9.00575 1.99428 6.94168 2.11311 4.85999C2.15272 4.17123 2.81287 3.92036 3.25517 3.38343C3.44882 3.14798 3.67767 2.92795 3.91973 2.7431C4.43465 2.34481 5.02878 2.04772 5.62292 1.78586C6.04762 1.59882 6.3733 1.5064 6.8376 1.5152C8.44398 1.54381 10.0416 1.33698 11.6501 1.34138C13.1531 1.34358 14.6274 1.4888 16.1238 1.52621C17.8138 1.56802 19.5148 1.524 21.2047 1.513C22.996 1.5042 24.752 1.79026 26.5278 1.92449C27.1285 1.9685 27.7909 2.14676 28.3454 2.38001C29.153 2.71889 29.4545 3.29543 29.6591 4.11402C29.9716 5.35951 29.9782 6.92188 29.9958 8.19157C30.0222 10.2314 29.9804 12.2713 29.9892 14.3112C29.9958 16.142 29.8924 17.876 29.6349 19.6914C29.4413 21.0645 29.5777 22.4443 29.3863 23.8108C29.252 24.7834 29.2894 25.7759 29.3004 26.7573C29.285 26.7353 29.2718 26.6979 29.2542 26.6737C29.1552 26.7639 29.12 26.9245 29.0562 27.061C28.7811 27.6617 28.2024 27.9478 27.7777 28.4363C27.4586 28.8038 27.3376 29.0942 26.8667 29.2615C26.2065 29.4969 25.5992 29.6488 24.9082 29.6444C23.8982 29.64 22.9277 29.9414 21.9199 29.9876C20.5006 30.0536 19.0614 29.8446 17.6487 29.7258C16.2118 29.6048 14.7704 29.7346 13.3357 29.6202C11.8218 29.5013 10.3386 29.1008 8.82467 28.9886C7.05986 28.861 4.78233 29.048 3.48402 27.5825C2.85908 26.8783 2.19673 26.0179 1.82924 25.1531C1.73022 24.9155 1.6466 24.669 1.57838 24.4203Z" stroke="#FF6B00" stroke-width="2" stroke-miterlimit="10" stroke-linecap="round" stroke-linejoin="round"/>
<path d="M1 9.57581C4.0257 9.57581 7.0338 9.60441 10.0595 9.71224C12.0048 9.78265 13.9016 9.65944 15.8403 9.58902C17.0967 9.54281 18.351 9.61323 19.6075 9.53621C23.4606 9.30296 27.3291 9.40198 31.1888 9.40198" stroke="#FF6B00" stroke-width="2" stroke-miterlimit="10" stroke-linecap="round" stroke-linejoin="round"/>
<path d="M11.9813 11.4634C11.9813 14.0622 11.9813 16.661 11.9813 19.2598C11.9813 20.2522 11.9395 21.2513 11.9703 22.2437C11.9747 22.3669 12.0121 23.3791 12.1992 23.5838C12.5006 23.9117 13.4381 23.2251 13.7131 23.0887C14.8728 22.5231 16.0545 21.9972 17.2053 21.4141C18.7501 20.6307 20.088 19.6823 21.7472 19.1784C22.1235 19.0639 22.7132 18.9803 22.5438 18.538C22.4293 18.2431 21.8484 18.0715 21.5843 17.9417C20.834 17.5698 20.044 17.2947 19.2936 16.925C17.7004 16.1417 16.1535 15.2527 14.5669 14.4561C13.887 14.115 13.383 13.6727 12.8175 13.1776C12.6107 12.9971 12.2982 12.8123 12.2168 12.5966C12.2828 12.579 12.3488 12.5658 11.9813 11.4634Z" stroke="#FF6B00" stroke-width="2" stroke-miterlimit="10" stroke-linecap="round" stroke-linejoin="round"/>
<path d="M8.37503 1C8.37283 1.32568 8.47846 1.62494 8.69191 1.8978C9.20023 2.93204 9.70414 3.97068 10.2037 5.00933C10.9232 6.50127 11.4668 8.40032 12.6638 9.57759" stroke="#FF6B00" stroke-width="2" stroke-miterlimit="10" stroke-linecap="round" stroke-linejoin="round"/>
<path d="M18.6692 1.68626C18.6604 1.63345 18.6494 1.58064 18.6406 1.52783C19.0785 2.87234 19.9455 4.12002 20.5507 5.38751C20.9842 6.29632 21.3979 7.21836 21.9238 8.07656C22.124 8.40223 22.3881 8.91495 22.7864 9.06238" stroke="#FF6B00" stroke-width="2" stroke-miterlimit="10" stroke-linecap="round" stroke-linejoin="round"/>
</svg>
