<svg width="150" height="221" viewBox="0 0 150 221" fill="none" xmlns="http://www.w3.org/2000/svg">
<path d="M5.47587 141.205C5.87542 138.008 9.41527 139.476 9.41527 142.19C9.41527 144.454 4.42907 145.46 2.74017 143.94C-1.85925 139.801 8.43042 131.994 8.43042 140.22" stroke="#C7B4FF" stroke-width="3" stroke-linecap="round"/>
<path d="M5 144.201C15.2075 144.201 22.6626 143.1 30.7639 151.574C44.69 166.141 53.125 185.419 53.125 207.062C53.125 212.675 49.2973 220.122 43.1111 218.858C39.0476 218.028 40.6271 199.719 41.0694 196.303C42.3133 186.695 41.2767 177.032 41.7986 167.358C42.216 159.621 45.2359 153.252 47.875 146.386C51.701 136.432 66.7767 121.026 75.875 132.951C81.2733 140.027 88.221 145.758 92.5 153.813C96.9385 162.169 99.5 170.697 99.5 180.574C99.5 188.606 100.841 197.252 92.9375 200.726C86.6465 203.492 82.9451 201.124 80.4444 193.9C76.648 182.932 74.2354 170.421 71.9375 158.947C69.33 145.927 66.3703 132.243 66.25 118.861C66.1809 111.177 64.798 101.694 69.0694 95.0491C72.5574 89.6233 75.5268 84.5837 81.0764 81.778C92.8225 75.8396 107.151 88.5446 112.625 99.5274C115.358 105.01 126.217 128.806 116.125 131.64C108.691 133.728 107.78 126.409 104.653 120.554C101.059 113.825 96.4821 109.042 93.5694 101.603C88.8618 89.5783 84.1609 77.0264 83.0694 63.8101C82.55 57.5209 81.6956 48.511 83.2639 42.2923C85.3358 34.0767 90.9474 25.7885 95.9514 19.4638C100.825 13.3038 106.791 8.73869 113.937 7.50344C119.537 6.53566 128.161 4.75503 133.625 7.3396C135.786 8.36171 137.992 9.41111 140.187 10.5072C142.012 11.4181 143.466 15.6653 145 17.3885" stroke="#C7B4FF" stroke-width="3" stroke-linecap="round"/>
<path d="M146.818 15.6791C146.818 11.9038 146.818 8.12857 146.818 4.35332C146.818 -2.99436 147.803 9.01309 147.803 11.1926C147.803 13.6807 149.038 18.6336 145.833 18.6336C142.222 18.6336 138.611 18.6336 135 18.6336" stroke="#C7B4FF" stroke-width="3" stroke-linecap="round"/>
</svg>
