<svg width="514" height="140" viewBox="0 0 514 140" fill="none" xmlns="http://www.w3.org/2000/svg">
<path d="M306.373 14.0428C266.024 13.42 129.849 19.7514 66.8045 22.9949C1.89226 26.1544 -27.0614 58.8033 32.2469 89.9412C91.5552 121.079 296.566 109.792 340.463 105.121C384.361 100.45 444.136 75.5399 446.938 49.4619C449.74 23.3839 356.808 14.8212 306.373 14.0428Z" fill="#FAFAFA"/>
<path d="M44.0849 71.3112C43.8449 71.3112 43.6049 71.2212 43.4249 71.0412L43.2749 70.8912C43.0049 70.6212 42.9149 70.2612 43.0349 69.9012C43.3949 68.6712 44.0549 67.6212 44.6549 66.5712C44.8049 66.3312 44.9549 66.0612 45.1049 65.7912C46.4249 63.5112 47.8349 60.9912 48.9449 58.2612C49.2149 57.6312 49.4549 56.9712 49.6949 56.3112C50.2649 56.2812 50.8349 56.1912 51.4049 56.1012C51.4349 56.0712 51.4349 56.0712 51.4649 56.0712C51.5849 56.0712 51.6749 56.0412 51.7949 56.0412C51.5849 56.7312 51.3449 57.4212 51.0749 58.1112C50.3549 58.2012 49.6649 58.2612 48.9449 58.2612C48.5549 58.2912 48.1649 58.2912 47.7749 58.2612C47.4149 58.2312 47.1149 58.0212 46.9649 57.6912C46.8149 57.3612 46.8749 57.0012 47.0849 56.7012C47.3549 56.3412 47.7749 56.1312 48.2549 56.1312C48.4649 56.1612 48.6749 56.2212 48.8249 56.3412C49.1249 56.3412 49.3949 56.3412 49.6949 56.3112L49.9949 55.3812C50.1449 54.8712 50.6849 54.5712 51.1949 54.7512C51.7049 54.9012 51.9749 55.4412 51.8249 55.9512C51.8249 55.9812 51.7949 56.0112 51.7949 56.0412C53.8649 55.8012 55.9349 55.6212 57.9749 55.4712C58.2449 55.4412 58.5449 55.4112 58.8749 55.3512C60.2249 55.2012 61.9049 54.9912 63.1349 55.6212C63.4949 55.8312 63.7049 56.2512 63.6149 56.6712C63.5849 56.9412 63.4049 57.1512 63.1949 57.3012C62.7449 58.3212 62.4449 59.4012 62.1149 60.5112C61.8749 61.2312 61.6649 61.9812 61.4249 62.7012C60.9449 64.0812 60.4949 65.5212 60.1049 66.9012C59.6849 68.2812 59.2649 69.6912 58.7849 71.0712C58.6649 71.4612 58.3049 71.7312 57.8849 71.7312L57.6749 71.7012C57.1649 71.5812 56.8649 71.1012 56.9549 70.6212C57.0449 69.8712 57.2249 69.1212 57.4349 68.4012C57.4949 68.1912 57.6449 68.0412 57.7949 67.9212L58.2449 66.3612C58.6649 64.9512 59.1149 63.5112 59.5949 62.0712C59.8349 61.3812 60.0449 60.6612 60.2549 59.9712C60.5549 59.0412 60.8249 58.0512 61.1849 57.1212C60.5249 57.0912 59.7449 57.1812 59.1149 57.2712C58.7549 57.3012 58.3949 57.3612 58.0949 57.3612C55.9949 57.5112 53.8349 57.7212 51.7349 57.9912L51.0749 58.1112C49.8749 61.2312 48.2549 64.1712 46.7849 66.7512L46.3049 67.5612C45.7949 68.4012 45.3449 69.2112 45.0149 70.0512C45.1049 70.3812 45.0449 70.7412 44.7749 71.0112C44.5949 71.1912 44.3549 71.3112 44.0849 71.3112ZM69.8308 58.7712C69.1108 59.3112 68.4508 59.9712 67.8508 60.7812C67.2508 61.6212 65.2708 64.5312 66.0208 66.7512C66.8008 69.0912 69.4708 69.0912 71.6008 68.6712C73.9408 68.1912 76.2808 67.5312 77.5108 65.8512C78.3808 64.6512 78.6208 63.3612 78.2908 61.7712L77.8108 59.9712C77.5408 59.2812 77.0608 58.8612 76.3408 58.7112C76.2808 58.7112 76.2208 58.6812 76.1608 58.6512C74.0008 57.7212 72.2008 57.7212 69.9208 58.7112L69.8308 58.7712ZM64.1908 67.3512C63.1708 64.3212 65.3308 60.9612 66.3208 59.6412C67.7608 57.7212 69.4708 56.4012 71.4208 55.7112L71.6908 55.6212C72.3208 55.4112 72.8908 55.2012 73.4308 54.9312C73.9108 54.6612 74.4808 54.8412 74.7508 55.3212C74.9008 55.6212 74.8708 55.9212 74.7508 56.1912C75.4408 56.3412 76.1308 56.5512 76.8508 56.8512C78.1708 57.1812 79.1008 58.0212 79.6408 59.3112C79.6408 59.3412 79.6408 59.3712 79.6708 59.4012L80.1508 61.2912C80.1508 61.3212 80.1808 61.3212 80.1808 61.3512C80.6008 63.4812 80.2408 65.3412 79.0708 66.9612C77.4508 69.2112 74.6908 70.0212 71.9608 70.5612C71.1508 70.7112 70.3708 70.8012 69.6508 70.8012C66.8908 70.8012 64.9408 69.6012 64.1908 67.3512ZM85.3649 70.7112C85.2149 70.7112 85.0649 70.6812 84.9149 70.6212C84.4949 70.4412 84.2549 70.0212 84.3149 69.5712L84.3449 69.4212C84.3749 69.2412 84.4349 69.0912 84.5549 68.9712C85.6049 68.8812 86.5949 68.8512 87.4349 68.8512H88.0349C87.7349 69.1212 87.4349 69.3912 87.1049 69.6612C87.0749 69.7212 87.0149 69.7512 86.9549 69.8112C86.5649 70.1712 85.9949 70.7112 85.3649 70.7112ZM79.2449 73.4112C79.5449 72.4512 79.9049 71.7012 80.3549 70.9812C80.4149 70.9212 80.4749 70.8312 80.5049 70.7112C80.5349 70.6812 80.5649 70.6512 80.5949 70.5912C80.5349 70.2012 80.7449 69.7512 81.1049 69.5412C81.2849 69.4512 81.4349 69.4212 81.6149 69.4512C82.6049 69.2112 83.5949 69.0612 84.5549 68.9712C84.7649 68.7312 85.0949 68.5812 85.4249 68.6112C85.5149 68.5512 85.5749 68.4612 85.6349 68.4012L85.8749 68.1912C86.5049 67.6812 87.1049 67.1112 87.7349 66.5112C88.0049 66.2112 88.3049 65.9412 88.6049 65.6712L90.7949 63.6912C91.6349 62.9412 92.5349 62.1612 93.3749 61.3512C93.7649 60.9912 94.1549 60.6012 94.5149 60.2112C95.2349 59.5212 95.9549 58.8012 96.7349 58.1112C97.9949 57.0612 99.4349 56.2512 100.695 55.5312L101.085 55.3212C101.625 54.9912 102.255 54.6312 102.915 54.4512C103.485 54.2712 103.995 54.3012 104.475 54.5112C104.535 54.5412 104.715 54.6012 104.865 54.6312C105.435 54.8112 106.095 54.9912 106.455 55.5012C106.755 55.9212 106.875 56.6112 106.305 57.2712L104.025 63.7812C103.485 65.3712 102.825 66.9312 102.135 68.4612C102.135 68.4912 102.105 68.5212 102.105 68.5212C102.075 68.5512 102.075 68.5812 102.045 68.6412C101.955 68.8212 101.895 69.0312 101.835 69.2412C101.685 69.7512 101.175 70.0512 100.665 69.9312C100.155 69.8112 99.8549 69.3012 99.9449 68.7912C99.9449 68.7612 99.9749 68.7312 99.9749 68.7012C100.665 68.6712 101.355 68.6412 102.045 68.6412C102.675 68.6112 103.275 68.6112 103.875 68.6112C103.935 68.6112 104.025 68.6112 104.085 68.5812C104.535 68.5512 105.135 68.5212 105.615 68.8512C105.855 69.0312 106.005 69.3312 106.035 69.6312C106.035 69.9312 105.885 70.2312 105.645 70.4112C105.465 70.5612 105.285 70.8312 105.075 71.1012L104.115 72.5112C103.785 73.3812 103.065 73.8912 102.195 73.9212H102.165C101.655 73.9212 101.205 73.4712 101.205 72.9612C101.205 72.4212 101.655 72.0012 102.165 72.0012C102.225 72.0012 102.225 71.9712 102.225 71.9712C102.255 71.9712 102.315 71.9112 102.345 71.7612C102.375 71.6712 102.405 71.6112 102.465 71.5212C102.675 71.1912 102.915 70.8612 103.155 70.5312C101.385 70.5612 99.6149 70.6512 97.7849 70.7412C95.5349 70.8612 93.2849 70.8312 91.0949 70.8012C89.8949 70.7712 88.6649 70.7712 87.4349 70.7712C86.0549 70.7712 84.3149 70.8312 82.5149 71.1912C82.4849 71.2512 82.4549 71.2812 82.3949 71.3112L82.1849 71.6412C82.1249 71.7912 82.0349 71.9412 81.9749 72.0612C81.5849 72.6012 81.3149 73.2012 81.0749 73.9812C80.9549 74.4012 80.5649 74.6712 80.1749 74.6712C80.0549 74.6712 79.9649 74.6412 79.8749 74.6112C79.3649 74.4612 79.0949 73.9212 79.2449 73.4112ZM88.0349 68.8512C89.0849 68.8512 90.1049 68.8512 91.1249 68.8812C93.2849 68.9112 95.5049 68.9412 97.6949 68.8212C98.4449 68.7912 99.2249 68.7312 99.9749 68.7012V68.5212C99.9449 68.1612 100.125 67.8312 100.395 67.6212C101.085 66.1812 101.685 64.6512 102.225 63.1512L104.505 56.5512C104.445 56.5212 104.385 56.4912 104.325 56.4912C104.085 56.4012 103.875 56.3412 103.695 56.2812C103.665 56.2512 103.635 56.2512 103.455 56.2812C103.005 56.4312 102.555 56.7012 102.075 56.9712C101.925 57.0612 101.775 57.1512 101.625 57.2112C100.455 57.8712 99.1049 58.6212 97.9949 59.5812C97.2449 60.2112 96.5849 60.8712 95.8949 61.5912L94.7249 62.7312C93.8549 63.5712 92.9249 64.3812 92.0549 65.1312C91.3349 65.7612 90.6149 66.4212 89.9249 67.0812L89.0549 67.8912C88.7249 68.2212 88.3649 68.5212 88.0349 68.8512ZM120.565 72.0912C120.475 72.0912 120.355 72.0612 120.235 72.0312C119.755 71.8212 119.485 71.2812 119.665 70.7712C120.505 68.5212 121.585 65.5512 122.455 62.5512C122.845 61.4112 123.145 60.2712 123.355 59.1312L123.055 59.3412C122.965 59.4012 122.875 59.4612 122.785 59.5212L120.985 60.5712C119.905 61.1412 118.915 61.8612 117.985 62.6412C115.405 64.6812 112.975 66.9012 110.845 68.8812C110.155 69.5112 109.495 70.0812 108.745 70.6212L108.685 70.6812C108.355 70.9512 107.875 71.4012 107.245 71.2812C106.975 71.2512 106.765 71.1012 106.615 70.8612C106.465 70.6512 106.405 70.3812 106.465 70.1112C106.795 68.8512 107.185 67.6212 107.545 66.4212C107.695 66.0312 107.815 65.6112 107.935 65.2212C108.205 64.3212 108.445 63.3912 108.685 62.4912C108.805 62.0112 108.925 61.5312 109.075 61.0512C109.255 60.3612 109.465 59.6412 109.675 58.9512C110.005 57.9612 110.335 56.9112 110.545 55.9212C110.665 55.4112 111.175 55.0812 111.685 55.2012C112.195 55.2912 112.525 55.8312 112.405 56.3412C112.165 57.4212 111.835 58.5012 111.505 59.5212C111.325 60.1812 111.085 60.8712 110.905 61.5612L110.545 62.9712C110.305 63.9012 110.065 64.8612 109.765 65.7912C109.645 66.1812 109.525 66.6012 109.375 66.9912C109.285 67.2912 109.195 67.5612 109.135 67.8312C109.255 67.7112 109.405 67.5912 109.555 67.4712C111.715 65.4612 114.175 63.2112 116.755 61.1712C117.745 60.3012 118.855 59.5512 120.055 58.8912C120.625 58.5612 121.195 58.2012 121.795 57.8712L121.975 57.7512C122.245 57.5712 122.575 57.3312 123.025 57.2412C123.085 57.2112 123.145 57.2112 123.205 57.2112C123.325 57.0912 123.475 56.8512 123.565 56.7312C123.625 56.6412 123.715 56.5512 123.745 56.4912C123.955 56.2512 124.255 56.1012 124.555 56.1312C124.885 56.1612 125.155 56.3112 125.335 56.5812C125.695 57.2112 125.725 57.9012 125.395 58.5912C125.155 60.1212 124.795 61.6512 124.315 63.1212C123.415 66.1512 122.335 69.1812 121.465 71.4612C121.345 71.8512 120.955 72.0912 120.565 72.0912ZM135.727 57.6012C135.427 57.6012 135.127 57.6012 134.857 57.6312C134.527 57.6912 134.317 57.8112 134.167 58.0512C133.867 58.5612 133.567 59.0712 133.237 59.5812C132.847 60.2112 132.457 60.8412 132.067 61.5012C131.497 62.4912 130.987 63.5412 130.477 64.5912C130.537 64.5012 130.627 64.4412 130.717 64.4112C131.107 64.2312 131.527 64.0812 131.917 63.9612C132.037 63.9012 132.187 63.8712 132.307 63.8112C133.207 63.5112 134.107 63.4212 134.977 63.3312C135.517 63.2712 136.027 63.2112 136.537 63.1212C138.487 62.7312 140.617 61.8012 140.707 60.4512C140.737 59.5212 140.467 58.3512 139.537 57.8712C138.817 57.5412 137.827 57.5712 136.897 57.5712C136.627 57.6012 136.387 57.6012 136.147 57.6012H135.937H135.727ZM125.677 68.9712C125.767 68.5812 126.067 68.2812 126.457 68.1912C126.847 67.4712 127.237 66.7512 127.597 66.0312C127.957 65.3412 128.317 64.6512 128.647 63.9612C129.187 62.8212 129.757 61.6512 130.417 60.5112C130.807 59.8512 131.197 59.2212 131.617 58.5612C131.917 58.0812 132.217 57.5712 132.517 57.0612C132.967 56.3412 133.687 55.8612 134.557 55.7412C135.067 55.6812 135.517 55.6812 135.937 55.6812H136.147C136.387 55.6812 136.597 55.6812 136.837 55.6512C137.977 55.6212 139.267 55.5912 140.407 56.1612C142.147 57.0612 142.687 59.0112 142.627 60.5412C142.537 62.1312 141.397 63.1812 140.137 63.9012C141.037 64.3812 141.577 65.2212 141.667 66.3612C141.757 67.4712 141.487 68.4312 140.857 69.0912C140.047 69.9012 138.997 70.5312 137.737 70.9812C136.477 71.4312 135.277 71.5212 134.227 71.5812C133.987 71.5812 133.747 71.5812 133.507 71.6112C133.117 71.6412 132.697 71.6712 132.277 71.6712C131.797 71.6712 131.317 71.6412 130.807 71.5212C130.237 71.3712 129.667 71.1612 128.977 70.7712C128.917 70.7412 128.827 70.6812 128.767 70.6212H128.587C128.137 70.5612 127.807 70.1712 127.777 69.7212C127.657 69.9312 127.507 70.1112 127.387 70.2612C127.147 70.5312 126.787 70.6512 126.457 70.5912C126.097 70.5012 125.827 70.2612 125.737 69.9012C125.647 69.6012 125.647 69.3012 125.677 68.9712ZM128.377 68.6712C128.407 68.6412 128.467 68.6412 128.497 68.6112C128.587 68.5812 128.707 68.5812 128.797 68.5812C129.217 68.5812 129.577 68.8512 129.817 69.0312C129.847 69.0612 129.877 69.0912 129.907 69.0912C130.237 69.2712 130.747 69.5412 131.257 69.6312C131.917 69.8112 132.637 69.7512 133.387 69.6912C133.627 69.6912 133.897 69.6612 134.137 69.6612C135.277 69.6012 136.177 69.5112 137.107 69.1812C138.097 68.8212 138.877 68.3412 139.477 67.7412C139.717 67.5012 139.807 67.0812 139.747 66.5412C139.717 66.0012 139.507 65.4912 138.457 65.3712C137.917 65.2812 137.287 65.3412 136.657 65.4012L136.207 65.4312C135.157 65.5212 134.317 65.6112 133.537 65.7612L133.147 65.8212C132.577 65.9112 131.977 66.0012 131.467 66.1812C130.987 66.3612 130.447 66.1212 130.237 65.6412C130.177 65.4912 130.177 65.3412 130.177 65.1612C129.907 65.7612 129.607 66.3312 129.307 66.9312L128.377 68.6712ZM144.047 71.7912C143.957 71.7912 143.837 71.7612 143.747 71.7312C143.297 71.6412 142.967 71.2212 142.997 70.7712C142.997 70.5012 143.057 70.2612 143.117 70.0812C143.117 70.0212 143.147 69.9612 143.147 69.9012C143.327 69.0012 143.627 68.1312 143.927 67.3212C144.047 67.0212 144.137 66.7512 144.227 66.4512C144.677 65.1312 145.157 63.7812 145.607 62.4912L146.597 59.7612C146.897 58.9512 147.167 58.1412 147.407 57.3012C147.347 57.0912 147.347 56.8212 147.467 56.5812C147.587 56.2812 147.737 56.0112 147.887 55.7412C148.067 55.3512 148.487 55.1412 148.937 55.2312C149.357 55.3212 149.657 55.6812 149.687 56.1012C149.717 56.5212 149.627 56.9112 149.417 57.3012C149.117 58.3512 148.757 59.4012 148.397 60.4212C148.097 61.3212 147.767 62.2212 147.437 63.1512C146.957 64.4112 146.507 65.7612 146.057 67.0512C145.967 67.3512 145.847 67.6512 145.757 67.9512C145.637 68.2512 145.547 68.5212 145.457 68.7912C145.547 68.7012 145.607 68.6412 145.667 68.6112L148.037 66.6912C149.807 65.2212 151.667 63.7212 153.617 62.3412C154.277 61.8912 154.937 61.4412 155.627 60.9912C157.457 59.7312 159.347 58.4412 161.087 57.0312L161.567 56.6412C161.897 56.4012 162.317 56.1012 162.497 55.8312C162.767 55.4112 163.337 55.2612 163.757 55.5312C164.207 55.7712 164.387 56.3412 164.147 56.7912C163.997 57.0912 163.877 57.4812 163.727 57.8712C163.667 58.1112 163.577 58.3512 163.487 58.5912L162.767 60.4812C162.317 61.6212 161.867 62.7912 161.447 63.9612C161.147 64.8012 160.877 65.6712 160.607 66.5112L159.977 68.3712C159.527 70.1112 159.197 70.5312 158.717 70.7412C158.447 70.8612 158.117 70.8312 157.847 70.6812C157.577 70.5312 157.397 70.2312 157.367 69.9312V69.6312C157.337 69.2112 157.547 68.8512 157.877 68.7012C157.937 68.4912 158.027 68.2512 158.117 67.8912C158.117 67.8312 158.147 67.8012 158.147 67.8012L158.777 65.9112C159.047 65.0712 159.347 64.1712 159.647 63.3012C160.067 62.1312 160.517 60.9312 160.967 59.7912L161.117 59.4612C159.647 60.5412 158.147 61.5612 156.707 62.5512C156.047 63.0312 155.387 63.4812 154.727 63.9312C152.807 65.2512 151.007 66.7212 149.237 68.1612C148.457 68.8212 147.677 69.4812 146.867 70.1112C146.837 70.1412 146.777 70.1712 146.717 70.2312C145.637 71.1912 144.797 71.7912 144.047 71.7912ZM170.731 71.9112C170.641 71.9112 170.581 71.9112 170.491 71.8812C169.981 71.7612 169.471 71.6112 168.991 71.4012C167.131 70.6512 165.781 69.2412 165.121 67.4112C164.341 65.2812 164.581 62.8512 165.751 60.7212C166.501 59.3112 167.581 57.5712 169.351 56.4912C170.521 55.7712 172.411 54.9912 174.181 54.9912H174.211C175.291 54.9912 176.251 55.3812 176.911 56.1312C177.721 57.0312 178.111 58.3812 177.961 59.8512C177.901 60.3612 177.451 60.7512 176.911 60.6912C176.371 60.6312 175.981 60.1812 176.041 59.6412C176.131 58.7412 175.921 57.9012 175.501 57.4212C175.171 57.0912 174.751 56.9112 174.211 56.9112C173.071 56.9112 171.541 57.3912 170.341 58.1412C168.991 58.9512 168.091 60.3612 167.431 61.6212C166.531 63.2712 166.351 65.1912 166.921 66.7512C167.401 68.0712 168.361 69.0612 169.711 69.6312C170.071 69.7812 170.431 69.9012 170.821 69.9912C171.901 69.9312 172.861 69.6312 173.791 69.0612C173.821 69.0612 173.851 69.0312 173.851 69.0312C175.531 68.1912 176.701 67.0212 178.021 65.6412L178.381 65.2812C178.771 64.8912 179.371 64.8912 179.731 65.2512C180.121 65.6412 180.121 66.2412 179.761 66.6312L179.401 66.9912C178.021 68.4012 176.701 69.7512 174.751 70.7412C173.521 71.4612 172.171 71.8812 170.761 71.9112H170.731ZM184.231 69.3012L186.031 69.6012C187.411 69.6612 188.731 69.3012 190.291 68.7312C192.121 68.0412 193.531 67.3812 194.761 66.6012C195.391 66.1812 195.721 65.9412 195.931 65.4912C196.111 65.1312 196.111 64.8912 195.901 64.5312C195.391 63.6012 193.831 62.1612 192.871 61.7412C190.951 60.9312 188.821 61.2312 186.661 62.0112L186.541 62.2212C185.491 64.3812 184.351 66.4812 183.121 68.5212C183.271 68.6412 183.361 68.7312 183.481 68.8512C183.751 69.0912 183.931 69.2412 184.231 69.3012ZM180.001 69.8412C180.331 69.2412 180.691 68.6412 181.141 68.1012C182.101 66.5112 183.031 64.8612 183.901 63.2112L182.851 63.7512C182.401 63.9912 181.801 63.8112 181.561 63.3312C181.321 62.8812 181.501 62.2812 181.981 62.0412C183.061 61.4712 184.171 60.9312 185.281 60.4812C186.031 59.0412 186.841 57.6312 187.681 56.2512C187.801 55.9812 187.981 55.7412 188.191 55.5612C188.581 55.2012 189.211 55.2312 189.541 55.6512C189.901 56.0412 189.871 56.6412 189.451 57.0012C189.451 57.0312 189.421 57.0612 189.391 57.0912C189.391 57.1212 189.361 57.1812 189.331 57.2112C188.851 57.9912 188.371 58.8312 187.921 59.6412C189.841 59.1912 191.761 59.1912 193.591 59.9712C194.971 60.5412 196.891 62.2812 197.611 63.6012C198.091 64.5012 198.121 65.4012 197.671 66.3312C197.191 67.3212 196.411 67.8012 195.781 68.2212C194.461 69.0612 192.901 69.8112 190.951 70.5312C189.601 71.0112 188.071 71.5212 186.361 71.5212H185.881C185.851 71.5212 185.821 71.4912 185.791 71.4912L183.901 71.1912C183.031 71.0412 182.521 70.5912 182.191 70.2612L181.561 70.9212C181.261 71.2812 180.721 71.3412 180.331 71.0712C179.941 70.8012 179.791 70.2612 180.001 69.8412ZM213.619 73.4112C213.529 73.4112 213.469 73.4112 213.379 73.3812C212.929 73.2612 212.599 72.8112 212.659 72.3312L212.689 72.1512C212.689 71.9712 212.779 71.8212 212.869 71.6712C213.259 70.6212 213.679 69.6012 214.069 68.5812C214.459 67.6212 214.819 66.6912 215.179 65.7312C215.239 65.5212 215.329 65.3412 215.389 65.1312C215.659 64.4412 215.899 63.7512 216.139 63.0612L217.009 62.9112C217.429 62.8212 217.879 62.7612 218.299 62.6712C218.059 63.3912 217.849 64.0812 217.579 64.7412C217.519 64.7712 217.429 64.7712 217.339 64.8012C216.709 64.9212 216.049 65.0412 215.389 65.1312C214.549 65.2812 213.709 65.4312 212.869 65.5512H212.749C212.269 65.5512 211.849 65.1912 211.789 64.7112C211.729 64.2012 212.089 63.7212 212.599 63.6312C213.769 63.4512 214.969 63.2712 216.139 63.0612C216.859 60.9612 217.519 58.8312 218.179 56.7612C218.359 56.1312 218.569 55.5012 218.749 54.8712C218.899 54.4512 219.289 54.1812 219.739 54.2112C220.159 54.2112 220.549 54.5412 220.609 54.9612L220.639 55.1112C220.699 55.4112 220.639 55.6812 220.459 55.9212L220.009 57.3312C219.469 59.1012 218.899 60.9012 218.299 62.6712C219.409 62.4912 220.549 62.3112 221.659 62.1612C223.879 61.8312 226.129 61.5312 228.349 61.2912C229.009 61.0212 229.669 60.8712 230.299 60.8712C230.929 60.9012 231.559 61.0512 232.159 61.3812L231.409 63.9312C230.899 63.9612 230.479 63.6612 230.389 63.1812C230.359 63.0612 230.359 62.9412 230.359 62.8212C230.149 62.7912 229.939 62.8212 229.699 62.8812C229.909 62.2212 230.089 61.5612 230.299 60.8712C230.629 59.7012 230.989 58.5012 231.349 57.3012C231.349 57.2712 231.349 57.2412 231.379 57.2112C231.649 56.4912 231.859 55.7112 231.979 54.9312C231.889 54.5712 231.979 54.3012 232.069 54.1812C232.219 53.8812 232.489 53.7012 232.789 53.6412C233.089 53.5812 233.419 53.6712 233.629 53.8812C233.839 54.0912 233.959 54.3912 233.929 54.6912C233.839 55.7712 233.569 56.8512 233.179 57.8712C232.819 59.0412 232.489 60.2112 232.159 61.3812L232.369 61.5012C232.639 61.6512 232.819 61.9512 232.819 62.2812C232.849 63.1212 232.339 63.7512 231.529 63.9312C231.499 63.9312 231.439 63.9312 231.409 63.9312L231.319 64.2312C231.139 64.8012 230.989 65.3412 230.839 65.9112C230.419 67.4412 229.969 69.0312 229.339 70.5012C229.189 70.8612 228.829 71.0712 228.469 71.0712C228.319 71.0712 228.199 71.0712 228.079 71.0112C227.599 70.8012 227.359 70.2312 227.569 69.7512C228.169 68.3712 228.589 66.8712 228.979 65.4012C229.129 64.8312 229.309 64.2612 229.459 63.6912C229.549 63.4212 229.609 63.1512 229.699 62.8812C229.459 62.9112 229.219 63.0012 228.979 63.1212C228.889 63.1512 228.799 63.1812 228.709 63.1812C226.459 63.4512 224.179 63.7212 221.929 64.0512C220.489 64.2612 219.019 64.5012 217.579 64.7412C217.399 65.3112 217.189 65.8812 216.979 66.4212C216.619 67.3812 216.259 68.3412 215.869 69.2712C215.419 70.4412 214.939 71.6112 214.519 72.7812C214.369 73.1712 214.009 73.4112 213.619 73.4112ZM234.281 66.5412C234.311 66.0312 234.731 65.6112 235.241 65.6112H235.361C235.391 65.6112 235.421 65.6112 235.451 65.6112H235.571C235.631 65.5812 235.721 65.5812 235.781 65.5812L236.711 65.5212C237.701 65.4612 238.721 65.4312 239.711 65.3412C240.431 64.2012 241.241 63.0912 242.081 61.9812C243.011 60.7812 244.031 59.7612 245.561 58.5612C245.741 58.4112 245.891 58.2912 246.071 58.1712C247.001 57.3912 248.051 56.5512 249.401 56.2212C250.031 56.0712 250.721 55.9212 251.291 55.8612C251.951 55.7712 252.791 55.6512 253.571 55.6812C254.231 55.6812 255.251 56.2812 255.611 56.6112C255.971 56.9712 256.001 57.5712 255.671 57.9612C254.981 58.7112 254.591 59.6412 254.201 60.6012C253.841 61.5312 253.511 62.4912 253.181 63.4212C254.021 63.3912 254.891 63.4212 255.731 63.6312C256.451 63.8412 257.291 64.0812 257.951 64.8612C258.281 65.2812 258.251 65.8812 257.861 66.2112C257.441 66.5712 256.841 66.5112 256.481 66.1212C256.211 65.7912 255.851 65.6712 255.251 65.5212C254.381 65.2812 253.451 65.3112 252.491 65.4012L252.311 65.9112C251.981 66.9312 251.591 68.0112 251.201 69.0612C251.201 69.0912 251.141 69.2112 251.081 69.3612C250.991 69.5712 250.691 70.1712 250.661 70.3812C250.541 70.8912 250.031 71.2212 249.521 71.1312C249.011 71.0112 248.681 70.5012 248.771 69.9912C248.861 69.6012 249.071 69.0912 249.341 68.5512C249.371 68.4612 249.401 68.4012 249.401 68.3712C249.731 67.5012 250.031 66.6012 250.361 65.7312C250.121 65.7912 249.881 65.8212 249.671 65.8512L247.451 66.2112C245.291 66.5712 243.041 66.9612 240.791 67.1712C240.221 68.0412 239.561 69.0012 238.871 69.9312L238.721 70.1712C238.541 70.4712 238.331 70.8312 238.061 71.0412C237.881 71.1912 237.641 71.2812 237.431 71.2812C237.221 71.2812 236.981 71.1912 236.801 71.0112C236.441 70.7112 236.381 70.1712 236.651 69.7812L236.711 69.6612C236.771 69.5712 236.861 69.4812 236.921 69.4212C236.981 69.3612 237.041 69.2712 237.071 69.1812C237.161 69.0312 237.251 68.8812 237.341 68.7912C237.671 68.3112 238.031 67.8312 238.331 67.3512L236.831 67.4412L235.751 67.5012C235.631 67.5312 235.511 67.5312 235.361 67.5312H235.181C234.671 67.4712 234.281 67.0512 234.281 66.5412ZM238.331 67.3512C238.811 66.6912 239.231 66.0312 239.651 65.4312C239.681 65.4012 239.681 65.3712 239.711 65.3412H239.741C240.551 65.2812 241.361 65.1912 242.201 65.1012C243.851 64.8912 245.501 64.5912 247.121 64.3212L249.371 63.9612C249.641 63.9312 249.911 63.8712 250.181 63.8112C250.451 63.7512 250.751 63.7212 251.051 63.6612C251.471 62.4312 251.921 61.1412 252.401 59.8812C252.731 59.1312 253.061 58.3512 253.541 57.6012H253.481C252.851 57.5712 252.161 57.6912 251.531 57.7512C251.021 57.8412 250.421 57.9312 249.851 58.0812C248.921 58.2912 248.111 58.9512 247.271 59.6412C247.091 59.7912 246.941 59.9412 246.761 60.0612C245.351 61.1712 244.421 62.0712 243.611 63.1512C243.131 63.8112 242.651 64.4412 242.201 65.1012C241.871 65.5512 241.541 66.0012 241.241 66.4812C241.091 66.6912 240.941 66.9312 240.791 67.1712L239.891 67.2612C239.381 67.3212 238.871 67.3512 238.331 67.3512ZM250.361 65.7312C250.391 65.5812 250.451 65.4312 250.511 65.2812L250.961 63.9012L251.051 63.6612C251.741 63.5412 252.461 63.4512 253.181 63.4212C253.031 63.8112 252.911 64.1712 252.791 64.5312L252.491 65.4012C251.831 65.4912 251.171 65.5812 250.511 65.7012C250.451 65.7012 250.391 65.7312 250.361 65.7312ZM259.444 71.2812C259.024 71.2812 258.694 71.1312 258.544 71.0112C258.094 70.7412 257.944 70.1712 258.214 69.7212C260.884 65.2812 263.734 60.5412 266.494 55.7412C266.734 55.2912 267.334 55.1112 267.784 55.3812C268.264 55.6512 268.414 56.2212 268.144 56.7012C265.834 60.7512 263.434 64.7412 261.154 68.5512C263.014 68.0712 264.904 67.8012 266.824 67.7112C267.574 67.6512 268.324 67.6212 269.074 67.6212C269.704 67.5912 270.364 67.5912 270.994 67.5912C270.934 67.7112 270.844 67.8012 270.784 67.9212C270.604 68.1912 270.304 68.3412 270.004 68.3412C269.824 68.3412 269.614 68.2812 269.464 68.1612C269.254 68.0412 269.104 67.8312 269.074 67.6212C269.014 67.3512 269.074 67.0812 269.224 66.8412C269.704 66.1212 270.184 65.3412 270.664 64.5612C271.504 63.2112 272.344 61.8312 273.394 60.5712C273.724 60.1512 274.354 60.0912 274.744 60.4512C275.164 60.7812 275.224 61.3812 274.864 61.8012C273.904 62.9412 273.124 64.2312 272.284 65.5812C271.864 66.2412 271.444 66.9312 270.994 67.5912C272.434 67.6212 273.844 67.6812 275.254 67.7412C276.214 67.8012 277.174 67.8312 278.134 67.8612C278.524 67.0812 278.734 66.2112 278.944 65.3112C279.184 64.2612 279.454 63.1812 279.994 62.1312L280.894 60.5112C281.434 59.4912 281.974 58.4712 282.514 57.4512L282.604 57.1812L282.844 56.7912C283.114 56.3412 283.684 56.1912 284.134 56.4612C284.584 56.7012 284.764 57.2712 284.524 57.7212C283.894 58.9812 283.204 60.2112 282.574 61.4112L281.704 63.0312C281.254 63.8412 281.044 64.7712 280.804 65.7612C280.534 66.9612 280.234 68.1912 279.484 69.3612C279.304 69.6312 278.974 69.8112 278.674 69.7812C277.504 69.7512 276.304 69.7212 275.164 69.6612C272.464 69.5412 269.644 69.4212 266.914 69.6312C264.844 69.7212 262.774 70.0512 260.794 70.6512C260.314 71.1312 259.834 71.2812 259.444 71.2812ZM300.165 71.7312C299.955 71.7312 299.775 71.6712 299.595 71.5512C299.235 71.3112 299.115 70.8312 299.265 70.4112C299.805 69.0012 300.435 67.6212 301.065 66.3012C301.605 65.1012 302.175 63.8712 302.655 62.6712L303.375 60.9012C304.185 58.9812 304.995 57.0012 305.445 55.0512C305.565 54.5112 306.075 54.2112 306.615 54.3312C307.125 54.4512 307.425 54.9612 307.305 55.4712C306.825 57.6012 305.985 59.6412 305.145 61.6212C304.905 62.2212 304.665 62.7912 304.455 63.3612C303.945 64.6512 303.375 65.8812 302.805 67.1112C302.505 67.7412 302.205 68.3712 301.935 69.0312C303.405 68.7912 304.905 68.7312 306.405 68.8212C307.155 68.8512 307.905 68.9112 308.655 68.9412C309.315 69.0012 309.975 69.0312 310.635 69.0912C310.395 69.7212 310.185 70.3512 310.005 70.9812C309.375 70.9212 308.745 70.8912 308.115 70.8612C308.115 70.7412 308.115 70.6212 308.145 70.5012C308.295 69.9912 308.445 69.4812 308.655 68.9412C308.925 68.1912 309.255 67.4112 309.645 66.5712L309.855 66.1212C310.485 64.8312 311.325 63.0312 312.405 62.0712C312.705 61.8012 313.125 61.7412 313.485 61.9512C313.845 62.1312 314.025 62.4912 313.995 62.9112L313.965 63.2412C313.905 63.6612 313.575 63.9912 313.185 64.0512C312.585 64.8912 312.015 66.0912 311.595 66.9312L311.385 67.4112C311.085 68.0112 310.845 68.5512 310.635 69.0912C312.015 69.1812 313.395 69.3012 314.775 69.4212H314.865C315.645 69.6012 316.335 69.5712 316.965 69.3612C316.785 69.0312 316.665 68.5812 316.935 68.1312C317.475 66.8112 318.045 65.5212 318.615 64.2312L319.245 62.8212C319.995 61.1412 320.745 59.3712 321.285 57.6312C321.015 57.2412 321.105 56.6712 321.495 56.3712L321.915 56.0112C322.245 55.7712 322.695 55.7412 323.055 55.9512C323.385 56.1912 323.565 56.6112 323.475 57.0012C322.905 59.2812 321.945 61.4712 320.985 63.6012C320.775 64.0812 320.565 64.5312 320.385 65.0112C319.845 66.2112 319.335 67.3812 318.825 68.5812C319.065 68.8512 319.395 69.2712 319.335 69.8412C319.305 70.1412 319.125 70.3812 318.885 70.5312C317.595 71.3712 316.125 71.6412 314.535 71.3112C313.035 71.1912 311.535 71.0712 310.005 70.9812V71.0112C309.885 71.4612 309.495 71.7312 309.075 71.7312C308.985 71.7312 308.895 71.7312 308.805 71.7012C308.415 71.5812 308.145 71.2512 308.115 70.8612C307.515 70.8012 306.885 70.7712 306.285 70.7412C304.605 70.6212 302.925 70.7412 301.275 71.1012C301.095 71.2212 300.945 71.3712 300.795 71.4912C300.615 71.6412 300.375 71.7312 300.165 71.7312ZM329.079 58.7712C328.359 59.3112 327.699 59.9712 327.099 60.7812C326.499 61.6212 324.519 64.5312 325.269 66.7512C326.049 69.0912 328.719 69.0912 330.849 68.6712C333.189 68.1912 335.529 67.5312 336.759 65.8512C337.629 64.6512 337.869 63.3612 337.539 61.7712L337.059 59.9712C336.789 59.2812 336.309 58.8612 335.589 58.7112C335.529 58.7112 335.469 58.6812 335.409 58.6512C333.249 57.7212 331.449 57.7212 329.169 58.7112L329.079 58.7712ZM323.439 67.3512C322.419 64.3212 324.579 60.9612 325.569 59.6412C327.009 57.7212 328.719 56.4012 330.669 55.7112L330.939 55.6212C331.569 55.4112 332.139 55.2012 332.679 54.9312C333.159 54.6612 333.729 54.8412 333.999 55.3212C334.149 55.6212 334.119 55.9212 333.999 56.1912C334.689 56.3412 335.379 56.5512 336.099 56.8512C337.419 57.1812 338.349 58.0212 338.889 59.3112C338.889 59.3412 338.889 59.3712 338.919 59.4012L339.399 61.2912C339.399 61.3212 339.429 61.3212 339.429 61.3512C339.849 63.4812 339.489 65.3412 338.319 66.9612C336.699 69.2112 333.939 70.0212 331.209 70.5612C330.399 70.7112 329.619 70.8012 328.899 70.8012C326.139 70.8012 324.189 69.6012 323.439 67.3512ZM349.233 65.8212C348.963 65.8212 348.723 65.7312 348.513 65.5212L347.793 64.7712C348.213 64.2612 348.603 63.7512 349.023 63.2712C349.323 63.5712 349.653 63.9012 349.953 64.2312C350.103 64.4112 350.193 64.6212 350.193 64.8312C349.923 65.1612 349.683 65.4912 349.413 65.8212H349.233ZM339.213 69.1512C339.363 68.6412 339.873 68.3412 340.383 68.4912C341.583 68.8512 342.603 69.3012 343.413 69.6912C343.773 69.8712 343.953 69.8412 344.763 68.7312L344.823 68.6412C345.813 67.3212 346.803 66.0312 347.793 64.7712C347.373 64.3512 346.953 63.9612 346.503 63.5412C345.783 62.9112 345.093 62.2812 344.433 61.5612C343.803 60.8712 343.203 60.1512 342.663 59.4312C342.213 58.8612 341.763 58.2912 341.283 57.7812C340.803 57.7212 340.443 57.3312 340.413 56.8512V56.4612C340.383 56.0712 340.623 55.7112 340.983 55.5612C341.343 55.4112 341.763 55.4712 342.033 55.7412C342.813 56.5512 343.503 57.4212 344.163 58.2612C344.733 58.9512 345.243 59.6412 345.813 60.2412C346.443 60.9012 347.103 61.5012 347.793 62.1312L349.023 63.2712C350.133 61.9212 351.213 60.6312 352.203 59.4312L352.893 58.6512C353.733 57.6912 354.513 56.8212 354.963 55.8012C355.203 55.3212 355.743 55.1112 356.253 55.3212C356.733 55.5312 356.943 56.1012 356.733 56.5812C356.133 57.8712 355.233 58.9212 354.333 59.9112C354.123 60.1812 353.883 60.4212 353.673 60.6612C352.563 61.9512 351.393 63.3612 350.193 64.8312C350.193 65.1012 350.103 65.3712 349.863 65.5812C349.743 65.7012 349.593 65.7912 349.413 65.8212C348.393 67.0812 347.373 68.4312 346.383 69.7812L346.323 69.8712C345.813 70.5612 344.973 71.7012 343.683 71.7012C343.353 71.7012 342.993 71.6112 342.573 71.4312C341.523 70.9212 340.713 70.5912 339.873 70.3512C339.363 70.2012 339.063 69.6612 339.213 69.1512ZM361.497 64.1712C362.757 64.2912 364.047 64.3212 365.277 64.1712H365.367C366.267 64.1112 367.137 63.9012 367.977 63.4812C368.037 63.4212 368.127 63.3912 368.217 63.3912C369.147 63.2112 369.897 62.7912 370.557 62.1312C370.647 62.0412 370.737 61.9512 370.857 61.8912C371.487 61.6512 371.787 61.2612 371.877 60.6612C371.907 60.5112 371.937 60.3612 372.027 60.2412C372.297 59.8812 372.327 59.5512 372.147 59.1612C372.117 59.0412 372.087 58.9212 372.087 58.7712C372.087 58.3212 371.937 58.0212 371.577 57.7512L370.197 57.4512C368.997 57.2712 367.587 57.2712 366.357 57.3012C366.117 57.3312 365.847 57.2712 365.487 57.1812C365.337 57.1512 365.127 57.1212 364.947 57.0612C364.797 57.3312 364.617 57.5712 364.407 57.7812L361.827 63.5112C361.707 63.7212 361.617 63.9612 361.497 64.1712ZM356.277 70.1112C356.517 69.3312 356.847 68.6112 357.327 67.9812L358.587 65.7012C358.317 65.6412 358.047 65.5812 357.807 65.5512C357.327 65.4612 356.967 65.0112 357.027 64.5312V64.3812C357.057 63.8412 357.507 63.4512 358.047 63.4812C358.287 63.5112 358.497 63.6012 358.647 63.7512C358.917 63.8112 359.217 63.8412 359.487 63.9012C359.697 63.5112 359.877 63.0912 360.087 62.7012C360.957 60.7812 361.827 58.8312 362.727 56.8812L362.847 56.6712C362.907 56.5812 362.967 56.5212 363.027 56.4612V56.2812C363.057 55.9212 363.267 55.5912 363.537 55.3812C364.167 54.9312 365.067 55.1412 365.877 55.2912C366.057 55.3512 366.267 55.3812 366.357 55.3812C367.617 55.3512 369.147 55.3512 370.497 55.5612H370.557L372.177 55.8912C372.297 55.9212 372.387 55.9812 372.507 56.0412C373.437 56.6412 373.947 57.5412 374.007 58.6212C374.307 59.4912 374.217 60.3612 373.737 61.1412C373.527 62.2512 372.837 63.0912 371.787 63.6012C370.947 64.4412 369.897 64.9812 368.727 65.2512C367.707 65.7312 366.597 66.0312 365.487 66.0612C363.867 66.2712 362.187 66.2112 360.597 66.0012C360.057 66.9912 359.517 68.0112 358.947 68.9712C358.947 69.0012 358.917 69.0312 358.917 69.0612C358.767 69.2412 358.647 69.4512 358.527 69.6612C358.557 69.9012 358.497 70.1412 358.377 70.3512L358.017 70.8912C357.837 71.1612 357.537 71.3112 357.207 71.3112C357.087 71.3112 356.937 71.2812 356.817 71.2512C356.367 71.0412 356.157 70.5612 356.277 70.1112ZM375.488 72.1812C375.398 72.1812 375.338 72.1812 375.248 72.1512C374.798 72.0612 374.498 71.6412 374.528 71.1912V71.0112C374.528 70.7412 374.618 70.5012 374.798 70.3212C374.978 69.9012 375.128 69.4512 375.308 68.9712L375.578 68.2212C375.998 66.9912 376.508 65.7912 376.958 64.5912C377.228 63.9312 377.498 63.2712 377.738 62.6112C378.098 61.7112 378.428 60.7812 378.758 59.8812C379.178 58.7112 379.628 57.4812 380.108 56.3112C380.288 55.8012 380.858 55.5612 381.338 55.7712C381.848 55.9812 382.088 56.5212 381.878 57.0312C381.398 58.1712 380.978 59.3712 380.558 60.5112C380.228 61.4412 379.898 62.4012 379.538 63.3312C379.268 63.9912 379.028 64.6512 378.758 65.3112C378.278 66.4812 377.798 67.6812 377.378 68.8812L377.108 69.6312C376.868 70.2612 376.658 70.9512 376.358 71.6112C376.208 71.9712 375.848 72.1812 375.488 72.1812ZM382.088 52.1112C382.178 51.6912 382.358 51.3612 382.538 51.0912C382.628 50.9112 382.718 50.7612 382.748 50.6112C382.898 50.1012 383.438 49.8312 383.948 49.9812C384.458 50.1312 384.758 50.6712 384.608 51.1812C384.488 51.5112 384.338 51.7812 384.218 52.0212C384.098 52.2012 384.008 52.3812 383.978 52.5012C383.888 52.9512 383.498 53.2512 383.048 53.2512H382.838C382.328 53.1312 381.998 52.6212 382.088 52.1112ZM398.552 72.4212C398.432 72.4212 398.342 72.4212 398.222 72.3612C397.802 72.2112 397.562 71.7912 397.592 71.3712C397.652 70.9212 397.832 70.5612 397.982 70.2612L398.072 69.8712C398.462 68.6712 398.912 67.5012 399.332 66.3612L399.362 66.3012C400.112 64.2912 400.832 62.2212 401.552 60.2112L402.362 57.8712C402.422 57.6912 402.512 57.4812 402.602 57.2712C402.662 57.1812 402.692 57.0912 402.752 56.9712L402.422 56.8812C402.242 56.8212 401.942 56.7312 401.792 56.7312C399.422 57.7212 397.112 59.2212 394.742 61.2912C392.582 63.1812 390.062 65.4912 388.052 68.1312L387.752 68.5812C387.362 69.1212 386.942 69.6912 386.312 70.1712C385.682 70.6512 384.962 70.9812 384.302 71.3112L384.062 71.4312C383.582 71.6412 383.012 71.4612 382.802 70.9812C382.562 70.5012 382.772 69.9312 383.222 69.6912L383.462 69.5712C384.092 69.2712 384.662 69.0012 385.172 68.6112C385.532 68.3412 385.862 67.9212 386.162 67.4712C386.282 67.2912 386.402 67.1412 386.552 66.9612C388.652 64.2012 391.232 61.8012 393.482 59.8212C396.032 57.6012 398.522 56.0112 401.132 54.9312C401.732 54.6612 402.392 54.8712 402.992 55.0512C403.172 55.1112 403.502 55.2012 403.622 55.2012C403.892 55.1112 404.162 55.1412 404.402 55.2912C404.672 55.4412 404.852 55.7112 404.882 56.0112C404.972 56.7012 404.642 57.4512 404.372 58.0512C404.282 58.2312 404.222 58.3812 404.162 58.5012L403.352 60.8712C402.662 62.8812 401.912 64.9512 401.162 66.9912L401.132 67.0512C400.712 68.1612 400.262 69.3012 399.902 70.4412C399.902 70.5012 399.872 70.5912 399.842 70.6512C399.842 70.7412 399.812 70.8312 399.782 70.9212C399.692 71.2512 399.572 71.6412 399.362 72.0012C399.182 72.2712 398.852 72.4212 398.552 72.4212Z" fill="#1A1A1A"/>
<path d="M163.287 21.3608C179.691 21.3608 195.62 20.918 211.94 19.7019C225.154 18.7173 238.966 19.5692 252.253 19.5692C267.226 19.5692 282.198 19.5692 297.171 19.5692C314.36 19.5692 330.846 21.6644 347.822 23.2851C359.647 24.4139 371.96 23.6277 383.618 25.4085C394.48 27.0678 405.144 29.9522 416.024 31.3805C423.502 32.3621 437.276 35.3095 441.046 41.0684C443.072 44.1633 444 47.8062 444 51.254C444 57.3493 440.009 64.9946 434.617 69.7008C431.966 72.0142 428.903 74.1369 425.755 76.0377C422.869 77.7805 419.219 78.5747 416.285 80.2182C408.999 84.2991 400.351 85.9811 392.002 88.5789C380.262 92.2317 368.58 95.3706 356.38 98.0678C322.445 105.57 286.818 107.955 251.645 107.955C231.467 107.955 211.455 108.411 191.436 106.429C178.272 105.125 164.418 101.983 151.123 101.983C130.903 101.983 111.989 96.7383 92.3045 94.3519C81.6037 93.0546 70.8158 88.6907 60.0716 88.2472C53.5085 87.9762 44.9125 84.8931 38.9594 82.8724C34.3555 81.3096 29.3505 81.2457 24.7109 80.0191C19.3125 78.5919 16.3219 75.1915 11.5918 73.1845C6.60058 71.0667 8.04081 67.5613 5.94451 64.3592C4.6838 62.4335 2.69711 61.3638 2.25205 58.9844C1.91532 57.1842 1.91664 54.8056 2.25205 53.0124C3.00855 48.968 7.94819 44.0629 12.3737 41.9974C15.233 40.6628 18.0437 39.5404 20.8012 38.0824C23.0344 36.9016 24.4672 35.0351 27.2739 34.4992C31.4496 33.7019 34.867 31.5431 38.7856 30.3188C42.4797 29.1646 46.5053 28.4185 50.3408 27.5982C59.8302 25.5689 68.5655 22.4789 78.447 21.3608C111.391 17.6332 144.046 13 177.361 13" stroke="#1A1A1A" stroke-width="3" stroke-linecap="round"/>
<path d="M72.2103 36.6296C67.3856 31.2688 65.5499 21.0742 63.5306 14.259C62.3903 10.4108 62.5463 6.0264 62.5463 2" stroke="#1A1A1A" stroke-width="3" stroke-linecap="round"/>
<path d="M479.171 72.8962C474.1 80.3179 464.764 85.751 460.73 87.5398C464.405 91.0747 465.651 98.1245 461.65 106.385C457.649 114.646 444.42 126.276 438.533 123.061C433.823 120.49 433.456 114.005 433.862 111.085C428.258 112.95 414.883 115.142 406.22 108.985C396.227 108.624 389.468 96.2718 401.625 86.6046C398.891 71.456 411.726 59.0848 418.485 54.7928C424.217 47.5617 436.387 32.3647 439.215 29.4249C442.75 25.7502 446.014 29.5706 448.722 40.4755C454.634 36.3663 463.132 34.9256 466.642 34.7189C469.295 33.2804 476.508 31.393 484.13 35.3508C491.752 39.3087 488.704 51.8601 486.227 57.6411C485.988 59.6338 484.243 65.4745 479.171 72.8962Z" fill="#FAFAFA"/>
<path d="M431.463 59.9036C432.037 60.4016 433.801 56.9353 434.512 56.4415C435.482 55.767 436.453 55.0924 437.423 54.4179C438.833 53.438 440.684 54.182 441.997 53.4781C443.14 52.8655 443.137 52.6304 444.098 51.5953C444.906 50.7238 448.93 47.5679 450.082 48.1076C452.131 49.0665 454.892 46.3073 456.475 45.207C458.456 43.8304 460.536 41.9961 463.03 43.3384C465.313 44.5675 467.229 42.0938 469.731 41.7166C472.57 41.2886 474.434 39.7512 477.49 40.4543C480.192 41.076 481.97 43.631 483.43 45.7308C484.79 47.6887 482.461 50.0749 481.016 51.414C479.997 52.3584 479.894 53.918 478.802 54.7688C478.417 55.0693 476.16 57.0402 477.956 57.1483C479.016 57.2122 477.929 60.9243 477.593 61.5309C476.956 62.6808 475.57 63.2824 474.87 64.4435C474.309 65.3742 472.935 66.0122 472.047 66.63C471.072 67.3076 469.551 67.0749 468.744 68.0546C468.237 68.6696 468.382 70.0947 467.926 70.8376C467.245 71.9463 466.458 72.9411 465.807 74.0021C464.431 76.2421 460.419 75.6568 460.03 78.1164C459.615 80.7427 457.685 82.8815 455.608 84.3249C453.721 85.6369 450.097 88.9456 447.674 87.152" stroke="#FF6B00" stroke-width="3" stroke-linecap="round"/>
<path d="M429.215 60.8519C429.586 59.5854 431.605 57.4447 432.649 56.6339C433.596 55.8979 433.761 54.5962 434.696 53.8373C436.69 52.2189 437.878 49.3269 439.158 47.1745C440.47 44.9674 441.492 43.0882 441.937 40.5618C442.091 39.6904 441.849 38.472 441.355 37.7612C440.515 36.5533 440.21 38.9672 439.877 39.7045C438.82 42.036 436.854 43.7955 435.387 45.674C432.976 48.7625 430.683 51.8728 428.357 55.0377C426.552 57.4932 424.746 60.1934 422.287 62.0039C420.655 63.2049 418.939 64.7708 417.457 66.175C415.577 67.9558 413.937 70.3809 411.925 71.9531C410.461 73.0974 408.988 75.281 408.594 77.1176C408.193 78.9858 407.88 80.8714 407.603 82.7419C407.358 84.3907 407.655 85.7124 407.603 87.321" stroke="#FF6B00" stroke-width="3" stroke-linecap="round"/>
<path d="M429.964 62.0379C426.04 64.7652 423.231 69.7149 420.481 73.58C419.461 75.0138 418.519 76.45 418.295 78.1503C418.024 80.204 418.576 80.7552 420.289 79.5645C423.087 77.6201 425.377 74.9928 427.613 72.4491C429.377 70.4419 431.736 68.9085 433.932 67.3822C435.272 66.4507 436.762 65.0145 438.359 64.5802C440.26 64.0632 442.48 64.2657 444.305 63.6729C446.426 62.9843 449.024 62.9259 451.259 62.5407C454.092 62.0525 457.055 61.5437 459.905 61.258C460.989 61.1492 461.986 60.9368 460.756 61.7915C459.38 62.7478 458.004 63.7041 456.628 64.6604C451.395 68.2978 446.071 71.5912 441.76 76.2441C438.696 79.5526 436.525 84.4838 432.778 87.0878C428.166 90.2934 424.577 95.3219 418.768 96.375" stroke="#FF6B00" stroke-width="3" stroke-linecap="round"/>
<path d="M432.997 89.0239C435.423 87.3382 437.399 87.4936 440.358 87.7336C443.081 87.9544 445.74 88.172 448.414 88.6603C451.22 89.1729 456.927 91.3198 457.256 94.691C457.491 97.103 455.744 100.252 455.015 102.524C454.415 104.396 453.178 106.688 451.956 108.251C449.646 111.207 446.997 113.668 443.828 115.7C442.768 116.38 441.539 115.676 440.73 114.928C439.887 114.15 441.015 113.154 441.555 112.43C443.7 109.548 445.518 106.249 447.241 103.077C448.181 101.346 445.993 99.1727 444.936 97.8279C443.339 95.7944 441.044 97.384 440.063 99.1898C438.405 102.241 436.649 103.137 433.599 104.382C429.219 106.17 424.332 105.934 419.755 106.329C418.378 106.447 415.889 105.154 414.709 104.435C413.011 103.401 410.357 100.805 409.887 98.7857C409.431 96.8282 407.794 95.2454 407.418 93.301C407.065 91.4798 406.98 89.6949 406.722 87.934" stroke="#FF6B00" stroke-width="3" stroke-linecap="round"/>
<path d="M406.062 92.1121C404.856 92.9507 402.789 93.8947 402.812 95.5729C402.829 96.8142 402.282 99.0698 403.12 100.139C403.404 100.502 406.048 100.255 406.579 100.24C407.435 100.215 409.157 100.342 408.863 99.3681" stroke="#FF6B00" stroke-width="3" stroke-linecap="round"/>
</svg>
