<svg width="21" height="13" viewBox="0 0 21 13" fill="none" xmlns="http://www.w3.org/2000/svg">
<path d="M1.52386 6.11471C1.52386 5.04777 2.38864 4.47545 3.18277 3.82191C3.84137 3.2799 4.27082 2.47651 5.01629 2.05822C5.47162 1.80272 5.88112 1.6496 6.33565 1.44092C7.13447 1.07419 8.3437 1 9.2072 1C10.9303 1 12.7067 1.0202 14.3488 1.61729C15.3144 1.96837 16.154 2.28768 16.7159 3.15563C17.3749 4.17351 17.9447 5.17509 18.7726 6.07552C19.2952 6.64396 19.4586 7.46091 19.8979 8.01558C20.4093 8.66119 18.8532 9.08088 18.4621 9.28936C18.0239 9.52295 17.7212 9.99307 17.2398 10.132C16.6073 10.3145 16.016 10.5633 15.3966 10.7885C14.0716 11.2703 12.5455 11.7829 11.1377 11.9251C10.331 12.0066 9.31759 12.0418 8.50872 11.9251C7.62586 11.7977 7.12859 11.0766 6.41326 10.6121C5.92274 10.2936 5.27357 9.85348 4.84167 9.46573C4.35692 9.03052 3.58684 8.82543 3.13426 8.36832C2.48539 7.71295 1.71615 6.77329 1 6.29108" stroke="#B9B9B9" stroke-linecap="round"/>
<path d="M8.79714 3.20313C7.69872 3.20313 7.21815 4.44692 7.07161 5.69311C6.96068 6.63646 6.84225 8.18889 7.85116 8.36399C9.42615 8.63733 11.4537 9.74422 12.7387 8.18309C13.1909 7.63372 14 6.79825 14 5.98042C14 5.21349 13.8942 4.01138 13.2818 3.5862C12.6244 3.12985 11.7552 3.01159 11.0044 3.01159C10.6387 3.01159 10.2658 2.98551 9.90078 3.01159C9.59468 3.03347 9.34433 3.39467 8.9548 3.39467" stroke="#B9B9B9" stroke-linecap="round"/>
</svg>
