<svg width="193" height="22" viewBox="0 0 193 22" fill="none" xmlns="http://www.w3.org/2000/svg">
<path d="M2.66992 2C6.94176 5.88348 11.7492 9.50816 15.8283 13.5872C17.5297 15.2886 19.9242 16.1611 21.671 17.9079" stroke="#1A1A1A" stroke-width="3" stroke-linecap="round"/>
<path d="M22.7686 2.32715C21.4891 2.46932 18.8682 4.21508 17.8833 5.00301C14.8044 7.46615 11.6596 9.99167 9.04562 12.9324C6.83601 15.4182 4.80072 18.1354 2 20.0026" stroke="#1A1A1A" stroke-width="3" stroke-linecap="round"/>
<path d="M26.6699 2C30.9418 5.88348 35.7492 9.50816 39.8283 13.5872C41.5297 15.2886 43.9242 16.1611 45.671 17.9079" stroke="#1A1A1A" stroke-width="3" stroke-linecap="round"/>
<path d="M46.7686 2.32715C45.4891 2.46932 42.8682 4.21508 41.8833 5.00301C38.8044 7.46615 35.6596 9.99167 33.0456 12.9324C30.836 15.4182 28.8007 18.1354 26 20.0026" stroke="#1A1A1A" stroke-width="3" stroke-linecap="round"/>
<path d="M50.6699 2C54.9418 5.88348 59.7492 9.50816 63.8283 13.5872C65.5297 15.2886 67.9242 16.1611 69.671 17.9079" stroke="#1A1A1A" stroke-width="3" stroke-linecap="round"/>
<path d="M70.7686 2.32715C69.4891 2.46932 66.8682 4.21508 65.8833 5.00301C62.8044 7.46615 59.6596 9.99167 57.0456 12.9324C54.836 15.4182 52.8007 18.1354 50 20.0026" stroke="#1A1A1A" stroke-width="3" stroke-linecap="round"/>
<path d="M74.6699 2C78.9418 5.88348 83.7492 9.50816 87.8283 13.5872C89.5297 15.2886 91.9242 16.1611 93.671 17.9079" stroke="#1A1A1A" stroke-width="3" stroke-linecap="round"/>
<path d="M94.7686 2.32715C93.4891 2.46932 90.8682 4.21508 89.8833 5.00301C86.8044 7.46615 83.6596 9.99167 81.0456 12.9324C78.836 15.4182 76.8007 18.1354 74 20.0026" stroke="#1A1A1A" stroke-width="3" stroke-linecap="round"/>
<path d="M98.6699 2C102.942 5.88348 107.749 9.50816 111.828 13.5872C113.53 15.2886 115.924 16.1611 117.671 17.9079" stroke="#1A1A1A" stroke-width="3" stroke-linecap="round"/>
<path d="M118.769 2.32715C117.489 2.46932 114.868 4.21508 113.883 5.00301C110.804 7.46615 107.66 9.99167 105.046 12.9324C102.836 15.4182 100.801 18.1354 98 20.0026" stroke="#1A1A1A" stroke-width="3" stroke-linecap="round"/>
<path d="M122.67 2C126.942 5.88348 131.749 9.50816 135.828 13.5872C137.53 15.2886 139.924 16.1611 141.671 17.9079" stroke="#1A1A1A" stroke-width="3" stroke-linecap="round"/>
<path d="M142.769 2.32715C141.489 2.46932 138.868 4.21508 137.883 5.00301C134.804 7.46615 131.66 9.99167 129.046 12.9324C126.836 15.4182 124.801 18.1354 122 20.0026" stroke="#1A1A1A" stroke-width="3" stroke-linecap="round"/>
<path d="M146.67 2C150.942 5.88348 155.749 9.50816 159.828 13.5872C161.53 15.2886 163.924 16.1611 165.671 17.9079" stroke="#1A1A1A" stroke-width="3" stroke-linecap="round"/>
<path d="M166.769 2.32715C165.489 2.46932 162.868 4.21508 161.883 5.00301C158.804 7.46615 155.66 9.99167 153.046 12.9324C150.836 15.4182 148.801 18.1354 146 20.0026" stroke="#1A1A1A" stroke-width="3" stroke-linecap="round"/>
<path d="M170.67 2C174.942 5.88348 179.749 9.50816 183.828 13.5872C185.53 15.2886 187.924 16.1611 189.671 17.9079" stroke="#1A1A1A" stroke-width="3" stroke-linecap="round"/>
<path d="M190.769 2.32715C189.489 2.46932 186.868 4.21508 185.883 5.00301C182.804 7.46615 179.66 9.99167 177.046 12.9324C174.836 15.4182 172.801 18.1354 170 20.0026" stroke="#1A1A1A" stroke-width="3" stroke-linecap="round"/>
</svg>
