<svg width="193" height="22" viewBox="0 0 193 22" fill="none" xmlns="http://www.w3.org/2000/svg">
<g id="Group 3078">
<g id="Group 3067">
<path id="Vector 10313" d="M2.67041 2C6.94224 5.88348 11.7497 9.50816 15.8288 13.5872C17.5302 15.2886 19.9247 16.1611 21.6715 17.9079" stroke="#6736D0" stroke-width="3" stroke-linecap="round"/>
<path id="Vector 10314" d="M22.7686 2.32715C21.4891 2.46932 18.8682 4.21508 17.8833 5.00301C14.8044 7.46615 11.6596 9.99167 9.04562 12.9324C6.83601 15.4182 4.80072 18.1354 2 20.0026" stroke="#6736D0" stroke-width="3" stroke-linecap="round"/>
</g>
<g id="Group 3068">
<path id="Vector 10313_2" d="M26.6704 2C30.9422 5.88348 35.7497 9.50816 39.8288 13.5872C41.5302 15.2886 43.9247 16.1611 45.6715 17.9079" stroke="#6736D0" stroke-width="3" stroke-linecap="round"/>
<path id="Vector 10314_2" d="M46.7686 2.32715C45.4891 2.46932 42.8682 4.21508 41.8833 5.00301C38.8044 7.46615 35.6596 9.99167 33.0456 12.9324C30.836 15.4182 28.8007 18.1354 26 20.0026" stroke="#6736D0" stroke-width="3" stroke-linecap="round"/>
</g>
<g id="Group 3069">
<path id="Vector 10313_3" d="M50.6704 2C54.9422 5.88348 59.7497 9.50816 63.8288 13.5872C65.5302 15.2886 67.9247 16.1611 69.6715 17.9079" stroke="#6736D0" stroke-width="3" stroke-linecap="round"/>
<path id="Vector 10314_3" d="M70.7686 2.32715C69.4891 2.46932 66.8682 4.21508 65.8833 5.00301C62.8044 7.46615 59.6596 9.99167 57.0456 12.9324C54.836 15.4182 52.8007 18.1354 50 20.0026" stroke="#6736D0" stroke-width="3" stroke-linecap="round"/>
</g>
<g id="Group 3070">
<path id="Vector 10313_4" d="M74.6704 2C78.9422 5.88348 83.7497 9.50816 87.8288 13.5872C89.5302 15.2886 91.9247 16.1611 93.6715 17.9079" stroke="#6736D0" stroke-width="3" stroke-linecap="round"/>
<path id="Vector 10314_4" d="M94.7686 2.32715C93.4891 2.46932 90.8682 4.21508 89.8833 5.00301C86.8044 7.46615 83.6596 9.99167 81.0456 12.9324C78.836 15.4182 76.8007 18.1354 74 20.0026" stroke="#6736D0" stroke-width="3" stroke-linecap="round"/>
</g>
<g id="Group 3071">
<path id="Vector 10313_5" d="M98.6704 2C102.942 5.88348 107.75 9.50816 111.829 13.5872C113.53 15.2886 115.925 16.1611 117.671 17.9079" stroke="#6736D0" stroke-width="3" stroke-linecap="round"/>
<path id="Vector 10314_5" d="M118.769 2.32715C117.489 2.46932 114.868 4.21508 113.883 5.00301C110.804 7.46615 107.66 9.99167 105.046 12.9324C102.836 15.4182 100.801 18.1354 98 20.0026" stroke="#6736D0" stroke-width="3" stroke-linecap="round"/>
</g>
<g id="Group 3072">
<path id="Vector 10313_6" d="M122.67 2C126.942 5.88348 131.75 9.50816 135.829 13.5872C137.53 15.2886 139.925 16.1611 141.671 17.9079" stroke="#6736D0" stroke-width="3" stroke-linecap="round"/>
<path id="Vector 10314_6" d="M142.769 2.32715C141.489 2.46932 138.868 4.21508 137.883 5.00301C134.804 7.46615 131.66 9.99167 129.046 12.9324C126.836 15.4182 124.801 18.1354 122 20.0026" stroke="#6736D0" stroke-width="3" stroke-linecap="round"/>
</g>
<g id="Group 3073">
<path id="Vector 10313_7" d="M146.67 2C150.942 5.88348 155.75 9.50816 159.829 13.5872C161.53 15.2886 163.925 16.1611 165.671 17.9079" stroke="#6736D0" stroke-width="3" stroke-linecap="round"/>
<path id="Vector 10314_7" d="M166.769 2.32715C165.489 2.46932 162.868 4.21508 161.883 5.00301C158.804 7.46615 155.66 9.99167 153.046 12.9324C150.836 15.4182 148.801 18.1354 146 20.0026" stroke="#6736D0" stroke-width="3" stroke-linecap="round"/>
</g>
<g id="Group 3074">
<path id="Vector 10313_8" d="M170.67 2C174.942 5.88348 179.75 9.50816 183.829 13.5872C185.53 15.2886 187.925 16.1611 189.671 17.9079" stroke="#6736D0" stroke-width="3" stroke-linecap="round"/>
<path id="Vector 10314_8" d="M190.769 2.32715C189.489 2.46932 186.868 4.21508 185.883 5.00301C182.804 7.46615 179.66 9.99167 177.046 12.9324C174.836 15.4182 172.801 18.1354 170 20.0026" stroke="#6736D0" stroke-width="3" stroke-linecap="round"/>
</g>
</g>
</svg>
