<svg width="116" height="17" viewBox="0 0 116 17" fill="none" xmlns="http://www.w3.org/2000/svg">
<g id="Group 3075">
<g id="Group 3067">
<path id="Vector 10313" d="M1.54297 1C5.00247 4.145 8.89575 7.0804 12.1991 10.3838C13.577 11.7616 15.5162 12.4682 16.9308 13.8828" stroke="#FF6B00" stroke-width="2" stroke-linecap="round"/>
<path id="Vector 10314" d="M17.8193 1.26489C16.783 1.38003 14.6606 2.79382 13.863 3.43191C11.3695 5.42666 8.82273 7.47193 6.70582 9.85345C4.91639 11.8666 3.26813 14.0671 1 15.5792" stroke="#FF6B00" stroke-width="2" stroke-linecap="round"/>
</g>
<g id="Group 3068">
<path id="Vector 10313_2" d="M20.9787 1C24.4382 4.145 28.3315 7.0804 31.6349 10.3838C33.0127 11.7616 34.9519 12.4682 36.3666 13.8828" stroke="#FF6B00" stroke-width="2" stroke-linecap="round"/>
<path id="Vector 10314_2" d="M37.255 1.26489C36.2188 1.38003 34.0963 2.79382 33.2987 3.43191C30.8053 5.42666 28.2585 7.47193 26.1416 9.85345C24.3522 11.8666 22.7039 14.0671 20.4358 15.5792" stroke="#FF6B00" stroke-width="2" stroke-linecap="round"/>
</g>
<g id="Group 3069">
<path id="Vector 10313_3" d="M40.4151 1C43.8746 4.145 47.7679 7.0804 51.0712 10.3838C52.4491 11.7616 54.3883 12.4682 55.8029 13.8828" stroke="#FF6B00" stroke-width="2" stroke-linecap="round"/>
<path id="Vector 10314_3" d="M56.6918 1.26489C55.6556 1.38003 53.5331 2.79382 52.7355 3.43191C50.242 5.42666 47.6953 7.47193 45.5784 9.85345C43.7889 11.8666 42.1407 14.0671 39.8725 15.5792" stroke="#FF6B00" stroke-width="2" stroke-linecap="round"/>
</g>
<g id="Group 3070">
<path id="Vector 10313_4" d="M59.8504 1C63.3099 4.145 67.2032 7.0804 70.5066 10.3838C71.8845 11.7616 73.8236 12.4682 75.2383 13.8828" stroke="#FF6B00" stroke-width="2" stroke-linecap="round"/>
<path id="Vector 10314_4" d="M76.1275 1.26489C75.0913 1.38003 72.9689 2.79382 72.1712 3.43191C69.6778 5.42666 67.131 7.47193 65.0141 9.85345C63.2247 11.8666 61.5764 14.0671 59.3083 15.5792" stroke="#FF6B00" stroke-width="2" stroke-linecap="round"/>
</g>
<g id="Group 3071">
<path id="Vector 10313_5" d="M79.288 1C82.7475 4.145 86.6408 7.0804 89.9442 10.3838C91.322 11.7616 93.2612 12.4682 94.6759 13.8828" stroke="#FF6B00" stroke-width="2" stroke-linecap="round"/>
<path id="Vector 10314_5" d="M95.5643 1.26489C94.5281 1.38003 92.4056 2.79382 91.608 3.43191C89.1146 5.42666 86.5678 7.47193 84.4509 9.85345C82.6614 11.8666 81.0132 14.0671 78.7451 15.5792" stroke="#FF6B00" stroke-width="2" stroke-linecap="round"/>
</g>
<g id="Group 3072">
<path id="Vector 10313_6" d="M98.7237 1C102.183 4.145 106.076 7.0804 109.38 10.3838C110.758 11.7616 112.697 12.4682 114.112 13.8828" stroke="#FF6B00" stroke-width="2" stroke-linecap="round"/>
<path id="Vector 10314_6" d="M115 1.26489C113.964 1.38003 111.841 2.79382 111.044 3.43191C108.55 5.42666 106.004 7.47193 103.887 9.85345C102.097 11.8666 100.449 14.0671 98.1808 15.5792" stroke="#FF6B00" stroke-width="2" stroke-linecap="round"/>
</g>
</g>
</svg>
