<svg width="116" height="17" viewBox="0 0 116 17" fill="none" xmlns="http://www.w3.org/2000/svg">
<path d="M1.54297 1C5.00247 4.145 8.89575 7.0804 12.1991 10.3838C13.577 11.7616 15.5162 12.4682 16.9308 13.8828" stroke="#C7B4FF" stroke-width="2" stroke-linecap="round"/>
<path d="M17.8193 1.26489C16.783 1.38003 14.6606 2.79382 13.863 3.43191C11.3695 5.42666 8.82273 7.47193 6.70582 9.85345C4.91639 11.8666 3.26813 14.0671 1 15.5792" stroke="#C7B4FF" stroke-width="2" stroke-linecap="round"/>
<path d="M20.9785 1C24.438 4.145 28.3313 7.0804 31.6347 10.3838C33.0125 11.7616 34.9517 12.4682 36.3663 13.8828" stroke="#C7B4FF" stroke-width="2" stroke-linecap="round"/>
<path d="M37.2548 1.26489C36.2186 1.38003 34.0961 2.79382 33.2985 3.43191C30.8051 5.42666 28.2583 7.47193 26.1414 9.85345C24.3519 11.8666 22.7037 14.0671 20.4355 15.5792" stroke="#C7B4FF" stroke-width="2" stroke-linecap="round"/>
<path d="M40.416 1C43.8755 4.145 47.7688 7.0804 51.0722 10.3838C52.45 11.7616 54.3892 12.4682 55.8038 13.8828" stroke="#C7B4FF" stroke-width="2" stroke-linecap="round"/>
<path d="M56.6923 1.26489C55.6561 1.38003 53.5336 2.79382 52.736 3.43191C50.2426 5.42666 47.6958 7.47193 45.5789 9.85345C43.7894 11.8666 42.1412 14.0671 39.873 15.5792" stroke="#C7B4FF" stroke-width="2" stroke-linecap="round"/>
<path d="M59.8516 1C63.3111 4.145 67.2043 7.0804 70.5077 10.3838C71.8856 11.7616 73.8248 12.4682 75.2394 13.8828" stroke="#C7B4FF" stroke-width="2" stroke-linecap="round"/>
<path d="M76.1278 1.26489C75.0916 1.38003 72.9692 2.79382 72.1715 3.43191C69.6781 5.42666 67.1313 7.47193 65.0144 9.85345C63.225 11.8666 61.5767 14.0671 59.3086 15.5792" stroke="#C7B4FF" stroke-width="2" stroke-linecap="round"/>
<path d="M79.2871 1C82.7466 4.145 86.6399 7.0804 89.9433 10.3838C91.3211 11.7616 93.2603 12.4682 94.6749 13.8828" stroke="#C7B4FF" stroke-width="2" stroke-linecap="round"/>
<path d="M95.5634 1.26489C94.5272 1.38003 92.4047 2.79382 91.6071 3.43191C89.1137 5.42666 86.5669 7.47193 84.45 9.85345C82.6605 11.8666 81.0123 14.0671 78.7441 15.5792" stroke="#C7B4FF" stroke-width="2" stroke-linecap="round"/>
<path d="M98.7246 1C102.184 4.145 106.077 7.0804 109.381 10.3838C110.759 11.7616 112.698 12.4682 114.112 13.8828" stroke="#C7B4FF" stroke-width="2" stroke-linecap="round"/>
<path d="M115.001 1.26489C113.965 1.38003 111.842 2.79382 111.045 3.43191C108.551 5.42666 106.004 7.47193 103.887 9.85345C102.098 11.8666 100.45 14.0671 98.1816 15.5792" stroke="#C7B4FF" stroke-width="2" stroke-linecap="round"/>
</svg>
